%TF.GenerationSoftware,KiCad,Pcbnew,10.0.5*%
%TF.CreationDate,2026-09-28T16:44:56+09:00*%
%TF.ProjectId,gba_dumper,6762615f-6475-46d7-9065-722e6b696361,rev?*%
%TF.SameCoordinates,Original*%
%TF.FileFunction,Copper,L4,Bot*%
%TF.FilePolarity,Positive*%
%FSLAX46Y46*%
G04 Gerber Fmt 4.6, Leading zero omitted, Abs format (unit mm)*
G04 Created by KiCad (PCBNEW 10.0.5) date 2026-09-28 16:44:56*
%MOMM*%
%LPD*%
G01*
G04 APERTURE LIST*
%TA.AperFunction,WasherPad*%
%ADD10O,2.000000X5.000000*%
%TD*%
%TA.AperFunction,ComponentPad*%
%ADD11R,1.400000X1.400000*%
%TD*%
%TA.AperFunction,ComponentPad*%
%ADD12C,1.600000*%
%TD*%
%TA.AperFunction,ComponentPad*%
%ADD13R,1.700000X1.700000*%
%TD*%
%TA.AperFunction,ComponentPad*%
%ADD14C,1.700000*%
%TD*%
%TA.AperFunction,ViaPad*%
%ADD15C,0.600000*%
%TD*%
%TA.AperFunction,Conductor*%
%ADD16C,0.800000*%
%TD*%
%TA.AperFunction,Conductor*%
%ADD17C,0.250000*%
%TD*%
G04 APERTURE END LIST*
D10*
%TO.P,J3,*%
%TO.N,*%
X12800000Y-25600000D03*
X82700000Y-25600000D03*
D11*
%TO.P,J3,1*%
%TO.N,/CART_3V3*%
X28000000Y-27000000D03*
D12*
%TO.P,J3,2*%
%TO.N,/CART_PHI*%
X29500000Y-25500000D03*
%TO.P,J3,3*%
%TO.N,/CART_nWR*%
X31000000Y-27000000D03*
%TO.P,J3,4*%
%TO.N,/CART_nRD*%
X32500000Y-25500000D03*
%TO.P,J3,5*%
%TO.N,/CART_nCS*%
X34000000Y-27000000D03*
%TO.P,J3,6*%
%TO.N,/CART_AD0*%
X35500000Y-25500000D03*
%TO.P,J3,7*%
%TO.N,/CART_AD1*%
X37000000Y-27000000D03*
%TO.P,J3,8*%
%TO.N,/CART_AD2*%
X38500000Y-25500000D03*
%TO.P,J3,9*%
%TO.N,/CART_AD3*%
X40000000Y-27000000D03*
%TO.P,J3,10*%
%TO.N,/CART_AD4*%
X41500000Y-25500000D03*
%TO.P,J3,11*%
%TO.N,/CART_AD5*%
X43000000Y-27000000D03*
%TO.P,J3,12*%
%TO.N,/CART_AD6*%
X44500000Y-25500000D03*
%TO.P,J3,13*%
%TO.N,/CART_AD7*%
X46000000Y-27000000D03*
%TO.P,J3,14*%
%TO.N,/CART_AD8*%
X47500000Y-25500000D03*
%TO.P,J3,15*%
%TO.N,/CART_AD9*%
X49000000Y-27000000D03*
%TO.P,J3,16*%
%TO.N,/CART_AD10*%
X50500000Y-25500000D03*
%TO.P,J3,17*%
%TO.N,/CART_AD11*%
X52000000Y-27000000D03*
%TO.P,J3,18*%
%TO.N,/CART_AD12*%
X53500000Y-25500000D03*
%TO.P,J3,19*%
%TO.N,/CART_AD13*%
X55000000Y-27000000D03*
%TO.P,J3,20*%
%TO.N,/CART_AD14*%
X56500000Y-25500000D03*
%TO.P,J3,21*%
%TO.N,/CART_AD15*%
X58000000Y-27000000D03*
%TO.P,J3,22*%
%TO.N,/CART_A16_D0*%
X59500000Y-25500000D03*
%TO.P,J3,23*%
%TO.N,/CART_A17_D1*%
X61000000Y-27000000D03*
%TO.P,J3,24*%
%TO.N,/CART_A18_D2*%
X62500000Y-25500000D03*
%TO.P,J3,25*%
%TO.N,/CART_A19_D3*%
X64000000Y-27000000D03*
%TO.P,J3,26*%
%TO.N,/CART_A20_D4*%
X65500000Y-25500000D03*
%TO.P,J3,27*%
%TO.N,/CART_A21_D5*%
X67000000Y-27000000D03*
%TO.P,J3,28*%
%TO.N,/CART_A22_D6*%
X68500000Y-25500000D03*
%TO.P,J3,29*%
%TO.N,/CART_A23_D7*%
X70000000Y-27000000D03*
%TO.P,J3,30*%
%TO.N,/CART_nCS2*%
X71500000Y-25500000D03*
%TO.P,J3,31*%
%TO.N,/CART_nREQ*%
X73000000Y-27000000D03*
%TO.P,J3,32*%
%TO.N,/GND*%
X74500000Y-24000000D03*
%TD*%
D13*
%TO.P,JP1,1*%
%TO.N,/WR_LINK*%
X32000000Y-72000000D03*
D14*
%TO.P,JP1,2*%
%TO.N,/CART_nWR*%
X32000000Y-74540000D03*
%TD*%
D13*
%TO.P,J1,1*%
%TO.N,/BOARD_3V3*%
X57000000Y-44500000D03*
D14*
%TO.P,J1,2*%
X57000000Y-47040000D03*
%TO.P,J1,3*%
%TO.N,unconnected-(J1-EN-Pad3)*%
X57000000Y-49580000D03*
%TO.P,J1,4*%
%TO.N,/MCU_AD0*%
X57000000Y-52120000D03*
%TO.P,J1,5*%
%TO.N,/MCU_AD1*%
X57000000Y-54660000D03*
%TO.P,J1,6*%
%TO.N,/MCU_AD2*%
X57000000Y-57200000D03*
%TO.P,J1,7*%
%TO.N,/MCU_AD3*%
X57000000Y-59740000D03*
%TO.P,J1,8*%
%TO.N,/MCU_AD11*%
X57000000Y-62280000D03*
%TO.P,J1,9*%
%TO.N,/MCU_AD12*%
X57000000Y-64820000D03*
%TO.P,J1,10*%
%TO.N,/MCU_AD13*%
X57000000Y-67360000D03*
%TO.P,J1,11*%
%TO.N,/MCU_AD14*%
X57000000Y-69900000D03*
%TO.P,J1,12*%
%TO.N,/MCU_AD4*%
X57000000Y-72440000D03*
%TO.P,J1,13*%
%TO.N,/MCU_nCS2*%
X57000000Y-74980000D03*
%TO.P,J1,14*%
%TO.N,unconnected-(J1-GPIO46-Pad14)*%
X57000000Y-77520000D03*
%TO.P,J1,15*%
%TO.N,/MCU_AD5*%
X57000000Y-80060000D03*
%TO.P,J1,16*%
%TO.N,/MCU_AD6*%
X57000000Y-82600000D03*
%TO.P,J1,17*%
%TO.N,/MCU_AD7*%
X57000000Y-85140000D03*
%TO.P,J1,18*%
%TO.N,/MCU_AD8*%
X57000000Y-87680000D03*
%TO.P,J1,19*%
%TO.N,/MCU_AD9*%
X57000000Y-90220000D03*
%TO.P,J1,20*%
%TO.N,/MCU_AD10*%
X57000000Y-92760000D03*
%TO.P,J1,21*%
%TO.N,unconnected-(J1-5V-Pad21)*%
X57000000Y-95300000D03*
%TO.P,J1,22*%
%TO.N,/GND*%
X57000000Y-97840000D03*
%TD*%
D13*
%TO.P,J2,1*%
%TO.N,/GND*%
X84940000Y-44500000D03*
D14*
%TO.P,J2,2*%
%TO.N,unconnected-(J2-GPIO43-Pad2)*%
X84940000Y-47040000D03*
%TO.P,J2,3*%
%TO.N,unconnected-(J2-GPIO44-Pad3)*%
X84940000Y-49580000D03*
%TO.P,J2,4*%
%TO.N,/MCU_A16_D0*%
X84940000Y-52120000D03*
%TO.P,J2,5*%
%TO.N,/MCU_nRD*%
X84940000Y-54660000D03*
%TO.P,J2,6*%
%TO.N,/MCU_A23_D7*%
X84940000Y-57200000D03*
%TO.P,J2,7*%
%TO.N,/MCU_A22_D6*%
X84940000Y-59740000D03*
%TO.P,J2,8*%
%TO.N,/MCU_A21_D5*%
X84940000Y-62280000D03*
%TO.P,J2,9*%
%TO.N,/MCU_A20_D4*%
X84940000Y-64820000D03*
%TO.P,J2,10*%
%TO.N,/MCU_A19_D3*%
X84940000Y-67360000D03*
%TO.P,J2,11*%
%TO.N,/MCU_nWR*%
X84940000Y-69900000D03*
%TO.P,J2,12*%
%TO.N,/MCU_A18_D2*%
X84940000Y-72440000D03*
%TO.P,J2,13*%
%TO.N,/MCU_A17_D1*%
X84940000Y-74980000D03*
%TO.P,J2,14*%
%TO.N,unconnected-(J2-GPIO0-Pad14)*%
X84940000Y-77520000D03*
%TO.P,J2,15*%
%TO.N,unconnected-(J2-GPIO45-Pad15)*%
X84940000Y-80060000D03*
%TO.P,J2,16*%
%TO.N,unconnected-(J2-GPIO48-Pad16)*%
X84940000Y-82600000D03*
%TO.P,J2,17*%
%TO.N,/MCU_nCS*%
X84940000Y-85140000D03*
%TO.P,J2,18*%
%TO.N,/MCU_AD15*%
X84940000Y-87680000D03*
%TO.P,J2,19*%
%TO.N,unconnected-(J2-GPIO20-Pad19)*%
X84940000Y-90220000D03*
%TO.P,J2,20*%
%TO.N,unconnected-(J2-GPIO19-Pad20)*%
X84940000Y-92760000D03*
%TO.P,J2,21*%
%TO.N,/GND*%
X84940000Y-95300000D03*
%TO.P,J2,22*%
X84940000Y-97840000D03*
%TD*%
D13*
%TO.P,JP2,1*%
%TO.N,/BOARD_3V3*%
X13000000Y-38000000D03*
D14*
%TO.P,JP2,2*%
%TO.N,/CART_3V3*%
X13000000Y-40540000D03*
%TD*%
D15*
%TO.N,/CART_3V3*%
X18158000Y-79070500D03*
%TO.N,/GND*%
X7000000Y-50000000D03*
X28950000Y-35000000D03*
X22950000Y-35000000D03*
X37912500Y-35000000D03*
%TO.N,/MCU_nWR*%
X30495500Y-69504500D03*
%TO.N,/CART_nRD*%
X30844600Y-60314100D03*
%TO.N,/CART_AD7*%
X46141100Y-66991300D03*
%TO.N,/CART_PHI*%
X29679200Y-27853500D03*
%TO.N,/CART_nWR*%
X10214900Y-72102500D03*
%TO.N,/CART_nCS*%
X20877700Y-78767900D03*
X33791700Y-57367000D03*
%TO.N,/CART_AD0*%
X36934000Y-45934000D03*
%TO.N,/CART_AD1*%
X46232200Y-48901500D03*
X46723200Y-33518500D03*
%TO.N,/CART_AD2*%
X46007300Y-52094800D03*
X47186500Y-31431700D03*
%TO.N,/CART_AD3*%
X45988900Y-29321000D03*
X46024000Y-55111500D03*
%TO.N,/CART_AD4*%
X45605400Y-30115600D03*
X46022600Y-58110100D03*
%TO.N,/CART_AD5*%
X46016900Y-61104400D03*
X45519900Y-28633200D03*
%TO.N,/CART_AD6*%
X46010500Y-65902000D03*
%TO.N,/CART_AD8*%
X47752400Y-70058300D03*
%TO.N,/CART_AD9*%
X47621900Y-72910400D03*
%TO.N,/CART_AD10*%
X47811200Y-76101300D03*
%TO.N,/CART_AD11*%
X47947400Y-79154900D03*
%TO.N,/CART_AD12*%
X47812100Y-82100400D03*
%TO.N,/CART_AD13*%
X47684400Y-84664700D03*
%TO.N,/CART_AD14*%
X47824600Y-88087900D03*
%TO.N,/CART_AD15*%
X42633000Y-90931500D03*
%TO.N,/CART_A17_D1*%
X91699400Y-50816800D03*
%TO.N,/CART_A18_D2*%
X91354600Y-57086600D03*
%TO.N,/CART_A19_D3*%
X94020600Y-60108100D03*
%TO.N,/CART_A20_D4*%
X94006300Y-64093800D03*
%TO.N,/CART_A21_D5*%
X84560100Y-33122500D03*
X94061400Y-68069100D03*
%TO.N,/CART_A22_D6*%
X94011400Y-72098900D03*
%TO.N,/CART_A23_D7*%
X94000000Y-78027700D03*
%TO.N,/CART_nCS2*%
X21943700Y-73622800D03*
X26962000Y-36737300D03*
%TO.N,/MCU_AD13*%
X45978100Y-85111000D03*
%TO.N,/MCU_A20_D4*%
X90902900Y-65180400D03*
%TO.N,/MCU_AD11*%
X44060100Y-80000000D03*
X50414500Y-80129500D03*
%TO.N,/MCU_AD12*%
X52845000Y-64820000D03*
X45978100Y-82109400D03*
%TO.N,/MCU_AD14*%
X46000000Y-88087500D03*
%TO.N,/MCU_AD4*%
X45985400Y-59897900D03*
X48056500Y-71589500D03*
%TO.N,/MCU_AD5*%
X48574100Y-77631200D03*
X45988300Y-62900800D03*
%TO.N,/MCU_AD6*%
X44000000Y-76250000D03*
X44295800Y-66862000D03*
%TO.N,/MCU_AD8*%
X45892000Y-71972300D03*
%TO.N,/MCU_AD10*%
X44187100Y-77900400D03*
%TO.N,/MCU_A23_D7*%
X92173300Y-76085800D03*
%TO.N,/MCU_A17_D1*%
X91695900Y-53899200D03*
%TO.N,/MCU_A18_D2*%
X91354600Y-57899400D03*
%TO.N,/MCU_nCS*%
X18940800Y-63750300D03*
%TO.N,/MCU_A22_D6*%
X92043000Y-73000000D03*
%TD*%
%TO.N,/GND*%
D16*
X37912500Y-35000000D02*
X28950000Y-35000000D01*
X28950000Y-35000000D02*
X22950000Y-35000000D01*
%TO.N,/MCU_nWR*%
D17*
X35359500Y-69504500D02*
X30495500Y-69504500D01*
X48316100Y-70962800D02*
X36817800Y-70962800D01*
X84940000Y-69900000D02*
X83726300Y-71113700D01*
X48467000Y-71113700D02*
X48316100Y-70962800D01*
X83726300Y-71113700D02*
X48467000Y-71113700D01*
X36817800Y-70962800D02*
X35359500Y-69504500D01*
%TO.N,/CART_nWR*%
X32000000Y-74540000D02*
X12652400Y-74540000D01*
X12652400Y-74540000D02*
X10214900Y-72102500D01*
%TO.N,/CART_AD2*%
X38500000Y-27140700D02*
X42791000Y-31431700D01*
X38500000Y-25500000D02*
X38500000Y-27140700D01*
X42791000Y-31431700D02*
X47186500Y-31431700D01*
%TO.N,/CART_AD4*%
X41500000Y-25500000D02*
X41500000Y-27125900D01*
X41500000Y-27125900D02*
X44489700Y-30115600D01*
X44489700Y-30115600D02*
X45605400Y-30115600D01*
%TO.N,/CART_nCS2*%
X66803400Y-31837300D02*
X58200700Y-31837300D01*
X71500000Y-27140700D02*
X66803400Y-31837300D01*
X53300700Y-36737300D02*
X26962000Y-36737300D01*
X71500000Y-25500000D02*
X71500000Y-27140700D01*
X58200700Y-31837300D02*
X53300700Y-36737300D01*
%TO.N,/MCU_A20_D4*%
X84940000Y-64820000D02*
X90542500Y-64820000D01*
X90542500Y-64820000D02*
X90902900Y-65180400D01*
%TO.N,/BOARD_3V3*%
D16*
X20951700Y-44500000D02*
X14451700Y-38000000D01*
X13000000Y-38000000D02*
X14451700Y-38000000D01*
X57000000Y-44500000D02*
X20951700Y-44500000D01*
%TO.N,/MCU_AD11*%
D17*
X44060100Y-80000000D02*
X50285000Y-80000000D01*
X50285000Y-80000000D02*
X50414500Y-80129500D01*
%TO.N,/MCU_AD12*%
X57000000Y-64820000D02*
X52845000Y-64820000D01*
%TO.N,/MCU_AD4*%
X57000000Y-72440000D02*
X48907000Y-72440000D01*
X48907000Y-72440000D02*
X48056500Y-71589500D01*
%TO.N,/MCU_AD6*%
X50900000Y-79400000D02*
X57000000Y-82600000D01*
X44000000Y-76250000D02*
X49700000Y-79250000D01*
X49700000Y-79250000D02*
X50900000Y-79400000D01*
%TO.N,/MCU_AD10*%
X57000000Y-92760000D02*
X54862500Y-92760000D01*
X43409500Y-81307000D02*
X43409500Y-78678000D01*
X54862500Y-92760000D02*
X43409500Y-81307000D01*
X43409500Y-78678000D02*
X44187100Y-77900400D01*
%TO.N,/MCU_nCS*%
X18940800Y-63750300D02*
X25791100Y-70600600D01*
X25791100Y-70600600D02*
X32930100Y-70600600D01*
X32930100Y-70600600D02*
X37759700Y-75430200D01*
X56553500Y-76250000D02*
X76050000Y-76250000D01*
X37759700Y-75430200D02*
X55733700Y-75430200D01*
X55733700Y-75430200D02*
X56553500Y-76250000D01*
X76050000Y-76250000D02*
X84940000Y-85140000D01*
%TD*%
M02*
