%TF.GenerationSoftware,KiCad,Pcbnew,10.0.5*%
%TF.CreationDate,2026-09-28T16:44:56+09:00*%
%TF.ProjectId,gba_dumper,6762615f-6475-46d7-9065-722e6b696361,rev?*%
%TF.SameCoordinates,Original*%
%TF.FileFunction,Paste,Top*%
%TF.FilePolarity,Positive*%
%FSLAX46Y46*%
G04 Gerber Fmt 4.6, Leading zero omitted, Abs format (unit mm)*
G04 Created by KiCad (PCBNEW 10.0.5) date 2026-09-28 16:44:56*
%MOMM*%
%LPD*%
G01*
G04 APERTURE LIST*
G04 APERTURE END LIST*
%TO.C,R17*%
G36*
G01*
X92575000Y-49450000D02*
X92575000Y-48550000D01*
G75*
G02*
X92825000Y-48300000I250000J0D01*
G01*
X93350000Y-48300000D01*
G75*
G02*
X93600000Y-48550000I0J-250000D01*
G01*
X93600000Y-49450000D01*
G75*
G02*
X93350000Y-49700000I-250000J0D01*
G01*
X92825000Y-49700000D01*
G75*
G02*
X92575000Y-49450000I0J250000D01*
G01*
G37*
G36*
G01*
X94400000Y-49450000D02*
X94400000Y-48550000D01*
G75*
G02*
X94650000Y-48300000I250000J0D01*
G01*
X95175000Y-48300000D01*
G75*
G02*
X95425000Y-48550000I0J-250000D01*
G01*
X95425000Y-49450000D01*
G75*
G02*
X95175000Y-49700000I-250000J0D01*
G01*
X94650000Y-49700000D01*
G75*
G02*
X94400000Y-49450000I0J250000D01*
G01*
G37*
%TD*%
%TO.C,C1*%
G36*
G01*
X20550000Y-33475000D02*
X20550000Y-32525000D01*
G75*
G02*
X20800000Y-32275000I250000J0D01*
G01*
X21300000Y-32275000D01*
G75*
G02*
X21550000Y-32525000I0J-250000D01*
G01*
X21550000Y-33475000D01*
G75*
G02*
X21300000Y-33725000I-250000J0D01*
G01*
X20800000Y-33725000D01*
G75*
G02*
X20550000Y-33475000I0J250000D01*
G01*
G37*
G36*
G01*
X22450000Y-33475000D02*
X22450000Y-32525000D01*
G75*
G02*
X22700000Y-32275000I250000J0D01*
G01*
X23200000Y-32275000D01*
G75*
G02*
X23450000Y-32525000I0J-250000D01*
G01*
X23450000Y-33475000D01*
G75*
G02*
X23200000Y-33725000I-250000J0D01*
G01*
X22700000Y-33725000D01*
G75*
G02*
X22450000Y-33475000I0J250000D01*
G01*
G37*
%TD*%
%TO.C,R27*%
G36*
G01*
X18575000Y-70450000D02*
X18575000Y-69550000D01*
G75*
G02*
X18825000Y-69300000I250000J0D01*
G01*
X19350000Y-69300000D01*
G75*
G02*
X19600000Y-69550000I0J-250000D01*
G01*
X19600000Y-70450000D01*
G75*
G02*
X19350000Y-70700000I-250000J0D01*
G01*
X18825000Y-70700000D01*
G75*
G02*
X18575000Y-70450000I0J250000D01*
G01*
G37*
G36*
G01*
X20400000Y-70450000D02*
X20400000Y-69550000D01*
G75*
G02*
X20650000Y-69300000I250000J0D01*
G01*
X21175000Y-69300000D01*
G75*
G02*
X21425000Y-69550000I0J-250000D01*
G01*
X21425000Y-70450000D01*
G75*
G02*
X21175000Y-70700000I-250000J0D01*
G01*
X20650000Y-70700000D01*
G75*
G02*
X20400000Y-70450000I0J250000D01*
G01*
G37*
%TD*%
%TO.C,R26*%
G36*
G01*
X18575000Y-66450000D02*
X18575000Y-65550000D01*
G75*
G02*
X18825000Y-65300000I250000J0D01*
G01*
X19350000Y-65300000D01*
G75*
G02*
X19600000Y-65550000I0J-250000D01*
G01*
X19600000Y-66450000D01*
G75*
G02*
X19350000Y-66700000I-250000J0D01*
G01*
X18825000Y-66700000D01*
G75*
G02*
X18575000Y-66450000I0J250000D01*
G01*
G37*
G36*
G01*
X20400000Y-66450000D02*
X20400000Y-65550000D01*
G75*
G02*
X20650000Y-65300000I250000J0D01*
G01*
X21175000Y-65300000D01*
G75*
G02*
X21425000Y-65550000I0J-250000D01*
G01*
X21425000Y-66450000D01*
G75*
G02*
X21175000Y-66700000I-250000J0D01*
G01*
X20650000Y-66700000D01*
G75*
G02*
X20400000Y-66450000I0J250000D01*
G01*
G37*
%TD*%
%TO.C,R8*%
G36*
G01*
X44575000Y-68450000D02*
X44575000Y-67550000D01*
G75*
G02*
X44825000Y-67300000I250000J0D01*
G01*
X45350000Y-67300000D01*
G75*
G02*
X45600000Y-67550000I0J-250000D01*
G01*
X45600000Y-68450000D01*
G75*
G02*
X45350000Y-68700000I-250000J0D01*
G01*
X44825000Y-68700000D01*
G75*
G02*
X44575000Y-68450000I0J250000D01*
G01*
G37*
G36*
G01*
X46400000Y-68450000D02*
X46400000Y-67550000D01*
G75*
G02*
X46650000Y-67300000I250000J0D01*
G01*
X47175000Y-67300000D01*
G75*
G02*
X47425000Y-67550000I0J-250000D01*
G01*
X47425000Y-68450000D01*
G75*
G02*
X47175000Y-68700000I-250000J0D01*
G01*
X46650000Y-68700000D01*
G75*
G02*
X46400000Y-68450000I0J250000D01*
G01*
G37*
%TD*%
%TO.C,R14*%
G36*
G01*
X44575000Y-86450000D02*
X44575000Y-85550000D01*
G75*
G02*
X44825000Y-85300000I250000J0D01*
G01*
X45350000Y-85300000D01*
G75*
G02*
X45600000Y-85550000I0J-250000D01*
G01*
X45600000Y-86450000D01*
G75*
G02*
X45350000Y-86700000I-250000J0D01*
G01*
X44825000Y-86700000D01*
G75*
G02*
X44575000Y-86450000I0J250000D01*
G01*
G37*
G36*
G01*
X46400000Y-86450000D02*
X46400000Y-85550000D01*
G75*
G02*
X46650000Y-85300000I250000J0D01*
G01*
X47175000Y-85300000D01*
G75*
G02*
X47425000Y-85550000I0J-250000D01*
G01*
X47425000Y-86450000D01*
G75*
G02*
X47175000Y-86700000I-250000J0D01*
G01*
X46650000Y-86700000D01*
G75*
G02*
X46400000Y-86450000I0J250000D01*
G01*
G37*
%TD*%
%TO.C,R21*%
G36*
G01*
X92575000Y-65450000D02*
X92575000Y-64550000D01*
G75*
G02*
X92825000Y-64300000I250000J0D01*
G01*
X93350000Y-64300000D01*
G75*
G02*
X93600000Y-64550000I0J-250000D01*
G01*
X93600000Y-65450000D01*
G75*
G02*
X93350000Y-65700000I-250000J0D01*
G01*
X92825000Y-65700000D01*
G75*
G02*
X92575000Y-65450000I0J250000D01*
G01*
G37*
G36*
G01*
X94400000Y-65450000D02*
X94400000Y-64550000D01*
G75*
G02*
X94650000Y-64300000I250000J0D01*
G01*
X95175000Y-64300000D01*
G75*
G02*
X95425000Y-64550000I0J-250000D01*
G01*
X95425000Y-65450000D01*
G75*
G02*
X95175000Y-65700000I-250000J0D01*
G01*
X94650000Y-65700000D01*
G75*
G02*
X94400000Y-65450000I0J250000D01*
G01*
G37*
%TD*%
%TO.C,R33*%
G36*
G01*
X35575000Y-33450000D02*
X35575000Y-32550000D01*
G75*
G02*
X35825000Y-32300000I250000J0D01*
G01*
X36350000Y-32300000D01*
G75*
G02*
X36600000Y-32550000I0J-250000D01*
G01*
X36600000Y-33450000D01*
G75*
G02*
X36350000Y-33700000I-250000J0D01*
G01*
X35825000Y-33700000D01*
G75*
G02*
X35575000Y-33450000I0J250000D01*
G01*
G37*
G36*
G01*
X37400000Y-33450000D02*
X37400000Y-32550000D01*
G75*
G02*
X37650000Y-32300000I250000J0D01*
G01*
X38175000Y-32300000D01*
G75*
G02*
X38425000Y-32550000I0J-250000D01*
G01*
X38425000Y-33450000D01*
G75*
G02*
X38175000Y-33700000I-250000J0D01*
G01*
X37650000Y-33700000D01*
G75*
G02*
X37400000Y-33450000I0J250000D01*
G01*
G37*
%TD*%
%TO.C,R4*%
G36*
G01*
X44575000Y-56450000D02*
X44575000Y-55550000D01*
G75*
G02*
X44825000Y-55300000I250000J0D01*
G01*
X45350000Y-55300000D01*
G75*
G02*
X45600000Y-55550000I0J-250000D01*
G01*
X45600000Y-56450000D01*
G75*
G02*
X45350000Y-56700000I-250000J0D01*
G01*
X44825000Y-56700000D01*
G75*
G02*
X44575000Y-56450000I0J250000D01*
G01*
G37*
G36*
G01*
X46400000Y-56450000D02*
X46400000Y-55550000D01*
G75*
G02*
X46650000Y-55300000I250000J0D01*
G01*
X47175000Y-55300000D01*
G75*
G02*
X47425000Y-55550000I0J-250000D01*
G01*
X47425000Y-56450000D01*
G75*
G02*
X47175000Y-56700000I-250000J0D01*
G01*
X46650000Y-56700000D01*
G75*
G02*
X46400000Y-56450000I0J250000D01*
G01*
G37*
%TD*%
%TO.C,R24*%
G36*
G01*
X92575000Y-77450000D02*
X92575000Y-76550000D01*
G75*
G02*
X92825000Y-76300000I250000J0D01*
G01*
X93350000Y-76300000D01*
G75*
G02*
X93600000Y-76550000I0J-250000D01*
G01*
X93600000Y-77450000D01*
G75*
G02*
X93350000Y-77700000I-250000J0D01*
G01*
X92825000Y-77700000D01*
G75*
G02*
X92575000Y-77450000I0J250000D01*
G01*
G37*
G36*
G01*
X94400000Y-77450000D02*
X94400000Y-76550000D01*
G75*
G02*
X94650000Y-76300000I250000J0D01*
G01*
X95175000Y-76300000D01*
G75*
G02*
X95425000Y-76550000I0J-250000D01*
G01*
X95425000Y-77450000D01*
G75*
G02*
X95175000Y-77700000I-250000J0D01*
G01*
X94650000Y-77700000D01*
G75*
G02*
X94400000Y-77450000I0J250000D01*
G01*
G37*
%TD*%
%TO.C,R31*%
G36*
G01*
X18575000Y-88450000D02*
X18575000Y-87550000D01*
G75*
G02*
X18825000Y-87300000I250000J0D01*
G01*
X19350000Y-87300000D01*
G75*
G02*
X19600000Y-87550000I0J-250000D01*
G01*
X19600000Y-88450000D01*
G75*
G02*
X19350000Y-88700000I-250000J0D01*
G01*
X18825000Y-88700000D01*
G75*
G02*
X18575000Y-88450000I0J250000D01*
G01*
G37*
G36*
G01*
X20400000Y-88450000D02*
X20400000Y-87550000D01*
G75*
G02*
X20650000Y-87300000I250000J0D01*
G01*
X21175000Y-87300000D01*
G75*
G02*
X21425000Y-87550000I0J-250000D01*
G01*
X21425000Y-88450000D01*
G75*
G02*
X21175000Y-88700000I-250000J0D01*
G01*
X20650000Y-88700000D01*
G75*
G02*
X20400000Y-88450000I0J250000D01*
G01*
G37*
%TD*%
%TO.C,R6*%
G36*
G01*
X44575000Y-62450000D02*
X44575000Y-61550000D01*
G75*
G02*
X44825000Y-61300000I250000J0D01*
G01*
X45350000Y-61300000D01*
G75*
G02*
X45600000Y-61550000I0J-250000D01*
G01*
X45600000Y-62450000D01*
G75*
G02*
X45350000Y-62700000I-250000J0D01*
G01*
X44825000Y-62700000D01*
G75*
G02*
X44575000Y-62450000I0J250000D01*
G01*
G37*
G36*
G01*
X46400000Y-62450000D02*
X46400000Y-61550000D01*
G75*
G02*
X46650000Y-61300000I250000J0D01*
G01*
X47175000Y-61300000D01*
G75*
G02*
X47425000Y-61550000I0J-250000D01*
G01*
X47425000Y-62450000D01*
G75*
G02*
X47175000Y-62700000I-250000J0D01*
G01*
X46650000Y-62700000D01*
G75*
G02*
X46400000Y-62450000I0J250000D01*
G01*
G37*
%TD*%
%TO.C,C2*%
G36*
G01*
X26550000Y-33475000D02*
X26550000Y-32525000D01*
G75*
G02*
X26800000Y-32275000I250000J0D01*
G01*
X27300000Y-32275000D01*
G75*
G02*
X27550000Y-32525000I0J-250000D01*
G01*
X27550000Y-33475000D01*
G75*
G02*
X27300000Y-33725000I-250000J0D01*
G01*
X26800000Y-33725000D01*
G75*
G02*
X26550000Y-33475000I0J250000D01*
G01*
G37*
G36*
G01*
X28450000Y-33475000D02*
X28450000Y-32525000D01*
G75*
G02*
X28700000Y-32275000I250000J0D01*
G01*
X29200000Y-32275000D01*
G75*
G02*
X29450000Y-32525000I0J-250000D01*
G01*
X29450000Y-33475000D01*
G75*
G02*
X29200000Y-33725000I-250000J0D01*
G01*
X28700000Y-33725000D01*
G75*
G02*
X28450000Y-33475000I0J250000D01*
G01*
G37*
%TD*%
%TO.C,R5*%
G36*
G01*
X44575000Y-59450000D02*
X44575000Y-58550000D01*
G75*
G02*
X44825000Y-58300000I250000J0D01*
G01*
X45350000Y-58300000D01*
G75*
G02*
X45600000Y-58550000I0J-250000D01*
G01*
X45600000Y-59450000D01*
G75*
G02*
X45350000Y-59700000I-250000J0D01*
G01*
X44825000Y-59700000D01*
G75*
G02*
X44575000Y-59450000I0J250000D01*
G01*
G37*
G36*
G01*
X46400000Y-59450000D02*
X46400000Y-58550000D01*
G75*
G02*
X46650000Y-58300000I250000J0D01*
G01*
X47175000Y-58300000D01*
G75*
G02*
X47425000Y-58550000I0J-250000D01*
G01*
X47425000Y-59450000D01*
G75*
G02*
X47175000Y-59700000I-250000J0D01*
G01*
X46650000Y-59700000D01*
G75*
G02*
X46400000Y-59450000I0J250000D01*
G01*
G37*
%TD*%
%TO.C,R10*%
G36*
G01*
X44575000Y-74450000D02*
X44575000Y-73550000D01*
G75*
G02*
X44825000Y-73300000I250000J0D01*
G01*
X45350000Y-73300000D01*
G75*
G02*
X45600000Y-73550000I0J-250000D01*
G01*
X45600000Y-74450000D01*
G75*
G02*
X45350000Y-74700000I-250000J0D01*
G01*
X44825000Y-74700000D01*
G75*
G02*
X44575000Y-74450000I0J250000D01*
G01*
G37*
G36*
G01*
X46400000Y-74450000D02*
X46400000Y-73550000D01*
G75*
G02*
X46650000Y-73300000I250000J0D01*
G01*
X47175000Y-73300000D01*
G75*
G02*
X47425000Y-73550000I0J-250000D01*
G01*
X47425000Y-74450000D01*
G75*
G02*
X47175000Y-74700000I-250000J0D01*
G01*
X46650000Y-74700000D01*
G75*
G02*
X46400000Y-74450000I0J250000D01*
G01*
G37*
%TD*%
%TO.C,R32*%
G36*
G01*
X18575000Y-92450000D02*
X18575000Y-91550000D01*
G75*
G02*
X18825000Y-91300000I250000J0D01*
G01*
X19350000Y-91300000D01*
G75*
G02*
X19600000Y-91550000I0J-250000D01*
G01*
X19600000Y-92450000D01*
G75*
G02*
X19350000Y-92700000I-250000J0D01*
G01*
X18825000Y-92700000D01*
G75*
G02*
X18575000Y-92450000I0J250000D01*
G01*
G37*
G36*
G01*
X20400000Y-92450000D02*
X20400000Y-91550000D01*
G75*
G02*
X20650000Y-91300000I250000J0D01*
G01*
X21175000Y-91300000D01*
G75*
G02*
X21425000Y-91550000I0J-250000D01*
G01*
X21425000Y-92450000D01*
G75*
G02*
X21175000Y-92700000I-250000J0D01*
G01*
X20650000Y-92700000D01*
G75*
G02*
X20400000Y-92450000I0J250000D01*
G01*
G37*
%TD*%
%TO.C,R28*%
G36*
G01*
X18575000Y-74450000D02*
X18575000Y-73550000D01*
G75*
G02*
X18825000Y-73300000I250000J0D01*
G01*
X19350000Y-73300000D01*
G75*
G02*
X19600000Y-73550000I0J-250000D01*
G01*
X19600000Y-74450000D01*
G75*
G02*
X19350000Y-74700000I-250000J0D01*
G01*
X18825000Y-74700000D01*
G75*
G02*
X18575000Y-74450000I0J250000D01*
G01*
G37*
G36*
G01*
X20400000Y-74450000D02*
X20400000Y-73550000D01*
G75*
G02*
X20650000Y-73300000I250000J0D01*
G01*
X21175000Y-73300000D01*
G75*
G02*
X21425000Y-73550000I0J-250000D01*
G01*
X21425000Y-74450000D01*
G75*
G02*
X21175000Y-74700000I-250000J0D01*
G01*
X20650000Y-74700000D01*
G75*
G02*
X20400000Y-74450000I0J250000D01*
G01*
G37*
%TD*%
%TO.C,R18*%
G36*
G01*
X92575000Y-53450000D02*
X92575000Y-52550000D01*
G75*
G02*
X92825000Y-52300000I250000J0D01*
G01*
X93350000Y-52300000D01*
G75*
G02*
X93600000Y-52550000I0J-250000D01*
G01*
X93600000Y-53450000D01*
G75*
G02*
X93350000Y-53700000I-250000J0D01*
G01*
X92825000Y-53700000D01*
G75*
G02*
X92575000Y-53450000I0J250000D01*
G01*
G37*
G36*
G01*
X94400000Y-53450000D02*
X94400000Y-52550000D01*
G75*
G02*
X94650000Y-52300000I250000J0D01*
G01*
X95175000Y-52300000D01*
G75*
G02*
X95425000Y-52550000I0J-250000D01*
G01*
X95425000Y-53450000D01*
G75*
G02*
X95175000Y-53700000I-250000J0D01*
G01*
X94650000Y-53700000D01*
G75*
G02*
X94400000Y-53450000I0J250000D01*
G01*
G37*
%TD*%
%TO.C,R9*%
G36*
G01*
X44575000Y-71450000D02*
X44575000Y-70550000D01*
G75*
G02*
X44825000Y-70300000I250000J0D01*
G01*
X45350000Y-70300000D01*
G75*
G02*
X45600000Y-70550000I0J-250000D01*
G01*
X45600000Y-71450000D01*
G75*
G02*
X45350000Y-71700000I-250000J0D01*
G01*
X44825000Y-71700000D01*
G75*
G02*
X44575000Y-71450000I0J250000D01*
G01*
G37*
G36*
G01*
X46400000Y-71450000D02*
X46400000Y-70550000D01*
G75*
G02*
X46650000Y-70300000I250000J0D01*
G01*
X47175000Y-70300000D01*
G75*
G02*
X47425000Y-70550000I0J-250000D01*
G01*
X47425000Y-71450000D01*
G75*
G02*
X47175000Y-71700000I-250000J0D01*
G01*
X46650000Y-71700000D01*
G75*
G02*
X46400000Y-71450000I0J250000D01*
G01*
G37*
%TD*%
%TO.C,R2*%
G36*
G01*
X44575000Y-50450000D02*
X44575000Y-49550000D01*
G75*
G02*
X44825000Y-49300000I250000J0D01*
G01*
X45350000Y-49300000D01*
G75*
G02*
X45600000Y-49550000I0J-250000D01*
G01*
X45600000Y-50450000D01*
G75*
G02*
X45350000Y-50700000I-250000J0D01*
G01*
X44825000Y-50700000D01*
G75*
G02*
X44575000Y-50450000I0J250000D01*
G01*
G37*
G36*
G01*
X46400000Y-50450000D02*
X46400000Y-49550000D01*
G75*
G02*
X46650000Y-49300000I250000J0D01*
G01*
X47175000Y-49300000D01*
G75*
G02*
X47425000Y-49550000I0J-250000D01*
G01*
X47425000Y-50450000D01*
G75*
G02*
X47175000Y-50700000I-250000J0D01*
G01*
X46650000Y-50700000D01*
G75*
G02*
X46400000Y-50450000I0J250000D01*
G01*
G37*
%TD*%
%TO.C,R29*%
G36*
G01*
X18575000Y-80450000D02*
X18575000Y-79550000D01*
G75*
G02*
X18825000Y-79300000I250000J0D01*
G01*
X19350000Y-79300000D01*
G75*
G02*
X19600000Y-79550000I0J-250000D01*
G01*
X19600000Y-80450000D01*
G75*
G02*
X19350000Y-80700000I-250000J0D01*
G01*
X18825000Y-80700000D01*
G75*
G02*
X18575000Y-80450000I0J250000D01*
G01*
G37*
G36*
G01*
X20400000Y-80450000D02*
X20400000Y-79550000D01*
G75*
G02*
X20650000Y-79300000I250000J0D01*
G01*
X21175000Y-79300000D01*
G75*
G02*
X21425000Y-79550000I0J-250000D01*
G01*
X21425000Y-80450000D01*
G75*
G02*
X21175000Y-80700000I-250000J0D01*
G01*
X20650000Y-80700000D01*
G75*
G02*
X20400000Y-80450000I0J250000D01*
G01*
G37*
%TD*%
%TO.C,R19*%
G36*
G01*
X92575000Y-57450000D02*
X92575000Y-56550000D01*
G75*
G02*
X92825000Y-56300000I250000J0D01*
G01*
X93350000Y-56300000D01*
G75*
G02*
X93600000Y-56550000I0J-250000D01*
G01*
X93600000Y-57450000D01*
G75*
G02*
X93350000Y-57700000I-250000J0D01*
G01*
X92825000Y-57700000D01*
G75*
G02*
X92575000Y-57450000I0J250000D01*
G01*
G37*
G36*
G01*
X94400000Y-57450000D02*
X94400000Y-56550000D01*
G75*
G02*
X94650000Y-56300000I250000J0D01*
G01*
X95175000Y-56300000D01*
G75*
G02*
X95425000Y-56550000I0J-250000D01*
G01*
X95425000Y-57450000D01*
G75*
G02*
X95175000Y-57700000I-250000J0D01*
G01*
X94650000Y-57700000D01*
G75*
G02*
X94400000Y-57450000I0J250000D01*
G01*
G37*
%TD*%
%TO.C,R25*%
G36*
G01*
X18575000Y-62450000D02*
X18575000Y-61550000D01*
G75*
G02*
X18825000Y-61300000I250000J0D01*
G01*
X19350000Y-61300000D01*
G75*
G02*
X19600000Y-61550000I0J-250000D01*
G01*
X19600000Y-62450000D01*
G75*
G02*
X19350000Y-62700000I-250000J0D01*
G01*
X18825000Y-62700000D01*
G75*
G02*
X18575000Y-62450000I0J250000D01*
G01*
G37*
G36*
G01*
X20400000Y-62450000D02*
X20400000Y-61550000D01*
G75*
G02*
X20650000Y-61300000I250000J0D01*
G01*
X21175000Y-61300000D01*
G75*
G02*
X21425000Y-61550000I0J-250000D01*
G01*
X21425000Y-62450000D01*
G75*
G02*
X21175000Y-62700000I-250000J0D01*
G01*
X20650000Y-62700000D01*
G75*
G02*
X20400000Y-62450000I0J250000D01*
G01*
G37*
%TD*%
%TO.C,R1*%
G36*
G01*
X44575000Y-47450000D02*
X44575000Y-46550000D01*
G75*
G02*
X44825000Y-46300000I250000J0D01*
G01*
X45350000Y-46300000D01*
G75*
G02*
X45600000Y-46550000I0J-250000D01*
G01*
X45600000Y-47450000D01*
G75*
G02*
X45350000Y-47700000I-250000J0D01*
G01*
X44825000Y-47700000D01*
G75*
G02*
X44575000Y-47450000I0J250000D01*
G01*
G37*
G36*
G01*
X46400000Y-47450000D02*
X46400000Y-46550000D01*
G75*
G02*
X46650000Y-46300000I250000J0D01*
G01*
X47175000Y-46300000D01*
G75*
G02*
X47425000Y-46550000I0J-250000D01*
G01*
X47425000Y-47450000D01*
G75*
G02*
X47175000Y-47700000I-250000J0D01*
G01*
X46650000Y-47700000D01*
G75*
G02*
X46400000Y-47450000I0J250000D01*
G01*
G37*
%TD*%
%TO.C,R16*%
G36*
G01*
X44575000Y-92450000D02*
X44575000Y-91550000D01*
G75*
G02*
X44825000Y-91300000I250000J0D01*
G01*
X45350000Y-91300000D01*
G75*
G02*
X45600000Y-91550000I0J-250000D01*
G01*
X45600000Y-92450000D01*
G75*
G02*
X45350000Y-92700000I-250000J0D01*
G01*
X44825000Y-92700000D01*
G75*
G02*
X44575000Y-92450000I0J250000D01*
G01*
G37*
G36*
G01*
X46400000Y-92450000D02*
X46400000Y-91550000D01*
G75*
G02*
X46650000Y-91300000I250000J0D01*
G01*
X47175000Y-91300000D01*
G75*
G02*
X47425000Y-91550000I0J-250000D01*
G01*
X47425000Y-92450000D01*
G75*
G02*
X47175000Y-92700000I-250000J0D01*
G01*
X46650000Y-92700000D01*
G75*
G02*
X46400000Y-92450000I0J250000D01*
G01*
G37*
%TD*%
%TO.C,R20*%
G36*
G01*
X92575000Y-61450000D02*
X92575000Y-60550000D01*
G75*
G02*
X92825000Y-60300000I250000J0D01*
G01*
X93350000Y-60300000D01*
G75*
G02*
X93600000Y-60550000I0J-250000D01*
G01*
X93600000Y-61450000D01*
G75*
G02*
X93350000Y-61700000I-250000J0D01*
G01*
X92825000Y-61700000D01*
G75*
G02*
X92575000Y-61450000I0J250000D01*
G01*
G37*
G36*
G01*
X94400000Y-61450000D02*
X94400000Y-60550000D01*
G75*
G02*
X94650000Y-60300000I250000J0D01*
G01*
X95175000Y-60300000D01*
G75*
G02*
X95425000Y-60550000I0J-250000D01*
G01*
X95425000Y-61450000D01*
G75*
G02*
X95175000Y-61700000I-250000J0D01*
G01*
X94650000Y-61700000D01*
G75*
G02*
X94400000Y-61450000I0J250000D01*
G01*
G37*
%TD*%
%TO.C,R3*%
G36*
G01*
X44575000Y-53450000D02*
X44575000Y-52550000D01*
G75*
G02*
X44825000Y-52300000I250000J0D01*
G01*
X45350000Y-52300000D01*
G75*
G02*
X45600000Y-52550000I0J-250000D01*
G01*
X45600000Y-53450000D01*
G75*
G02*
X45350000Y-53700000I-250000J0D01*
G01*
X44825000Y-53700000D01*
G75*
G02*
X44575000Y-53450000I0J250000D01*
G01*
G37*
G36*
G01*
X46400000Y-53450000D02*
X46400000Y-52550000D01*
G75*
G02*
X46650000Y-52300000I250000J0D01*
G01*
X47175000Y-52300000D01*
G75*
G02*
X47425000Y-52550000I0J-250000D01*
G01*
X47425000Y-53450000D01*
G75*
G02*
X47175000Y-53700000I-250000J0D01*
G01*
X46650000Y-53700000D01*
G75*
G02*
X46400000Y-53450000I0J250000D01*
G01*
G37*
%TD*%
%TO.C,R13*%
G36*
G01*
X44575000Y-83450000D02*
X44575000Y-82550000D01*
G75*
G02*
X44825000Y-82300000I250000J0D01*
G01*
X45350000Y-82300000D01*
G75*
G02*
X45600000Y-82550000I0J-250000D01*
G01*
X45600000Y-83450000D01*
G75*
G02*
X45350000Y-83700000I-250000J0D01*
G01*
X44825000Y-83700000D01*
G75*
G02*
X44575000Y-83450000I0J250000D01*
G01*
G37*
G36*
G01*
X46400000Y-83450000D02*
X46400000Y-82550000D01*
G75*
G02*
X46650000Y-82300000I250000J0D01*
G01*
X47175000Y-82300000D01*
G75*
G02*
X47425000Y-82550000I0J-250000D01*
G01*
X47425000Y-83450000D01*
G75*
G02*
X47175000Y-83700000I-250000J0D01*
G01*
X46650000Y-83700000D01*
G75*
G02*
X46400000Y-83450000I0J250000D01*
G01*
G37*
%TD*%
%TO.C,R23*%
G36*
G01*
X92575000Y-73450000D02*
X92575000Y-72550000D01*
G75*
G02*
X92825000Y-72300000I250000J0D01*
G01*
X93350000Y-72300000D01*
G75*
G02*
X93600000Y-72550000I0J-250000D01*
G01*
X93600000Y-73450000D01*
G75*
G02*
X93350000Y-73700000I-250000J0D01*
G01*
X92825000Y-73700000D01*
G75*
G02*
X92575000Y-73450000I0J250000D01*
G01*
G37*
G36*
G01*
X94400000Y-73450000D02*
X94400000Y-72550000D01*
G75*
G02*
X94650000Y-72300000I250000J0D01*
G01*
X95175000Y-72300000D01*
G75*
G02*
X95425000Y-72550000I0J-250000D01*
G01*
X95425000Y-73450000D01*
G75*
G02*
X95175000Y-73700000I-250000J0D01*
G01*
X94650000Y-73700000D01*
G75*
G02*
X94400000Y-73450000I0J250000D01*
G01*
G37*
%TD*%
%TO.C,R7*%
G36*
G01*
X44575000Y-65450000D02*
X44575000Y-64550000D01*
G75*
G02*
X44825000Y-64300000I250000J0D01*
G01*
X45350000Y-64300000D01*
G75*
G02*
X45600000Y-64550000I0J-250000D01*
G01*
X45600000Y-65450000D01*
G75*
G02*
X45350000Y-65700000I-250000J0D01*
G01*
X44825000Y-65700000D01*
G75*
G02*
X44575000Y-65450000I0J250000D01*
G01*
G37*
G36*
G01*
X46400000Y-65450000D02*
X46400000Y-64550000D01*
G75*
G02*
X46650000Y-64300000I250000J0D01*
G01*
X47175000Y-64300000D01*
G75*
G02*
X47425000Y-64550000I0J-250000D01*
G01*
X47425000Y-65450000D01*
G75*
G02*
X47175000Y-65700000I-250000J0D01*
G01*
X46650000Y-65700000D01*
G75*
G02*
X46400000Y-65450000I0J250000D01*
G01*
G37*
%TD*%
%TO.C,R15*%
G36*
G01*
X44575000Y-89450000D02*
X44575000Y-88550000D01*
G75*
G02*
X44825000Y-88300000I250000J0D01*
G01*
X45350000Y-88300000D01*
G75*
G02*
X45600000Y-88550000I0J-250000D01*
G01*
X45600000Y-89450000D01*
G75*
G02*
X45350000Y-89700000I-250000J0D01*
G01*
X44825000Y-89700000D01*
G75*
G02*
X44575000Y-89450000I0J250000D01*
G01*
G37*
G36*
G01*
X46400000Y-89450000D02*
X46400000Y-88550000D01*
G75*
G02*
X46650000Y-88300000I250000J0D01*
G01*
X47175000Y-88300000D01*
G75*
G02*
X47425000Y-88550000I0J-250000D01*
G01*
X47425000Y-89450000D01*
G75*
G02*
X47175000Y-89700000I-250000J0D01*
G01*
X46650000Y-89700000D01*
G75*
G02*
X46400000Y-89450000I0J250000D01*
G01*
G37*
%TD*%
%TO.C,R30*%
G36*
G01*
X18575000Y-84450000D02*
X18575000Y-83550000D01*
G75*
G02*
X18825000Y-83300000I250000J0D01*
G01*
X19350000Y-83300000D01*
G75*
G02*
X19600000Y-83550000I0J-250000D01*
G01*
X19600000Y-84450000D01*
G75*
G02*
X19350000Y-84700000I-250000J0D01*
G01*
X18825000Y-84700000D01*
G75*
G02*
X18575000Y-84450000I0J250000D01*
G01*
G37*
G36*
G01*
X20400000Y-84450000D02*
X20400000Y-83550000D01*
G75*
G02*
X20650000Y-83300000I250000J0D01*
G01*
X21175000Y-83300000D01*
G75*
G02*
X21425000Y-83550000I0J-250000D01*
G01*
X21425000Y-84450000D01*
G75*
G02*
X21175000Y-84700000I-250000J0D01*
G01*
X20650000Y-84700000D01*
G75*
G02*
X20400000Y-84450000I0J250000D01*
G01*
G37*
%TD*%
%TO.C,R11*%
G36*
G01*
X44575000Y-77450000D02*
X44575000Y-76550000D01*
G75*
G02*
X44825000Y-76300000I250000J0D01*
G01*
X45350000Y-76300000D01*
G75*
G02*
X45600000Y-76550000I0J-250000D01*
G01*
X45600000Y-77450000D01*
G75*
G02*
X45350000Y-77700000I-250000J0D01*
G01*
X44825000Y-77700000D01*
G75*
G02*
X44575000Y-77450000I0J250000D01*
G01*
G37*
G36*
G01*
X46400000Y-77450000D02*
X46400000Y-76550000D01*
G75*
G02*
X46650000Y-76300000I250000J0D01*
G01*
X47175000Y-76300000D01*
G75*
G02*
X47425000Y-76550000I0J-250000D01*
G01*
X47425000Y-77450000D01*
G75*
G02*
X47175000Y-77700000I-250000J0D01*
G01*
X46650000Y-77700000D01*
G75*
G02*
X46400000Y-77450000I0J250000D01*
G01*
G37*
%TD*%
%TO.C,R12*%
G36*
G01*
X44575000Y-80450000D02*
X44575000Y-79550000D01*
G75*
G02*
X44825000Y-79300000I250000J0D01*
G01*
X45350000Y-79300000D01*
G75*
G02*
X45600000Y-79550000I0J-250000D01*
G01*
X45600000Y-80450000D01*
G75*
G02*
X45350000Y-80700000I-250000J0D01*
G01*
X44825000Y-80700000D01*
G75*
G02*
X44575000Y-80450000I0J250000D01*
G01*
G37*
G36*
G01*
X46400000Y-80450000D02*
X46400000Y-79550000D01*
G75*
G02*
X46650000Y-79300000I250000J0D01*
G01*
X47175000Y-79300000D01*
G75*
G02*
X47425000Y-79550000I0J-250000D01*
G01*
X47425000Y-80450000D01*
G75*
G02*
X47175000Y-80700000I-250000J0D01*
G01*
X46650000Y-80700000D01*
G75*
G02*
X46400000Y-80450000I0J250000D01*
G01*
G37*
%TD*%
%TO.C,R22*%
G36*
G01*
X92575000Y-69450000D02*
X92575000Y-68550000D01*
G75*
G02*
X92825000Y-68300000I250000J0D01*
G01*
X93350000Y-68300000D01*
G75*
G02*
X93600000Y-68550000I0J-250000D01*
G01*
X93600000Y-69450000D01*
G75*
G02*
X93350000Y-69700000I-250000J0D01*
G01*
X92825000Y-69700000D01*
G75*
G02*
X92575000Y-69450000I0J250000D01*
G01*
G37*
G36*
G01*
X94400000Y-69450000D02*
X94400000Y-68550000D01*
G75*
G02*
X94650000Y-68300000I250000J0D01*
G01*
X95175000Y-68300000D01*
G75*
G02*
X95425000Y-68550000I0J-250000D01*
G01*
X95425000Y-69450000D01*
G75*
G02*
X95175000Y-69700000I-250000J0D01*
G01*
X94650000Y-69700000D01*
G75*
G02*
X94400000Y-69450000I0J250000D01*
G01*
G37*
%TD*%
M02*
