M48
; DRILL file KiCad 10.0.5 date 2026-09-28T16:44:56
; FORMAT={-:-/ absolute / metric / decimal}
; #@! TF.CreationDate,2026-09-28T16:44:56+09:00
; #@! TF.GenerationSoftware,Kicad,Pcbnew,10.0.5
; #@! TF.FileFunction,Plated,1,4,PTH
FMAT,2
METRIC
; #@! TA.AperFunction,Plated,PTH,ViaDrill
T1C0.300
; #@! TA.AperFunction,Plated,PTH,ComponentDrill
T2C1.000
; #@! TA.AperFunction,Plated,PTH,ComponentDrill
T3C1.020
%
G90
G05
T1
X7.0Y-50.0
X10.215Y-72.102
X18.158Y-79.07
X18.941Y-63.75
X20.878Y-78.768
X21.944Y-73.623
X22.95Y-35.0
X26.962Y-36.737
X28.95Y-35.0
X29.679Y-27.854
X30.495Y-69.504
X30.845Y-60.314
X33.792Y-57.367
X36.934Y-45.934
X37.913Y-35.0
X42.633Y-90.931
X44.0Y-76.25
X44.06Y-80.0
X44.187Y-77.9
X44.296Y-66.862
X45.52Y-28.633
X45.605Y-30.116
X45.892Y-71.972
X45.978Y-82.109
X45.978Y-85.111
X45.985Y-59.898
X45.988Y-62.901
X45.989Y-29.321
X46.0Y-88.087
X46.007Y-52.095
X46.011Y-65.902
X46.017Y-61.104
X46.023Y-58.11
X46.024Y-55.111
X46.141Y-66.991
X46.232Y-48.901
X46.723Y-33.518
X47.186Y-31.432
X47.622Y-72.91
X47.684Y-84.665
X47.752Y-70.058
X47.811Y-76.101
X47.812Y-82.1
X47.825Y-88.088
X47.947Y-79.155
X48.056Y-71.59
X48.574Y-77.631
X50.414Y-80.129
X52.845Y-64.82
X84.56Y-33.122
X90.903Y-65.18
X91.355Y-57.087
X91.355Y-57.899
X91.696Y-53.899
X91.699Y-50.817
X92.043Y-73.0
X92.173Y-76.086
X94.0Y-78.028
X94.006Y-64.094
X94.011Y-72.099
X94.021Y-60.108
X94.061Y-68.069
T2
X28.0Y-27.0
X29.5Y-25.5
X31.0Y-27.0
X32.5Y-25.5
X34.0Y-27.0
X35.5Y-25.5
X37.0Y-27.0
X38.5Y-25.5
X40.0Y-27.0
X41.5Y-25.5
X43.0Y-27.0
X44.5Y-25.5
X46.0Y-27.0
X47.5Y-25.5
X49.0Y-27.0
X50.5Y-25.5
X52.0Y-27.0
X53.5Y-25.5
X55.0Y-27.0
X56.5Y-25.5
X58.0Y-27.0
X59.5Y-25.5
X61.0Y-27.0
X62.5Y-25.5
X64.0Y-27.0
X65.5Y-25.5
X67.0Y-27.0
X68.5Y-25.5
X70.0Y-27.0
X71.5Y-25.5
X73.0Y-27.0
X74.5Y-24.0
T3
X13.0Y-38.0
X13.0Y-40.54
X32.0Y-72.0
X32.0Y-74.54
X57.0Y-44.5
X57.0Y-47.04
X57.0Y-49.58
X57.0Y-52.12
X57.0Y-54.66
X57.0Y-57.2
X57.0Y-59.74
X57.0Y-62.28
X57.0Y-64.82
X57.0Y-67.36
X57.0Y-69.9
X57.0Y-72.44
X57.0Y-74.98
X57.0Y-77.52
X57.0Y-80.06
X57.0Y-82.6
X57.0Y-85.14
X57.0Y-87.68
X57.0Y-90.22
X57.0Y-92.76
X57.0Y-95.3
X57.0Y-97.84
X84.94Y-44.5
X84.94Y-47.04
X84.94Y-49.58
X84.94Y-52.12
X84.94Y-54.66
X84.94Y-57.2
X84.94Y-59.74
X84.94Y-62.28
X84.94Y-64.82
X84.94Y-67.36
X84.94Y-69.9
X84.94Y-72.44
X84.94Y-74.98
X84.94Y-77.52
X84.94Y-80.06
X84.94Y-82.6
X84.94Y-85.14
X84.94Y-87.68
X84.94Y-90.22
X84.94Y-92.76
X84.94Y-95.3
X84.94Y-97.84
M30
