%TF.GenerationSoftware,KiCad,Pcbnew,10.0.5*%
%TF.CreationDate,2026-09-28T16:44:56+09:00*%
%TF.ProjectId,gba_dumper,6762615f-6475-46d7-9065-722e6b696361,rev?*%
%TF.SameCoordinates,Original*%
%TF.FileFunction,Legend,Bot*%
%TF.FilePolarity,Positive*%
%FSLAX46Y46*%
G04 Gerber Fmt 4.6, Leading zero omitted, Abs format (unit mm)*
G04 Created by KiCad (PCBNEW 10.0.5) date 2026-09-28 16:44:56*
%MOMM*%
%LPD*%
G01*
G04 APERTURE LIST*
G04 APERTURE END LIST*
%LPC*%
G36*
X57246742Y-97026601D02*
G01*
X57400687Y-97090367D01*
X57539234Y-97182941D01*
X57657059Y-97300766D01*
X57749633Y-97439313D01*
X57813399Y-97593258D01*
X57845907Y-97756685D01*
X57845907Y-97923315D01*
X57813399Y-98086742D01*
X57749633Y-98240687D01*
X57657059Y-98379234D01*
X57539234Y-98497059D01*
X57400687Y-98589633D01*
X57246742Y-98653399D01*
X57083315Y-98685907D01*
X56916685Y-98685907D01*
X56753258Y-98653399D01*
X56599313Y-98589633D01*
X56460766Y-98497059D01*
X56342941Y-98379234D01*
X56250367Y-98240687D01*
X56186601Y-98086742D01*
X56154093Y-97923315D01*
X56154093Y-97756685D01*
X56186601Y-97593258D01*
X56250367Y-97439313D01*
X56342941Y-97300766D01*
X56460766Y-97182941D01*
X56599313Y-97090367D01*
X56753258Y-97026601D01*
X56916685Y-96994093D01*
X57083315Y-96994093D01*
X57246742Y-97026601D01*
G37*
G36*
X85186742Y-97026601D02*
G01*
X85340687Y-97090367D01*
X85479234Y-97182941D01*
X85597059Y-97300766D01*
X85689633Y-97439313D01*
X85753399Y-97593258D01*
X85785907Y-97756685D01*
X85785907Y-97923315D01*
X85753399Y-98086742D01*
X85689633Y-98240687D01*
X85597059Y-98379234D01*
X85479234Y-98497059D01*
X85340687Y-98589633D01*
X85186742Y-98653399D01*
X85023315Y-98685907D01*
X84856685Y-98685907D01*
X84693258Y-98653399D01*
X84539313Y-98589633D01*
X84400766Y-98497059D01*
X84282941Y-98379234D01*
X84190367Y-98240687D01*
X84126601Y-98086742D01*
X84094093Y-97923315D01*
X84094093Y-97756685D01*
X84126601Y-97593258D01*
X84190367Y-97439313D01*
X84282941Y-97300766D01*
X84400766Y-97182941D01*
X84539313Y-97090367D01*
X84693258Y-97026601D01*
X84856685Y-96994093D01*
X85023315Y-96994093D01*
X85186742Y-97026601D01*
G37*
G36*
X5373513Y-93444208D02*
G01*
X5612293Y-93521793D01*
X5835998Y-93635776D01*
X6039117Y-93783350D01*
X6216650Y-93960883D01*
X6364224Y-94164002D01*
X6478207Y-94387707D01*
X6555792Y-94626487D01*
X6595068Y-94874465D01*
X6595068Y-95125535D01*
X6555792Y-95373513D01*
X6478207Y-95612293D01*
X6364224Y-95835998D01*
X6216650Y-96039117D01*
X6039117Y-96216650D01*
X5835998Y-96364224D01*
X5612293Y-96478207D01*
X5373513Y-96555792D01*
X5125535Y-96595068D01*
X4874465Y-96595068D01*
X4626487Y-96555792D01*
X4387707Y-96478207D01*
X4164002Y-96364224D01*
X3960883Y-96216650D01*
X3783350Y-96039117D01*
X3635776Y-95835998D01*
X3521793Y-95612293D01*
X3444208Y-95373513D01*
X3404932Y-95125535D01*
X3404932Y-94874465D01*
X3444208Y-94626487D01*
X3521793Y-94387707D01*
X3635776Y-94164002D01*
X3783350Y-93960883D01*
X3960883Y-93783350D01*
X4164002Y-93635776D01*
X4387707Y-93521793D01*
X4626487Y-93444208D01*
X4874465Y-93404932D01*
X5125535Y-93404932D01*
X5373513Y-93444208D01*
G37*
G36*
X95373513Y-93444208D02*
G01*
X95612293Y-93521793D01*
X95835998Y-93635776D01*
X96039117Y-93783350D01*
X96216650Y-93960883D01*
X96364224Y-94164002D01*
X96478207Y-94387707D01*
X96555792Y-94626487D01*
X96595068Y-94874465D01*
X96595068Y-95125535D01*
X96555792Y-95373513D01*
X96478207Y-95612293D01*
X96364224Y-95835998D01*
X96216650Y-96039117D01*
X96039117Y-96216650D01*
X95835998Y-96364224D01*
X95612293Y-96478207D01*
X95373513Y-96555792D01*
X95125535Y-96595068D01*
X94874465Y-96595068D01*
X94626487Y-96555792D01*
X94387707Y-96478207D01*
X94164002Y-96364224D01*
X93960883Y-96216650D01*
X93783350Y-96039117D01*
X93635776Y-95835998D01*
X93521793Y-95612293D01*
X93444208Y-95373513D01*
X93404932Y-95125535D01*
X93404932Y-94874465D01*
X93444208Y-94626487D01*
X93521793Y-94387707D01*
X93635776Y-94164002D01*
X93783350Y-93960883D01*
X93960883Y-93783350D01*
X94164002Y-93635776D01*
X94387707Y-93521793D01*
X94626487Y-93444208D01*
X94874465Y-93404932D01*
X95125535Y-93404932D01*
X95373513Y-93444208D01*
G37*
G36*
X57246742Y-94486601D02*
G01*
X57400687Y-94550367D01*
X57539234Y-94642941D01*
X57657059Y-94760766D01*
X57749633Y-94899313D01*
X57813399Y-95053258D01*
X57845907Y-95216685D01*
X57845907Y-95383315D01*
X57813399Y-95546742D01*
X57749633Y-95700687D01*
X57657059Y-95839234D01*
X57539234Y-95957059D01*
X57400687Y-96049633D01*
X57246742Y-96113399D01*
X57083315Y-96145907D01*
X56916685Y-96145907D01*
X56753258Y-96113399D01*
X56599313Y-96049633D01*
X56460766Y-95957059D01*
X56342941Y-95839234D01*
X56250367Y-95700687D01*
X56186601Y-95546742D01*
X56154093Y-95383315D01*
X56154093Y-95216685D01*
X56186601Y-95053258D01*
X56250367Y-94899313D01*
X56342941Y-94760766D01*
X56460766Y-94642941D01*
X56599313Y-94550367D01*
X56753258Y-94486601D01*
X56916685Y-94454093D01*
X57083315Y-94454093D01*
X57246742Y-94486601D01*
G37*
G36*
X85186742Y-94486601D02*
G01*
X85340687Y-94550367D01*
X85479234Y-94642941D01*
X85597059Y-94760766D01*
X85689633Y-94899313D01*
X85753399Y-95053258D01*
X85785907Y-95216685D01*
X85785907Y-95383315D01*
X85753399Y-95546742D01*
X85689633Y-95700687D01*
X85597059Y-95839234D01*
X85479234Y-95957059D01*
X85340687Y-96049633D01*
X85186742Y-96113399D01*
X85023315Y-96145907D01*
X84856685Y-96145907D01*
X84693258Y-96113399D01*
X84539313Y-96049633D01*
X84400766Y-95957059D01*
X84282941Y-95839234D01*
X84190367Y-95700687D01*
X84126601Y-95546742D01*
X84094093Y-95383315D01*
X84094093Y-95216685D01*
X84126601Y-95053258D01*
X84190367Y-94899313D01*
X84282941Y-94760766D01*
X84400766Y-94642941D01*
X84539313Y-94550367D01*
X84693258Y-94486601D01*
X84856685Y-94454093D01*
X85023315Y-94454093D01*
X85186742Y-94486601D01*
G37*
G36*
X57246742Y-91946601D02*
G01*
X57400687Y-92010367D01*
X57539234Y-92102941D01*
X57657059Y-92220766D01*
X57749633Y-92359313D01*
X57813399Y-92513258D01*
X57845907Y-92676685D01*
X57845907Y-92843315D01*
X57813399Y-93006742D01*
X57749633Y-93160687D01*
X57657059Y-93299234D01*
X57539234Y-93417059D01*
X57400687Y-93509633D01*
X57246742Y-93573399D01*
X57083315Y-93605907D01*
X56916685Y-93605907D01*
X56753258Y-93573399D01*
X56599313Y-93509633D01*
X56460766Y-93417059D01*
X56342941Y-93299234D01*
X56250367Y-93160687D01*
X56186601Y-93006742D01*
X56154093Y-92843315D01*
X56154093Y-92676685D01*
X56186601Y-92513258D01*
X56250367Y-92359313D01*
X56342941Y-92220766D01*
X56460766Y-92102941D01*
X56599313Y-92010367D01*
X56753258Y-91946601D01*
X56916685Y-91914093D01*
X57083315Y-91914093D01*
X57246742Y-91946601D01*
G37*
G36*
X85186742Y-91946601D02*
G01*
X85340687Y-92010367D01*
X85479234Y-92102941D01*
X85597059Y-92220766D01*
X85689633Y-92359313D01*
X85753399Y-92513258D01*
X85785907Y-92676685D01*
X85785907Y-92843315D01*
X85753399Y-93006742D01*
X85689633Y-93160687D01*
X85597059Y-93299234D01*
X85479234Y-93417059D01*
X85340687Y-93509633D01*
X85186742Y-93573399D01*
X85023315Y-93605907D01*
X84856685Y-93605907D01*
X84693258Y-93573399D01*
X84539313Y-93509633D01*
X84400766Y-93417059D01*
X84282941Y-93299234D01*
X84190367Y-93160687D01*
X84126601Y-93006742D01*
X84094093Y-92843315D01*
X84094093Y-92676685D01*
X84126601Y-92513258D01*
X84190367Y-92359313D01*
X84282941Y-92220766D01*
X84400766Y-92102941D01*
X84539313Y-92010367D01*
X84693258Y-91946601D01*
X84856685Y-91914093D01*
X85023315Y-91914093D01*
X85186742Y-91946601D01*
G37*
G36*
X57246742Y-89406601D02*
G01*
X57400687Y-89470367D01*
X57539234Y-89562941D01*
X57657059Y-89680766D01*
X57749633Y-89819313D01*
X57813399Y-89973258D01*
X57845907Y-90136685D01*
X57845907Y-90303315D01*
X57813399Y-90466742D01*
X57749633Y-90620687D01*
X57657059Y-90759234D01*
X57539234Y-90877059D01*
X57400687Y-90969633D01*
X57246742Y-91033399D01*
X57083315Y-91065907D01*
X56916685Y-91065907D01*
X56753258Y-91033399D01*
X56599313Y-90969633D01*
X56460766Y-90877059D01*
X56342941Y-90759234D01*
X56250367Y-90620687D01*
X56186601Y-90466742D01*
X56154093Y-90303315D01*
X56154093Y-90136685D01*
X56186601Y-89973258D01*
X56250367Y-89819313D01*
X56342941Y-89680766D01*
X56460766Y-89562941D01*
X56599313Y-89470367D01*
X56753258Y-89406601D01*
X56916685Y-89374093D01*
X57083315Y-89374093D01*
X57246742Y-89406601D01*
G37*
G36*
X85186742Y-89406601D02*
G01*
X85340687Y-89470367D01*
X85479234Y-89562941D01*
X85597059Y-89680766D01*
X85689633Y-89819313D01*
X85753399Y-89973258D01*
X85785907Y-90136685D01*
X85785907Y-90303315D01*
X85753399Y-90466742D01*
X85689633Y-90620687D01*
X85597059Y-90759234D01*
X85479234Y-90877059D01*
X85340687Y-90969633D01*
X85186742Y-91033399D01*
X85023315Y-91065907D01*
X84856685Y-91065907D01*
X84693258Y-91033399D01*
X84539313Y-90969633D01*
X84400766Y-90877059D01*
X84282941Y-90759234D01*
X84190367Y-90620687D01*
X84126601Y-90466742D01*
X84094093Y-90303315D01*
X84094093Y-90136685D01*
X84126601Y-89973258D01*
X84190367Y-89819313D01*
X84282941Y-89680766D01*
X84400766Y-89562941D01*
X84539313Y-89470367D01*
X84693258Y-89406601D01*
X84856685Y-89374093D01*
X85023315Y-89374093D01*
X85186742Y-89406601D01*
G37*
G36*
X57246742Y-86866601D02*
G01*
X57400687Y-86930367D01*
X57539234Y-87022941D01*
X57657059Y-87140766D01*
X57749633Y-87279313D01*
X57813399Y-87433258D01*
X57845907Y-87596685D01*
X57845907Y-87763315D01*
X57813399Y-87926742D01*
X57749633Y-88080687D01*
X57657059Y-88219234D01*
X57539234Y-88337059D01*
X57400687Y-88429633D01*
X57246742Y-88493399D01*
X57083315Y-88525907D01*
X56916685Y-88525907D01*
X56753258Y-88493399D01*
X56599313Y-88429633D01*
X56460766Y-88337059D01*
X56342941Y-88219234D01*
X56250367Y-88080687D01*
X56186601Y-87926742D01*
X56154093Y-87763315D01*
X56154093Y-87596685D01*
X56186601Y-87433258D01*
X56250367Y-87279313D01*
X56342941Y-87140766D01*
X56460766Y-87022941D01*
X56599313Y-86930367D01*
X56753258Y-86866601D01*
X56916685Y-86834093D01*
X57083315Y-86834093D01*
X57246742Y-86866601D01*
G37*
G36*
X85186742Y-86866601D02*
G01*
X85340687Y-86930367D01*
X85479234Y-87022941D01*
X85597059Y-87140766D01*
X85689633Y-87279313D01*
X85753399Y-87433258D01*
X85785907Y-87596685D01*
X85785907Y-87763315D01*
X85753399Y-87926742D01*
X85689633Y-88080687D01*
X85597059Y-88219234D01*
X85479234Y-88337059D01*
X85340687Y-88429633D01*
X85186742Y-88493399D01*
X85023315Y-88525907D01*
X84856685Y-88525907D01*
X84693258Y-88493399D01*
X84539313Y-88429633D01*
X84400766Y-88337059D01*
X84282941Y-88219234D01*
X84190367Y-88080687D01*
X84126601Y-87926742D01*
X84094093Y-87763315D01*
X84094093Y-87596685D01*
X84126601Y-87433258D01*
X84190367Y-87279313D01*
X84282941Y-87140766D01*
X84400766Y-87022941D01*
X84539313Y-86930367D01*
X84693258Y-86866601D01*
X84856685Y-86834093D01*
X85023315Y-86834093D01*
X85186742Y-86866601D01*
G37*
G36*
X57246742Y-84326601D02*
G01*
X57400687Y-84390367D01*
X57539234Y-84482941D01*
X57657059Y-84600766D01*
X57749633Y-84739313D01*
X57813399Y-84893258D01*
X57845907Y-85056685D01*
X57845907Y-85223315D01*
X57813399Y-85386742D01*
X57749633Y-85540687D01*
X57657059Y-85679234D01*
X57539234Y-85797059D01*
X57400687Y-85889633D01*
X57246742Y-85953399D01*
X57083315Y-85985907D01*
X56916685Y-85985907D01*
X56753258Y-85953399D01*
X56599313Y-85889633D01*
X56460766Y-85797059D01*
X56342941Y-85679234D01*
X56250367Y-85540687D01*
X56186601Y-85386742D01*
X56154093Y-85223315D01*
X56154093Y-85056685D01*
X56186601Y-84893258D01*
X56250367Y-84739313D01*
X56342941Y-84600766D01*
X56460766Y-84482941D01*
X56599313Y-84390367D01*
X56753258Y-84326601D01*
X56916685Y-84294093D01*
X57083315Y-84294093D01*
X57246742Y-84326601D01*
G37*
G36*
X85186742Y-84326601D02*
G01*
X85340687Y-84390367D01*
X85479234Y-84482941D01*
X85597059Y-84600766D01*
X85689633Y-84739313D01*
X85753399Y-84893258D01*
X85785907Y-85056685D01*
X85785907Y-85223315D01*
X85753399Y-85386742D01*
X85689633Y-85540687D01*
X85597059Y-85679234D01*
X85479234Y-85797059D01*
X85340687Y-85889633D01*
X85186742Y-85953399D01*
X85023315Y-85985907D01*
X84856685Y-85985907D01*
X84693258Y-85953399D01*
X84539313Y-85889633D01*
X84400766Y-85797059D01*
X84282941Y-85679234D01*
X84190367Y-85540687D01*
X84126601Y-85386742D01*
X84094093Y-85223315D01*
X84094093Y-85056685D01*
X84126601Y-84893258D01*
X84190367Y-84739313D01*
X84282941Y-84600766D01*
X84400766Y-84482941D01*
X84539313Y-84390367D01*
X84693258Y-84326601D01*
X84856685Y-84294093D01*
X85023315Y-84294093D01*
X85186742Y-84326601D01*
G37*
G36*
X57246742Y-81786601D02*
G01*
X57400687Y-81850367D01*
X57539234Y-81942941D01*
X57657059Y-82060766D01*
X57749633Y-82199313D01*
X57813399Y-82353258D01*
X57845907Y-82516685D01*
X57845907Y-82683315D01*
X57813399Y-82846742D01*
X57749633Y-83000687D01*
X57657059Y-83139234D01*
X57539234Y-83257059D01*
X57400687Y-83349633D01*
X57246742Y-83413399D01*
X57083315Y-83445907D01*
X56916685Y-83445907D01*
X56753258Y-83413399D01*
X56599313Y-83349633D01*
X56460766Y-83257059D01*
X56342941Y-83139234D01*
X56250367Y-83000687D01*
X56186601Y-82846742D01*
X56154093Y-82683315D01*
X56154093Y-82516685D01*
X56186601Y-82353258D01*
X56250367Y-82199313D01*
X56342941Y-82060766D01*
X56460766Y-81942941D01*
X56599313Y-81850367D01*
X56753258Y-81786601D01*
X56916685Y-81754093D01*
X57083315Y-81754093D01*
X57246742Y-81786601D01*
G37*
G36*
X85186742Y-81786601D02*
G01*
X85340687Y-81850367D01*
X85479234Y-81942941D01*
X85597059Y-82060766D01*
X85689633Y-82199313D01*
X85753399Y-82353258D01*
X85785907Y-82516685D01*
X85785907Y-82683315D01*
X85753399Y-82846742D01*
X85689633Y-83000687D01*
X85597059Y-83139234D01*
X85479234Y-83257059D01*
X85340687Y-83349633D01*
X85186742Y-83413399D01*
X85023315Y-83445907D01*
X84856685Y-83445907D01*
X84693258Y-83413399D01*
X84539313Y-83349633D01*
X84400766Y-83257059D01*
X84282941Y-83139234D01*
X84190367Y-83000687D01*
X84126601Y-82846742D01*
X84094093Y-82683315D01*
X84094093Y-82516685D01*
X84126601Y-82353258D01*
X84190367Y-82199313D01*
X84282941Y-82060766D01*
X84400766Y-81942941D01*
X84539313Y-81850367D01*
X84693258Y-81786601D01*
X84856685Y-81754093D01*
X85023315Y-81754093D01*
X85186742Y-81786601D01*
G37*
G36*
X57246742Y-79246601D02*
G01*
X57400687Y-79310367D01*
X57539234Y-79402941D01*
X57657059Y-79520766D01*
X57749633Y-79659313D01*
X57813399Y-79813258D01*
X57845907Y-79976685D01*
X57845907Y-80143315D01*
X57813399Y-80306742D01*
X57749633Y-80460687D01*
X57657059Y-80599234D01*
X57539234Y-80717059D01*
X57400687Y-80809633D01*
X57246742Y-80873399D01*
X57083315Y-80905907D01*
X56916685Y-80905907D01*
X56753258Y-80873399D01*
X56599313Y-80809633D01*
X56460766Y-80717059D01*
X56342941Y-80599234D01*
X56250367Y-80460687D01*
X56186601Y-80306742D01*
X56154093Y-80143315D01*
X56154093Y-79976685D01*
X56186601Y-79813258D01*
X56250367Y-79659313D01*
X56342941Y-79520766D01*
X56460766Y-79402941D01*
X56599313Y-79310367D01*
X56753258Y-79246601D01*
X56916685Y-79214093D01*
X57083315Y-79214093D01*
X57246742Y-79246601D01*
G37*
G36*
X85186742Y-79246601D02*
G01*
X85340687Y-79310367D01*
X85479234Y-79402941D01*
X85597059Y-79520766D01*
X85689633Y-79659313D01*
X85753399Y-79813258D01*
X85785907Y-79976685D01*
X85785907Y-80143315D01*
X85753399Y-80306742D01*
X85689633Y-80460687D01*
X85597059Y-80599234D01*
X85479234Y-80717059D01*
X85340687Y-80809633D01*
X85186742Y-80873399D01*
X85023315Y-80905907D01*
X84856685Y-80905907D01*
X84693258Y-80873399D01*
X84539313Y-80809633D01*
X84400766Y-80717059D01*
X84282941Y-80599234D01*
X84190367Y-80460687D01*
X84126601Y-80306742D01*
X84094093Y-80143315D01*
X84094093Y-79976685D01*
X84126601Y-79813258D01*
X84190367Y-79659313D01*
X84282941Y-79520766D01*
X84400766Y-79402941D01*
X84539313Y-79310367D01*
X84693258Y-79246601D01*
X84856685Y-79214093D01*
X85023315Y-79214093D01*
X85186742Y-79246601D01*
G37*
G36*
X57246742Y-76706601D02*
G01*
X57400687Y-76770367D01*
X57539234Y-76862941D01*
X57657059Y-76980766D01*
X57749633Y-77119313D01*
X57813399Y-77273258D01*
X57845907Y-77436685D01*
X57845907Y-77603315D01*
X57813399Y-77766742D01*
X57749633Y-77920687D01*
X57657059Y-78059234D01*
X57539234Y-78177059D01*
X57400687Y-78269633D01*
X57246742Y-78333399D01*
X57083315Y-78365907D01*
X56916685Y-78365907D01*
X56753258Y-78333399D01*
X56599313Y-78269633D01*
X56460766Y-78177059D01*
X56342941Y-78059234D01*
X56250367Y-77920687D01*
X56186601Y-77766742D01*
X56154093Y-77603315D01*
X56154093Y-77436685D01*
X56186601Y-77273258D01*
X56250367Y-77119313D01*
X56342941Y-76980766D01*
X56460766Y-76862941D01*
X56599313Y-76770367D01*
X56753258Y-76706601D01*
X56916685Y-76674093D01*
X57083315Y-76674093D01*
X57246742Y-76706601D01*
G37*
G36*
X85186742Y-76706601D02*
G01*
X85340687Y-76770367D01*
X85479234Y-76862941D01*
X85597059Y-76980766D01*
X85689633Y-77119313D01*
X85753399Y-77273258D01*
X85785907Y-77436685D01*
X85785907Y-77603315D01*
X85753399Y-77766742D01*
X85689633Y-77920687D01*
X85597059Y-78059234D01*
X85479234Y-78177059D01*
X85340687Y-78269633D01*
X85186742Y-78333399D01*
X85023315Y-78365907D01*
X84856685Y-78365907D01*
X84693258Y-78333399D01*
X84539313Y-78269633D01*
X84400766Y-78177059D01*
X84282941Y-78059234D01*
X84190367Y-77920687D01*
X84126601Y-77766742D01*
X84094093Y-77603315D01*
X84094093Y-77436685D01*
X84126601Y-77273258D01*
X84190367Y-77119313D01*
X84282941Y-76980766D01*
X84400766Y-76862941D01*
X84539313Y-76770367D01*
X84693258Y-76706601D01*
X84856685Y-76674093D01*
X85023315Y-76674093D01*
X85186742Y-76706601D01*
G37*
G36*
X57246742Y-74166601D02*
G01*
X57400687Y-74230367D01*
X57539234Y-74322941D01*
X57657059Y-74440766D01*
X57749633Y-74579313D01*
X57813399Y-74733258D01*
X57845907Y-74896685D01*
X57845907Y-75063315D01*
X57813399Y-75226742D01*
X57749633Y-75380687D01*
X57657059Y-75519234D01*
X57539234Y-75637059D01*
X57400687Y-75729633D01*
X57246742Y-75793399D01*
X57083315Y-75825907D01*
X56916685Y-75825907D01*
X56753258Y-75793399D01*
X56599313Y-75729633D01*
X56460766Y-75637059D01*
X56342941Y-75519234D01*
X56250367Y-75380687D01*
X56186601Y-75226742D01*
X56154093Y-75063315D01*
X56154093Y-74896685D01*
X56186601Y-74733258D01*
X56250367Y-74579313D01*
X56342941Y-74440766D01*
X56460766Y-74322941D01*
X56599313Y-74230367D01*
X56753258Y-74166601D01*
X56916685Y-74134093D01*
X57083315Y-74134093D01*
X57246742Y-74166601D01*
G37*
G36*
X85186742Y-74166601D02*
G01*
X85340687Y-74230367D01*
X85479234Y-74322941D01*
X85597059Y-74440766D01*
X85689633Y-74579313D01*
X85753399Y-74733258D01*
X85785907Y-74896685D01*
X85785907Y-75063315D01*
X85753399Y-75226742D01*
X85689633Y-75380687D01*
X85597059Y-75519234D01*
X85479234Y-75637059D01*
X85340687Y-75729633D01*
X85186742Y-75793399D01*
X85023315Y-75825907D01*
X84856685Y-75825907D01*
X84693258Y-75793399D01*
X84539313Y-75729633D01*
X84400766Y-75637059D01*
X84282941Y-75519234D01*
X84190367Y-75380687D01*
X84126601Y-75226742D01*
X84094093Y-75063315D01*
X84094093Y-74896685D01*
X84126601Y-74733258D01*
X84190367Y-74579313D01*
X84282941Y-74440766D01*
X84400766Y-74322941D01*
X84539313Y-74230367D01*
X84693258Y-74166601D01*
X84856685Y-74134093D01*
X85023315Y-74134093D01*
X85186742Y-74166601D01*
G37*
G36*
X32246742Y-73726601D02*
G01*
X32400687Y-73790367D01*
X32539234Y-73882941D01*
X32657059Y-74000766D01*
X32749633Y-74139313D01*
X32813399Y-74293258D01*
X32845907Y-74456685D01*
X32845907Y-74623315D01*
X32813399Y-74786742D01*
X32749633Y-74940687D01*
X32657059Y-75079234D01*
X32539234Y-75197059D01*
X32400687Y-75289633D01*
X32246742Y-75353399D01*
X32083315Y-75385907D01*
X31916685Y-75385907D01*
X31753258Y-75353399D01*
X31599313Y-75289633D01*
X31460766Y-75197059D01*
X31342941Y-75079234D01*
X31250367Y-74940687D01*
X31186601Y-74786742D01*
X31154093Y-74623315D01*
X31154093Y-74456685D01*
X31186601Y-74293258D01*
X31250367Y-74139313D01*
X31342941Y-74000766D01*
X31460766Y-73882941D01*
X31599313Y-73790367D01*
X31753258Y-73726601D01*
X31916685Y-73694093D01*
X32083315Y-73694093D01*
X32246742Y-73726601D01*
G37*
G36*
X57246742Y-71626601D02*
G01*
X57400687Y-71690367D01*
X57539234Y-71782941D01*
X57657059Y-71900766D01*
X57749633Y-72039313D01*
X57813399Y-72193258D01*
X57845907Y-72356685D01*
X57845907Y-72523315D01*
X57813399Y-72686742D01*
X57749633Y-72840687D01*
X57657059Y-72979234D01*
X57539234Y-73097059D01*
X57400687Y-73189633D01*
X57246742Y-73253399D01*
X57083315Y-73285907D01*
X56916685Y-73285907D01*
X56753258Y-73253399D01*
X56599313Y-73189633D01*
X56460766Y-73097059D01*
X56342941Y-72979234D01*
X56250367Y-72840687D01*
X56186601Y-72686742D01*
X56154093Y-72523315D01*
X56154093Y-72356685D01*
X56186601Y-72193258D01*
X56250367Y-72039313D01*
X56342941Y-71900766D01*
X56460766Y-71782941D01*
X56599313Y-71690367D01*
X56753258Y-71626601D01*
X56916685Y-71594093D01*
X57083315Y-71594093D01*
X57246742Y-71626601D01*
G37*
G36*
X85186742Y-71626601D02*
G01*
X85340687Y-71690367D01*
X85479234Y-71782941D01*
X85597059Y-71900766D01*
X85689633Y-72039313D01*
X85753399Y-72193258D01*
X85785907Y-72356685D01*
X85785907Y-72523315D01*
X85753399Y-72686742D01*
X85689633Y-72840687D01*
X85597059Y-72979234D01*
X85479234Y-73097059D01*
X85340687Y-73189633D01*
X85186742Y-73253399D01*
X85023315Y-73285907D01*
X84856685Y-73285907D01*
X84693258Y-73253399D01*
X84539313Y-73189633D01*
X84400766Y-73097059D01*
X84282941Y-72979234D01*
X84190367Y-72840687D01*
X84126601Y-72686742D01*
X84094093Y-72523315D01*
X84094093Y-72356685D01*
X84126601Y-72193258D01*
X84190367Y-72039313D01*
X84282941Y-71900766D01*
X84400766Y-71782941D01*
X84539313Y-71690367D01*
X84693258Y-71626601D01*
X84856685Y-71594093D01*
X85023315Y-71594093D01*
X85186742Y-71626601D01*
G37*
G36*
X32850000Y-72850000D02*
G01*
X31150000Y-72850000D01*
X31150000Y-71150000D01*
X32850000Y-71150000D01*
X32850000Y-72850000D01*
G37*
G36*
X57246742Y-69086601D02*
G01*
X57400687Y-69150367D01*
X57539234Y-69242941D01*
X57657059Y-69360766D01*
X57749633Y-69499313D01*
X57813399Y-69653258D01*
X57845907Y-69816685D01*
X57845907Y-69983315D01*
X57813399Y-70146742D01*
X57749633Y-70300687D01*
X57657059Y-70439234D01*
X57539234Y-70557059D01*
X57400687Y-70649633D01*
X57246742Y-70713399D01*
X57083315Y-70745907D01*
X56916685Y-70745907D01*
X56753258Y-70713399D01*
X56599313Y-70649633D01*
X56460766Y-70557059D01*
X56342941Y-70439234D01*
X56250367Y-70300687D01*
X56186601Y-70146742D01*
X56154093Y-69983315D01*
X56154093Y-69816685D01*
X56186601Y-69653258D01*
X56250367Y-69499313D01*
X56342941Y-69360766D01*
X56460766Y-69242941D01*
X56599313Y-69150367D01*
X56753258Y-69086601D01*
X56916685Y-69054093D01*
X57083315Y-69054093D01*
X57246742Y-69086601D01*
G37*
G36*
X85186742Y-69086601D02*
G01*
X85340687Y-69150367D01*
X85479234Y-69242941D01*
X85597059Y-69360766D01*
X85689633Y-69499313D01*
X85753399Y-69653258D01*
X85785907Y-69816685D01*
X85785907Y-69983315D01*
X85753399Y-70146742D01*
X85689633Y-70300687D01*
X85597059Y-70439234D01*
X85479234Y-70557059D01*
X85340687Y-70649633D01*
X85186742Y-70713399D01*
X85023315Y-70745907D01*
X84856685Y-70745907D01*
X84693258Y-70713399D01*
X84539313Y-70649633D01*
X84400766Y-70557059D01*
X84282941Y-70439234D01*
X84190367Y-70300687D01*
X84126601Y-70146742D01*
X84094093Y-69983315D01*
X84094093Y-69816685D01*
X84126601Y-69653258D01*
X84190367Y-69499313D01*
X84282941Y-69360766D01*
X84400766Y-69242941D01*
X84539313Y-69150367D01*
X84693258Y-69086601D01*
X84856685Y-69054093D01*
X85023315Y-69054093D01*
X85186742Y-69086601D01*
G37*
G36*
X57246742Y-66546601D02*
G01*
X57400687Y-66610367D01*
X57539234Y-66702941D01*
X57657059Y-66820766D01*
X57749633Y-66959313D01*
X57813399Y-67113258D01*
X57845907Y-67276685D01*
X57845907Y-67443315D01*
X57813399Y-67606742D01*
X57749633Y-67760687D01*
X57657059Y-67899234D01*
X57539234Y-68017059D01*
X57400687Y-68109633D01*
X57246742Y-68173399D01*
X57083315Y-68205907D01*
X56916685Y-68205907D01*
X56753258Y-68173399D01*
X56599313Y-68109633D01*
X56460766Y-68017059D01*
X56342941Y-67899234D01*
X56250367Y-67760687D01*
X56186601Y-67606742D01*
X56154093Y-67443315D01*
X56154093Y-67276685D01*
X56186601Y-67113258D01*
X56250367Y-66959313D01*
X56342941Y-66820766D01*
X56460766Y-66702941D01*
X56599313Y-66610367D01*
X56753258Y-66546601D01*
X56916685Y-66514093D01*
X57083315Y-66514093D01*
X57246742Y-66546601D01*
G37*
G36*
X85186742Y-66546601D02*
G01*
X85340687Y-66610367D01*
X85479234Y-66702941D01*
X85597059Y-66820766D01*
X85689633Y-66959313D01*
X85753399Y-67113258D01*
X85785907Y-67276685D01*
X85785907Y-67443315D01*
X85753399Y-67606742D01*
X85689633Y-67760687D01*
X85597059Y-67899234D01*
X85479234Y-68017059D01*
X85340687Y-68109633D01*
X85186742Y-68173399D01*
X85023315Y-68205907D01*
X84856685Y-68205907D01*
X84693258Y-68173399D01*
X84539313Y-68109633D01*
X84400766Y-68017059D01*
X84282941Y-67899234D01*
X84190367Y-67760687D01*
X84126601Y-67606742D01*
X84094093Y-67443315D01*
X84094093Y-67276685D01*
X84126601Y-67113258D01*
X84190367Y-66959313D01*
X84282941Y-66820766D01*
X84400766Y-66702941D01*
X84539313Y-66610367D01*
X84693258Y-66546601D01*
X84856685Y-66514093D01*
X85023315Y-66514093D01*
X85186742Y-66546601D01*
G37*
G36*
X57246742Y-64006601D02*
G01*
X57400687Y-64070367D01*
X57539234Y-64162941D01*
X57657059Y-64280766D01*
X57749633Y-64419313D01*
X57813399Y-64573258D01*
X57845907Y-64736685D01*
X57845907Y-64903315D01*
X57813399Y-65066742D01*
X57749633Y-65220687D01*
X57657059Y-65359234D01*
X57539234Y-65477059D01*
X57400687Y-65569633D01*
X57246742Y-65633399D01*
X57083315Y-65665907D01*
X56916685Y-65665907D01*
X56753258Y-65633399D01*
X56599313Y-65569633D01*
X56460766Y-65477059D01*
X56342941Y-65359234D01*
X56250367Y-65220687D01*
X56186601Y-65066742D01*
X56154093Y-64903315D01*
X56154093Y-64736685D01*
X56186601Y-64573258D01*
X56250367Y-64419313D01*
X56342941Y-64280766D01*
X56460766Y-64162941D01*
X56599313Y-64070367D01*
X56753258Y-64006601D01*
X56916685Y-63974093D01*
X57083315Y-63974093D01*
X57246742Y-64006601D01*
G37*
G36*
X85186742Y-64006601D02*
G01*
X85340687Y-64070367D01*
X85479234Y-64162941D01*
X85597059Y-64280766D01*
X85689633Y-64419313D01*
X85753399Y-64573258D01*
X85785907Y-64736685D01*
X85785907Y-64903315D01*
X85753399Y-65066742D01*
X85689633Y-65220687D01*
X85597059Y-65359234D01*
X85479234Y-65477059D01*
X85340687Y-65569633D01*
X85186742Y-65633399D01*
X85023315Y-65665907D01*
X84856685Y-65665907D01*
X84693258Y-65633399D01*
X84539313Y-65569633D01*
X84400766Y-65477059D01*
X84282941Y-65359234D01*
X84190367Y-65220687D01*
X84126601Y-65066742D01*
X84094093Y-64903315D01*
X84094093Y-64736685D01*
X84126601Y-64573258D01*
X84190367Y-64419313D01*
X84282941Y-64280766D01*
X84400766Y-64162941D01*
X84539313Y-64070367D01*
X84693258Y-64006601D01*
X84856685Y-63974093D01*
X85023315Y-63974093D01*
X85186742Y-64006601D01*
G37*
G36*
X57246742Y-61466601D02*
G01*
X57400687Y-61530367D01*
X57539234Y-61622941D01*
X57657059Y-61740766D01*
X57749633Y-61879313D01*
X57813399Y-62033258D01*
X57845907Y-62196685D01*
X57845907Y-62363315D01*
X57813399Y-62526742D01*
X57749633Y-62680687D01*
X57657059Y-62819234D01*
X57539234Y-62937059D01*
X57400687Y-63029633D01*
X57246742Y-63093399D01*
X57083315Y-63125907D01*
X56916685Y-63125907D01*
X56753258Y-63093399D01*
X56599313Y-63029633D01*
X56460766Y-62937059D01*
X56342941Y-62819234D01*
X56250367Y-62680687D01*
X56186601Y-62526742D01*
X56154093Y-62363315D01*
X56154093Y-62196685D01*
X56186601Y-62033258D01*
X56250367Y-61879313D01*
X56342941Y-61740766D01*
X56460766Y-61622941D01*
X56599313Y-61530367D01*
X56753258Y-61466601D01*
X56916685Y-61434093D01*
X57083315Y-61434093D01*
X57246742Y-61466601D01*
G37*
G36*
X85186742Y-61466601D02*
G01*
X85340687Y-61530367D01*
X85479234Y-61622941D01*
X85597059Y-61740766D01*
X85689633Y-61879313D01*
X85753399Y-62033258D01*
X85785907Y-62196685D01*
X85785907Y-62363315D01*
X85753399Y-62526742D01*
X85689633Y-62680687D01*
X85597059Y-62819234D01*
X85479234Y-62937059D01*
X85340687Y-63029633D01*
X85186742Y-63093399D01*
X85023315Y-63125907D01*
X84856685Y-63125907D01*
X84693258Y-63093399D01*
X84539313Y-63029633D01*
X84400766Y-62937059D01*
X84282941Y-62819234D01*
X84190367Y-62680687D01*
X84126601Y-62526742D01*
X84094093Y-62363315D01*
X84094093Y-62196685D01*
X84126601Y-62033258D01*
X84190367Y-61879313D01*
X84282941Y-61740766D01*
X84400766Y-61622941D01*
X84539313Y-61530367D01*
X84693258Y-61466601D01*
X84856685Y-61434093D01*
X85023315Y-61434093D01*
X85186742Y-61466601D01*
G37*
G36*
X57246742Y-58926601D02*
G01*
X57400687Y-58990367D01*
X57539234Y-59082941D01*
X57657059Y-59200766D01*
X57749633Y-59339313D01*
X57813399Y-59493258D01*
X57845907Y-59656685D01*
X57845907Y-59823315D01*
X57813399Y-59986742D01*
X57749633Y-60140687D01*
X57657059Y-60279234D01*
X57539234Y-60397059D01*
X57400687Y-60489633D01*
X57246742Y-60553399D01*
X57083315Y-60585907D01*
X56916685Y-60585907D01*
X56753258Y-60553399D01*
X56599313Y-60489633D01*
X56460766Y-60397059D01*
X56342941Y-60279234D01*
X56250367Y-60140687D01*
X56186601Y-59986742D01*
X56154093Y-59823315D01*
X56154093Y-59656685D01*
X56186601Y-59493258D01*
X56250367Y-59339313D01*
X56342941Y-59200766D01*
X56460766Y-59082941D01*
X56599313Y-58990367D01*
X56753258Y-58926601D01*
X56916685Y-58894093D01*
X57083315Y-58894093D01*
X57246742Y-58926601D01*
G37*
G36*
X85186742Y-58926601D02*
G01*
X85340687Y-58990367D01*
X85479234Y-59082941D01*
X85597059Y-59200766D01*
X85689633Y-59339313D01*
X85753399Y-59493258D01*
X85785907Y-59656685D01*
X85785907Y-59823315D01*
X85753399Y-59986742D01*
X85689633Y-60140687D01*
X85597059Y-60279234D01*
X85479234Y-60397059D01*
X85340687Y-60489633D01*
X85186742Y-60553399D01*
X85023315Y-60585907D01*
X84856685Y-60585907D01*
X84693258Y-60553399D01*
X84539313Y-60489633D01*
X84400766Y-60397059D01*
X84282941Y-60279234D01*
X84190367Y-60140687D01*
X84126601Y-59986742D01*
X84094093Y-59823315D01*
X84094093Y-59656685D01*
X84126601Y-59493258D01*
X84190367Y-59339313D01*
X84282941Y-59200766D01*
X84400766Y-59082941D01*
X84539313Y-58990367D01*
X84693258Y-58926601D01*
X84856685Y-58894093D01*
X85023315Y-58894093D01*
X85186742Y-58926601D01*
G37*
G36*
X57246742Y-56386601D02*
G01*
X57400687Y-56450367D01*
X57539234Y-56542941D01*
X57657059Y-56660766D01*
X57749633Y-56799313D01*
X57813399Y-56953258D01*
X57845907Y-57116685D01*
X57845907Y-57283315D01*
X57813399Y-57446742D01*
X57749633Y-57600687D01*
X57657059Y-57739234D01*
X57539234Y-57857059D01*
X57400687Y-57949633D01*
X57246742Y-58013399D01*
X57083315Y-58045907D01*
X56916685Y-58045907D01*
X56753258Y-58013399D01*
X56599313Y-57949633D01*
X56460766Y-57857059D01*
X56342941Y-57739234D01*
X56250367Y-57600687D01*
X56186601Y-57446742D01*
X56154093Y-57283315D01*
X56154093Y-57116685D01*
X56186601Y-56953258D01*
X56250367Y-56799313D01*
X56342941Y-56660766D01*
X56460766Y-56542941D01*
X56599313Y-56450367D01*
X56753258Y-56386601D01*
X56916685Y-56354093D01*
X57083315Y-56354093D01*
X57246742Y-56386601D01*
G37*
G36*
X85186742Y-56386601D02*
G01*
X85340687Y-56450367D01*
X85479234Y-56542941D01*
X85597059Y-56660766D01*
X85689633Y-56799313D01*
X85753399Y-56953258D01*
X85785907Y-57116685D01*
X85785907Y-57283315D01*
X85753399Y-57446742D01*
X85689633Y-57600687D01*
X85597059Y-57739234D01*
X85479234Y-57857059D01*
X85340687Y-57949633D01*
X85186742Y-58013399D01*
X85023315Y-58045907D01*
X84856685Y-58045907D01*
X84693258Y-58013399D01*
X84539313Y-57949633D01*
X84400766Y-57857059D01*
X84282941Y-57739234D01*
X84190367Y-57600687D01*
X84126601Y-57446742D01*
X84094093Y-57283315D01*
X84094093Y-57116685D01*
X84126601Y-56953258D01*
X84190367Y-56799313D01*
X84282941Y-56660766D01*
X84400766Y-56542941D01*
X84539313Y-56450367D01*
X84693258Y-56386601D01*
X84856685Y-56354093D01*
X85023315Y-56354093D01*
X85186742Y-56386601D01*
G37*
G36*
X57246742Y-53846601D02*
G01*
X57400687Y-53910367D01*
X57539234Y-54002941D01*
X57657059Y-54120766D01*
X57749633Y-54259313D01*
X57813399Y-54413258D01*
X57845907Y-54576685D01*
X57845907Y-54743315D01*
X57813399Y-54906742D01*
X57749633Y-55060687D01*
X57657059Y-55199234D01*
X57539234Y-55317059D01*
X57400687Y-55409633D01*
X57246742Y-55473399D01*
X57083315Y-55505907D01*
X56916685Y-55505907D01*
X56753258Y-55473399D01*
X56599313Y-55409633D01*
X56460766Y-55317059D01*
X56342941Y-55199234D01*
X56250367Y-55060687D01*
X56186601Y-54906742D01*
X56154093Y-54743315D01*
X56154093Y-54576685D01*
X56186601Y-54413258D01*
X56250367Y-54259313D01*
X56342941Y-54120766D01*
X56460766Y-54002941D01*
X56599313Y-53910367D01*
X56753258Y-53846601D01*
X56916685Y-53814093D01*
X57083315Y-53814093D01*
X57246742Y-53846601D01*
G37*
G36*
X85186742Y-53846601D02*
G01*
X85340687Y-53910367D01*
X85479234Y-54002941D01*
X85597059Y-54120766D01*
X85689633Y-54259313D01*
X85753399Y-54413258D01*
X85785907Y-54576685D01*
X85785907Y-54743315D01*
X85753399Y-54906742D01*
X85689633Y-55060687D01*
X85597059Y-55199234D01*
X85479234Y-55317059D01*
X85340687Y-55409633D01*
X85186742Y-55473399D01*
X85023315Y-55505907D01*
X84856685Y-55505907D01*
X84693258Y-55473399D01*
X84539313Y-55409633D01*
X84400766Y-55317059D01*
X84282941Y-55199234D01*
X84190367Y-55060687D01*
X84126601Y-54906742D01*
X84094093Y-54743315D01*
X84094093Y-54576685D01*
X84126601Y-54413258D01*
X84190367Y-54259313D01*
X84282941Y-54120766D01*
X84400766Y-54002941D01*
X84539313Y-53910367D01*
X84693258Y-53846601D01*
X84856685Y-53814093D01*
X85023315Y-53814093D01*
X85186742Y-53846601D01*
G37*
G36*
X57246742Y-51306601D02*
G01*
X57400687Y-51370367D01*
X57539234Y-51462941D01*
X57657059Y-51580766D01*
X57749633Y-51719313D01*
X57813399Y-51873258D01*
X57845907Y-52036685D01*
X57845907Y-52203315D01*
X57813399Y-52366742D01*
X57749633Y-52520687D01*
X57657059Y-52659234D01*
X57539234Y-52777059D01*
X57400687Y-52869633D01*
X57246742Y-52933399D01*
X57083315Y-52965907D01*
X56916685Y-52965907D01*
X56753258Y-52933399D01*
X56599313Y-52869633D01*
X56460766Y-52777059D01*
X56342941Y-52659234D01*
X56250367Y-52520687D01*
X56186601Y-52366742D01*
X56154093Y-52203315D01*
X56154093Y-52036685D01*
X56186601Y-51873258D01*
X56250367Y-51719313D01*
X56342941Y-51580766D01*
X56460766Y-51462941D01*
X56599313Y-51370367D01*
X56753258Y-51306601D01*
X56916685Y-51274093D01*
X57083315Y-51274093D01*
X57246742Y-51306601D01*
G37*
G36*
X85186742Y-51306601D02*
G01*
X85340687Y-51370367D01*
X85479234Y-51462941D01*
X85597059Y-51580766D01*
X85689633Y-51719313D01*
X85753399Y-51873258D01*
X85785907Y-52036685D01*
X85785907Y-52203315D01*
X85753399Y-52366742D01*
X85689633Y-52520687D01*
X85597059Y-52659234D01*
X85479234Y-52777059D01*
X85340687Y-52869633D01*
X85186742Y-52933399D01*
X85023315Y-52965907D01*
X84856685Y-52965907D01*
X84693258Y-52933399D01*
X84539313Y-52869633D01*
X84400766Y-52777059D01*
X84282941Y-52659234D01*
X84190367Y-52520687D01*
X84126601Y-52366742D01*
X84094093Y-52203315D01*
X84094093Y-52036685D01*
X84126601Y-51873258D01*
X84190367Y-51719313D01*
X84282941Y-51580766D01*
X84400766Y-51462941D01*
X84539313Y-51370367D01*
X84693258Y-51306601D01*
X84856685Y-51274093D01*
X85023315Y-51274093D01*
X85186742Y-51306601D01*
G37*
G36*
X57246742Y-48766601D02*
G01*
X57400687Y-48830367D01*
X57539234Y-48922941D01*
X57657059Y-49040766D01*
X57749633Y-49179313D01*
X57813399Y-49333258D01*
X57845907Y-49496685D01*
X57845907Y-49663315D01*
X57813399Y-49826742D01*
X57749633Y-49980687D01*
X57657059Y-50119234D01*
X57539234Y-50237059D01*
X57400687Y-50329633D01*
X57246742Y-50393399D01*
X57083315Y-50425907D01*
X56916685Y-50425907D01*
X56753258Y-50393399D01*
X56599313Y-50329633D01*
X56460766Y-50237059D01*
X56342941Y-50119234D01*
X56250367Y-49980687D01*
X56186601Y-49826742D01*
X56154093Y-49663315D01*
X56154093Y-49496685D01*
X56186601Y-49333258D01*
X56250367Y-49179313D01*
X56342941Y-49040766D01*
X56460766Y-48922941D01*
X56599313Y-48830367D01*
X56753258Y-48766601D01*
X56916685Y-48734093D01*
X57083315Y-48734093D01*
X57246742Y-48766601D01*
G37*
G36*
X85186742Y-48766601D02*
G01*
X85340687Y-48830367D01*
X85479234Y-48922941D01*
X85597059Y-49040766D01*
X85689633Y-49179313D01*
X85753399Y-49333258D01*
X85785907Y-49496685D01*
X85785907Y-49663315D01*
X85753399Y-49826742D01*
X85689633Y-49980687D01*
X85597059Y-50119234D01*
X85479234Y-50237059D01*
X85340687Y-50329633D01*
X85186742Y-50393399D01*
X85023315Y-50425907D01*
X84856685Y-50425907D01*
X84693258Y-50393399D01*
X84539313Y-50329633D01*
X84400766Y-50237059D01*
X84282941Y-50119234D01*
X84190367Y-49980687D01*
X84126601Y-49826742D01*
X84094093Y-49663315D01*
X84094093Y-49496685D01*
X84126601Y-49333258D01*
X84190367Y-49179313D01*
X84282941Y-49040766D01*
X84400766Y-48922941D01*
X84539313Y-48830367D01*
X84693258Y-48766601D01*
X84856685Y-48734093D01*
X85023315Y-48734093D01*
X85186742Y-48766601D01*
G37*
G36*
X57246742Y-46226601D02*
G01*
X57400687Y-46290367D01*
X57539234Y-46382941D01*
X57657059Y-46500766D01*
X57749633Y-46639313D01*
X57813399Y-46793258D01*
X57845907Y-46956685D01*
X57845907Y-47123315D01*
X57813399Y-47286742D01*
X57749633Y-47440687D01*
X57657059Y-47579234D01*
X57539234Y-47697059D01*
X57400687Y-47789633D01*
X57246742Y-47853399D01*
X57083315Y-47885907D01*
X56916685Y-47885907D01*
X56753258Y-47853399D01*
X56599313Y-47789633D01*
X56460766Y-47697059D01*
X56342941Y-47579234D01*
X56250367Y-47440687D01*
X56186601Y-47286742D01*
X56154093Y-47123315D01*
X56154093Y-46956685D01*
X56186601Y-46793258D01*
X56250367Y-46639313D01*
X56342941Y-46500766D01*
X56460766Y-46382941D01*
X56599313Y-46290367D01*
X56753258Y-46226601D01*
X56916685Y-46194093D01*
X57083315Y-46194093D01*
X57246742Y-46226601D01*
G37*
G36*
X85186742Y-46226601D02*
G01*
X85340687Y-46290367D01*
X85479234Y-46382941D01*
X85597059Y-46500766D01*
X85689633Y-46639313D01*
X85753399Y-46793258D01*
X85785907Y-46956685D01*
X85785907Y-47123315D01*
X85753399Y-47286742D01*
X85689633Y-47440687D01*
X85597059Y-47579234D01*
X85479234Y-47697059D01*
X85340687Y-47789633D01*
X85186742Y-47853399D01*
X85023315Y-47885907D01*
X84856685Y-47885907D01*
X84693258Y-47853399D01*
X84539313Y-47789633D01*
X84400766Y-47697059D01*
X84282941Y-47579234D01*
X84190367Y-47440687D01*
X84126601Y-47286742D01*
X84094093Y-47123315D01*
X84094093Y-46956685D01*
X84126601Y-46793258D01*
X84190367Y-46639313D01*
X84282941Y-46500766D01*
X84400766Y-46382941D01*
X84539313Y-46290367D01*
X84693258Y-46226601D01*
X84856685Y-46194093D01*
X85023315Y-46194093D01*
X85186742Y-46226601D01*
G37*
G36*
X57850000Y-45350000D02*
G01*
X56150000Y-45350000D01*
X56150000Y-43650000D01*
X57850000Y-43650000D01*
X57850000Y-45350000D01*
G37*
G36*
X85790000Y-45350000D02*
G01*
X84090000Y-45350000D01*
X84090000Y-43650000D01*
X85790000Y-43650000D01*
X85790000Y-45350000D01*
G37*
G36*
X13246742Y-39726601D02*
G01*
X13400687Y-39790367D01*
X13539234Y-39882941D01*
X13657059Y-40000766D01*
X13749633Y-40139313D01*
X13813399Y-40293258D01*
X13845907Y-40456685D01*
X13845907Y-40623315D01*
X13813399Y-40786742D01*
X13749633Y-40940687D01*
X13657059Y-41079234D01*
X13539234Y-41197059D01*
X13400687Y-41289633D01*
X13246742Y-41353399D01*
X13083315Y-41385907D01*
X12916685Y-41385907D01*
X12753258Y-41353399D01*
X12599313Y-41289633D01*
X12460766Y-41197059D01*
X12342941Y-41079234D01*
X12250367Y-40940687D01*
X12186601Y-40786742D01*
X12154093Y-40623315D01*
X12154093Y-40456685D01*
X12186601Y-40293258D01*
X12250367Y-40139313D01*
X12342941Y-40000766D01*
X12460766Y-39882941D01*
X12599313Y-39790367D01*
X12753258Y-39726601D01*
X12916685Y-39694093D01*
X13083315Y-39694093D01*
X13246742Y-39726601D01*
G37*
G36*
X13850000Y-38850000D02*
G01*
X12150000Y-38850000D01*
X12150000Y-37150000D01*
X13850000Y-37150000D01*
X13850000Y-38850000D01*
G37*
G36*
X13090285Y-23143060D02*
G01*
X13271397Y-23218079D01*
X13434393Y-23326990D01*
X13573010Y-23465607D01*
X13681921Y-23628603D01*
X13756940Y-23809715D01*
X13795185Y-24001983D01*
X13800000Y-24100000D01*
X13800000Y-27100000D01*
X13795185Y-27198017D01*
X13756940Y-27390285D01*
X13681921Y-27571397D01*
X13573010Y-27734393D01*
X13434393Y-27873010D01*
X13271397Y-27981921D01*
X13090285Y-28056940D01*
X12898017Y-28095185D01*
X12701983Y-28095185D01*
X12509715Y-28056940D01*
X12328603Y-27981921D01*
X12165607Y-27873010D01*
X12026990Y-27734393D01*
X11918079Y-27571397D01*
X11843060Y-27390285D01*
X11804815Y-27198017D01*
X11800000Y-27100000D01*
X11800000Y-24100000D01*
X11804815Y-24001983D01*
X11843060Y-23809715D01*
X11918079Y-23628603D01*
X12026990Y-23465607D01*
X12165607Y-23326990D01*
X12328603Y-23218079D01*
X12509715Y-23143060D01*
X12701983Y-23104815D01*
X12898017Y-23104815D01*
X13090285Y-23143060D01*
G37*
G36*
X82990285Y-23143060D02*
G01*
X83171397Y-23218079D01*
X83334393Y-23326990D01*
X83473010Y-23465607D01*
X83581921Y-23628603D01*
X83656940Y-23809715D01*
X83695185Y-24001983D01*
X83700000Y-24100000D01*
X83700000Y-27100000D01*
X83695185Y-27198017D01*
X83656940Y-27390285D01*
X83581921Y-27571397D01*
X83473010Y-27734393D01*
X83334393Y-27873010D01*
X83171397Y-27981921D01*
X82990285Y-28056940D01*
X82798017Y-28095185D01*
X82601983Y-28095185D01*
X82409715Y-28056940D01*
X82228603Y-27981921D01*
X82065607Y-27873010D01*
X81926990Y-27734393D01*
X81818079Y-27571397D01*
X81743060Y-27390285D01*
X81704815Y-27198017D01*
X81700000Y-27100000D01*
X81700000Y-24100000D01*
X81704815Y-24001983D01*
X81743060Y-23809715D01*
X81818079Y-23628603D01*
X81926990Y-23465607D01*
X82065607Y-23326990D01*
X82228603Y-23218079D01*
X82409715Y-23143060D01*
X82601983Y-23104815D01*
X82798017Y-23104815D01*
X82990285Y-23143060D01*
G37*
G36*
X31232228Y-26234448D02*
G01*
X31377117Y-26294463D01*
X31507515Y-26381592D01*
X31618408Y-26492485D01*
X31705537Y-26622883D01*
X31765552Y-26767772D01*
X31796148Y-26921586D01*
X31796148Y-27078414D01*
X31765552Y-27232228D01*
X31705537Y-27377117D01*
X31618408Y-27507515D01*
X31507515Y-27618408D01*
X31377117Y-27705537D01*
X31232228Y-27765552D01*
X31078414Y-27796148D01*
X30921586Y-27796148D01*
X30767772Y-27765552D01*
X30622883Y-27705537D01*
X30492485Y-27618408D01*
X30381592Y-27507515D01*
X30294463Y-27377117D01*
X30234448Y-27232228D01*
X30203852Y-27078414D01*
X30203852Y-26921586D01*
X30234448Y-26767772D01*
X30294463Y-26622883D01*
X30381592Y-26492485D01*
X30492485Y-26381592D01*
X30622883Y-26294463D01*
X30767772Y-26234448D01*
X30921586Y-26203852D01*
X31078414Y-26203852D01*
X31232228Y-26234448D01*
G37*
G36*
X34232228Y-26234448D02*
G01*
X34377117Y-26294463D01*
X34507515Y-26381592D01*
X34618408Y-26492485D01*
X34705537Y-26622883D01*
X34765552Y-26767772D01*
X34796148Y-26921586D01*
X34796148Y-27078414D01*
X34765552Y-27232228D01*
X34705537Y-27377117D01*
X34618408Y-27507515D01*
X34507515Y-27618408D01*
X34377117Y-27705537D01*
X34232228Y-27765552D01*
X34078414Y-27796148D01*
X33921586Y-27796148D01*
X33767772Y-27765552D01*
X33622883Y-27705537D01*
X33492485Y-27618408D01*
X33381592Y-27507515D01*
X33294463Y-27377117D01*
X33234448Y-27232228D01*
X33203852Y-27078414D01*
X33203852Y-26921586D01*
X33234448Y-26767772D01*
X33294463Y-26622883D01*
X33381592Y-26492485D01*
X33492485Y-26381592D01*
X33622883Y-26294463D01*
X33767772Y-26234448D01*
X33921586Y-26203852D01*
X34078414Y-26203852D01*
X34232228Y-26234448D01*
G37*
G36*
X37232228Y-26234448D02*
G01*
X37377117Y-26294463D01*
X37507515Y-26381592D01*
X37618408Y-26492485D01*
X37705537Y-26622883D01*
X37765552Y-26767772D01*
X37796148Y-26921586D01*
X37796148Y-27078414D01*
X37765552Y-27232228D01*
X37705537Y-27377117D01*
X37618408Y-27507515D01*
X37507515Y-27618408D01*
X37377117Y-27705537D01*
X37232228Y-27765552D01*
X37078414Y-27796148D01*
X36921586Y-27796148D01*
X36767772Y-27765552D01*
X36622883Y-27705537D01*
X36492485Y-27618408D01*
X36381592Y-27507515D01*
X36294463Y-27377117D01*
X36234448Y-27232228D01*
X36203852Y-27078414D01*
X36203852Y-26921586D01*
X36234448Y-26767772D01*
X36294463Y-26622883D01*
X36381592Y-26492485D01*
X36492485Y-26381592D01*
X36622883Y-26294463D01*
X36767772Y-26234448D01*
X36921586Y-26203852D01*
X37078414Y-26203852D01*
X37232228Y-26234448D01*
G37*
G36*
X40232228Y-26234448D02*
G01*
X40377117Y-26294463D01*
X40507515Y-26381592D01*
X40618408Y-26492485D01*
X40705537Y-26622883D01*
X40765552Y-26767772D01*
X40796148Y-26921586D01*
X40796148Y-27078414D01*
X40765552Y-27232228D01*
X40705537Y-27377117D01*
X40618408Y-27507515D01*
X40507515Y-27618408D01*
X40377117Y-27705537D01*
X40232228Y-27765552D01*
X40078414Y-27796148D01*
X39921586Y-27796148D01*
X39767772Y-27765552D01*
X39622883Y-27705537D01*
X39492485Y-27618408D01*
X39381592Y-27507515D01*
X39294463Y-27377117D01*
X39234448Y-27232228D01*
X39203852Y-27078414D01*
X39203852Y-26921586D01*
X39234448Y-26767772D01*
X39294463Y-26622883D01*
X39381592Y-26492485D01*
X39492485Y-26381592D01*
X39622883Y-26294463D01*
X39767772Y-26234448D01*
X39921586Y-26203852D01*
X40078414Y-26203852D01*
X40232228Y-26234448D01*
G37*
G36*
X43232228Y-26234448D02*
G01*
X43377117Y-26294463D01*
X43507515Y-26381592D01*
X43618408Y-26492485D01*
X43705537Y-26622883D01*
X43765552Y-26767772D01*
X43796148Y-26921586D01*
X43796148Y-27078414D01*
X43765552Y-27232228D01*
X43705537Y-27377117D01*
X43618408Y-27507515D01*
X43507515Y-27618408D01*
X43377117Y-27705537D01*
X43232228Y-27765552D01*
X43078414Y-27796148D01*
X42921586Y-27796148D01*
X42767772Y-27765552D01*
X42622883Y-27705537D01*
X42492485Y-27618408D01*
X42381592Y-27507515D01*
X42294463Y-27377117D01*
X42234448Y-27232228D01*
X42203852Y-27078414D01*
X42203852Y-26921586D01*
X42234448Y-26767772D01*
X42294463Y-26622883D01*
X42381592Y-26492485D01*
X42492485Y-26381592D01*
X42622883Y-26294463D01*
X42767772Y-26234448D01*
X42921586Y-26203852D01*
X43078414Y-26203852D01*
X43232228Y-26234448D01*
G37*
G36*
X46232228Y-26234448D02*
G01*
X46377117Y-26294463D01*
X46507515Y-26381592D01*
X46618408Y-26492485D01*
X46705537Y-26622883D01*
X46765552Y-26767772D01*
X46796148Y-26921586D01*
X46796148Y-27078414D01*
X46765552Y-27232228D01*
X46705537Y-27377117D01*
X46618408Y-27507515D01*
X46507515Y-27618408D01*
X46377117Y-27705537D01*
X46232228Y-27765552D01*
X46078414Y-27796148D01*
X45921586Y-27796148D01*
X45767772Y-27765552D01*
X45622883Y-27705537D01*
X45492485Y-27618408D01*
X45381592Y-27507515D01*
X45294463Y-27377117D01*
X45234448Y-27232228D01*
X45203852Y-27078414D01*
X45203852Y-26921586D01*
X45234448Y-26767772D01*
X45294463Y-26622883D01*
X45381592Y-26492485D01*
X45492485Y-26381592D01*
X45622883Y-26294463D01*
X45767772Y-26234448D01*
X45921586Y-26203852D01*
X46078414Y-26203852D01*
X46232228Y-26234448D01*
G37*
G36*
X49232228Y-26234448D02*
G01*
X49377117Y-26294463D01*
X49507515Y-26381592D01*
X49618408Y-26492485D01*
X49705537Y-26622883D01*
X49765552Y-26767772D01*
X49796148Y-26921586D01*
X49796148Y-27078414D01*
X49765552Y-27232228D01*
X49705537Y-27377117D01*
X49618408Y-27507515D01*
X49507515Y-27618408D01*
X49377117Y-27705537D01*
X49232228Y-27765552D01*
X49078414Y-27796148D01*
X48921586Y-27796148D01*
X48767772Y-27765552D01*
X48622883Y-27705537D01*
X48492485Y-27618408D01*
X48381592Y-27507515D01*
X48294463Y-27377117D01*
X48234448Y-27232228D01*
X48203852Y-27078414D01*
X48203852Y-26921586D01*
X48234448Y-26767772D01*
X48294463Y-26622883D01*
X48381592Y-26492485D01*
X48492485Y-26381592D01*
X48622883Y-26294463D01*
X48767772Y-26234448D01*
X48921586Y-26203852D01*
X49078414Y-26203852D01*
X49232228Y-26234448D01*
G37*
G36*
X52232228Y-26234448D02*
G01*
X52377117Y-26294463D01*
X52507515Y-26381592D01*
X52618408Y-26492485D01*
X52705537Y-26622883D01*
X52765552Y-26767772D01*
X52796148Y-26921586D01*
X52796148Y-27078414D01*
X52765552Y-27232228D01*
X52705537Y-27377117D01*
X52618408Y-27507515D01*
X52507515Y-27618408D01*
X52377117Y-27705537D01*
X52232228Y-27765552D01*
X52078414Y-27796148D01*
X51921586Y-27796148D01*
X51767772Y-27765552D01*
X51622883Y-27705537D01*
X51492485Y-27618408D01*
X51381592Y-27507515D01*
X51294463Y-27377117D01*
X51234448Y-27232228D01*
X51203852Y-27078414D01*
X51203852Y-26921586D01*
X51234448Y-26767772D01*
X51294463Y-26622883D01*
X51381592Y-26492485D01*
X51492485Y-26381592D01*
X51622883Y-26294463D01*
X51767772Y-26234448D01*
X51921586Y-26203852D01*
X52078414Y-26203852D01*
X52232228Y-26234448D01*
G37*
G36*
X55232228Y-26234448D02*
G01*
X55377117Y-26294463D01*
X55507515Y-26381592D01*
X55618408Y-26492485D01*
X55705537Y-26622883D01*
X55765552Y-26767772D01*
X55796148Y-26921586D01*
X55796148Y-27078414D01*
X55765552Y-27232228D01*
X55705537Y-27377117D01*
X55618408Y-27507515D01*
X55507515Y-27618408D01*
X55377117Y-27705537D01*
X55232228Y-27765552D01*
X55078414Y-27796148D01*
X54921586Y-27796148D01*
X54767772Y-27765552D01*
X54622883Y-27705537D01*
X54492485Y-27618408D01*
X54381592Y-27507515D01*
X54294463Y-27377117D01*
X54234448Y-27232228D01*
X54203852Y-27078414D01*
X54203852Y-26921586D01*
X54234448Y-26767772D01*
X54294463Y-26622883D01*
X54381592Y-26492485D01*
X54492485Y-26381592D01*
X54622883Y-26294463D01*
X54767772Y-26234448D01*
X54921586Y-26203852D01*
X55078414Y-26203852D01*
X55232228Y-26234448D01*
G37*
G36*
X58232228Y-26234448D02*
G01*
X58377117Y-26294463D01*
X58507515Y-26381592D01*
X58618408Y-26492485D01*
X58705537Y-26622883D01*
X58765552Y-26767772D01*
X58796148Y-26921586D01*
X58796148Y-27078414D01*
X58765552Y-27232228D01*
X58705537Y-27377117D01*
X58618408Y-27507515D01*
X58507515Y-27618408D01*
X58377117Y-27705537D01*
X58232228Y-27765552D01*
X58078414Y-27796148D01*
X57921586Y-27796148D01*
X57767772Y-27765552D01*
X57622883Y-27705537D01*
X57492485Y-27618408D01*
X57381592Y-27507515D01*
X57294463Y-27377117D01*
X57234448Y-27232228D01*
X57203852Y-27078414D01*
X57203852Y-26921586D01*
X57234448Y-26767772D01*
X57294463Y-26622883D01*
X57381592Y-26492485D01*
X57492485Y-26381592D01*
X57622883Y-26294463D01*
X57767772Y-26234448D01*
X57921586Y-26203852D01*
X58078414Y-26203852D01*
X58232228Y-26234448D01*
G37*
G36*
X61232228Y-26234448D02*
G01*
X61377117Y-26294463D01*
X61507515Y-26381592D01*
X61618408Y-26492485D01*
X61705537Y-26622883D01*
X61765552Y-26767772D01*
X61796148Y-26921586D01*
X61796148Y-27078414D01*
X61765552Y-27232228D01*
X61705537Y-27377117D01*
X61618408Y-27507515D01*
X61507515Y-27618408D01*
X61377117Y-27705537D01*
X61232228Y-27765552D01*
X61078414Y-27796148D01*
X60921586Y-27796148D01*
X60767772Y-27765552D01*
X60622883Y-27705537D01*
X60492485Y-27618408D01*
X60381592Y-27507515D01*
X60294463Y-27377117D01*
X60234448Y-27232228D01*
X60203852Y-27078414D01*
X60203852Y-26921586D01*
X60234448Y-26767772D01*
X60294463Y-26622883D01*
X60381592Y-26492485D01*
X60492485Y-26381592D01*
X60622883Y-26294463D01*
X60767772Y-26234448D01*
X60921586Y-26203852D01*
X61078414Y-26203852D01*
X61232228Y-26234448D01*
G37*
G36*
X64232228Y-26234448D02*
G01*
X64377117Y-26294463D01*
X64507515Y-26381592D01*
X64618408Y-26492485D01*
X64705537Y-26622883D01*
X64765552Y-26767772D01*
X64796148Y-26921586D01*
X64796148Y-27078414D01*
X64765552Y-27232228D01*
X64705537Y-27377117D01*
X64618408Y-27507515D01*
X64507515Y-27618408D01*
X64377117Y-27705537D01*
X64232228Y-27765552D01*
X64078414Y-27796148D01*
X63921586Y-27796148D01*
X63767772Y-27765552D01*
X63622883Y-27705537D01*
X63492485Y-27618408D01*
X63381592Y-27507515D01*
X63294463Y-27377117D01*
X63234448Y-27232228D01*
X63203852Y-27078414D01*
X63203852Y-26921586D01*
X63234448Y-26767772D01*
X63294463Y-26622883D01*
X63381592Y-26492485D01*
X63492485Y-26381592D01*
X63622883Y-26294463D01*
X63767772Y-26234448D01*
X63921586Y-26203852D01*
X64078414Y-26203852D01*
X64232228Y-26234448D01*
G37*
G36*
X67232228Y-26234448D02*
G01*
X67377117Y-26294463D01*
X67507515Y-26381592D01*
X67618408Y-26492485D01*
X67705537Y-26622883D01*
X67765552Y-26767772D01*
X67796148Y-26921586D01*
X67796148Y-27078414D01*
X67765552Y-27232228D01*
X67705537Y-27377117D01*
X67618408Y-27507515D01*
X67507515Y-27618408D01*
X67377117Y-27705537D01*
X67232228Y-27765552D01*
X67078414Y-27796148D01*
X66921586Y-27796148D01*
X66767772Y-27765552D01*
X66622883Y-27705537D01*
X66492485Y-27618408D01*
X66381592Y-27507515D01*
X66294463Y-27377117D01*
X66234448Y-27232228D01*
X66203852Y-27078414D01*
X66203852Y-26921586D01*
X66234448Y-26767772D01*
X66294463Y-26622883D01*
X66381592Y-26492485D01*
X66492485Y-26381592D01*
X66622883Y-26294463D01*
X66767772Y-26234448D01*
X66921586Y-26203852D01*
X67078414Y-26203852D01*
X67232228Y-26234448D01*
G37*
G36*
X70232228Y-26234448D02*
G01*
X70377117Y-26294463D01*
X70507515Y-26381592D01*
X70618408Y-26492485D01*
X70705537Y-26622883D01*
X70765552Y-26767772D01*
X70796148Y-26921586D01*
X70796148Y-27078414D01*
X70765552Y-27232228D01*
X70705537Y-27377117D01*
X70618408Y-27507515D01*
X70507515Y-27618408D01*
X70377117Y-27705537D01*
X70232228Y-27765552D01*
X70078414Y-27796148D01*
X69921586Y-27796148D01*
X69767772Y-27765552D01*
X69622883Y-27705537D01*
X69492485Y-27618408D01*
X69381592Y-27507515D01*
X69294463Y-27377117D01*
X69234448Y-27232228D01*
X69203852Y-27078414D01*
X69203852Y-26921586D01*
X69234448Y-26767772D01*
X69294463Y-26622883D01*
X69381592Y-26492485D01*
X69492485Y-26381592D01*
X69622883Y-26294463D01*
X69767772Y-26234448D01*
X69921586Y-26203852D01*
X70078414Y-26203852D01*
X70232228Y-26234448D01*
G37*
G36*
X73232228Y-26234448D02*
G01*
X73377117Y-26294463D01*
X73507515Y-26381592D01*
X73618408Y-26492485D01*
X73705537Y-26622883D01*
X73765552Y-26767772D01*
X73796148Y-26921586D01*
X73796148Y-27078414D01*
X73765552Y-27232228D01*
X73705537Y-27377117D01*
X73618408Y-27507515D01*
X73507515Y-27618408D01*
X73377117Y-27705537D01*
X73232228Y-27765552D01*
X73078414Y-27796148D01*
X72921586Y-27796148D01*
X72767772Y-27765552D01*
X72622883Y-27705537D01*
X72492485Y-27618408D01*
X72381592Y-27507515D01*
X72294463Y-27377117D01*
X72234448Y-27232228D01*
X72203852Y-27078414D01*
X72203852Y-26921586D01*
X72234448Y-26767772D01*
X72294463Y-26622883D01*
X72381592Y-26492485D01*
X72492485Y-26381592D01*
X72622883Y-26294463D01*
X72767772Y-26234448D01*
X72921586Y-26203852D01*
X73078414Y-26203852D01*
X73232228Y-26234448D01*
G37*
G36*
X28700000Y-27700000D02*
G01*
X27300000Y-27700000D01*
X27300000Y-26300000D01*
X28700000Y-26300000D01*
X28700000Y-27700000D01*
G37*
G36*
X29732228Y-24734448D02*
G01*
X29877117Y-24794463D01*
X30007515Y-24881592D01*
X30118408Y-24992485D01*
X30205537Y-25122883D01*
X30265552Y-25267772D01*
X30296148Y-25421586D01*
X30296148Y-25578414D01*
X30265552Y-25732228D01*
X30205537Y-25877117D01*
X30118408Y-26007515D01*
X30007515Y-26118408D01*
X29877117Y-26205537D01*
X29732228Y-26265552D01*
X29578414Y-26296148D01*
X29421586Y-26296148D01*
X29267772Y-26265552D01*
X29122883Y-26205537D01*
X28992485Y-26118408D01*
X28881592Y-26007515D01*
X28794463Y-25877117D01*
X28734448Y-25732228D01*
X28703852Y-25578414D01*
X28703852Y-25421586D01*
X28734448Y-25267772D01*
X28794463Y-25122883D01*
X28881592Y-24992485D01*
X28992485Y-24881592D01*
X29122883Y-24794463D01*
X29267772Y-24734448D01*
X29421586Y-24703852D01*
X29578414Y-24703852D01*
X29732228Y-24734448D01*
G37*
G36*
X32732228Y-24734448D02*
G01*
X32877117Y-24794463D01*
X33007515Y-24881592D01*
X33118408Y-24992485D01*
X33205537Y-25122883D01*
X33265552Y-25267772D01*
X33296148Y-25421586D01*
X33296148Y-25578414D01*
X33265552Y-25732228D01*
X33205537Y-25877117D01*
X33118408Y-26007515D01*
X33007515Y-26118408D01*
X32877117Y-26205537D01*
X32732228Y-26265552D01*
X32578414Y-26296148D01*
X32421586Y-26296148D01*
X32267772Y-26265552D01*
X32122883Y-26205537D01*
X31992485Y-26118408D01*
X31881592Y-26007515D01*
X31794463Y-25877117D01*
X31734448Y-25732228D01*
X31703852Y-25578414D01*
X31703852Y-25421586D01*
X31734448Y-25267772D01*
X31794463Y-25122883D01*
X31881592Y-24992485D01*
X31992485Y-24881592D01*
X32122883Y-24794463D01*
X32267772Y-24734448D01*
X32421586Y-24703852D01*
X32578414Y-24703852D01*
X32732228Y-24734448D01*
G37*
G36*
X35732228Y-24734448D02*
G01*
X35877117Y-24794463D01*
X36007515Y-24881592D01*
X36118408Y-24992485D01*
X36205537Y-25122883D01*
X36265552Y-25267772D01*
X36296148Y-25421586D01*
X36296148Y-25578414D01*
X36265552Y-25732228D01*
X36205537Y-25877117D01*
X36118408Y-26007515D01*
X36007515Y-26118408D01*
X35877117Y-26205537D01*
X35732228Y-26265552D01*
X35578414Y-26296148D01*
X35421586Y-26296148D01*
X35267772Y-26265552D01*
X35122883Y-26205537D01*
X34992485Y-26118408D01*
X34881592Y-26007515D01*
X34794463Y-25877117D01*
X34734448Y-25732228D01*
X34703852Y-25578414D01*
X34703852Y-25421586D01*
X34734448Y-25267772D01*
X34794463Y-25122883D01*
X34881592Y-24992485D01*
X34992485Y-24881592D01*
X35122883Y-24794463D01*
X35267772Y-24734448D01*
X35421586Y-24703852D01*
X35578414Y-24703852D01*
X35732228Y-24734448D01*
G37*
G36*
X38732228Y-24734448D02*
G01*
X38877117Y-24794463D01*
X39007515Y-24881592D01*
X39118408Y-24992485D01*
X39205537Y-25122883D01*
X39265552Y-25267772D01*
X39296148Y-25421586D01*
X39296148Y-25578414D01*
X39265552Y-25732228D01*
X39205537Y-25877117D01*
X39118408Y-26007515D01*
X39007515Y-26118408D01*
X38877117Y-26205537D01*
X38732228Y-26265552D01*
X38578414Y-26296148D01*
X38421586Y-26296148D01*
X38267772Y-26265552D01*
X38122883Y-26205537D01*
X37992485Y-26118408D01*
X37881592Y-26007515D01*
X37794463Y-25877117D01*
X37734448Y-25732228D01*
X37703852Y-25578414D01*
X37703852Y-25421586D01*
X37734448Y-25267772D01*
X37794463Y-25122883D01*
X37881592Y-24992485D01*
X37992485Y-24881592D01*
X38122883Y-24794463D01*
X38267772Y-24734448D01*
X38421586Y-24703852D01*
X38578414Y-24703852D01*
X38732228Y-24734448D01*
G37*
G36*
X41732228Y-24734448D02*
G01*
X41877117Y-24794463D01*
X42007515Y-24881592D01*
X42118408Y-24992485D01*
X42205537Y-25122883D01*
X42265552Y-25267772D01*
X42296148Y-25421586D01*
X42296148Y-25578414D01*
X42265552Y-25732228D01*
X42205537Y-25877117D01*
X42118408Y-26007515D01*
X42007515Y-26118408D01*
X41877117Y-26205537D01*
X41732228Y-26265552D01*
X41578414Y-26296148D01*
X41421586Y-26296148D01*
X41267772Y-26265552D01*
X41122883Y-26205537D01*
X40992485Y-26118408D01*
X40881592Y-26007515D01*
X40794463Y-25877117D01*
X40734448Y-25732228D01*
X40703852Y-25578414D01*
X40703852Y-25421586D01*
X40734448Y-25267772D01*
X40794463Y-25122883D01*
X40881592Y-24992485D01*
X40992485Y-24881592D01*
X41122883Y-24794463D01*
X41267772Y-24734448D01*
X41421586Y-24703852D01*
X41578414Y-24703852D01*
X41732228Y-24734448D01*
G37*
G36*
X44732228Y-24734448D02*
G01*
X44877117Y-24794463D01*
X45007515Y-24881592D01*
X45118408Y-24992485D01*
X45205537Y-25122883D01*
X45265552Y-25267772D01*
X45296148Y-25421586D01*
X45296148Y-25578414D01*
X45265552Y-25732228D01*
X45205537Y-25877117D01*
X45118408Y-26007515D01*
X45007515Y-26118408D01*
X44877117Y-26205537D01*
X44732228Y-26265552D01*
X44578414Y-26296148D01*
X44421586Y-26296148D01*
X44267772Y-26265552D01*
X44122883Y-26205537D01*
X43992485Y-26118408D01*
X43881592Y-26007515D01*
X43794463Y-25877117D01*
X43734448Y-25732228D01*
X43703852Y-25578414D01*
X43703852Y-25421586D01*
X43734448Y-25267772D01*
X43794463Y-25122883D01*
X43881592Y-24992485D01*
X43992485Y-24881592D01*
X44122883Y-24794463D01*
X44267772Y-24734448D01*
X44421586Y-24703852D01*
X44578414Y-24703852D01*
X44732228Y-24734448D01*
G37*
G36*
X47732228Y-24734448D02*
G01*
X47877117Y-24794463D01*
X48007515Y-24881592D01*
X48118408Y-24992485D01*
X48205537Y-25122883D01*
X48265552Y-25267772D01*
X48296148Y-25421586D01*
X48296148Y-25578414D01*
X48265552Y-25732228D01*
X48205537Y-25877117D01*
X48118408Y-26007515D01*
X48007515Y-26118408D01*
X47877117Y-26205537D01*
X47732228Y-26265552D01*
X47578414Y-26296148D01*
X47421586Y-26296148D01*
X47267772Y-26265552D01*
X47122883Y-26205537D01*
X46992485Y-26118408D01*
X46881592Y-26007515D01*
X46794463Y-25877117D01*
X46734448Y-25732228D01*
X46703852Y-25578414D01*
X46703852Y-25421586D01*
X46734448Y-25267772D01*
X46794463Y-25122883D01*
X46881592Y-24992485D01*
X46992485Y-24881592D01*
X47122883Y-24794463D01*
X47267772Y-24734448D01*
X47421586Y-24703852D01*
X47578414Y-24703852D01*
X47732228Y-24734448D01*
G37*
G36*
X50732228Y-24734448D02*
G01*
X50877117Y-24794463D01*
X51007515Y-24881592D01*
X51118408Y-24992485D01*
X51205537Y-25122883D01*
X51265552Y-25267772D01*
X51296148Y-25421586D01*
X51296148Y-25578414D01*
X51265552Y-25732228D01*
X51205537Y-25877117D01*
X51118408Y-26007515D01*
X51007515Y-26118408D01*
X50877117Y-26205537D01*
X50732228Y-26265552D01*
X50578414Y-26296148D01*
X50421586Y-26296148D01*
X50267772Y-26265552D01*
X50122883Y-26205537D01*
X49992485Y-26118408D01*
X49881592Y-26007515D01*
X49794463Y-25877117D01*
X49734448Y-25732228D01*
X49703852Y-25578414D01*
X49703852Y-25421586D01*
X49734448Y-25267772D01*
X49794463Y-25122883D01*
X49881592Y-24992485D01*
X49992485Y-24881592D01*
X50122883Y-24794463D01*
X50267772Y-24734448D01*
X50421586Y-24703852D01*
X50578414Y-24703852D01*
X50732228Y-24734448D01*
G37*
G36*
X53732228Y-24734448D02*
G01*
X53877117Y-24794463D01*
X54007515Y-24881592D01*
X54118408Y-24992485D01*
X54205537Y-25122883D01*
X54265552Y-25267772D01*
X54296148Y-25421586D01*
X54296148Y-25578414D01*
X54265552Y-25732228D01*
X54205537Y-25877117D01*
X54118408Y-26007515D01*
X54007515Y-26118408D01*
X53877117Y-26205537D01*
X53732228Y-26265552D01*
X53578414Y-26296148D01*
X53421586Y-26296148D01*
X53267772Y-26265552D01*
X53122883Y-26205537D01*
X52992485Y-26118408D01*
X52881592Y-26007515D01*
X52794463Y-25877117D01*
X52734448Y-25732228D01*
X52703852Y-25578414D01*
X52703852Y-25421586D01*
X52734448Y-25267772D01*
X52794463Y-25122883D01*
X52881592Y-24992485D01*
X52992485Y-24881592D01*
X53122883Y-24794463D01*
X53267772Y-24734448D01*
X53421586Y-24703852D01*
X53578414Y-24703852D01*
X53732228Y-24734448D01*
G37*
G36*
X56732228Y-24734448D02*
G01*
X56877117Y-24794463D01*
X57007515Y-24881592D01*
X57118408Y-24992485D01*
X57205537Y-25122883D01*
X57265552Y-25267772D01*
X57296148Y-25421586D01*
X57296148Y-25578414D01*
X57265552Y-25732228D01*
X57205537Y-25877117D01*
X57118408Y-26007515D01*
X57007515Y-26118408D01*
X56877117Y-26205537D01*
X56732228Y-26265552D01*
X56578414Y-26296148D01*
X56421586Y-26296148D01*
X56267772Y-26265552D01*
X56122883Y-26205537D01*
X55992485Y-26118408D01*
X55881592Y-26007515D01*
X55794463Y-25877117D01*
X55734448Y-25732228D01*
X55703852Y-25578414D01*
X55703852Y-25421586D01*
X55734448Y-25267772D01*
X55794463Y-25122883D01*
X55881592Y-24992485D01*
X55992485Y-24881592D01*
X56122883Y-24794463D01*
X56267772Y-24734448D01*
X56421586Y-24703852D01*
X56578414Y-24703852D01*
X56732228Y-24734448D01*
G37*
G36*
X59732228Y-24734448D02*
G01*
X59877117Y-24794463D01*
X60007515Y-24881592D01*
X60118408Y-24992485D01*
X60205537Y-25122883D01*
X60265552Y-25267772D01*
X60296148Y-25421586D01*
X60296148Y-25578414D01*
X60265552Y-25732228D01*
X60205537Y-25877117D01*
X60118408Y-26007515D01*
X60007515Y-26118408D01*
X59877117Y-26205537D01*
X59732228Y-26265552D01*
X59578414Y-26296148D01*
X59421586Y-26296148D01*
X59267772Y-26265552D01*
X59122883Y-26205537D01*
X58992485Y-26118408D01*
X58881592Y-26007515D01*
X58794463Y-25877117D01*
X58734448Y-25732228D01*
X58703852Y-25578414D01*
X58703852Y-25421586D01*
X58734448Y-25267772D01*
X58794463Y-25122883D01*
X58881592Y-24992485D01*
X58992485Y-24881592D01*
X59122883Y-24794463D01*
X59267772Y-24734448D01*
X59421586Y-24703852D01*
X59578414Y-24703852D01*
X59732228Y-24734448D01*
G37*
G36*
X62732228Y-24734448D02*
G01*
X62877117Y-24794463D01*
X63007515Y-24881592D01*
X63118408Y-24992485D01*
X63205537Y-25122883D01*
X63265552Y-25267772D01*
X63296148Y-25421586D01*
X63296148Y-25578414D01*
X63265552Y-25732228D01*
X63205537Y-25877117D01*
X63118408Y-26007515D01*
X63007515Y-26118408D01*
X62877117Y-26205537D01*
X62732228Y-26265552D01*
X62578414Y-26296148D01*
X62421586Y-26296148D01*
X62267772Y-26265552D01*
X62122883Y-26205537D01*
X61992485Y-26118408D01*
X61881592Y-26007515D01*
X61794463Y-25877117D01*
X61734448Y-25732228D01*
X61703852Y-25578414D01*
X61703852Y-25421586D01*
X61734448Y-25267772D01*
X61794463Y-25122883D01*
X61881592Y-24992485D01*
X61992485Y-24881592D01*
X62122883Y-24794463D01*
X62267772Y-24734448D01*
X62421586Y-24703852D01*
X62578414Y-24703852D01*
X62732228Y-24734448D01*
G37*
G36*
X65732228Y-24734448D02*
G01*
X65877117Y-24794463D01*
X66007515Y-24881592D01*
X66118408Y-24992485D01*
X66205537Y-25122883D01*
X66265552Y-25267772D01*
X66296148Y-25421586D01*
X66296148Y-25578414D01*
X66265552Y-25732228D01*
X66205537Y-25877117D01*
X66118408Y-26007515D01*
X66007515Y-26118408D01*
X65877117Y-26205537D01*
X65732228Y-26265552D01*
X65578414Y-26296148D01*
X65421586Y-26296148D01*
X65267772Y-26265552D01*
X65122883Y-26205537D01*
X64992485Y-26118408D01*
X64881592Y-26007515D01*
X64794463Y-25877117D01*
X64734448Y-25732228D01*
X64703852Y-25578414D01*
X64703852Y-25421586D01*
X64734448Y-25267772D01*
X64794463Y-25122883D01*
X64881592Y-24992485D01*
X64992485Y-24881592D01*
X65122883Y-24794463D01*
X65267772Y-24734448D01*
X65421586Y-24703852D01*
X65578414Y-24703852D01*
X65732228Y-24734448D01*
G37*
G36*
X68732228Y-24734448D02*
G01*
X68877117Y-24794463D01*
X69007515Y-24881592D01*
X69118408Y-24992485D01*
X69205537Y-25122883D01*
X69265552Y-25267772D01*
X69296148Y-25421586D01*
X69296148Y-25578414D01*
X69265552Y-25732228D01*
X69205537Y-25877117D01*
X69118408Y-26007515D01*
X69007515Y-26118408D01*
X68877117Y-26205537D01*
X68732228Y-26265552D01*
X68578414Y-26296148D01*
X68421586Y-26296148D01*
X68267772Y-26265552D01*
X68122883Y-26205537D01*
X67992485Y-26118408D01*
X67881592Y-26007515D01*
X67794463Y-25877117D01*
X67734448Y-25732228D01*
X67703852Y-25578414D01*
X67703852Y-25421586D01*
X67734448Y-25267772D01*
X67794463Y-25122883D01*
X67881592Y-24992485D01*
X67992485Y-24881592D01*
X68122883Y-24794463D01*
X68267772Y-24734448D01*
X68421586Y-24703852D01*
X68578414Y-24703852D01*
X68732228Y-24734448D01*
G37*
G36*
X71732228Y-24734448D02*
G01*
X71877117Y-24794463D01*
X72007515Y-24881592D01*
X72118408Y-24992485D01*
X72205537Y-25122883D01*
X72265552Y-25267772D01*
X72296148Y-25421586D01*
X72296148Y-25578414D01*
X72265552Y-25732228D01*
X72205537Y-25877117D01*
X72118408Y-26007515D01*
X72007515Y-26118408D01*
X71877117Y-26205537D01*
X71732228Y-26265552D01*
X71578414Y-26296148D01*
X71421586Y-26296148D01*
X71267772Y-26265552D01*
X71122883Y-26205537D01*
X70992485Y-26118408D01*
X70881592Y-26007515D01*
X70794463Y-25877117D01*
X70734448Y-25732228D01*
X70703852Y-25578414D01*
X70703852Y-25421586D01*
X70734448Y-25267772D01*
X70794463Y-25122883D01*
X70881592Y-24992485D01*
X70992485Y-24881592D01*
X71122883Y-24794463D01*
X71267772Y-24734448D01*
X71421586Y-24703852D01*
X71578414Y-24703852D01*
X71732228Y-24734448D01*
G37*
G36*
X74732228Y-23234448D02*
G01*
X74877117Y-23294463D01*
X75007515Y-23381592D01*
X75118408Y-23492485D01*
X75205537Y-23622883D01*
X75265552Y-23767772D01*
X75296148Y-23921586D01*
X75296148Y-24078414D01*
X75265552Y-24232228D01*
X75205537Y-24377117D01*
X75118408Y-24507515D01*
X75007515Y-24618408D01*
X74877117Y-24705537D01*
X74732228Y-24765552D01*
X74578414Y-24796148D01*
X74421586Y-24796148D01*
X74267772Y-24765552D01*
X74122883Y-24705537D01*
X73992485Y-24618408D01*
X73881592Y-24507515D01*
X73794463Y-24377117D01*
X73734448Y-24232228D01*
X73703852Y-24078414D01*
X73703852Y-23921586D01*
X73734448Y-23767772D01*
X73794463Y-23622883D01*
X73881592Y-23492485D01*
X73992485Y-23381592D01*
X74122883Y-23294463D01*
X74267772Y-23234448D01*
X74421586Y-23203852D01*
X74578414Y-23203852D01*
X74732228Y-23234448D01*
G37*
G36*
X5373513Y-3444208D02*
G01*
X5612293Y-3521793D01*
X5835998Y-3635776D01*
X6039117Y-3783350D01*
X6216650Y-3960883D01*
X6364224Y-4164002D01*
X6478207Y-4387707D01*
X6555792Y-4626487D01*
X6595068Y-4874465D01*
X6595068Y-5125535D01*
X6555792Y-5373513D01*
X6478207Y-5612293D01*
X6364224Y-5835998D01*
X6216650Y-6039117D01*
X6039117Y-6216650D01*
X5835998Y-6364224D01*
X5612293Y-6478207D01*
X5373513Y-6555792D01*
X5125535Y-6595068D01*
X4874465Y-6595068D01*
X4626487Y-6555792D01*
X4387707Y-6478207D01*
X4164002Y-6364224D01*
X3960883Y-6216650D01*
X3783350Y-6039117D01*
X3635776Y-5835998D01*
X3521793Y-5612293D01*
X3444208Y-5373513D01*
X3404932Y-5125535D01*
X3404932Y-4874465D01*
X3444208Y-4626487D01*
X3521793Y-4387707D01*
X3635776Y-4164002D01*
X3783350Y-3960883D01*
X3960883Y-3783350D01*
X4164002Y-3635776D01*
X4387707Y-3521793D01*
X4626487Y-3444208D01*
X4874465Y-3404932D01*
X5125535Y-3404932D01*
X5373513Y-3444208D01*
G37*
G36*
X95373513Y-3444208D02*
G01*
X95612293Y-3521793D01*
X95835998Y-3635776D01*
X96039117Y-3783350D01*
X96216650Y-3960883D01*
X96364224Y-4164002D01*
X96478207Y-4387707D01*
X96555792Y-4626487D01*
X96595068Y-4874465D01*
X96595068Y-5125535D01*
X96555792Y-5373513D01*
X96478207Y-5612293D01*
X96364224Y-5835998D01*
X96216650Y-6039117D01*
X96039117Y-6216650D01*
X95835998Y-6364224D01*
X95612293Y-6478207D01*
X95373513Y-6555792D01*
X95125535Y-6595068D01*
X94874465Y-6595068D01*
X94626487Y-6555792D01*
X94387707Y-6478207D01*
X94164002Y-6364224D01*
X93960883Y-6216650D01*
X93783350Y-6039117D01*
X93635776Y-5835998D01*
X93521793Y-5612293D01*
X93444208Y-5373513D01*
X93404932Y-5125535D01*
X93404932Y-4874465D01*
X93444208Y-4626487D01*
X93521793Y-4387707D01*
X93635776Y-4164002D01*
X93783350Y-3960883D01*
X93960883Y-3783350D01*
X94164002Y-3635776D01*
X94387707Y-3521793D01*
X94626487Y-3444208D01*
X94874465Y-3404932D01*
X95125535Y-3404932D01*
X95373513Y-3444208D01*
G37*
%LPD*%
M02*
