%TF.GenerationSoftware,KiCad,Pcbnew,10.0.5*%
%TF.CreationDate,2026-09-27T21:39:05+09:00*%
%TF.ProjectId,gba_dumper,6762615f-6475-46d7-9065-722e6b696361,rev?*%
%TF.SameCoordinates,Original*%
%TF.FileFunction,Copper,L1,Top*%
%TF.FilePolarity,Positive*%
%FSLAX46Y46*%
G04 Gerber Fmt 4.6, Leading zero omitted, Abs format (unit mm)*
G04 Created by KiCad (PCBNEW 10.0.5) date 2026-09-27 21:39:05*
%MOMM*%
%LPD*%
G01*
G04 APERTURE LIST*
%TA.AperFunction,WasherPad*%
%ADD10O,2.000000X5.000000*%
%TD*%
%TA.AperFunction,ComponentPad*%
%ADD11R,1.400000X1.400000*%
%TD*%
%TA.AperFunction,ComponentPad*%
%ADD12C,1.600000*%
%TD*%
%TA.AperFunction,ComponentPad*%
%ADD13R,1.700000X1.700000*%
%TD*%
%TA.AperFunction,ComponentPad*%
%ADD14C,1.700000*%
%TD*%
%TA.AperFunction,SMDPad,CuDef*%
%ADD15C,2.000000*%
%TD*%
%TA.AperFunction,ViaPad*%
%ADD16C,0.600000*%
%TD*%
%TA.AperFunction,Conductor*%
%ADD17C,0.800000*%
%TD*%
%TA.AperFunction,Conductor*%
%ADD18C,0.250000*%
%TD*%
%TA.AperFunction,Conductor*%
%ADD19C,0.200000*%
%TD*%
%TA.AperFunction,Conductor*%
%ADD20C,0.500000*%
%TD*%
G04 APERTURE END LIST*
D10*
%TO.P,J3,*%
%TO.N,*%
X12800000Y-25600000D03*
X82700000Y-25600000D03*
D11*
%TO.P,J3,1*%
%TO.N,/CART_3V3*%
X28000000Y-27000000D03*
D12*
%TO.P,J3,2*%
%TO.N,/CART_PHI*%
X29500000Y-25500000D03*
%TO.P,J3,3*%
%TO.N,/CART_nWR*%
X31000000Y-27000000D03*
%TO.P,J3,4*%
%TO.N,/CART_nRD*%
X32500000Y-25500000D03*
%TO.P,J3,5*%
%TO.N,/CART_nCS*%
X34000000Y-27000000D03*
%TO.P,J3,6*%
%TO.N,/CART_AD0*%
X35500000Y-25500000D03*
%TO.P,J3,7*%
%TO.N,/CART_AD1*%
X37000000Y-27000000D03*
%TO.P,J3,8*%
%TO.N,/CART_AD2*%
X38500000Y-25500000D03*
%TO.P,J3,9*%
%TO.N,/CART_AD3*%
X40000000Y-27000000D03*
%TO.P,J3,10*%
%TO.N,/CART_AD4*%
X41500000Y-25500000D03*
%TO.P,J3,11*%
%TO.N,/CART_AD5*%
X43000000Y-27000000D03*
%TO.P,J3,12*%
%TO.N,/CART_AD6*%
X44500000Y-25500000D03*
%TO.P,J3,13*%
%TO.N,/CART_AD7*%
X46000000Y-27000000D03*
%TO.P,J3,14*%
%TO.N,/CART_AD8*%
X47500000Y-25500000D03*
%TO.P,J3,15*%
%TO.N,/CART_AD9*%
X49000000Y-27000000D03*
%TO.P,J3,16*%
%TO.N,/CART_AD10*%
X50500000Y-25500000D03*
%TO.P,J3,17*%
%TO.N,/CART_AD11*%
X52000000Y-27000000D03*
%TO.P,J3,18*%
%TO.N,/CART_AD12*%
X53500000Y-25500000D03*
%TO.P,J3,19*%
%TO.N,/CART_AD13*%
X55000000Y-27000000D03*
%TO.P,J3,20*%
%TO.N,/CART_AD14*%
X56500000Y-25500000D03*
%TO.P,J3,21*%
%TO.N,/CART_AD15*%
X58000000Y-27000000D03*
%TO.P,J3,22*%
%TO.N,/CART_A16_D0*%
X59500000Y-25500000D03*
%TO.P,J3,23*%
%TO.N,/CART_A17_D1*%
X61000000Y-27000000D03*
%TO.P,J3,24*%
%TO.N,/CART_A18_D2*%
X62500000Y-25500000D03*
%TO.P,J3,25*%
%TO.N,/CART_A19_D3*%
X64000000Y-27000000D03*
%TO.P,J3,26*%
%TO.N,/CART_A20_D4*%
X65500000Y-25500000D03*
%TO.P,J3,27*%
%TO.N,/CART_A21_D5*%
X67000000Y-27000000D03*
%TO.P,J3,28*%
%TO.N,/CART_A22_D6*%
X68500000Y-25500000D03*
%TO.P,J3,29*%
%TO.N,/CART_A23_D7*%
X70000000Y-27000000D03*
%TO.P,J3,30*%
%TO.N,/CART_nCS2*%
X71500000Y-25500000D03*
%TO.P,J3,31*%
%TO.N,/CART_nREQ*%
X73000000Y-27000000D03*
%TO.P,J3,32*%
%TO.N,/GND*%
X74500000Y-24000000D03*
%TD*%
%TO.P,R24,1*%
%TO.N,/MCU_A23_D7*%
%TA.AperFunction,SMDPad,CuDef*%
G36*
G01*
X92575000Y-77450000D02*
X92575000Y-76550000D01*
G75*
G02*
X92825000Y-76300000I250000J0D01*
G01*
X93350000Y-76300000D01*
G75*
G02*
X93600000Y-76550000I0J-250000D01*
G01*
X93600000Y-77450000D01*
G75*
G02*
X93350000Y-77700000I-250000J0D01*
G01*
X92825000Y-77700000D01*
G75*
G02*
X92575000Y-77450000I0J250000D01*
G01*
G37*
%TD.AperFunction*%
%TO.P,R24,2*%
%TO.N,/CART_A23_D7*%
%TA.AperFunction,SMDPad,CuDef*%
G36*
G01*
X94400000Y-77450000D02*
X94400000Y-76550000D01*
G75*
G02*
X94650000Y-76300000I250000J0D01*
G01*
X95175000Y-76300000D01*
G75*
G02*
X95425000Y-76550000I0J-250000D01*
G01*
X95425000Y-77450000D01*
G75*
G02*
X95175000Y-77700000I-250000J0D01*
G01*
X94650000Y-77700000D01*
G75*
G02*
X94400000Y-77450000I0J250000D01*
G01*
G37*
%TD.AperFunction*%
%TD*%
%TO.P,R14,1*%
%TO.N,/MCU_AD13*%
%TA.AperFunction,SMDPad,CuDef*%
G36*
G01*
X44575000Y-86450000D02*
X44575000Y-85550000D01*
G75*
G02*
X44825000Y-85300000I250000J0D01*
G01*
X45350000Y-85300000D01*
G75*
G02*
X45600000Y-85550000I0J-250000D01*
G01*
X45600000Y-86450000D01*
G75*
G02*
X45350000Y-86700000I-250000J0D01*
G01*
X44825000Y-86700000D01*
G75*
G02*
X44575000Y-86450000I0J250000D01*
G01*
G37*
%TD.AperFunction*%
%TO.P,R14,2*%
%TO.N,/CART_AD13*%
%TA.AperFunction,SMDPad,CuDef*%
G36*
G01*
X46400000Y-86450000D02*
X46400000Y-85550000D01*
G75*
G02*
X46650000Y-85300000I250000J0D01*
G01*
X47175000Y-85300000D01*
G75*
G02*
X47425000Y-85550000I0J-250000D01*
G01*
X47425000Y-86450000D01*
G75*
G02*
X47175000Y-86700000I-250000J0D01*
G01*
X46650000Y-86700000D01*
G75*
G02*
X46400000Y-86450000I0J250000D01*
G01*
G37*
%TD.AperFunction*%
%TD*%
%TO.P,R26,1*%
%TO.N,/MCU_nRD*%
%TA.AperFunction,SMDPad,CuDef*%
G36*
G01*
X18575000Y-66450000D02*
X18575000Y-65550000D01*
G75*
G02*
X18825000Y-65300000I250000J0D01*
G01*
X19350000Y-65300000D01*
G75*
G02*
X19600000Y-65550000I0J-250000D01*
G01*
X19600000Y-66450000D01*
G75*
G02*
X19350000Y-66700000I-250000J0D01*
G01*
X18825000Y-66700000D01*
G75*
G02*
X18575000Y-66450000I0J250000D01*
G01*
G37*
%TD.AperFunction*%
%TO.P,R26,2*%
%TO.N,/CART_nRD*%
%TA.AperFunction,SMDPad,CuDef*%
G36*
G01*
X20400000Y-66450000D02*
X20400000Y-65550000D01*
G75*
G02*
X20650000Y-65300000I250000J0D01*
G01*
X21175000Y-65300000D01*
G75*
G02*
X21425000Y-65550000I0J-250000D01*
G01*
X21425000Y-66450000D01*
G75*
G02*
X21175000Y-66700000I-250000J0D01*
G01*
X20650000Y-66700000D01*
G75*
G02*
X20400000Y-66450000I0J250000D01*
G01*
G37*
%TD.AperFunction*%
%TD*%
%TO.P,R8,1*%
%TO.N,/MCU_AD7*%
%TA.AperFunction,SMDPad,CuDef*%
G36*
G01*
X44575000Y-68450000D02*
X44575000Y-67550000D01*
G75*
G02*
X44825000Y-67300000I250000J0D01*
G01*
X45350000Y-67300000D01*
G75*
G02*
X45600000Y-67550000I0J-250000D01*
G01*
X45600000Y-68450000D01*
G75*
G02*
X45350000Y-68700000I-250000J0D01*
G01*
X44825000Y-68700000D01*
G75*
G02*
X44575000Y-68450000I0J250000D01*
G01*
G37*
%TD.AperFunction*%
%TO.P,R8,2*%
%TO.N,/CART_AD7*%
%TA.AperFunction,SMDPad,CuDef*%
G36*
G01*
X46400000Y-68450000D02*
X46400000Y-67550000D01*
G75*
G02*
X46650000Y-67300000I250000J0D01*
G01*
X47175000Y-67300000D01*
G75*
G02*
X47425000Y-67550000I0J-250000D01*
G01*
X47425000Y-68450000D01*
G75*
G02*
X47175000Y-68700000I-250000J0D01*
G01*
X46650000Y-68700000D01*
G75*
G02*
X46400000Y-68450000I0J250000D01*
G01*
G37*
%TD.AperFunction*%
%TD*%
%TO.P,R3,1*%
%TO.N,/MCU_AD2*%
%TA.AperFunction,SMDPad,CuDef*%
G36*
G01*
X44575000Y-53450000D02*
X44575000Y-52550000D01*
G75*
G02*
X44825000Y-52300000I250000J0D01*
G01*
X45350000Y-52300000D01*
G75*
G02*
X45600000Y-52550000I0J-250000D01*
G01*
X45600000Y-53450000D01*
G75*
G02*
X45350000Y-53700000I-250000J0D01*
G01*
X44825000Y-53700000D01*
G75*
G02*
X44575000Y-53450000I0J250000D01*
G01*
G37*
%TD.AperFunction*%
%TO.P,R3,2*%
%TO.N,/CART_AD2*%
%TA.AperFunction,SMDPad,CuDef*%
G36*
G01*
X46400000Y-53450000D02*
X46400000Y-52550000D01*
G75*
G02*
X46650000Y-52300000I250000J0D01*
G01*
X47175000Y-52300000D01*
G75*
G02*
X47425000Y-52550000I0J-250000D01*
G01*
X47425000Y-53450000D01*
G75*
G02*
X47175000Y-53700000I-250000J0D01*
G01*
X46650000Y-53700000D01*
G75*
G02*
X46400000Y-53450000I0J250000D01*
G01*
G37*
%TD.AperFunction*%
%TD*%
%TO.P,R11,1*%
%TO.N,/MCU_AD10*%
%TA.AperFunction,SMDPad,CuDef*%
G36*
G01*
X44575000Y-77450000D02*
X44575000Y-76550000D01*
G75*
G02*
X44825000Y-76300000I250000J0D01*
G01*
X45350000Y-76300000D01*
G75*
G02*
X45600000Y-76550000I0J-250000D01*
G01*
X45600000Y-77450000D01*
G75*
G02*
X45350000Y-77700000I-250000J0D01*
G01*
X44825000Y-77700000D01*
G75*
G02*
X44575000Y-77450000I0J250000D01*
G01*
G37*
%TD.AperFunction*%
%TO.P,R11,2*%
%TO.N,/CART_AD10*%
%TA.AperFunction,SMDPad,CuDef*%
G36*
G01*
X46400000Y-77450000D02*
X46400000Y-76550000D01*
G75*
G02*
X46650000Y-76300000I250000J0D01*
G01*
X47175000Y-76300000D01*
G75*
G02*
X47425000Y-76550000I0J-250000D01*
G01*
X47425000Y-77450000D01*
G75*
G02*
X47175000Y-77700000I-250000J0D01*
G01*
X46650000Y-77700000D01*
G75*
G02*
X46400000Y-77450000I0J250000D01*
G01*
G37*
%TD.AperFunction*%
%TD*%
%TO.P,R31,1*%
%TO.N,/CART_3V3*%
%TA.AperFunction,SMDPad,CuDef*%
G36*
G01*
X18575000Y-88450000D02*
X18575000Y-87550000D01*
G75*
G02*
X18825000Y-87300000I250000J0D01*
G01*
X19350000Y-87300000D01*
G75*
G02*
X19600000Y-87550000I0J-250000D01*
G01*
X19600000Y-88450000D01*
G75*
G02*
X19350000Y-88700000I-250000J0D01*
G01*
X18825000Y-88700000D01*
G75*
G02*
X18575000Y-88450000I0J250000D01*
G01*
G37*
%TD.AperFunction*%
%TO.P,R31,2*%
%TO.N,/CART_nWR*%
%TA.AperFunction,SMDPad,CuDef*%
G36*
G01*
X20400000Y-88450000D02*
X20400000Y-87550000D01*
G75*
G02*
X20650000Y-87300000I250000J0D01*
G01*
X21175000Y-87300000D01*
G75*
G02*
X21425000Y-87550000I0J-250000D01*
G01*
X21425000Y-88450000D01*
G75*
G02*
X21175000Y-88700000I-250000J0D01*
G01*
X20650000Y-88700000D01*
G75*
G02*
X20400000Y-88450000I0J250000D01*
G01*
G37*
%TD.AperFunction*%
%TD*%
%TO.P,R7,1*%
%TO.N,/MCU_AD6*%
%TA.AperFunction,SMDPad,CuDef*%
G36*
G01*
X44575000Y-65450000D02*
X44575000Y-64550000D01*
G75*
G02*
X44825000Y-64300000I250000J0D01*
G01*
X45350000Y-64300000D01*
G75*
G02*
X45600000Y-64550000I0J-250000D01*
G01*
X45600000Y-65450000D01*
G75*
G02*
X45350000Y-65700000I-250000J0D01*
G01*
X44825000Y-65700000D01*
G75*
G02*
X44575000Y-65450000I0J250000D01*
G01*
G37*
%TD.AperFunction*%
%TO.P,R7,2*%
%TO.N,/CART_AD6*%
%TA.AperFunction,SMDPad,CuDef*%
G36*
G01*
X46400000Y-65450000D02*
X46400000Y-64550000D01*
G75*
G02*
X46650000Y-64300000I250000J0D01*
G01*
X47175000Y-64300000D01*
G75*
G02*
X47425000Y-64550000I0J-250000D01*
G01*
X47425000Y-65450000D01*
G75*
G02*
X47175000Y-65700000I-250000J0D01*
G01*
X46650000Y-65700000D01*
G75*
G02*
X46400000Y-65450000I0J250000D01*
G01*
G37*
%TD.AperFunction*%
%TD*%
%TO.P,R22,1*%
%TO.N,/MCU_A21_D5*%
%TA.AperFunction,SMDPad,CuDef*%
G36*
G01*
X92575000Y-69450000D02*
X92575000Y-68550000D01*
G75*
G02*
X92825000Y-68300000I250000J0D01*
G01*
X93350000Y-68300000D01*
G75*
G02*
X93600000Y-68550000I0J-250000D01*
G01*
X93600000Y-69450000D01*
G75*
G02*
X93350000Y-69700000I-250000J0D01*
G01*
X92825000Y-69700000D01*
G75*
G02*
X92575000Y-69450000I0J250000D01*
G01*
G37*
%TD.AperFunction*%
%TO.P,R22,2*%
%TO.N,/CART_A21_D5*%
%TA.AperFunction,SMDPad,CuDef*%
G36*
G01*
X94400000Y-69450000D02*
X94400000Y-68550000D01*
G75*
G02*
X94650000Y-68300000I250000J0D01*
G01*
X95175000Y-68300000D01*
G75*
G02*
X95425000Y-68550000I0J-250000D01*
G01*
X95425000Y-69450000D01*
G75*
G02*
X95175000Y-69700000I-250000J0D01*
G01*
X94650000Y-69700000D01*
G75*
G02*
X94400000Y-69450000I0J250000D01*
G01*
G37*
%TD.AperFunction*%
%TD*%
%TO.P,C1,1*%
%TO.N,/CART_3V3*%
%TA.AperFunction,SMDPad,CuDef*%
G36*
G01*
X20550000Y-33475000D02*
X20550000Y-32525000D01*
G75*
G02*
X20800000Y-32275000I250000J0D01*
G01*
X21300000Y-32275000D01*
G75*
G02*
X21550000Y-32525000I0J-250000D01*
G01*
X21550000Y-33475000D01*
G75*
G02*
X21300000Y-33725000I-250000J0D01*
G01*
X20800000Y-33725000D01*
G75*
G02*
X20550000Y-33475000I0J250000D01*
G01*
G37*
%TD.AperFunction*%
%TO.P,C1,2*%
%TO.N,/GND*%
%TA.AperFunction,SMDPad,CuDef*%
G36*
G01*
X22450000Y-33475000D02*
X22450000Y-32525000D01*
G75*
G02*
X22700000Y-32275000I250000J0D01*
G01*
X23200000Y-32275000D01*
G75*
G02*
X23450000Y-32525000I0J-250000D01*
G01*
X23450000Y-33475000D01*
G75*
G02*
X23200000Y-33725000I-250000J0D01*
G01*
X22700000Y-33725000D01*
G75*
G02*
X22450000Y-33475000I0J250000D01*
G01*
G37*
%TD.AperFunction*%
%TD*%
%TO.P,R20,1*%
%TO.N,/MCU_A19_D3*%
%TA.AperFunction,SMDPad,CuDef*%
G36*
G01*
X92575000Y-61450000D02*
X92575000Y-60550000D01*
G75*
G02*
X92825000Y-60300000I250000J0D01*
G01*
X93350000Y-60300000D01*
G75*
G02*
X93600000Y-60550000I0J-250000D01*
G01*
X93600000Y-61450000D01*
G75*
G02*
X93350000Y-61700000I-250000J0D01*
G01*
X92825000Y-61700000D01*
G75*
G02*
X92575000Y-61450000I0J250000D01*
G01*
G37*
%TD.AperFunction*%
%TO.P,R20,2*%
%TO.N,/CART_A19_D3*%
%TA.AperFunction,SMDPad,CuDef*%
G36*
G01*
X94400000Y-61450000D02*
X94400000Y-60550000D01*
G75*
G02*
X94650000Y-60300000I250000J0D01*
G01*
X95175000Y-60300000D01*
G75*
G02*
X95425000Y-60550000I0J-250000D01*
G01*
X95425000Y-61450000D01*
G75*
G02*
X95175000Y-61700000I-250000J0D01*
G01*
X94650000Y-61700000D01*
G75*
G02*
X94400000Y-61450000I0J250000D01*
G01*
G37*
%TD.AperFunction*%
%TD*%
%TO.P,R16,1*%
%TO.N,/MCU_AD15*%
%TA.AperFunction,SMDPad,CuDef*%
G36*
G01*
X44575000Y-92450000D02*
X44575000Y-91550000D01*
G75*
G02*
X44825000Y-91300000I250000J0D01*
G01*
X45350000Y-91300000D01*
G75*
G02*
X45600000Y-91550000I0J-250000D01*
G01*
X45600000Y-92450000D01*
G75*
G02*
X45350000Y-92700000I-250000J0D01*
G01*
X44825000Y-92700000D01*
G75*
G02*
X44575000Y-92450000I0J250000D01*
G01*
G37*
%TD.AperFunction*%
%TO.P,R16,2*%
%TO.N,/CART_AD15*%
%TA.AperFunction,SMDPad,CuDef*%
G36*
G01*
X46400000Y-92450000D02*
X46400000Y-91550000D01*
G75*
G02*
X46650000Y-91300000I250000J0D01*
G01*
X47175000Y-91300000D01*
G75*
G02*
X47425000Y-91550000I0J-250000D01*
G01*
X47425000Y-92450000D01*
G75*
G02*
X47175000Y-92700000I-250000J0D01*
G01*
X46650000Y-92700000D01*
G75*
G02*
X46400000Y-92450000I0J250000D01*
G01*
G37*
%TD.AperFunction*%
%TD*%
D13*
%TO.P,JP1,1*%
%TO.N,/WR_LINK*%
X32000000Y-72000000D03*
D14*
%TO.P,JP1,2*%
%TO.N,/CART_nWR*%
X32000000Y-74540000D03*
%TD*%
D15*
%TO.P,TP7,1*%
%TO.N,/CART_AD0*%
X38000000Y-47000000D03*
%TD*%
%TO.P,R2,1*%
%TO.N,/MCU_AD1*%
%TA.AperFunction,SMDPad,CuDef*%
G36*
G01*
X44575000Y-50450000D02*
X44575000Y-49550000D01*
G75*
G02*
X44825000Y-49300000I250000J0D01*
G01*
X45350000Y-49300000D01*
G75*
G02*
X45600000Y-49550000I0J-250000D01*
G01*
X45600000Y-50450000D01*
G75*
G02*
X45350000Y-50700000I-250000J0D01*
G01*
X44825000Y-50700000D01*
G75*
G02*
X44575000Y-50450000I0J250000D01*
G01*
G37*
%TD.AperFunction*%
%TO.P,R2,2*%
%TO.N,/CART_AD1*%
%TA.AperFunction,SMDPad,CuDef*%
G36*
G01*
X46400000Y-50450000D02*
X46400000Y-49550000D01*
G75*
G02*
X46650000Y-49300000I250000J0D01*
G01*
X47175000Y-49300000D01*
G75*
G02*
X47425000Y-49550000I0J-250000D01*
G01*
X47425000Y-50450000D01*
G75*
G02*
X47175000Y-50700000I-250000J0D01*
G01*
X46650000Y-50700000D01*
G75*
G02*
X46400000Y-50450000I0J250000D01*
G01*
G37*
%TD.AperFunction*%
%TD*%
%TO.P,R21,1*%
%TO.N,/MCU_A20_D4*%
%TA.AperFunction,SMDPad,CuDef*%
G36*
G01*
X92575000Y-65450000D02*
X92575000Y-64550000D01*
G75*
G02*
X92825000Y-64300000I250000J0D01*
G01*
X93350000Y-64300000D01*
G75*
G02*
X93600000Y-64550000I0J-250000D01*
G01*
X93600000Y-65450000D01*
G75*
G02*
X93350000Y-65700000I-250000J0D01*
G01*
X92825000Y-65700000D01*
G75*
G02*
X92575000Y-65450000I0J250000D01*
G01*
G37*
%TD.AperFunction*%
%TO.P,R21,2*%
%TO.N,/CART_A20_D4*%
%TA.AperFunction,SMDPad,CuDef*%
G36*
G01*
X94400000Y-65450000D02*
X94400000Y-64550000D01*
G75*
G02*
X94650000Y-64300000I250000J0D01*
G01*
X95175000Y-64300000D01*
G75*
G02*
X95425000Y-64550000I0J-250000D01*
G01*
X95425000Y-65450000D01*
G75*
G02*
X95175000Y-65700000I-250000J0D01*
G01*
X94650000Y-65700000D01*
G75*
G02*
X94400000Y-65450000I0J250000D01*
G01*
G37*
%TD.AperFunction*%
%TD*%
%TO.P,R33,1*%
%TO.N,/CART_PHI*%
%TA.AperFunction,SMDPad,CuDef*%
G36*
G01*
X35575000Y-33450000D02*
X35575000Y-32550000D01*
G75*
G02*
X35825000Y-32300000I250000J0D01*
G01*
X36350000Y-32300000D01*
G75*
G02*
X36600000Y-32550000I0J-250000D01*
G01*
X36600000Y-33450000D01*
G75*
G02*
X36350000Y-33700000I-250000J0D01*
G01*
X35825000Y-33700000D01*
G75*
G02*
X35575000Y-33450000I0J250000D01*
G01*
G37*
%TD.AperFunction*%
%TO.P,R33,2*%
%TO.N,/GND*%
%TA.AperFunction,SMDPad,CuDef*%
G36*
G01*
X37400000Y-33450000D02*
X37400000Y-32550000D01*
G75*
G02*
X37650000Y-32300000I250000J0D01*
G01*
X38175000Y-32300000D01*
G75*
G02*
X38425000Y-32550000I0J-250000D01*
G01*
X38425000Y-33450000D01*
G75*
G02*
X38175000Y-33700000I-250000J0D01*
G01*
X37650000Y-33700000D01*
G75*
G02*
X37400000Y-33450000I0J250000D01*
G01*
G37*
%TD.AperFunction*%
%TD*%
%TO.P,R28,1*%
%TO.N,/MCU_nCS2*%
%TA.AperFunction,SMDPad,CuDef*%
G36*
G01*
X18575000Y-74450000D02*
X18575000Y-73550000D01*
G75*
G02*
X18825000Y-73300000I250000J0D01*
G01*
X19350000Y-73300000D01*
G75*
G02*
X19600000Y-73550000I0J-250000D01*
G01*
X19600000Y-74450000D01*
G75*
G02*
X19350000Y-74700000I-250000J0D01*
G01*
X18825000Y-74700000D01*
G75*
G02*
X18575000Y-74450000I0J250000D01*
G01*
G37*
%TD.AperFunction*%
%TO.P,R28,2*%
%TO.N,/CART_nCS2*%
%TA.AperFunction,SMDPad,CuDef*%
G36*
G01*
X20400000Y-74450000D02*
X20400000Y-73550000D01*
G75*
G02*
X20650000Y-73300000I250000J0D01*
G01*
X21175000Y-73300000D01*
G75*
G02*
X21425000Y-73550000I0J-250000D01*
G01*
X21425000Y-74450000D01*
G75*
G02*
X21175000Y-74700000I-250000J0D01*
G01*
X20650000Y-74700000D01*
G75*
G02*
X20400000Y-74450000I0J250000D01*
G01*
G37*
%TD.AperFunction*%
%TD*%
D13*
%TO.P,J2,1*%
%TO.N,unconnected-(J2-GPIO43-Pad1)*%
X83400000Y-46000000D03*
D14*
%TO.P,J2,2*%
%TO.N,unconnected-(J2-GPIO44-Pad2)*%
X83400000Y-48540000D03*
%TO.P,J2,3*%
%TO.N,/MCU_A16_D0*%
X83400000Y-51080000D03*
%TO.P,J2,4*%
%TO.N,/MCU_nRD*%
X83400000Y-53620000D03*
%TO.P,J2,5*%
%TO.N,/MCU_A23_D7*%
X83400000Y-56160000D03*
%TO.P,J2,6*%
%TO.N,/MCU_A22_D6*%
X83400000Y-58700000D03*
%TO.P,J2,7*%
%TO.N,/MCU_A21_D5*%
X83400000Y-61240000D03*
%TO.P,J2,8*%
%TO.N,/MCU_A20_D4*%
X83400000Y-63780000D03*
%TO.P,J2,9*%
%TO.N,/MCU_A19_D3*%
X83400000Y-66320000D03*
%TO.P,J2,10*%
%TO.N,unconnected-(J2-GPIO37-Pad10)*%
X83400000Y-68860000D03*
%TO.P,J2,11*%
%TO.N,unconnected-(J2-GPIO36-Pad11)*%
X83400000Y-71400000D03*
%TO.P,J2,12*%
%TO.N,unconnected-(J2-GPIO35-Pad12)*%
X83400000Y-73940000D03*
%TO.P,J2,13*%
%TO.N,unconnected-(J2-GPIO0-Pad13)*%
X83400000Y-76480000D03*
%TO.P,J2,14*%
%TO.N,unconnected-(J2-GPIO45-Pad14)*%
X83400000Y-79020000D03*
%TO.P,J2,15*%
%TO.N,/MCU_nWR*%
X83400000Y-81560000D03*
%TO.P,J2,16*%
%TO.N,/MCU_nCS*%
X83400000Y-84100000D03*
%TO.P,J2,17*%
%TO.N,/MCU_AD15*%
X83400000Y-86640000D03*
%TO.P,J2,18*%
%TO.N,/MCU_A18_D2*%
X83400000Y-89180000D03*
%TO.P,J2,19*%
%TO.N,/MCU_A17_D1*%
X83400000Y-91720000D03*
%TO.P,J2,20*%
%TO.N,/GND*%
X83400000Y-94260000D03*
%TD*%
D13*
%TO.P,JP2,1*%
%TO.N,/BOARD_3V3*%
X13000000Y-38000000D03*
D14*
%TO.P,JP2,2*%
%TO.N,/CART_3V3*%
X13000000Y-40540000D03*
%TD*%
%TO.P,R30,1*%
%TO.N,/CART_3V3*%
%TA.AperFunction,SMDPad,CuDef*%
G36*
G01*
X18575000Y-84450000D02*
X18575000Y-83550000D01*
G75*
G02*
X18825000Y-83300000I250000J0D01*
G01*
X19350000Y-83300000D01*
G75*
G02*
X19600000Y-83550000I0J-250000D01*
G01*
X19600000Y-84450000D01*
G75*
G02*
X19350000Y-84700000I-250000J0D01*
G01*
X18825000Y-84700000D01*
G75*
G02*
X18575000Y-84450000I0J250000D01*
G01*
G37*
%TD.AperFunction*%
%TO.P,R30,2*%
%TO.N,/CART_nRD*%
%TA.AperFunction,SMDPad,CuDef*%
G36*
G01*
X20400000Y-84450000D02*
X20400000Y-83550000D01*
G75*
G02*
X20650000Y-83300000I250000J0D01*
G01*
X21175000Y-83300000D01*
G75*
G02*
X21425000Y-83550000I0J-250000D01*
G01*
X21425000Y-84450000D01*
G75*
G02*
X21175000Y-84700000I-250000J0D01*
G01*
X20650000Y-84700000D01*
G75*
G02*
X20400000Y-84450000I0J250000D01*
G01*
G37*
%TD.AperFunction*%
%TD*%
D15*
%TO.P,TP9,1*%
%TO.N,/CART_A16_D0*%
X94000000Y-38000000D03*
%TD*%
%TO.P,R29,1*%
%TO.N,/CART_3V3*%
%TA.AperFunction,SMDPad,CuDef*%
G36*
G01*
X18575000Y-80450000D02*
X18575000Y-79550000D01*
G75*
G02*
X18825000Y-79300000I250000J0D01*
G01*
X19350000Y-79300000D01*
G75*
G02*
X19600000Y-79550000I0J-250000D01*
G01*
X19600000Y-80450000D01*
G75*
G02*
X19350000Y-80700000I-250000J0D01*
G01*
X18825000Y-80700000D01*
G75*
G02*
X18575000Y-80450000I0J250000D01*
G01*
G37*
%TD.AperFunction*%
%TO.P,R29,2*%
%TO.N,/CART_nCS*%
%TA.AperFunction,SMDPad,CuDef*%
G36*
G01*
X20400000Y-80450000D02*
X20400000Y-79550000D01*
G75*
G02*
X20650000Y-79300000I250000J0D01*
G01*
X21175000Y-79300000D01*
G75*
G02*
X21425000Y-79550000I0J-250000D01*
G01*
X21425000Y-80450000D01*
G75*
G02*
X21175000Y-80700000I-250000J0D01*
G01*
X20650000Y-80700000D01*
G75*
G02*
X20400000Y-80450000I0J250000D01*
G01*
G37*
%TD.AperFunction*%
%TD*%
%TO.P,R25,1*%
%TO.N,/MCU_nCS*%
%TA.AperFunction,SMDPad,CuDef*%
G36*
G01*
X18575000Y-62450000D02*
X18575000Y-61550000D01*
G75*
G02*
X18825000Y-61300000I250000J0D01*
G01*
X19350000Y-61300000D01*
G75*
G02*
X19600000Y-61550000I0J-250000D01*
G01*
X19600000Y-62450000D01*
G75*
G02*
X19350000Y-62700000I-250000J0D01*
G01*
X18825000Y-62700000D01*
G75*
G02*
X18575000Y-62450000I0J250000D01*
G01*
G37*
%TD.AperFunction*%
%TO.P,R25,2*%
%TO.N,/CART_nCS*%
%TA.AperFunction,SMDPad,CuDef*%
G36*
G01*
X20400000Y-62450000D02*
X20400000Y-61550000D01*
G75*
G02*
X20650000Y-61300000I250000J0D01*
G01*
X21175000Y-61300000D01*
G75*
G02*
X21425000Y-61550000I0J-250000D01*
G01*
X21425000Y-62450000D01*
G75*
G02*
X21175000Y-62700000I-250000J0D01*
G01*
X20650000Y-62700000D01*
G75*
G02*
X20400000Y-62450000I0J250000D01*
G01*
G37*
%TD.AperFunction*%
%TD*%
%TO.P,R27,1*%
%TO.N,/MCU_nWR*%
%TA.AperFunction,SMDPad,CuDef*%
G36*
G01*
X18575000Y-70450000D02*
X18575000Y-69550000D01*
G75*
G02*
X18825000Y-69300000I250000J0D01*
G01*
X19350000Y-69300000D01*
G75*
G02*
X19600000Y-69550000I0J-250000D01*
G01*
X19600000Y-70450000D01*
G75*
G02*
X19350000Y-70700000I-250000J0D01*
G01*
X18825000Y-70700000D01*
G75*
G02*
X18575000Y-70450000I0J250000D01*
G01*
G37*
%TD.AperFunction*%
%TO.P,R27,2*%
%TO.N,/WR_LINK*%
%TA.AperFunction,SMDPad,CuDef*%
G36*
G01*
X20400000Y-70450000D02*
X20400000Y-69550000D01*
G75*
G02*
X20650000Y-69300000I250000J0D01*
G01*
X21175000Y-69300000D01*
G75*
G02*
X21425000Y-69550000I0J-250000D01*
G01*
X21425000Y-70450000D01*
G75*
G02*
X21175000Y-70700000I-250000J0D01*
G01*
X20650000Y-70700000D01*
G75*
G02*
X20400000Y-70450000I0J250000D01*
G01*
G37*
%TD.AperFunction*%
%TD*%
%TO.P,R5,1*%
%TO.N,/MCU_AD4*%
%TA.AperFunction,SMDPad,CuDef*%
G36*
G01*
X44575000Y-59450000D02*
X44575000Y-58550000D01*
G75*
G02*
X44825000Y-58300000I250000J0D01*
G01*
X45350000Y-58300000D01*
G75*
G02*
X45600000Y-58550000I0J-250000D01*
G01*
X45600000Y-59450000D01*
G75*
G02*
X45350000Y-59700000I-250000J0D01*
G01*
X44825000Y-59700000D01*
G75*
G02*
X44575000Y-59450000I0J250000D01*
G01*
G37*
%TD.AperFunction*%
%TO.P,R5,2*%
%TO.N,/CART_AD4*%
%TA.AperFunction,SMDPad,CuDef*%
G36*
G01*
X46400000Y-59450000D02*
X46400000Y-58550000D01*
G75*
G02*
X46650000Y-58300000I250000J0D01*
G01*
X47175000Y-58300000D01*
G75*
G02*
X47425000Y-58550000I0J-250000D01*
G01*
X47425000Y-59450000D01*
G75*
G02*
X47175000Y-59700000I-250000J0D01*
G01*
X46650000Y-59700000D01*
G75*
G02*
X46400000Y-59450000I0J250000D01*
G01*
G37*
%TD.AperFunction*%
%TD*%
%TO.P,R6,1*%
%TO.N,/MCU_AD5*%
%TA.AperFunction,SMDPad,CuDef*%
G36*
G01*
X44575000Y-62450000D02*
X44575000Y-61550000D01*
G75*
G02*
X44825000Y-61300000I250000J0D01*
G01*
X45350000Y-61300000D01*
G75*
G02*
X45600000Y-61550000I0J-250000D01*
G01*
X45600000Y-62450000D01*
G75*
G02*
X45350000Y-62700000I-250000J0D01*
G01*
X44825000Y-62700000D01*
G75*
G02*
X44575000Y-62450000I0J250000D01*
G01*
G37*
%TD.AperFunction*%
%TO.P,R6,2*%
%TO.N,/CART_AD5*%
%TA.AperFunction,SMDPad,CuDef*%
G36*
G01*
X46400000Y-62450000D02*
X46400000Y-61550000D01*
G75*
G02*
X46650000Y-61300000I250000J0D01*
G01*
X47175000Y-61300000D01*
G75*
G02*
X47425000Y-61550000I0J-250000D01*
G01*
X47425000Y-62450000D01*
G75*
G02*
X47175000Y-62700000I-250000J0D01*
G01*
X46650000Y-62700000D01*
G75*
G02*
X46400000Y-62450000I0J250000D01*
G01*
G37*
%TD.AperFunction*%
%TD*%
%TO.P,TP12,1*%
%TO.N,/CART_nREQ*%
X43000000Y-39000000D03*
%TD*%
%TO.P,R13,1*%
%TO.N,/MCU_AD12*%
%TA.AperFunction,SMDPad,CuDef*%
G36*
G01*
X44575000Y-83450000D02*
X44575000Y-82550000D01*
G75*
G02*
X44825000Y-82300000I250000J0D01*
G01*
X45350000Y-82300000D01*
G75*
G02*
X45600000Y-82550000I0J-250000D01*
G01*
X45600000Y-83450000D01*
G75*
G02*
X45350000Y-83700000I-250000J0D01*
G01*
X44825000Y-83700000D01*
G75*
G02*
X44575000Y-83450000I0J250000D01*
G01*
G37*
%TD.AperFunction*%
%TO.P,R13,2*%
%TO.N,/CART_AD12*%
%TA.AperFunction,SMDPad,CuDef*%
G36*
G01*
X46400000Y-83450000D02*
X46400000Y-82550000D01*
G75*
G02*
X46650000Y-82300000I250000J0D01*
G01*
X47175000Y-82300000D01*
G75*
G02*
X47425000Y-82550000I0J-250000D01*
G01*
X47425000Y-83450000D01*
G75*
G02*
X47175000Y-83700000I-250000J0D01*
G01*
X46650000Y-83700000D01*
G75*
G02*
X46400000Y-83450000I0J250000D01*
G01*
G37*
%TD.AperFunction*%
%TD*%
%TO.P,R1,1*%
%TO.N,/MCU_AD0*%
%TA.AperFunction,SMDPad,CuDef*%
G36*
G01*
X44575000Y-47450000D02*
X44575000Y-46550000D01*
G75*
G02*
X44825000Y-46300000I250000J0D01*
G01*
X45350000Y-46300000D01*
G75*
G02*
X45600000Y-46550000I0J-250000D01*
G01*
X45600000Y-47450000D01*
G75*
G02*
X45350000Y-47700000I-250000J0D01*
G01*
X44825000Y-47700000D01*
G75*
G02*
X44575000Y-47450000I0J250000D01*
G01*
G37*
%TD.AperFunction*%
%TO.P,R1,2*%
%TO.N,/CART_AD0*%
%TA.AperFunction,SMDPad,CuDef*%
G36*
G01*
X46400000Y-47450000D02*
X46400000Y-46550000D01*
G75*
G02*
X46650000Y-46300000I250000J0D01*
G01*
X47175000Y-46300000D01*
G75*
G02*
X47425000Y-46550000I0J-250000D01*
G01*
X47425000Y-47450000D01*
G75*
G02*
X47175000Y-47700000I-250000J0D01*
G01*
X46650000Y-47700000D01*
G75*
G02*
X46400000Y-47450000I0J250000D01*
G01*
G37*
%TD.AperFunction*%
%TD*%
D13*
%TO.P,J1,1*%
%TO.N,/BOARD_3V3*%
X58000000Y-46000000D03*
D14*
%TO.P,J1,2*%
%TO.N,unconnected-(J1-EN-Pad2)*%
X58000000Y-48540000D03*
%TO.P,J1,3*%
%TO.N,/MCU_AD0*%
X58000000Y-51080000D03*
%TO.P,J1,4*%
%TO.N,/MCU_AD1*%
X58000000Y-53620000D03*
%TO.P,J1,5*%
%TO.N,/MCU_AD2*%
X58000000Y-56160000D03*
%TO.P,J1,6*%
%TO.N,/MCU_AD3*%
X58000000Y-58700000D03*
%TO.P,J1,7*%
%TO.N,/MCU_AD11*%
X58000000Y-61240000D03*
%TO.P,J1,8*%
%TO.N,/MCU_AD12*%
X58000000Y-63780000D03*
%TO.P,J1,9*%
%TO.N,/MCU_AD13*%
X58000000Y-66320000D03*
%TO.P,J1,10*%
%TO.N,/MCU_AD14*%
X58000000Y-68860000D03*
%TO.P,J1,11*%
%TO.N,/MCU_AD4*%
X58000000Y-71400000D03*
%TO.P,J1,12*%
%TO.N,/MCU_nCS2*%
X58000000Y-73940000D03*
%TO.P,J1,13*%
%TO.N,unconnected-(J1-GPIO46-Pad13)*%
X58000000Y-76480000D03*
%TO.P,J1,14*%
%TO.N,/MCU_AD5*%
X58000000Y-79020000D03*
%TO.P,J1,15*%
%TO.N,/MCU_AD6*%
X58000000Y-81560000D03*
%TO.P,J1,16*%
%TO.N,/MCU_AD7*%
X58000000Y-84100000D03*
%TO.P,J1,17*%
%TO.N,/MCU_AD8*%
X58000000Y-86640000D03*
%TO.P,J1,18*%
%TO.N,/MCU_AD9*%
X58000000Y-89180000D03*
%TO.P,J1,19*%
%TO.N,/MCU_AD10*%
X58000000Y-91720000D03*
%TO.P,J1,20*%
%TO.N,unconnected-(J1-5V-Pad20)*%
X58000000Y-94260000D03*
%TD*%
%TO.P,R12,1*%
%TO.N,/MCU_AD11*%
%TA.AperFunction,SMDPad,CuDef*%
G36*
G01*
X44575000Y-80450000D02*
X44575000Y-79550000D01*
G75*
G02*
X44825000Y-79300000I250000J0D01*
G01*
X45350000Y-79300000D01*
G75*
G02*
X45600000Y-79550000I0J-250000D01*
G01*
X45600000Y-80450000D01*
G75*
G02*
X45350000Y-80700000I-250000J0D01*
G01*
X44825000Y-80700000D01*
G75*
G02*
X44575000Y-80450000I0J250000D01*
G01*
G37*
%TD.AperFunction*%
%TO.P,R12,2*%
%TO.N,/CART_AD11*%
%TA.AperFunction,SMDPad,CuDef*%
G36*
G01*
X46400000Y-80450000D02*
X46400000Y-79550000D01*
G75*
G02*
X46650000Y-79300000I250000J0D01*
G01*
X47175000Y-79300000D01*
G75*
G02*
X47425000Y-79550000I0J-250000D01*
G01*
X47425000Y-80450000D01*
G75*
G02*
X47175000Y-80700000I-250000J0D01*
G01*
X46650000Y-80700000D01*
G75*
G02*
X46400000Y-80450000I0J250000D01*
G01*
G37*
%TD.AperFunction*%
%TD*%
%TO.P,R23,1*%
%TO.N,/MCU_A22_D6*%
%TA.AperFunction,SMDPad,CuDef*%
G36*
G01*
X92575000Y-73450000D02*
X92575000Y-72550000D01*
G75*
G02*
X92825000Y-72300000I250000J0D01*
G01*
X93350000Y-72300000D01*
G75*
G02*
X93600000Y-72550000I0J-250000D01*
G01*
X93600000Y-73450000D01*
G75*
G02*
X93350000Y-73700000I-250000J0D01*
G01*
X92825000Y-73700000D01*
G75*
G02*
X92575000Y-73450000I0J250000D01*
G01*
G37*
%TD.AperFunction*%
%TO.P,R23,2*%
%TO.N,/CART_A22_D6*%
%TA.AperFunction,SMDPad,CuDef*%
G36*
G01*
X94400000Y-73450000D02*
X94400000Y-72550000D01*
G75*
G02*
X94650000Y-72300000I250000J0D01*
G01*
X95175000Y-72300000D01*
G75*
G02*
X95425000Y-72550000I0J-250000D01*
G01*
X95425000Y-73450000D01*
G75*
G02*
X95175000Y-73700000I-250000J0D01*
G01*
X94650000Y-73700000D01*
G75*
G02*
X94400000Y-73450000I0J250000D01*
G01*
G37*
%TD.AperFunction*%
%TD*%
D15*
%TO.P,TP3,1*%
%TO.N,/CART_nCS*%
X7000000Y-59000000D03*
%TD*%
%TO.P,R17,1*%
%TO.N,/MCU_A16_D0*%
%TA.AperFunction,SMDPad,CuDef*%
G36*
G01*
X92575000Y-49450000D02*
X92575000Y-48550000D01*
G75*
G02*
X92825000Y-48300000I250000J0D01*
G01*
X93350000Y-48300000D01*
G75*
G02*
X93600000Y-48550000I0J-250000D01*
G01*
X93600000Y-49450000D01*
G75*
G02*
X93350000Y-49700000I-250000J0D01*
G01*
X92825000Y-49700000D01*
G75*
G02*
X92575000Y-49450000I0J250000D01*
G01*
G37*
%TD.AperFunction*%
%TO.P,R17,2*%
%TO.N,/CART_A16_D0*%
%TA.AperFunction,SMDPad,CuDef*%
G36*
G01*
X94400000Y-49450000D02*
X94400000Y-48550000D01*
G75*
G02*
X94650000Y-48300000I250000J0D01*
G01*
X95175000Y-48300000D01*
G75*
G02*
X95425000Y-48550000I0J-250000D01*
G01*
X95425000Y-49450000D01*
G75*
G02*
X95175000Y-49700000I-250000J0D01*
G01*
X94650000Y-49700000D01*
G75*
G02*
X94400000Y-49450000I0J250000D01*
G01*
G37*
%TD.AperFunction*%
%TD*%
%TO.P,C2,1*%
%TO.N,/CART_3V3*%
%TA.AperFunction,SMDPad,CuDef*%
G36*
G01*
X26550000Y-33475000D02*
X26550000Y-32525000D01*
G75*
G02*
X26800000Y-32275000I250000J0D01*
G01*
X27300000Y-32275000D01*
G75*
G02*
X27550000Y-32525000I0J-250000D01*
G01*
X27550000Y-33475000D01*
G75*
G02*
X27300000Y-33725000I-250000J0D01*
G01*
X26800000Y-33725000D01*
G75*
G02*
X26550000Y-33475000I0J250000D01*
G01*
G37*
%TD.AperFunction*%
%TO.P,C2,2*%
%TO.N,/GND*%
%TA.AperFunction,SMDPad,CuDef*%
G36*
G01*
X28450000Y-33475000D02*
X28450000Y-32525000D01*
G75*
G02*
X28700000Y-32275000I250000J0D01*
G01*
X29200000Y-32275000D01*
G75*
G02*
X29450000Y-32525000I0J-250000D01*
G01*
X29450000Y-33475000D01*
G75*
G02*
X29200000Y-33725000I-250000J0D01*
G01*
X28700000Y-33725000D01*
G75*
G02*
X28450000Y-33475000I0J250000D01*
G01*
G37*
%TD.AperFunction*%
%TD*%
%TO.P,R4,1*%
%TO.N,/MCU_AD3*%
%TA.AperFunction,SMDPad,CuDef*%
G36*
G01*
X44575000Y-56450000D02*
X44575000Y-55550000D01*
G75*
G02*
X44825000Y-55300000I250000J0D01*
G01*
X45350000Y-55300000D01*
G75*
G02*
X45600000Y-55550000I0J-250000D01*
G01*
X45600000Y-56450000D01*
G75*
G02*
X45350000Y-56700000I-250000J0D01*
G01*
X44825000Y-56700000D01*
G75*
G02*
X44575000Y-56450000I0J250000D01*
G01*
G37*
%TD.AperFunction*%
%TO.P,R4,2*%
%TO.N,/CART_AD3*%
%TA.AperFunction,SMDPad,CuDef*%
G36*
G01*
X46400000Y-56450000D02*
X46400000Y-55550000D01*
G75*
G02*
X46650000Y-55300000I250000J0D01*
G01*
X47175000Y-55300000D01*
G75*
G02*
X47425000Y-55550000I0J-250000D01*
G01*
X47425000Y-56450000D01*
G75*
G02*
X47175000Y-56700000I-250000J0D01*
G01*
X46650000Y-56700000D01*
G75*
G02*
X46400000Y-56450000I0J250000D01*
G01*
G37*
%TD.AperFunction*%
%TD*%
%TO.P,R15,1*%
%TO.N,/MCU_AD14*%
%TA.AperFunction,SMDPad,CuDef*%
G36*
G01*
X44575000Y-89450000D02*
X44575000Y-88550000D01*
G75*
G02*
X44825000Y-88300000I250000J0D01*
G01*
X45350000Y-88300000D01*
G75*
G02*
X45600000Y-88550000I0J-250000D01*
G01*
X45600000Y-89450000D01*
G75*
G02*
X45350000Y-89700000I-250000J0D01*
G01*
X44825000Y-89700000D01*
G75*
G02*
X44575000Y-89450000I0J250000D01*
G01*
G37*
%TD.AperFunction*%
%TO.P,R15,2*%
%TO.N,/CART_AD14*%
%TA.AperFunction,SMDPad,CuDef*%
G36*
G01*
X46400000Y-89450000D02*
X46400000Y-88550000D01*
G75*
G02*
X46650000Y-88300000I250000J0D01*
G01*
X47175000Y-88300000D01*
G75*
G02*
X47425000Y-88550000I0J-250000D01*
G01*
X47425000Y-89450000D01*
G75*
G02*
X47175000Y-89700000I-250000J0D01*
G01*
X46650000Y-89700000D01*
G75*
G02*
X46400000Y-89450000I0J250000D01*
G01*
G37*
%TD.AperFunction*%
%TD*%
%TO.P,TP5,1*%
%TO.N,/CART_nWR*%
X7000000Y-71000000D03*
%TD*%
%TO.P,R9,1*%
%TO.N,/MCU_AD8*%
%TA.AperFunction,SMDPad,CuDef*%
G36*
G01*
X44575000Y-71450000D02*
X44575000Y-70550000D01*
G75*
G02*
X44825000Y-70300000I250000J0D01*
G01*
X45350000Y-70300000D01*
G75*
G02*
X45600000Y-70550000I0J-250000D01*
G01*
X45600000Y-71450000D01*
G75*
G02*
X45350000Y-71700000I-250000J0D01*
G01*
X44825000Y-71700000D01*
G75*
G02*
X44575000Y-71450000I0J250000D01*
G01*
G37*
%TD.AperFunction*%
%TO.P,R9,2*%
%TO.N,/CART_AD8*%
%TA.AperFunction,SMDPad,CuDef*%
G36*
G01*
X46400000Y-71450000D02*
X46400000Y-70550000D01*
G75*
G02*
X46650000Y-70300000I250000J0D01*
G01*
X47175000Y-70300000D01*
G75*
G02*
X47425000Y-70550000I0J-250000D01*
G01*
X47425000Y-71450000D01*
G75*
G02*
X47175000Y-71700000I-250000J0D01*
G01*
X46650000Y-71700000D01*
G75*
G02*
X46400000Y-71450000I0J250000D01*
G01*
G37*
%TD.AperFunction*%
%TD*%
%TO.P,TP4,1*%
%TO.N,/CART_nRD*%
X7000000Y-65000000D03*
%TD*%
%TO.P,TP2,1*%
%TO.N,/GND*%
X7000000Y-48000000D03*
%TD*%
%TO.P,TP1,1*%
%TO.N,/CART_3V3*%
X7000000Y-34000000D03*
%TD*%
%TO.P,R10,1*%
%TO.N,/MCU_AD9*%
%TA.AperFunction,SMDPad,CuDef*%
G36*
G01*
X44575000Y-74450000D02*
X44575000Y-73550000D01*
G75*
G02*
X44825000Y-73300000I250000J0D01*
G01*
X45350000Y-73300000D01*
G75*
G02*
X45600000Y-73550000I0J-250000D01*
G01*
X45600000Y-74450000D01*
G75*
G02*
X45350000Y-74700000I-250000J0D01*
G01*
X44825000Y-74700000D01*
G75*
G02*
X44575000Y-74450000I0J250000D01*
G01*
G37*
%TD.AperFunction*%
%TO.P,R10,2*%
%TO.N,/CART_AD9*%
%TA.AperFunction,SMDPad,CuDef*%
G36*
G01*
X46400000Y-74450000D02*
X46400000Y-73550000D01*
G75*
G02*
X46650000Y-73300000I250000J0D01*
G01*
X47175000Y-73300000D01*
G75*
G02*
X47425000Y-73550000I0J-250000D01*
G01*
X47425000Y-74450000D01*
G75*
G02*
X47175000Y-74700000I-250000J0D01*
G01*
X46650000Y-74700000D01*
G75*
G02*
X46400000Y-74450000I0J250000D01*
G01*
G37*
%TD.AperFunction*%
%TD*%
%TO.P,TP10,1*%
%TO.N,/CART_A23_D7*%
X94000000Y-83000000D03*
%TD*%
%TO.P,TP11,1*%
%TO.N,/CART_PHI*%
X37000000Y-39000000D03*
%TD*%
%TO.P,R18,1*%
%TO.N,/MCU_A17_D1*%
%TA.AperFunction,SMDPad,CuDef*%
G36*
G01*
X92575000Y-53450000D02*
X92575000Y-52550000D01*
G75*
G02*
X92825000Y-52300000I250000J0D01*
G01*
X93350000Y-52300000D01*
G75*
G02*
X93600000Y-52550000I0J-250000D01*
G01*
X93600000Y-53450000D01*
G75*
G02*
X93350000Y-53700000I-250000J0D01*
G01*
X92825000Y-53700000D01*
G75*
G02*
X92575000Y-53450000I0J250000D01*
G01*
G37*
%TD.AperFunction*%
%TO.P,R18,2*%
%TO.N,/CART_A17_D1*%
%TA.AperFunction,SMDPad,CuDef*%
G36*
G01*
X94400000Y-53450000D02*
X94400000Y-52550000D01*
G75*
G02*
X94650000Y-52300000I250000J0D01*
G01*
X95175000Y-52300000D01*
G75*
G02*
X95425000Y-52550000I0J-250000D01*
G01*
X95425000Y-53450000D01*
G75*
G02*
X95175000Y-53700000I-250000J0D01*
G01*
X94650000Y-53700000D01*
G75*
G02*
X94400000Y-53450000I0J250000D01*
G01*
G37*
%TD.AperFunction*%
%TD*%
%TO.P,TP8,1*%
%TO.N,/CART_AD15*%
X38000000Y-92000000D03*
%TD*%
%TO.P,TP6,1*%
%TO.N,/CART_nCS2*%
X7000000Y-77000000D03*
%TD*%
%TO.P,R32,1*%
%TO.N,/CART_3V3*%
%TA.AperFunction,SMDPad,CuDef*%
G36*
G01*
X18575000Y-92450000D02*
X18575000Y-91550000D01*
G75*
G02*
X18825000Y-91300000I250000J0D01*
G01*
X19350000Y-91300000D01*
G75*
G02*
X19600000Y-91550000I0J-250000D01*
G01*
X19600000Y-92450000D01*
G75*
G02*
X19350000Y-92700000I-250000J0D01*
G01*
X18825000Y-92700000D01*
G75*
G02*
X18575000Y-92450000I0J250000D01*
G01*
G37*
%TD.AperFunction*%
%TO.P,R32,2*%
%TO.N,/CART_nCS2*%
%TA.AperFunction,SMDPad,CuDef*%
G36*
G01*
X20400000Y-92450000D02*
X20400000Y-91550000D01*
G75*
G02*
X20650000Y-91300000I250000J0D01*
G01*
X21175000Y-91300000D01*
G75*
G02*
X21425000Y-91550000I0J-250000D01*
G01*
X21425000Y-92450000D01*
G75*
G02*
X21175000Y-92700000I-250000J0D01*
G01*
X20650000Y-92700000D01*
G75*
G02*
X20400000Y-92450000I0J250000D01*
G01*
G37*
%TD.AperFunction*%
%TD*%
%TO.P,R19,1*%
%TO.N,/MCU_A18_D2*%
%TA.AperFunction,SMDPad,CuDef*%
G36*
G01*
X92575000Y-57450000D02*
X92575000Y-56550000D01*
G75*
G02*
X92825000Y-56300000I250000J0D01*
G01*
X93350000Y-56300000D01*
G75*
G02*
X93600000Y-56550000I0J-250000D01*
G01*
X93600000Y-57450000D01*
G75*
G02*
X93350000Y-57700000I-250000J0D01*
G01*
X92825000Y-57700000D01*
G75*
G02*
X92575000Y-57450000I0J250000D01*
G01*
G37*
%TD.AperFunction*%
%TO.P,R19,2*%
%TO.N,/CART_A18_D2*%
%TA.AperFunction,SMDPad,CuDef*%
G36*
G01*
X94400000Y-57450000D02*
X94400000Y-56550000D01*
G75*
G02*
X94650000Y-56300000I250000J0D01*
G01*
X95175000Y-56300000D01*
G75*
G02*
X95425000Y-56550000I0J-250000D01*
G01*
X95425000Y-57450000D01*
G75*
G02*
X95175000Y-57700000I-250000J0D01*
G01*
X94650000Y-57700000D01*
G75*
G02*
X94400000Y-57450000I0J250000D01*
G01*
G37*
%TD.AperFunction*%
%TD*%
D16*
%TO.N,/CART_3V3*%
X19087500Y-86358900D03*
%TO.N,/CART_PHI*%
X34588300Y-33000000D03*
%TO.N,/CART_nWR*%
X29291500Y-72036500D03*
%TO.N,/CART_nRD*%
X26962000Y-63261200D03*
X21276200Y-82762400D03*
%TO.N,/CART_nCS*%
X24678600Y-77725000D03*
X25276100Y-62000000D03*
%TO.N,/CART_AD0*%
X36934000Y-45934000D03*
%TO.N,/CART_AD1*%
X45832200Y-48921100D03*
%TO.N,/CART_AD2*%
X46005800Y-52093300D03*
%TO.N,/CART_AD3*%
X46023700Y-55111200D03*
%TO.N,/CART_AD4*%
X45977900Y-57957300D03*
%TO.N,/CART_AD5*%
X39784100Y-30731600D03*
X42440800Y-60314100D03*
%TO.N,/CART_AD6*%
X47762700Y-55042800D03*
X46016000Y-64103500D03*
%TO.N,/CART_AD7*%
X47808400Y-67104100D03*
X46943300Y-57736200D03*
%TO.N,/CART_AD8*%
X47164200Y-72221000D03*
%TO.N,/CART_AD9*%
X48254100Y-73834800D03*
%TO.N,/CART_AD10*%
X48604800Y-31703400D03*
X45442900Y-34689100D03*
X47824600Y-76085900D03*
%TO.N,/CART_AD11*%
X53810300Y-79298800D03*
%TO.N,/CART_AD12*%
X47280800Y-27948500D03*
X47812100Y-82100400D03*
%TO.N,/CART_AD13*%
X48974600Y-86000000D03*
%TO.N,/CART_AD14*%
X59825100Y-85370000D03*
%TO.N,/CART_AD15*%
X42633000Y-90931500D03*
X35268900Y-28701200D03*
%TO.N,/CART_A16_D0*%
X96600000Y-49000000D03*
X96600000Y-38000000D03*
%TO.N,/CART_A17_D1*%
X91851500Y-50790800D03*
%TO.N,/CART_A18_D2*%
X95973200Y-57000000D03*
%TO.N,/CART_A19_D3*%
X94912500Y-59789800D03*
%TO.N,/CART_A20_D4*%
X93998200Y-64085700D03*
%TO.N,/CART_A21_D5*%
X94061400Y-68069100D03*
%TO.N,/CART_A22_D6*%
X94184700Y-71932300D03*
%TO.N,/CART_A23_D7*%
X94000000Y-79048400D03*
%TO.N,/CART_nCS2*%
X32826200Y-31808600D03*
X28866700Y-74000000D03*
%TO.N,/GND*%
X22950000Y-35000000D03*
X28950000Y-35000000D03*
X37912500Y-35000000D03*
X7000000Y-50000000D03*
%TO.N,/MCU_A23_D7*%
X92181800Y-76094300D03*
%TO.N,/MCU_AD13*%
X46174800Y-84912700D03*
%TO.N,/MCU_AD7*%
X45979700Y-68889300D03*
%TO.N,/MCU_AD10*%
X45978100Y-77887400D03*
%TO.N,/MCU_AD6*%
X45981200Y-65890600D03*
%TO.N,/MCU_A21_D5*%
X90449300Y-67339300D03*
%TO.N,/MCU_A22_D6*%
X90901000Y-72170600D03*
%TO.N,/MCU_nCS*%
X50161500Y-73352500D03*
X20517300Y-63750300D03*
%TO.N,/MCU_A18_D2*%
X91352800Y-57910000D03*
%TO.N,/MCU_A17_D1*%
X91804500Y-53906600D03*
%TO.N,/MCU_AD4*%
X46746200Y-60612000D03*
%TO.N,/MCU_AD5*%
X45995300Y-62906200D03*
%TO.N,/MCU_AD12*%
X46000000Y-82087500D03*
%TO.N,/MCU_AD11*%
X60293400Y-80288400D03*
%TO.N,/MCU_AD14*%
X45978100Y-88109400D03*
%TO.N,/MCU_AD8*%
X45978100Y-71890600D03*
%TO.N,/MCU_AD9*%
X45707000Y-75161700D03*
%TD*%
%TO.N,/CART_3V3*%
D17*
X28000000Y-28301700D02*
X25719200Y-30582500D01*
X7000000Y-34000000D02*
X10708700Y-37708600D01*
X12877900Y-40540000D02*
X10708600Y-38370700D01*
X10708700Y-37708600D02*
X15417300Y-33000000D01*
X15417300Y-33000000D02*
X21050000Y-33000000D01*
X10708600Y-37708700D02*
X10708700Y-37708600D01*
X19087500Y-92000000D02*
X19087500Y-88000000D01*
X19087500Y-86358900D02*
X19087500Y-84000000D01*
X13000000Y-40540000D02*
X12877900Y-40540000D01*
X21050000Y-32883100D02*
X21050000Y-33000000D01*
X25719200Y-31669200D02*
X22263900Y-31669200D01*
X28000000Y-27000000D02*
X28000000Y-28301700D01*
X22263900Y-31669200D02*
X21050000Y-32883100D01*
X10708600Y-38370700D02*
X10708600Y-37708700D01*
X19087500Y-80000000D02*
X19087500Y-84000000D01*
X19087500Y-88000000D02*
X19087500Y-86358900D01*
X25719200Y-30582500D02*
X25719200Y-31669200D01*
X27050000Y-33000000D02*
X25719200Y-31669200D01*
%TO.N,/CART_PHI*%
D18*
X37000000Y-39000000D02*
X36087500Y-38087500D01*
X36087500Y-33000000D02*
X34588300Y-33000000D01*
X36087500Y-38087500D02*
X36087500Y-33000000D01*
%TO.N,/CART_nWR*%
X7000000Y-71000000D02*
X8036500Y-72036500D01*
X32000000Y-76912500D02*
X32000000Y-74540000D01*
X20912500Y-88000000D02*
X32000000Y-76912500D01*
X8036500Y-72036500D02*
X29291500Y-72036500D01*
%TO.N,/CART_nRD*%
X21276200Y-82762400D02*
X20912500Y-83126100D01*
X19837200Y-64924700D02*
X7075300Y-64924700D01*
X26962000Y-63261200D02*
X23651300Y-63261200D01*
X7075300Y-64924700D02*
X7000000Y-65000000D01*
X23651300Y-63261200D02*
X20912500Y-66000000D01*
X20912500Y-83126100D02*
X20912500Y-84000000D01*
X20912500Y-66000000D02*
X19837200Y-64924700D01*
%TO.N,/CART_nCS*%
X24678600Y-77725000D02*
X23187500Y-77725000D01*
X17912500Y-59000000D02*
X20912500Y-62000000D01*
X25276100Y-62000000D02*
X20912500Y-62000000D01*
X23187500Y-77725000D02*
X20912500Y-80000000D01*
X7000000Y-59000000D02*
X17912500Y-59000000D01*
%TO.N,/CART_AD0*%
X42480800Y-47000000D02*
X44461300Y-48980500D01*
D19*
X44461300Y-48980500D02*
X44634200Y-48980500D01*
D18*
X38000000Y-47000000D02*
X42480800Y-47000000D01*
X45740700Y-48171800D02*
X46912500Y-47000000D01*
X45442900Y-48171800D02*
X45740700Y-48171800D01*
X38000000Y-47000000D02*
X36934000Y-45934000D01*
D19*
X44634200Y-48980500D02*
X45442900Y-48171800D01*
%TO.N,/CART_AD1*%
D18*
X45833600Y-48921100D02*
X45832200Y-48921100D01*
X46912500Y-50000000D02*
X45833600Y-48921100D01*
%TO.N,/CART_AD2*%
X46912500Y-53000000D02*
X46005800Y-52093300D01*
%TO.N,/CART_AD3*%
X46912500Y-56000000D02*
X46023700Y-55111200D01*
%TO.N,/CART_AD4*%
X46912500Y-59000000D02*
X45977900Y-58065400D01*
X45977900Y-58065400D02*
X45977900Y-57957300D01*
%TO.N,/CART_AD5*%
X45226600Y-60314100D02*
X42440800Y-60314100D01*
X46912500Y-62000000D02*
X45226600Y-60314100D01*
%TO.N,/CART_AD6*%
X46912500Y-65000000D02*
X46016000Y-64103500D01*
%TO.N,/CART_AD7*%
X47808400Y-67104100D02*
X46912500Y-68000000D01*
%TO.N,/CART_AD8*%
X46912500Y-71000000D02*
X46912500Y-71969300D01*
X46912500Y-71969300D02*
X47164200Y-72221000D01*
%TO.N,/CART_AD9*%
X48088900Y-74000000D02*
X48254100Y-73834800D01*
X46912500Y-74000000D02*
X48088900Y-74000000D01*
%TO.N,/CART_AD10*%
X46912500Y-77000000D02*
X47824600Y-76087900D01*
X45619100Y-34689100D02*
X45442900Y-34689100D01*
X48604800Y-31703400D02*
X45619100Y-34689100D01*
X47824600Y-76087900D02*
X47824600Y-76085900D01*
%TO.N,/CART_AD11*%
X53109100Y-80000000D02*
X53810300Y-79298800D01*
X46912500Y-80000000D02*
X53109100Y-80000000D01*
%TO.N,/CART_AD12*%
X47280800Y-27948500D02*
X47459000Y-28126700D01*
X52467100Y-28126700D02*
X53500000Y-27093800D01*
X47459000Y-28126700D02*
X52467100Y-28126700D01*
X53500000Y-27093800D02*
X53500000Y-25500000D01*
X47812100Y-82100400D02*
X46912500Y-83000000D01*
%TO.N,/CART_AD13*%
X46912500Y-86000000D02*
X48974600Y-86000000D01*
%TO.N,/CART_AD14*%
X46912500Y-89000000D02*
X50542500Y-85370000D01*
X50542500Y-85370000D02*
X59825100Y-85370000D01*
%TO.N,/CART_AD15*%
X35268900Y-28701200D02*
X35391600Y-28578500D01*
X56421500Y-28578500D02*
X58000000Y-27000000D01*
X39068500Y-90931500D02*
X42633000Y-90931500D01*
X42633000Y-90931500D02*
X45844000Y-90931500D01*
X38000000Y-92000000D02*
X39068500Y-90931500D01*
X45844000Y-90931500D02*
X46912500Y-92000000D01*
X35391600Y-28578500D02*
X56421500Y-28578500D01*
%TO.N,/CART_A16_D0*%
X94000000Y-38000000D02*
X96600000Y-38000000D01*
X96600000Y-49000000D02*
X94912500Y-49000000D01*
%TO.N,/CART_A17_D1*%
X92703300Y-50790800D02*
X94912500Y-53000000D01*
X91851500Y-50790800D02*
X92703300Y-50790800D01*
%TO.N,/CART_A18_D2*%
X94912500Y-57000000D02*
X95973200Y-57000000D01*
%TO.N,/CART_A19_D3*%
X94912500Y-59789800D02*
X94912500Y-61000000D01*
%TO.N,/CART_A20_D4*%
X94912500Y-65000000D02*
X93998200Y-64085700D01*
%TO.N,/CART_A21_D5*%
X94912500Y-68920200D02*
X94912500Y-69000000D01*
X94061400Y-68069100D02*
X94912500Y-68920200D01*
%TO.N,/CART_A22_D6*%
X94912500Y-73000000D02*
X94184700Y-72272200D01*
X94184700Y-72272200D02*
X94184700Y-71932300D01*
%TO.N,/CART_A23_D7*%
X94000000Y-79048400D02*
X94912500Y-78135900D01*
X94000000Y-83000000D02*
X94000000Y-79048400D01*
X94912500Y-78135900D02*
X94912500Y-77000000D01*
%TO.N,/CART_nCS2*%
X71500000Y-27151900D02*
X71500000Y-25500000D01*
X69620400Y-29031500D02*
X71500000Y-27151900D01*
X20000000Y-91087500D02*
X20912500Y-92000000D01*
X39007700Y-29031500D02*
X69620400Y-29031500D01*
X32826200Y-31808600D02*
X36230600Y-31808600D01*
X7000000Y-77000000D02*
X20000000Y-77000000D01*
X20912500Y-74000000D02*
X28866700Y-74000000D01*
X20912500Y-74000000D02*
X20000000Y-74912500D01*
X20000000Y-74912500D02*
X20000000Y-77000000D01*
X20000000Y-77000000D02*
X20000000Y-91087500D01*
X36230600Y-31808600D02*
X39007700Y-29031500D01*
%TO.N,/CART_nREQ*%
X70516800Y-29483200D02*
X73000000Y-27000000D01*
X43000000Y-39000000D02*
X43000000Y-36245800D01*
X43000000Y-36245800D02*
X49762600Y-29483200D01*
X49762600Y-29483200D02*
X70516800Y-29483200D01*
%TO.N,/GND*%
D20*
X22950000Y-33000000D02*
X22950000Y-35000000D01*
X28950000Y-33000000D02*
X28950000Y-35000000D01*
X7000000Y-48000000D02*
X7000000Y-50000000D01*
X37912500Y-33000000D02*
X37912500Y-35000000D01*
%TO.N,/MCU_A23_D7*%
D18*
X92181800Y-76094300D02*
X93087500Y-77000000D01*
%TO.N,/MCU_AD13*%
X45087500Y-86000000D02*
X46174800Y-84912700D01*
%TO.N,/MCU_nRD*%
X19087500Y-66000000D02*
X20139200Y-67051700D01*
X47159500Y-66741400D02*
X51300900Y-62600000D01*
X44203600Y-67051700D02*
X44513900Y-66741400D01*
X74420000Y-62600000D02*
X83400000Y-53620000D01*
X51300900Y-62600000D02*
X74420000Y-62600000D01*
X20139200Y-67051700D02*
X44203600Y-67051700D01*
X44513900Y-66741400D02*
X47159500Y-66741400D01*
%TO.N,/MCU_AD7*%
X45976800Y-68889300D02*
X45979700Y-68889300D01*
X45087500Y-68000000D02*
X45976800Y-68889300D01*
%TO.N,/MCU_AD2*%
X55876900Y-54036900D02*
X46124400Y-54036900D01*
X58000000Y-56160000D02*
X55876900Y-54036900D01*
X46124400Y-54036900D02*
X45087500Y-53000000D01*
%TO.N,/MCU_AD10*%
X45087500Y-77000000D02*
X45974900Y-77887400D01*
X45974900Y-77887400D02*
X45978100Y-77887400D01*
%TO.N,/MCU_AD6*%
X45978100Y-65890600D02*
X45981200Y-65890600D01*
X45087500Y-65000000D02*
X45978100Y-65890600D01*
%TO.N,/MCU_A21_D5*%
X92110000Y-69000000D02*
X90449300Y-67339300D01*
X93087500Y-69000000D02*
X92110000Y-69000000D01*
%TO.N,/MCU_A19_D3*%
X93087500Y-61000000D02*
X87767500Y-66320000D01*
X87767500Y-66320000D02*
X83400000Y-66320000D01*
%TO.N,/MCU_AD15*%
X46132100Y-93044600D02*
X45087500Y-92000000D01*
X76995400Y-93044600D02*
X46132100Y-93044600D01*
X83400000Y-86640000D02*
X76995400Y-93044600D01*
%TO.N,/WR_LINK*%
X32000000Y-72000000D02*
X30823300Y-72000000D01*
X28823300Y-70000000D02*
X20912500Y-70000000D01*
X30823300Y-72000000D02*
X28823300Y-70000000D01*
%TO.N,/MCU_AD1*%
X46247700Y-51160200D02*
X45087500Y-50000000D01*
X55540200Y-51160200D02*
X46247700Y-51160200D01*
X58000000Y-53620000D02*
X55540200Y-51160200D01*
%TO.N,/MCU_A20_D4*%
X89312400Y-67590000D02*
X82973600Y-67590000D01*
X82200800Y-64979200D02*
X83400000Y-63780000D01*
X82973600Y-67590000D02*
X82200800Y-66817200D01*
X91902400Y-65000000D02*
X89312400Y-67590000D01*
X82200800Y-66817200D02*
X82200800Y-64979200D01*
X93087500Y-65000000D02*
X91902400Y-65000000D01*
%TO.N,/MCU_nCS2*%
X38569700Y-73187800D02*
X21763800Y-73187800D01*
X21763800Y-73187800D02*
X21547300Y-72971300D01*
X49722200Y-72904000D02*
X38853500Y-72904000D01*
X49900400Y-72725800D02*
X49722200Y-72904000D01*
X21547300Y-72971300D02*
X20116200Y-72971300D01*
X56785800Y-72725800D02*
X49900400Y-72725800D01*
X38853500Y-72904000D02*
X38569700Y-73187800D01*
X58000000Y-73940000D02*
X56785800Y-72725800D01*
X20116200Y-72971300D02*
X19087500Y-74000000D01*
%TO.N,/MCU_A16_D0*%
X85480000Y-49000000D02*
X83400000Y-51080000D01*
X93087500Y-49000000D02*
X85480000Y-49000000D01*
%TO.N,/MCU_A22_D6*%
X92258100Y-72170600D02*
X90901000Y-72170600D01*
X93087500Y-73000000D02*
X92258100Y-72170600D01*
%TO.N,/MCU_nWR*%
X71970000Y-70130000D02*
X83400000Y-81560000D01*
X20167800Y-68919700D02*
X21471900Y-68919700D01*
X22092600Y-69540400D02*
X54360900Y-69540400D01*
X19087500Y-70000000D02*
X20167800Y-68919700D01*
X54360900Y-69540400D02*
X54950500Y-70130000D01*
X54950500Y-70130000D02*
X71970000Y-70130000D01*
X21471900Y-68919700D02*
X22092600Y-69540400D01*
%TO.N,/MCU_nCS*%
X83400000Y-84100000D02*
X74510000Y-75210000D01*
X19087500Y-62320500D02*
X19087500Y-62000000D01*
X74510000Y-75210000D02*
X52019000Y-75210000D01*
X52019000Y-75210000D02*
X50161500Y-73352500D01*
X20517300Y-63750300D02*
X19087500Y-62320500D01*
%TO.N,/MCU_A18_D2*%
X92177500Y-57910000D02*
X91352800Y-57910000D01*
X93087500Y-57000000D02*
X92177500Y-57910000D01*
%TO.N,/MCU_A17_D1*%
X93087500Y-53000000D02*
X92180900Y-53906600D01*
X92180900Y-53906600D02*
X91804500Y-53906600D01*
%TO.N,/MCU_AD4*%
X45087500Y-59000000D02*
X46699500Y-60612000D01*
X46699500Y-60612000D02*
X46746200Y-60612000D01*
%TO.N,/MCU_AD5*%
X45087500Y-62000000D02*
X45993700Y-62906200D01*
X45993700Y-62906200D02*
X45995300Y-62906200D01*
%TO.N,/MCU_AD12*%
X45087500Y-83000000D02*
X46000000Y-82087500D01*
%TO.N,/MCU_AD0*%
X52885100Y-45965100D02*
X46122400Y-45965100D01*
X46122400Y-45965100D02*
X45087500Y-47000000D01*
X58000000Y-51080000D02*
X52885100Y-45965100D01*
%TO.N,/MCU_AD3*%
X46141100Y-57053600D02*
X45087500Y-56000000D01*
X56353600Y-57053600D02*
X46141100Y-57053600D01*
X58000000Y-58700000D02*
X56353600Y-57053600D01*
%TO.N,/MCU_AD11*%
X46415400Y-78672100D02*
X54069900Y-78672100D01*
X45087500Y-80000000D02*
X46415400Y-78672100D01*
X55686200Y-80288400D02*
X60293400Y-80288400D01*
X54069900Y-78672100D02*
X55686200Y-80288400D01*
%TO.N,/MCU_AD14*%
X45978100Y-88109400D02*
X45087500Y-89000000D01*
%TO.N,/MCU_AD8*%
X45087500Y-71000000D02*
X45978100Y-71890600D01*
%TO.N,/MCU_AD9*%
X45087500Y-74000000D02*
X45707000Y-74619500D01*
X45707000Y-74619500D02*
X45707000Y-75161700D01*
%TD*%
M02*
