%TF.GenerationSoftware,KiCad,Pcbnew,10.0.5*%
%TF.CreationDate,2026-09-27T21:39:05+09:00*%
%TF.ProjectId,gba_dumper,6762615f-6475-46d7-9065-722e6b696361,rev?*%
%TF.SameCoordinates,Original*%
%TF.FileFunction,Copper,L3,Inr*%
%TF.FilePolarity,Positive*%
%FSLAX46Y46*%
G04 Gerber Fmt 4.6, Leading zero omitted, Abs format (unit mm)*
G04 Created by KiCad (PCBNEW 10.0.5) date 2026-09-27 21:39:05*
%MOMM*%
%LPD*%
G01*
G04 APERTURE LIST*
%TA.AperFunction,WasherPad*%
%ADD10O,2.000000X5.000000*%
%TD*%
%TA.AperFunction,ComponentPad*%
%ADD11R,1.400000X1.400000*%
%TD*%
%TA.AperFunction,ComponentPad*%
%ADD12C,1.600000*%
%TD*%
%TA.AperFunction,ComponentPad*%
%ADD13R,1.700000X1.700000*%
%TD*%
%TA.AperFunction,ComponentPad*%
%ADD14C,1.700000*%
%TD*%
%TA.AperFunction,ViaPad*%
%ADD15C,0.600000*%
%TD*%
%TA.AperFunction,Conductor*%
%ADD16C,0.800000*%
%TD*%
%TA.AperFunction,Conductor*%
%ADD17C,0.250000*%
%TD*%
G04 APERTURE END LIST*
D10*
%TO.N,*%
%TO.C,J3*%
X12800000Y-25600000D03*
X82700000Y-25600000D03*
D11*
%TO.N,/CART_3V3*%
X28000000Y-27000000D03*
D12*
%TO.N,/CART_PHI*%
X29500000Y-25500000D03*
%TO.N,/CART_nWR*%
X31000000Y-27000000D03*
%TO.N,/CART_nRD*%
X32500000Y-25500000D03*
%TO.N,/CART_nCS*%
X34000000Y-27000000D03*
%TO.N,/CART_AD0*%
X35500000Y-25500000D03*
%TO.N,/CART_AD1*%
X37000000Y-27000000D03*
%TO.N,/CART_AD2*%
X38500000Y-25500000D03*
%TO.N,/CART_AD3*%
X40000000Y-27000000D03*
%TO.N,/CART_AD4*%
X41500000Y-25500000D03*
%TO.N,/CART_AD5*%
X43000000Y-27000000D03*
%TO.N,/CART_AD6*%
X44500000Y-25500000D03*
%TO.N,/CART_AD7*%
X46000000Y-27000000D03*
%TO.N,/CART_AD8*%
X47500000Y-25500000D03*
%TO.N,/CART_AD9*%
X49000000Y-27000000D03*
%TO.N,/CART_AD10*%
X50500000Y-25500000D03*
%TO.N,/CART_AD11*%
X52000000Y-27000000D03*
%TO.N,/CART_AD12*%
X53500000Y-25500000D03*
%TO.N,/CART_AD13*%
X55000000Y-27000000D03*
%TO.N,/CART_AD14*%
X56500000Y-25500000D03*
%TO.N,/CART_AD15*%
X58000000Y-27000000D03*
%TO.N,/CART_A16_D0*%
X59500000Y-25500000D03*
%TO.N,/CART_A17_D1*%
X61000000Y-27000000D03*
%TO.N,/CART_A18_D2*%
X62500000Y-25500000D03*
%TO.N,/CART_A19_D3*%
X64000000Y-27000000D03*
%TO.N,/CART_A20_D4*%
X65500000Y-25500000D03*
%TO.N,/CART_A21_D5*%
X67000000Y-27000000D03*
%TO.N,/CART_A22_D6*%
X68500000Y-25500000D03*
%TO.N,/CART_A23_D7*%
X70000000Y-27000000D03*
%TO.N,/CART_nCS2*%
X71500000Y-25500000D03*
%TO.N,/CART_nREQ*%
X73000000Y-27000000D03*
%TO.N,/GND*%
X74500000Y-24000000D03*
%TD*%
D13*
%TO.N,/WR_LINK*%
%TO.C,JP1*%
X32000000Y-72000000D03*
D14*
%TO.N,/CART_nWR*%
X32000000Y-74540000D03*
%TD*%
D13*
%TO.N,unconnected-(J2-GPIO43-Pad1)*%
%TO.C,J2*%
X83400000Y-46000000D03*
D14*
%TO.N,unconnected-(J2-GPIO44-Pad2)*%
X83400000Y-48540000D03*
%TO.N,/MCU_A16_D0*%
X83400000Y-51080000D03*
%TO.N,/MCU_nRD*%
X83400000Y-53620000D03*
%TO.N,/MCU_A23_D7*%
X83400000Y-56160000D03*
%TO.N,/MCU_A22_D6*%
X83400000Y-58700000D03*
%TO.N,/MCU_A21_D5*%
X83400000Y-61240000D03*
%TO.N,/MCU_A20_D4*%
X83400000Y-63780000D03*
%TO.N,/MCU_A19_D3*%
X83400000Y-66320000D03*
%TO.N,unconnected-(J2-GPIO37-Pad10)*%
X83400000Y-68860000D03*
%TO.N,unconnected-(J2-GPIO36-Pad11)*%
X83400000Y-71400000D03*
%TO.N,unconnected-(J2-GPIO35-Pad12)*%
X83400000Y-73940000D03*
%TO.N,unconnected-(J2-GPIO0-Pad13)*%
X83400000Y-76480000D03*
%TO.N,unconnected-(J2-GPIO45-Pad14)*%
X83400000Y-79020000D03*
%TO.N,/MCU_nWR*%
X83400000Y-81560000D03*
%TO.N,/MCU_nCS*%
X83400000Y-84100000D03*
%TO.N,/MCU_AD15*%
X83400000Y-86640000D03*
%TO.N,/MCU_A18_D2*%
X83400000Y-89180000D03*
%TO.N,/MCU_A17_D1*%
X83400000Y-91720000D03*
%TO.N,/GND*%
X83400000Y-94260000D03*
%TD*%
D13*
%TO.N,/BOARD_3V3*%
%TO.C,JP2*%
X13000000Y-38000000D03*
D14*
%TO.N,/CART_3V3*%
X13000000Y-40540000D03*
%TD*%
D13*
%TO.N,/BOARD_3V3*%
%TO.C,J1*%
X58000000Y-46000000D03*
D14*
%TO.N,unconnected-(J1-EN-Pad2)*%
X58000000Y-48540000D03*
%TO.N,/MCU_AD0*%
X58000000Y-51080000D03*
%TO.N,/MCU_AD1*%
X58000000Y-53620000D03*
%TO.N,/MCU_AD2*%
X58000000Y-56160000D03*
%TO.N,/MCU_AD3*%
X58000000Y-58700000D03*
%TO.N,/MCU_AD11*%
X58000000Y-61240000D03*
%TO.N,/MCU_AD12*%
X58000000Y-63780000D03*
%TO.N,/MCU_AD13*%
X58000000Y-66320000D03*
%TO.N,/MCU_AD14*%
X58000000Y-68860000D03*
%TO.N,/MCU_AD4*%
X58000000Y-71400000D03*
%TO.N,/MCU_nCS2*%
X58000000Y-73940000D03*
%TO.N,unconnected-(J1-GPIO46-Pad13)*%
X58000000Y-76480000D03*
%TO.N,/MCU_AD5*%
X58000000Y-79020000D03*
%TO.N,/MCU_AD6*%
X58000000Y-81560000D03*
%TO.N,/MCU_AD7*%
X58000000Y-84100000D03*
%TO.N,/MCU_AD8*%
X58000000Y-86640000D03*
%TO.N,/MCU_AD9*%
X58000000Y-89180000D03*
%TO.N,/MCU_AD10*%
X58000000Y-91720000D03*
%TO.N,unconnected-(J1-5V-Pad20)*%
X58000000Y-94260000D03*
%TD*%
D15*
%TO.N,/CART_3V3*%
X19087500Y-86358900D03*
%TO.N,/CART_PHI*%
X34588300Y-33000000D03*
%TO.N,/CART_nWR*%
X29291500Y-72036500D03*
%TO.N,/CART_nRD*%
X26962000Y-63261200D03*
X21276200Y-82762400D03*
%TO.N,/CART_nCS*%
X24678600Y-77725000D03*
X25276100Y-62000000D03*
%TO.N,/CART_AD0*%
X36934000Y-45934000D03*
%TO.N,/CART_AD1*%
X45832200Y-48921100D03*
%TO.N,/CART_AD2*%
X46005800Y-52093300D03*
%TO.N,/CART_AD3*%
X46023700Y-55111200D03*
%TO.N,/CART_AD4*%
X45977900Y-57957300D03*
%TO.N,/CART_AD5*%
X39784100Y-30731600D03*
X42440800Y-60314100D03*
%TO.N,/CART_AD6*%
X47762700Y-55042800D03*
X46016000Y-64103500D03*
%TO.N,/CART_AD7*%
X47808400Y-67104100D03*
X46943300Y-57736200D03*
%TO.N,/CART_AD8*%
X47164200Y-72221000D03*
%TO.N,/CART_AD9*%
X48254100Y-73834800D03*
%TO.N,/CART_AD10*%
X48604800Y-31703400D03*
X45442900Y-34689100D03*
X47824600Y-76085900D03*
%TO.N,/CART_AD11*%
X53810300Y-79298800D03*
%TO.N,/CART_AD12*%
X47280800Y-27948500D03*
X47812100Y-82100400D03*
%TO.N,/CART_AD13*%
X48974600Y-86000000D03*
%TO.N,/CART_AD14*%
X59825100Y-85370000D03*
%TO.N,/CART_AD15*%
X42633000Y-90931500D03*
X35268900Y-28701200D03*
%TO.N,/CART_A16_D0*%
X96600000Y-49000000D03*
X96600000Y-38000000D03*
%TO.N,/CART_A17_D1*%
X91851500Y-50790800D03*
%TO.N,/CART_A18_D2*%
X95973200Y-57000000D03*
%TO.N,/CART_A19_D3*%
X94912500Y-59789800D03*
%TO.N,/CART_A20_D4*%
X93998200Y-64085700D03*
%TO.N,/CART_A21_D5*%
X94061400Y-68069100D03*
%TO.N,/CART_A22_D6*%
X94184700Y-71932300D03*
%TO.N,/CART_A23_D7*%
X94000000Y-79048400D03*
%TO.N,/CART_nCS2*%
X32826200Y-31808600D03*
X28866700Y-74000000D03*
%TO.N,/GND*%
X22950000Y-35000000D03*
X28950000Y-35000000D03*
X37912500Y-35000000D03*
X7000000Y-50000000D03*
%TO.N,/MCU_A23_D7*%
X92181800Y-76094300D03*
%TO.N,/MCU_AD13*%
X46174800Y-84912700D03*
%TO.N,/MCU_AD7*%
X45979700Y-68889300D03*
%TO.N,/MCU_AD10*%
X45978100Y-77887400D03*
%TO.N,/MCU_AD6*%
X45981200Y-65890600D03*
%TO.N,/MCU_A21_D5*%
X90449300Y-67339300D03*
%TO.N,/MCU_A22_D6*%
X90901000Y-72170600D03*
%TO.N,/MCU_nCS*%
X50161500Y-73352500D03*
X20517300Y-63750300D03*
%TO.N,/MCU_A18_D2*%
X91352800Y-57910000D03*
%TO.N,/MCU_A17_D1*%
X91804500Y-53906600D03*
%TO.N,/MCU_AD4*%
X46746200Y-60612000D03*
%TO.N,/MCU_AD5*%
X45995300Y-62906200D03*
%TO.N,/MCU_AD12*%
X46000000Y-82087500D03*
%TO.N,/MCU_AD11*%
X60293400Y-80288400D03*
%TO.N,/MCU_AD14*%
X45978100Y-88109400D03*
%TO.N,/MCU_AD8*%
X45978100Y-71890600D03*
%TO.N,/MCU_AD9*%
X45707000Y-75161700D03*
%TD*%
%TO.N,/CART_3V3*%
D16*
X27938100Y-77508300D02*
X19087500Y-86358900D01*
X28000000Y-28301700D02*
X27938100Y-28363600D01*
X27938100Y-28363600D02*
X27938100Y-77508300D01*
X28000000Y-27000000D02*
X28000000Y-28301700D01*
%TO.N,/CART_PHI*%
D17*
X29500000Y-27595900D02*
X34588300Y-32684200D01*
X34588300Y-32684200D02*
X34588300Y-33000000D01*
X29500000Y-25500000D02*
X29500000Y-27595900D01*
%TO.N,/CART_nWR*%
X31795000Y-74540000D02*
X32000000Y-74540000D01*
X35215100Y-71324900D02*
X32000000Y-74540000D01*
X31000000Y-27000000D02*
X35215100Y-31215100D01*
X29291500Y-72036500D02*
X31795000Y-74540000D01*
X35215100Y-31215100D02*
X35215100Y-71324900D01*
%TO.N,/CART_nRD*%
X31371000Y-24371000D02*
X28726200Y-24371000D01*
X26962000Y-63261200D02*
X26962000Y-77076600D01*
X32500000Y-25500000D02*
X31371000Y-24371000D01*
X26962000Y-77076600D02*
X21276200Y-82762400D01*
X28726200Y-24371000D02*
X26962000Y-26135200D01*
X26962000Y-26135200D02*
X26962000Y-63261200D01*
%TO.N,/CART_nCS*%
X25276100Y-62000000D02*
X24678600Y-62597500D01*
X28459500Y-23919300D02*
X25276100Y-27102700D01*
X34000000Y-27000000D02*
X34000000Y-25349000D01*
X32570300Y-23919300D02*
X28459500Y-23919300D01*
X25276100Y-27102700D02*
X25276100Y-62000000D01*
X24678600Y-62597500D02*
X24678600Y-77725000D01*
X34000000Y-25349000D02*
X32570300Y-23919300D01*
%TO.N,/CART_AD0*%
X36934000Y-45934000D02*
X36934000Y-29480000D01*
X36934000Y-29480000D02*
X35500100Y-28046100D01*
X35500100Y-28046100D02*
X35500000Y-28046100D01*
X35500000Y-28046100D02*
X35500000Y-25500000D01*
%TO.N,/CART_AD1*%
X44364500Y-47453400D02*
X45832200Y-48921100D01*
X37000000Y-27000000D02*
X44364500Y-34364500D01*
X44364500Y-34364500D02*
X44364500Y-47453400D01*
%TO.N,/CART_AD2*%
X44816200Y-46493900D02*
X46459000Y-48136700D01*
X46459000Y-48136700D02*
X46459000Y-51640100D01*
X38500000Y-27729000D02*
X44816200Y-34045200D01*
X38500000Y-25500000D02*
X38500000Y-27729000D01*
X46459000Y-51640100D02*
X46005800Y-52093300D01*
X44816200Y-34045200D02*
X44816200Y-46493900D01*
%TO.N,/CART_AD3*%
X46973100Y-47373200D02*
X47363800Y-47763900D01*
X40000000Y-27000000D02*
X40000000Y-27817600D01*
X40000000Y-27817600D02*
X46069700Y-33887300D01*
X46069700Y-46282400D02*
X46522900Y-46735600D01*
X46522900Y-46735600D02*
X46522900Y-46737700D01*
X47363800Y-47763900D02*
X47363800Y-53771100D01*
X46973100Y-47187900D02*
X46973100Y-47373200D01*
X46069700Y-33887300D02*
X46069700Y-46282400D01*
X46522900Y-46737700D02*
X46973100Y-47187900D01*
X47363800Y-53771100D02*
X46023700Y-55111200D01*
%TO.N,/CART_AD4*%
X47136000Y-54783300D02*
X47136000Y-55076400D01*
X46521400Y-33700200D02*
X46521400Y-38026700D01*
X47424800Y-47000800D02*
X47424800Y-47186100D01*
X41500000Y-27702400D02*
X45719600Y-31922000D01*
X41500000Y-25500000D02*
X41500000Y-27702400D01*
X47136000Y-55076400D02*
X45977900Y-56234500D01*
X47815500Y-54103800D02*
X47136000Y-54783300D01*
X46521400Y-38026700D02*
X46973100Y-38478400D01*
X46973100Y-38478400D02*
X46973100Y-46547000D01*
X46974600Y-46548500D02*
X46974600Y-46550600D01*
X47815500Y-47576800D02*
X47815500Y-54103800D01*
X46973100Y-46547000D02*
X46974600Y-46548500D01*
X46974600Y-46550600D02*
X47424800Y-47000800D01*
X45719600Y-31922000D02*
X45719600Y-32898400D01*
X47424800Y-47186100D02*
X47815500Y-47576800D01*
X45719600Y-32898400D02*
X46521400Y-33700200D01*
X45977900Y-56234500D02*
X45977900Y-57957300D01*
%TO.N,/CART_AD5*%
X42440800Y-60314100D02*
X42440800Y-33388300D01*
X42440800Y-33388300D02*
X39784100Y-30731600D01*
%TO.N,/CART_AD6*%
X44500000Y-29949500D02*
X46171300Y-31620800D01*
X47426300Y-46363500D02*
X47876500Y-46813700D01*
X46171300Y-32711300D02*
X46973100Y-33513100D01*
X47876500Y-46813700D02*
X47876500Y-46999000D01*
X46973100Y-37839600D02*
X47426300Y-38292800D01*
X47426300Y-38292800D02*
X47426300Y-46363500D01*
X44500000Y-25500000D02*
X44500000Y-29949500D01*
X48275300Y-54530200D02*
X47762700Y-55042800D01*
X48275300Y-47397800D02*
X48275300Y-54530200D01*
X47876500Y-46999000D02*
X48275300Y-47397800D01*
X46171300Y-31620800D02*
X46171300Y-32711300D01*
X46973100Y-33513100D02*
X46973100Y-37839600D01*
%TO.N,/CART_AD7*%
X48327600Y-46626000D02*
X48327700Y-46626000D01*
X48327700Y-46626000D02*
X48328200Y-46626500D01*
X48328200Y-46811900D02*
X48742200Y-47225900D01*
X46623000Y-32524200D02*
X47424800Y-33326000D01*
X46000000Y-27000000D02*
X46623000Y-27623000D01*
X48742200Y-47225900D02*
X48742200Y-55937300D01*
X46623000Y-27623000D02*
X46623000Y-32524200D01*
X48328200Y-46626500D02*
X48328200Y-46811900D01*
X48742200Y-55937300D02*
X46943300Y-57736200D01*
X47424800Y-33326000D02*
X47424800Y-37465400D01*
X47878000Y-37918600D02*
X47878000Y-46176400D01*
X47878000Y-46176400D02*
X48327600Y-46626000D01*
X47424800Y-37465400D02*
X47878000Y-37918600D01*
%TO.N,/CART_AD8*%
X47176300Y-59035800D02*
X49683300Y-56528800D01*
X48158200Y-32781800D02*
X47526400Y-32150000D01*
X47526400Y-25526400D02*
X47500000Y-25500000D01*
X49683300Y-46889400D02*
X49231600Y-46437700D01*
X47526400Y-28589100D02*
X47540300Y-28575200D01*
X47907500Y-28208100D02*
X47907500Y-27688900D01*
X46064700Y-59035800D02*
X47176300Y-59035800D01*
X47164200Y-72221000D02*
X47164200Y-72083800D01*
X48779900Y-37505000D02*
X48779900Y-33403400D01*
X47526400Y-32150000D02*
X47526400Y-28589100D01*
X47164200Y-72083800D02*
X44398800Y-69318400D01*
X47540400Y-28575200D02*
X47907500Y-28208100D01*
X49231600Y-46212200D02*
X48781400Y-45762000D01*
X49683300Y-56528800D02*
X49683300Y-46889400D01*
X49231600Y-46437700D02*
X49231600Y-46212200D01*
X44398800Y-60701700D02*
X46064700Y-59035800D01*
X47526500Y-27307900D02*
X47526400Y-27307900D01*
X48779900Y-33403400D02*
X48158300Y-32781800D01*
X44398800Y-69318400D02*
X44398800Y-60701700D01*
X48158300Y-32781800D02*
X48158200Y-32781800D01*
X48781400Y-37506500D02*
X48779900Y-37505000D01*
X47907500Y-27688900D02*
X47526500Y-27307900D01*
X48781400Y-45762000D02*
X48781400Y-37506500D01*
X47526400Y-27307900D02*
X47526400Y-25526400D01*
X47540300Y-28575200D02*
X47540400Y-28575200D01*
%TO.N,/CART_AD9*%
X49683300Y-46025100D02*
X49233100Y-45574900D01*
X47363400Y-59487500D02*
X50135000Y-56715900D01*
X48454000Y-32330100D02*
X48345300Y-32330100D01*
X50135000Y-56715900D02*
X50135000Y-46702300D01*
X44850500Y-60952200D02*
X46315200Y-59487500D01*
X47978100Y-28776300D02*
X49000000Y-27754400D01*
X50135000Y-46702300D02*
X49683300Y-46250600D01*
X49000000Y-27754400D02*
X49000000Y-27000000D01*
X44850500Y-68698300D02*
X44850500Y-60952200D01*
X49683300Y-46250600D02*
X49683300Y-46025100D01*
X49231600Y-37317900D02*
X49231600Y-33107700D01*
X46315200Y-59487500D02*
X47363400Y-59487500D01*
X47978100Y-31962900D02*
X47978100Y-28776300D01*
X48345300Y-32330100D02*
X47978100Y-31962900D01*
X48254100Y-73834800D02*
X48254100Y-72101900D01*
X48254100Y-72101900D02*
X44850500Y-68698300D01*
X49233100Y-45574900D02*
X49233100Y-37319400D01*
X49233100Y-37319400D02*
X49231600Y-37317900D01*
X49231600Y-33107700D02*
X48454000Y-32330100D01*
%TO.N,/CART_AD10*%
X47375100Y-75636400D02*
X47824600Y-76085900D01*
X48604800Y-29309000D02*
X48604800Y-31703400D01*
X46912100Y-53331800D02*
X43495400Y-56748500D01*
X45442900Y-46296500D02*
X46521400Y-47375000D01*
X45442900Y-34689100D02*
X45442900Y-46296500D01*
X50500000Y-25500000D02*
X50500000Y-27413800D01*
X46912100Y-47951000D02*
X46912100Y-53331800D01*
X43495400Y-71424700D02*
X47375100Y-75304400D01*
X47375100Y-75304400D02*
X47375100Y-75636400D01*
X46521400Y-47375000D02*
X46521400Y-47560300D01*
X50500000Y-27413800D02*
X48604800Y-29309000D01*
X43495400Y-56748500D02*
X43495400Y-71424700D01*
X46521400Y-47560300D02*
X46912100Y-47951000D01*
%TO.N,/CART_AD11*%
X50586700Y-56903000D02*
X50586700Y-46515200D01*
X50135000Y-46063500D02*
X50135000Y-45838000D01*
X50788200Y-72791500D02*
X45302200Y-67305500D01*
X45302200Y-61169600D02*
X46532600Y-59939200D01*
X49683300Y-37130800D02*
X49683300Y-29316700D01*
X49683300Y-29316700D02*
X52000000Y-27000000D01*
X49684800Y-37132300D02*
X49683300Y-37130800D01*
X50788200Y-76276700D02*
X50788200Y-72791500D01*
X47550500Y-59939200D02*
X50586700Y-56903000D01*
X50135000Y-45838000D02*
X49684800Y-45387800D01*
X50586700Y-46515200D02*
X50135000Y-46063500D01*
X53810300Y-79298800D02*
X50788200Y-76276700D01*
X45302200Y-67305500D02*
X45302200Y-61169600D01*
X46532600Y-59939200D02*
X47550500Y-59939200D01*
X49684800Y-45387800D02*
X49684800Y-37132300D01*
%TO.N,/CART_AD12*%
X47074700Y-32337100D02*
X47074700Y-28154600D01*
X45876500Y-58584100D02*
X46989200Y-58584100D01*
X45080300Y-74837200D02*
X45623000Y-74294500D01*
X45726400Y-74294500D02*
X46923400Y-75491500D01*
X43947100Y-60513500D02*
X45876500Y-58584100D01*
X46923400Y-75491500D02*
X46923400Y-76070900D01*
X48329700Y-37693700D02*
X47876500Y-37240500D01*
X49231600Y-47076500D02*
X48779900Y-46624800D01*
X48329700Y-45989300D02*
X48329700Y-37693700D01*
X48457400Y-76460800D02*
X48457400Y-75747900D01*
X48779900Y-46399300D02*
X48554900Y-46174300D01*
X45080300Y-79368600D02*
X45080300Y-74837200D01*
X47074700Y-28154600D02*
X47280800Y-27948500D01*
X46989200Y-58584100D02*
X49231600Y-56341700D01*
X45623000Y-74294500D02*
X45726400Y-74294500D01*
X48144900Y-76773300D02*
X48457400Y-76460800D01*
X47812100Y-82100400D02*
X45080300Y-79368600D01*
X46923400Y-76070900D02*
X47625800Y-76773300D01*
X43947100Y-70052200D02*
X43947100Y-60513500D01*
X47876500Y-37240500D02*
X47876500Y-33138900D01*
X48779900Y-46624800D02*
X48779900Y-46399300D01*
X48514700Y-46174300D02*
X48329700Y-45989300D01*
X47876500Y-33138900D02*
X47074700Y-32337100D01*
X48554900Y-46174300D02*
X48514700Y-46174300D01*
X44669600Y-71960100D02*
X44669600Y-70774700D01*
X49231600Y-56341700D02*
X49231600Y-47076500D01*
X48457400Y-75747900D02*
X44669600Y-71960100D01*
X44669600Y-70774700D02*
X43947100Y-70052200D01*
X47625800Y-76773300D02*
X48144900Y-76773300D01*
%TO.N,/CART_AD13*%
X59185000Y-92253800D02*
X59185000Y-70920600D01*
X50136500Y-36945200D02*
X50135000Y-36943700D01*
X51620700Y-28209500D02*
X53790500Y-28209500D01*
X50136500Y-45200700D02*
X50136500Y-36945200D01*
X51038400Y-46102600D02*
X50136500Y-45200700D01*
X57479100Y-70036700D02*
X51038400Y-63596000D01*
X51038400Y-63596000D02*
X51038400Y-46102600D01*
X59185000Y-70920600D02*
X58301100Y-70036700D01*
X53790500Y-28209500D02*
X55000000Y-27000000D01*
X48974600Y-86000000D02*
X55872300Y-92897700D01*
X58301100Y-70036700D02*
X57479100Y-70036700D01*
X55872300Y-92897700D02*
X58541100Y-92897700D01*
X58541100Y-92897700D02*
X59185000Y-92253800D01*
X50135000Y-36943700D02*
X50135000Y-29695200D01*
X50135000Y-29695200D02*
X51620700Y-28209500D01*
%TO.N,/CART_AD14*%
X50586700Y-29882300D02*
X51238000Y-29231000D01*
X50588200Y-36758100D02*
X50586700Y-36756600D01*
X55890100Y-50128400D02*
X50588200Y-44826500D01*
X51238000Y-29231000D02*
X54387700Y-29231000D01*
X59636700Y-63634000D02*
X58606000Y-62603300D01*
X55890100Y-60844000D02*
X55890100Y-50128400D01*
X58606000Y-62603300D02*
X57649400Y-62603300D01*
X56500000Y-27118700D02*
X56500000Y-25500000D01*
X59636700Y-85181600D02*
X59636700Y-63634000D01*
X50588200Y-44826500D02*
X50588200Y-36758100D01*
X50586700Y-36756600D02*
X50586700Y-29882300D01*
X54387700Y-29231000D02*
X56500000Y-27118700D01*
X59825100Y-85370000D02*
X59636700Y-85181600D01*
X57649400Y-62603300D02*
X55890100Y-60844000D01*
%TO.N,/CART_AD15*%
X36126100Y-29558400D02*
X36126100Y-84424600D01*
X36126100Y-84424600D02*
X42633000Y-90931500D01*
X35268900Y-28701200D02*
X36126100Y-29558400D01*
%TO.N,/CART_A17_D1*%
X91653200Y-50592500D02*
X91851500Y-50790800D01*
X91653200Y-30140300D02*
X91653200Y-50592500D01*
X61000000Y-27000000D02*
X63336000Y-29336000D01*
X63336000Y-29336000D02*
X90848900Y-29336000D01*
X90848900Y-29336000D02*
X91653200Y-30140300D01*
%TO.N,/CART_A18_D2*%
X86068000Y-20722300D02*
X95169500Y-29823800D01*
X95169500Y-29823800D02*
X95169500Y-30161400D01*
X95113200Y-30217700D02*
X95113200Y-39103400D01*
X95169500Y-30161400D02*
X95113200Y-30217700D01*
X95973200Y-39963400D02*
X95973200Y-57000000D01*
X95113200Y-39103400D02*
X95973200Y-39963400D01*
X62500000Y-25500000D02*
X67277700Y-20722300D01*
X67277700Y-20722300D02*
X86068000Y-20722300D01*
%TO.N,/CART_A19_D3*%
X64000000Y-25357000D02*
X68183000Y-21174000D01*
X95113200Y-59589100D02*
X94912500Y-59789800D01*
X68183000Y-21174000D02*
X85618300Y-21174000D01*
X64000000Y-27000000D02*
X64000000Y-25357000D01*
X85618300Y-21174000D02*
X85988900Y-21544600D01*
X86251500Y-21544600D02*
X94661600Y-29954700D01*
X94661600Y-29954700D02*
X94661600Y-30030500D01*
X85988900Y-21544600D02*
X86251500Y-21544600D01*
X94661500Y-30030600D02*
X94661500Y-39547200D01*
X95113200Y-39998900D02*
X95113200Y-59589100D01*
X94661500Y-39547200D02*
X95113200Y-39998900D01*
X94661600Y-30030500D02*
X94661500Y-30030600D01*
%TO.N,/CART_A20_D4*%
X94646200Y-58180400D02*
X93998200Y-58828400D01*
X93460000Y-29391900D02*
X93460000Y-29976400D01*
X90961100Y-27477500D02*
X91545600Y-27477500D01*
X94646200Y-40170800D02*
X94646200Y-58180400D01*
X94209800Y-30726200D02*
X94209800Y-39734400D01*
X91545600Y-27477500D02*
X93460000Y-29391900D01*
X69374300Y-21625700D02*
X85109300Y-21625700D01*
X85109300Y-21625700D02*
X90961100Y-27477500D01*
X93998200Y-58828400D02*
X93998200Y-64085700D01*
X93460000Y-29976400D02*
X94209800Y-30726200D01*
X65500000Y-25500000D02*
X69374300Y-21625700D01*
X94209800Y-39734400D02*
X94646200Y-40170800D01*
%TO.N,/CART_A21_D5*%
X93008300Y-30163500D02*
X93758100Y-30913300D01*
X90774000Y-27929200D02*
X91358500Y-27929200D01*
X91358500Y-27929200D02*
X93008300Y-29579000D01*
X93008300Y-29579000D02*
X93008300Y-30163500D01*
X85320100Y-22527600D02*
X85372400Y-22527600D01*
X93334700Y-51806700D02*
X93334700Y-65003800D01*
X70315500Y-22077400D02*
X84869900Y-22077400D01*
X67000000Y-27000000D02*
X67000000Y-25392900D01*
X93758100Y-51383300D02*
X93334700Y-51806700D01*
X94061400Y-65730500D02*
X94061400Y-68069100D01*
X93334700Y-65003800D02*
X94061400Y-65730500D01*
X67000000Y-25392900D02*
X70315500Y-22077400D01*
X84869900Y-22077400D02*
X85320100Y-22527600D01*
X85372400Y-22527600D02*
X90774000Y-27929200D01*
X93758100Y-30913300D02*
X93758100Y-51383300D01*
%TO.N,/CART_A22_D6*%
X68500000Y-25500000D02*
X71470900Y-22529100D01*
X92883000Y-51284400D02*
X92883000Y-65454200D01*
X93334700Y-71082300D02*
X94184700Y-71932300D01*
X84682800Y-22529100D02*
X90534600Y-28380900D01*
X92556600Y-29766100D02*
X92556600Y-30379000D01*
X92929900Y-30752300D02*
X92929900Y-51237500D01*
X92556600Y-30379000D02*
X92929900Y-30752300D01*
X90534600Y-28380900D02*
X91171400Y-28380900D01*
X92883000Y-65454200D02*
X93334700Y-65905900D01*
X92929900Y-51237500D02*
X92883000Y-51284400D01*
X91171400Y-28380900D02*
X92556600Y-29766100D01*
X93334700Y-65905900D02*
X93334700Y-71082300D01*
X71470900Y-22529100D02*
X84682800Y-22529100D01*
%TO.N,/CART_A23_D7*%
X90984300Y-28832600D02*
X92104900Y-29953200D01*
X92431300Y-51097300D02*
X92431300Y-65641400D01*
X92478200Y-30963300D02*
X92478200Y-51050400D01*
X92431300Y-65641400D02*
X92882900Y-66093000D01*
X92478200Y-51050400D02*
X92431300Y-51097300D01*
X94000000Y-73281000D02*
X94000000Y-79048400D01*
X92882900Y-66093000D02*
X92882900Y-72163900D01*
X92104900Y-29953200D02*
X92104900Y-30590000D01*
X92882900Y-72163900D02*
X94000000Y-73281000D01*
X71832600Y-28832600D02*
X90984300Y-28832600D01*
X92104900Y-30590000D02*
X92478200Y-30963300D01*
X70000000Y-27000000D02*
X71832600Y-28832600D01*
%TO.N,/CART_nCS2*%
X32826200Y-31808600D02*
X32826200Y-32013900D01*
X32826200Y-32013900D02*
X28664800Y-36175300D01*
X28664800Y-73798100D02*
X28866700Y-74000000D01*
X28664800Y-36175300D02*
X28664800Y-73798100D01*
%TO.N,/GND*%
D16*
X7950000Y-50000000D02*
X22950000Y-35000000D01*
X7000000Y-50000000D02*
X7950000Y-50000000D01*
X81895900Y-95764100D02*
X52280600Y-95764100D01*
X37912500Y-81396000D02*
X37912500Y-35000000D01*
X52280600Y-95764100D02*
X37912500Y-81396000D01*
X83400000Y-94260000D02*
X81895900Y-95764100D01*
%TO.N,/MCU_A23_D7*%
D17*
X91527800Y-75440300D02*
X92181800Y-76094300D01*
X91076200Y-66202700D02*
X91527800Y-66654300D01*
X91527800Y-66654300D02*
X91527800Y-75440300D01*
X91076200Y-63836200D02*
X91076200Y-66202700D01*
X83400000Y-56160000D02*
X91076200Y-63836200D01*
%TO.N,/MCU_AD7*%
X57725300Y-84100000D02*
X49415400Y-75790100D01*
X58000000Y-84100000D02*
X57725300Y-84100000D01*
X49415400Y-72325000D02*
X45979700Y-68889300D01*
X49415400Y-75790100D02*
X49415400Y-72325000D01*
%TO.N,/MCU_AD10*%
X48961400Y-80870700D02*
X45978100Y-77887400D01*
X58000000Y-91720000D02*
X48961400Y-82681400D01*
X48961400Y-82681400D02*
X48961400Y-80870700D01*
%TO.N,/MCU_AD6*%
X45981200Y-66424600D02*
X45981200Y-65890600D01*
X51239900Y-74799900D02*
X51239900Y-71683300D01*
X58000000Y-81560000D02*
X51239900Y-74799900D01*
X51239900Y-71683300D02*
X45981200Y-66424600D01*
%TO.N,/MCU_A22_D6*%
X91076100Y-66841400D02*
X91076100Y-71995500D01*
X83400000Y-58700000D02*
X83400000Y-59165300D01*
X83400000Y-59165300D02*
X91076100Y-66841400D01*
X91076100Y-71995500D02*
X90901000Y-72170600D01*
%TO.N,/MCU_A18_D2*%
X91979500Y-73145000D02*
X92845500Y-74011000D01*
X91527900Y-58085100D02*
X91527900Y-66015600D01*
X91527900Y-66015600D02*
X91979500Y-66467200D01*
X92845500Y-79734500D02*
X83400000Y-89180000D01*
X91979500Y-66467200D02*
X91979500Y-73145000D01*
X92845500Y-74011000D02*
X92845500Y-79734500D01*
X91352800Y-57910000D02*
X91527900Y-58085100D01*
%TO.N,/MCU_A17_D1*%
X92431200Y-72454200D02*
X93297200Y-73320200D01*
X93297200Y-73320200D02*
X93297200Y-81822800D01*
X93297200Y-81822800D02*
X83400000Y-91720000D01*
X91804500Y-53906600D02*
X91979600Y-54081700D01*
X92431200Y-66280100D02*
X92431200Y-72454200D01*
X91979600Y-65828500D02*
X92431200Y-66280100D01*
X91979600Y-54081700D02*
X91979600Y-65828500D01*
%TO.N,/MCU_AD4*%
X46746200Y-60612000D02*
X57534200Y-71400000D01*
X57534200Y-71400000D02*
X58000000Y-71400000D01*
%TO.N,/MCU_AD5*%
X58000000Y-79020000D02*
X52735300Y-73755300D01*
X52735300Y-69646200D02*
X45995300Y-62906200D01*
X52735300Y-73755300D02*
X52735300Y-69646200D01*
%TO.N,/MCU_AD11*%
X60293400Y-80288400D02*
X60293400Y-63533400D01*
X60293400Y-63533400D02*
X58000000Y-61240000D01*
%TO.N,/MCU_AD8*%
X48963700Y-77603700D02*
X48963700Y-75431000D01*
X58000000Y-86640000D02*
X48963700Y-77603700D01*
X48963700Y-75431000D02*
X45978100Y-72445400D01*
X45978100Y-72445400D02*
X45978100Y-71890600D01*
%TO.N,/MCU_AD9*%
X45707000Y-75161700D02*
X45707000Y-75770800D01*
X48830900Y-78894700D02*
X48830900Y-80010900D01*
X45707000Y-75770800D02*
X48830900Y-78894700D01*
X48830900Y-80010900D02*
X58000000Y-89180000D01*
%TD*%
M02*
