%TF.GenerationSoftware,KiCad,Pcbnew,10.0.5*%
%TF.CreationDate,2026-09-27T21:39:05+09:00*%
%TF.ProjectId,gba_dumper,6762615f-6475-46d7-9065-722e6b696361,rev?*%
%TF.SameCoordinates,Original*%
%TF.FileFunction,Soldermask,Top*%
%TF.FilePolarity,Negative*%
%FSLAX46Y46*%
G04 Gerber Fmt 4.6, Leading zero omitted, Abs format (unit mm)*
G04 Created by KiCad (PCBNEW 10.0.5) date 2026-09-27 21:39:05*
%MOMM*%
%LPD*%
G01*
G04 APERTURE LIST*
G04 APERTURE END LIST*
G36*
X5373513Y-93444208D02*
G01*
X5612293Y-93521793D01*
X5835998Y-93635776D01*
X6039117Y-93783350D01*
X6216650Y-93960883D01*
X6364224Y-94164002D01*
X6478207Y-94387707D01*
X6555792Y-94626487D01*
X6595068Y-94874465D01*
X6595068Y-95125535D01*
X6555792Y-95373513D01*
X6478207Y-95612293D01*
X6364224Y-95835998D01*
X6216650Y-96039117D01*
X6039117Y-96216650D01*
X5835998Y-96364224D01*
X5612293Y-96478207D01*
X5373513Y-96555792D01*
X5125535Y-96595068D01*
X4874465Y-96595068D01*
X4626487Y-96555792D01*
X4387707Y-96478207D01*
X4164002Y-96364224D01*
X3960883Y-96216650D01*
X3783350Y-96039117D01*
X3635776Y-95835998D01*
X3521793Y-95612293D01*
X3444208Y-95373513D01*
X3404932Y-95125535D01*
X3404932Y-94874465D01*
X3444208Y-94626487D01*
X3521793Y-94387707D01*
X3635776Y-94164002D01*
X3783350Y-93960883D01*
X3960883Y-93783350D01*
X4164002Y-93635776D01*
X4387707Y-93521793D01*
X4626487Y-93444208D01*
X4874465Y-93404932D01*
X5125535Y-93404932D01*
X5373513Y-93444208D01*
G37*
G36*
X95373513Y-93444208D02*
G01*
X95612293Y-93521793D01*
X95835998Y-93635776D01*
X96039117Y-93783350D01*
X96216650Y-93960883D01*
X96364224Y-94164002D01*
X96478207Y-94387707D01*
X96555792Y-94626487D01*
X96595068Y-94874465D01*
X96595068Y-95125535D01*
X96555792Y-95373513D01*
X96478207Y-95612293D01*
X96364224Y-95835998D01*
X96216650Y-96039117D01*
X96039117Y-96216650D01*
X95835998Y-96364224D01*
X95612293Y-96478207D01*
X95373513Y-96555792D01*
X95125535Y-96595068D01*
X94874465Y-96595068D01*
X94626487Y-96555792D01*
X94387707Y-96478207D01*
X94164002Y-96364224D01*
X93960883Y-96216650D01*
X93783350Y-96039117D01*
X93635776Y-95835998D01*
X93521793Y-95612293D01*
X93444208Y-95373513D01*
X93404932Y-95125535D01*
X93404932Y-94874465D01*
X93444208Y-94626487D01*
X93521793Y-94387707D01*
X93635776Y-94164002D01*
X93783350Y-93960883D01*
X93960883Y-93783350D01*
X94164002Y-93635776D01*
X94387707Y-93521793D01*
X94626487Y-93444208D01*
X94874465Y-93404932D01*
X95125535Y-93404932D01*
X95373513Y-93444208D01*
G37*
G36*
X58246742Y-93446601D02*
G01*
X58400687Y-93510367D01*
X58539234Y-93602941D01*
X58657059Y-93720766D01*
X58749633Y-93859313D01*
X58813399Y-94013258D01*
X58845907Y-94176685D01*
X58845907Y-94343315D01*
X58813399Y-94506742D01*
X58749633Y-94660687D01*
X58657059Y-94799234D01*
X58539234Y-94917059D01*
X58400687Y-95009633D01*
X58246742Y-95073399D01*
X58083315Y-95105907D01*
X57916685Y-95105907D01*
X57753258Y-95073399D01*
X57599313Y-95009633D01*
X57460766Y-94917059D01*
X57342941Y-94799234D01*
X57250367Y-94660687D01*
X57186601Y-94506742D01*
X57154093Y-94343315D01*
X57154093Y-94176685D01*
X57186601Y-94013258D01*
X57250367Y-93859313D01*
X57342941Y-93720766D01*
X57460766Y-93602941D01*
X57599313Y-93510367D01*
X57753258Y-93446601D01*
X57916685Y-93414093D01*
X58083315Y-93414093D01*
X58246742Y-93446601D01*
G37*
G36*
X83646742Y-93446601D02*
G01*
X83800687Y-93510367D01*
X83939234Y-93602941D01*
X84057059Y-93720766D01*
X84149633Y-93859313D01*
X84213399Y-94013258D01*
X84245907Y-94176685D01*
X84245907Y-94343315D01*
X84213399Y-94506742D01*
X84149633Y-94660687D01*
X84057059Y-94799234D01*
X83939234Y-94917059D01*
X83800687Y-95009633D01*
X83646742Y-95073399D01*
X83483315Y-95105907D01*
X83316685Y-95105907D01*
X83153258Y-95073399D01*
X82999313Y-95009633D01*
X82860766Y-94917059D01*
X82742941Y-94799234D01*
X82650367Y-94660687D01*
X82586601Y-94506742D01*
X82554093Y-94343315D01*
X82554093Y-94176685D01*
X82586601Y-94013258D01*
X82650367Y-93859313D01*
X82742941Y-93720766D01*
X82860766Y-93602941D01*
X82999313Y-93510367D01*
X83153258Y-93446601D01*
X83316685Y-93414093D01*
X83483315Y-93414093D01*
X83646742Y-93446601D01*
G37*
G36*
X38290285Y-91043060D02*
G01*
X38471397Y-91118079D01*
X38634393Y-91226990D01*
X38773010Y-91365607D01*
X38881921Y-91528603D01*
X38956940Y-91709715D01*
X38995185Y-91901983D01*
X38995185Y-92098017D01*
X38956940Y-92290285D01*
X38881921Y-92471397D01*
X38773010Y-92634393D01*
X38634393Y-92773010D01*
X38471397Y-92881921D01*
X38290285Y-92956940D01*
X38098017Y-92995185D01*
X37901983Y-92995185D01*
X37709715Y-92956940D01*
X37528603Y-92881921D01*
X37365607Y-92773010D01*
X37226990Y-92634393D01*
X37118079Y-92471397D01*
X37043060Y-92290285D01*
X37004815Y-92098017D01*
X37004815Y-91901983D01*
X37043060Y-91709715D01*
X37118079Y-91528603D01*
X37226990Y-91365607D01*
X37365607Y-91226990D01*
X37528603Y-91118079D01*
X37709715Y-91043060D01*
X37901983Y-91004815D01*
X38098017Y-91004815D01*
X38290285Y-91043060D01*
G37*
G36*
X19354047Y-91300805D02*
G01*
X19405408Y-91306764D01*
X19422954Y-91314511D01*
X19445671Y-91319030D01*
X19469991Y-91335280D01*
X19490793Y-91344465D01*
X19505000Y-91358672D01*
X19526777Y-91373223D01*
X19541327Y-91394999D01*
X19555534Y-91409206D01*
X19564718Y-91430006D01*
X19580970Y-91454329D01*
X19585489Y-91477048D01*
X19593235Y-91494591D01*
X19599192Y-91545940D01*
X19600000Y-91550000D01*
X19600000Y-92450000D01*
X19599192Y-92454059D01*
X19593235Y-92505408D01*
X19585489Y-92522950D01*
X19580970Y-92545671D01*
X19564716Y-92569995D01*
X19555534Y-92590793D01*
X19541329Y-92604997D01*
X19526777Y-92626777D01*
X19504997Y-92641329D01*
X19490793Y-92655534D01*
X19469995Y-92664716D01*
X19445671Y-92680970D01*
X19422950Y-92685489D01*
X19405408Y-92693235D01*
X19354061Y-92699192D01*
X19350000Y-92700000D01*
X18825000Y-92700000D01*
X18820941Y-92699192D01*
X18769591Y-92693235D01*
X18752048Y-92685489D01*
X18729329Y-92680970D01*
X18705006Y-92664718D01*
X18684206Y-92655534D01*
X18669999Y-92641327D01*
X18648223Y-92626777D01*
X18633672Y-92605000D01*
X18619465Y-92590793D01*
X18610280Y-92569991D01*
X18594030Y-92545671D01*
X18589511Y-92522954D01*
X18581764Y-92505408D01*
X18575805Y-92454049D01*
X18575000Y-92450000D01*
X18575000Y-91550000D01*
X18575804Y-91545953D01*
X18581764Y-91494591D01*
X18589511Y-91477043D01*
X18594030Y-91454329D01*
X18610278Y-91430010D01*
X18619465Y-91409206D01*
X18633674Y-91394996D01*
X18648223Y-91373223D01*
X18669996Y-91358674D01*
X18684206Y-91344465D01*
X18705010Y-91335278D01*
X18729329Y-91319030D01*
X18752043Y-91314511D01*
X18769591Y-91306764D01*
X18820952Y-91300805D01*
X18825000Y-91300000D01*
X19350000Y-91300000D01*
X19354047Y-91300805D01*
G37*
G36*
X21179047Y-91300805D02*
G01*
X21230408Y-91306764D01*
X21247954Y-91314511D01*
X21270671Y-91319030D01*
X21294991Y-91335280D01*
X21315793Y-91344465D01*
X21330000Y-91358672D01*
X21351777Y-91373223D01*
X21366327Y-91394999D01*
X21380534Y-91409206D01*
X21389718Y-91430006D01*
X21405970Y-91454329D01*
X21410489Y-91477048D01*
X21418235Y-91494591D01*
X21424192Y-91545940D01*
X21425000Y-91550000D01*
X21425000Y-92450000D01*
X21424192Y-92454059D01*
X21418235Y-92505408D01*
X21410489Y-92522950D01*
X21405970Y-92545671D01*
X21389716Y-92569995D01*
X21380534Y-92590793D01*
X21366329Y-92604997D01*
X21351777Y-92626777D01*
X21329997Y-92641329D01*
X21315793Y-92655534D01*
X21294995Y-92664716D01*
X21270671Y-92680970D01*
X21247950Y-92685489D01*
X21230408Y-92693235D01*
X21179061Y-92699192D01*
X21175000Y-92700000D01*
X20650000Y-92700000D01*
X20645941Y-92699192D01*
X20594591Y-92693235D01*
X20577048Y-92685489D01*
X20554329Y-92680970D01*
X20530006Y-92664718D01*
X20509206Y-92655534D01*
X20494999Y-92641327D01*
X20473223Y-92626777D01*
X20458672Y-92605000D01*
X20444465Y-92590793D01*
X20435280Y-92569991D01*
X20419030Y-92545671D01*
X20414511Y-92522954D01*
X20406764Y-92505408D01*
X20400805Y-92454049D01*
X20400000Y-92450000D01*
X20400000Y-91550000D01*
X20400804Y-91545953D01*
X20406764Y-91494591D01*
X20414511Y-91477043D01*
X20419030Y-91454329D01*
X20435278Y-91430010D01*
X20444465Y-91409206D01*
X20458674Y-91394996D01*
X20473223Y-91373223D01*
X20494996Y-91358674D01*
X20509206Y-91344465D01*
X20530010Y-91335278D01*
X20554329Y-91319030D01*
X20577043Y-91314511D01*
X20594591Y-91306764D01*
X20645952Y-91300805D01*
X20650000Y-91300000D01*
X21175000Y-91300000D01*
X21179047Y-91300805D01*
G37*
G36*
X45354047Y-91300805D02*
G01*
X45405408Y-91306764D01*
X45422954Y-91314511D01*
X45445671Y-91319030D01*
X45469991Y-91335280D01*
X45490793Y-91344465D01*
X45505000Y-91358672D01*
X45526777Y-91373223D01*
X45541327Y-91394999D01*
X45555534Y-91409206D01*
X45564718Y-91430006D01*
X45580970Y-91454329D01*
X45585489Y-91477048D01*
X45593235Y-91494591D01*
X45599192Y-91545940D01*
X45600000Y-91550000D01*
X45600000Y-92450000D01*
X45599192Y-92454059D01*
X45593235Y-92505408D01*
X45585489Y-92522950D01*
X45580970Y-92545671D01*
X45564716Y-92569995D01*
X45555534Y-92590793D01*
X45541329Y-92604997D01*
X45526777Y-92626777D01*
X45504997Y-92641329D01*
X45490793Y-92655534D01*
X45469995Y-92664716D01*
X45445671Y-92680970D01*
X45422950Y-92685489D01*
X45405408Y-92693235D01*
X45354061Y-92699192D01*
X45350000Y-92700000D01*
X44825000Y-92700000D01*
X44820941Y-92699192D01*
X44769591Y-92693235D01*
X44752048Y-92685489D01*
X44729329Y-92680970D01*
X44705006Y-92664718D01*
X44684206Y-92655534D01*
X44669999Y-92641327D01*
X44648223Y-92626777D01*
X44633672Y-92605000D01*
X44619465Y-92590793D01*
X44610280Y-92569991D01*
X44594030Y-92545671D01*
X44589511Y-92522954D01*
X44581764Y-92505408D01*
X44575805Y-92454049D01*
X44575000Y-92450000D01*
X44575000Y-91550000D01*
X44575804Y-91545953D01*
X44581764Y-91494591D01*
X44589511Y-91477043D01*
X44594030Y-91454329D01*
X44610278Y-91430010D01*
X44619465Y-91409206D01*
X44633674Y-91394996D01*
X44648223Y-91373223D01*
X44669996Y-91358674D01*
X44684206Y-91344465D01*
X44705010Y-91335278D01*
X44729329Y-91319030D01*
X44752043Y-91314511D01*
X44769591Y-91306764D01*
X44820952Y-91300805D01*
X44825000Y-91300000D01*
X45350000Y-91300000D01*
X45354047Y-91300805D01*
G37*
G36*
X47179047Y-91300805D02*
G01*
X47230408Y-91306764D01*
X47247954Y-91314511D01*
X47270671Y-91319030D01*
X47294991Y-91335280D01*
X47315793Y-91344465D01*
X47330000Y-91358672D01*
X47351777Y-91373223D01*
X47366327Y-91394999D01*
X47380534Y-91409206D01*
X47389718Y-91430006D01*
X47405970Y-91454329D01*
X47410489Y-91477048D01*
X47418235Y-91494591D01*
X47424192Y-91545940D01*
X47425000Y-91550000D01*
X47425000Y-92450000D01*
X47424192Y-92454059D01*
X47418235Y-92505408D01*
X47410489Y-92522950D01*
X47405970Y-92545671D01*
X47389716Y-92569995D01*
X47380534Y-92590793D01*
X47366329Y-92604997D01*
X47351777Y-92626777D01*
X47329997Y-92641329D01*
X47315793Y-92655534D01*
X47294995Y-92664716D01*
X47270671Y-92680970D01*
X47247950Y-92685489D01*
X47230408Y-92693235D01*
X47179061Y-92699192D01*
X47175000Y-92700000D01*
X46650000Y-92700000D01*
X46645941Y-92699192D01*
X46594591Y-92693235D01*
X46577048Y-92685489D01*
X46554329Y-92680970D01*
X46530006Y-92664718D01*
X46509206Y-92655534D01*
X46494999Y-92641327D01*
X46473223Y-92626777D01*
X46458672Y-92605000D01*
X46444465Y-92590793D01*
X46435280Y-92569991D01*
X46419030Y-92545671D01*
X46414511Y-92522954D01*
X46406764Y-92505408D01*
X46400805Y-92454049D01*
X46400000Y-92450000D01*
X46400000Y-91550000D01*
X46400804Y-91545953D01*
X46406764Y-91494591D01*
X46414511Y-91477043D01*
X46419030Y-91454329D01*
X46435278Y-91430010D01*
X46444465Y-91409206D01*
X46458674Y-91394996D01*
X46473223Y-91373223D01*
X46494996Y-91358674D01*
X46509206Y-91344465D01*
X46530010Y-91335278D01*
X46554329Y-91319030D01*
X46577043Y-91314511D01*
X46594591Y-91306764D01*
X46645952Y-91300805D01*
X46650000Y-91300000D01*
X47175000Y-91300000D01*
X47179047Y-91300805D01*
G37*
G36*
X58246742Y-90906601D02*
G01*
X58400687Y-90970367D01*
X58539234Y-91062941D01*
X58657059Y-91180766D01*
X58749633Y-91319313D01*
X58813399Y-91473258D01*
X58845907Y-91636685D01*
X58845907Y-91803315D01*
X58813399Y-91966742D01*
X58749633Y-92120687D01*
X58657059Y-92259234D01*
X58539234Y-92377059D01*
X58400687Y-92469633D01*
X58246742Y-92533399D01*
X58083315Y-92565907D01*
X57916685Y-92565907D01*
X57753258Y-92533399D01*
X57599313Y-92469633D01*
X57460766Y-92377059D01*
X57342941Y-92259234D01*
X57250367Y-92120687D01*
X57186601Y-91966742D01*
X57154093Y-91803315D01*
X57154093Y-91636685D01*
X57186601Y-91473258D01*
X57250367Y-91319313D01*
X57342941Y-91180766D01*
X57460766Y-91062941D01*
X57599313Y-90970367D01*
X57753258Y-90906601D01*
X57916685Y-90874093D01*
X58083315Y-90874093D01*
X58246742Y-90906601D01*
G37*
G36*
X83646742Y-90906601D02*
G01*
X83800687Y-90970367D01*
X83939234Y-91062941D01*
X84057059Y-91180766D01*
X84149633Y-91319313D01*
X84213399Y-91473258D01*
X84245907Y-91636685D01*
X84245907Y-91803315D01*
X84213399Y-91966742D01*
X84149633Y-92120687D01*
X84057059Y-92259234D01*
X83939234Y-92377059D01*
X83800687Y-92469633D01*
X83646742Y-92533399D01*
X83483315Y-92565907D01*
X83316685Y-92565907D01*
X83153258Y-92533399D01*
X82999313Y-92469633D01*
X82860766Y-92377059D01*
X82742941Y-92259234D01*
X82650367Y-92120687D01*
X82586601Y-91966742D01*
X82554093Y-91803315D01*
X82554093Y-91636685D01*
X82586601Y-91473258D01*
X82650367Y-91319313D01*
X82742941Y-91180766D01*
X82860766Y-91062941D01*
X82999313Y-90970367D01*
X83153258Y-90906601D01*
X83316685Y-90874093D01*
X83483315Y-90874093D01*
X83646742Y-90906601D01*
G37*
G36*
X58246742Y-88366601D02*
G01*
X58400687Y-88430367D01*
X58539234Y-88522941D01*
X58657059Y-88640766D01*
X58749633Y-88779313D01*
X58813399Y-88933258D01*
X58845907Y-89096685D01*
X58845907Y-89263315D01*
X58813399Y-89426742D01*
X58749633Y-89580687D01*
X58657059Y-89719234D01*
X58539234Y-89837059D01*
X58400687Y-89929633D01*
X58246742Y-89993399D01*
X58083315Y-90025907D01*
X57916685Y-90025907D01*
X57753258Y-89993399D01*
X57599313Y-89929633D01*
X57460766Y-89837059D01*
X57342941Y-89719234D01*
X57250367Y-89580687D01*
X57186601Y-89426742D01*
X57154093Y-89263315D01*
X57154093Y-89096685D01*
X57186601Y-88933258D01*
X57250367Y-88779313D01*
X57342941Y-88640766D01*
X57460766Y-88522941D01*
X57599313Y-88430367D01*
X57753258Y-88366601D01*
X57916685Y-88334093D01*
X58083315Y-88334093D01*
X58246742Y-88366601D01*
G37*
G36*
X83646742Y-88366601D02*
G01*
X83800687Y-88430367D01*
X83939234Y-88522941D01*
X84057059Y-88640766D01*
X84149633Y-88779313D01*
X84213399Y-88933258D01*
X84245907Y-89096685D01*
X84245907Y-89263315D01*
X84213399Y-89426742D01*
X84149633Y-89580687D01*
X84057059Y-89719234D01*
X83939234Y-89837059D01*
X83800687Y-89929633D01*
X83646742Y-89993399D01*
X83483315Y-90025907D01*
X83316685Y-90025907D01*
X83153258Y-89993399D01*
X82999313Y-89929633D01*
X82860766Y-89837059D01*
X82742941Y-89719234D01*
X82650367Y-89580687D01*
X82586601Y-89426742D01*
X82554093Y-89263315D01*
X82554093Y-89096685D01*
X82586601Y-88933258D01*
X82650367Y-88779313D01*
X82742941Y-88640766D01*
X82860766Y-88522941D01*
X82999313Y-88430367D01*
X83153258Y-88366601D01*
X83316685Y-88334093D01*
X83483315Y-88334093D01*
X83646742Y-88366601D01*
G37*
G36*
X45354047Y-88300805D02*
G01*
X45405408Y-88306764D01*
X45422954Y-88314511D01*
X45445671Y-88319030D01*
X45469991Y-88335280D01*
X45490793Y-88344465D01*
X45505000Y-88358672D01*
X45526777Y-88373223D01*
X45541327Y-88394999D01*
X45555534Y-88409206D01*
X45564718Y-88430006D01*
X45580970Y-88454329D01*
X45585489Y-88477048D01*
X45593235Y-88494591D01*
X45599192Y-88545940D01*
X45600000Y-88550000D01*
X45600000Y-89450000D01*
X45599192Y-89454059D01*
X45593235Y-89505408D01*
X45585489Y-89522950D01*
X45580970Y-89545671D01*
X45564716Y-89569995D01*
X45555534Y-89590793D01*
X45541329Y-89604997D01*
X45526777Y-89626777D01*
X45504997Y-89641329D01*
X45490793Y-89655534D01*
X45469995Y-89664716D01*
X45445671Y-89680970D01*
X45422950Y-89685489D01*
X45405408Y-89693235D01*
X45354061Y-89699192D01*
X45350000Y-89700000D01*
X44825000Y-89700000D01*
X44820941Y-89699192D01*
X44769591Y-89693235D01*
X44752048Y-89685489D01*
X44729329Y-89680970D01*
X44705006Y-89664718D01*
X44684206Y-89655534D01*
X44669999Y-89641327D01*
X44648223Y-89626777D01*
X44633672Y-89605000D01*
X44619465Y-89590793D01*
X44610280Y-89569991D01*
X44594030Y-89545671D01*
X44589511Y-89522954D01*
X44581764Y-89505408D01*
X44575805Y-89454049D01*
X44575000Y-89450000D01*
X44575000Y-88550000D01*
X44575804Y-88545953D01*
X44581764Y-88494591D01*
X44589511Y-88477043D01*
X44594030Y-88454329D01*
X44610278Y-88430010D01*
X44619465Y-88409206D01*
X44633674Y-88394996D01*
X44648223Y-88373223D01*
X44669996Y-88358674D01*
X44684206Y-88344465D01*
X44705010Y-88335278D01*
X44729329Y-88319030D01*
X44752043Y-88314511D01*
X44769591Y-88306764D01*
X44820952Y-88300805D01*
X44825000Y-88300000D01*
X45350000Y-88300000D01*
X45354047Y-88300805D01*
G37*
G36*
X47179047Y-88300805D02*
G01*
X47230408Y-88306764D01*
X47247954Y-88314511D01*
X47270671Y-88319030D01*
X47294991Y-88335280D01*
X47315793Y-88344465D01*
X47330000Y-88358672D01*
X47351777Y-88373223D01*
X47366327Y-88394999D01*
X47380534Y-88409206D01*
X47389718Y-88430006D01*
X47405970Y-88454329D01*
X47410489Y-88477048D01*
X47418235Y-88494591D01*
X47424192Y-88545940D01*
X47425000Y-88550000D01*
X47425000Y-89450000D01*
X47424192Y-89454059D01*
X47418235Y-89505408D01*
X47410489Y-89522950D01*
X47405970Y-89545671D01*
X47389716Y-89569995D01*
X47380534Y-89590793D01*
X47366329Y-89604997D01*
X47351777Y-89626777D01*
X47329997Y-89641329D01*
X47315793Y-89655534D01*
X47294995Y-89664716D01*
X47270671Y-89680970D01*
X47247950Y-89685489D01*
X47230408Y-89693235D01*
X47179061Y-89699192D01*
X47175000Y-89700000D01*
X46650000Y-89700000D01*
X46645941Y-89699192D01*
X46594591Y-89693235D01*
X46577048Y-89685489D01*
X46554329Y-89680970D01*
X46530006Y-89664718D01*
X46509206Y-89655534D01*
X46494999Y-89641327D01*
X46473223Y-89626777D01*
X46458672Y-89605000D01*
X46444465Y-89590793D01*
X46435280Y-89569991D01*
X46419030Y-89545671D01*
X46414511Y-89522954D01*
X46406764Y-89505408D01*
X46400805Y-89454049D01*
X46400000Y-89450000D01*
X46400000Y-88550000D01*
X46400804Y-88545953D01*
X46406764Y-88494591D01*
X46414511Y-88477043D01*
X46419030Y-88454329D01*
X46435278Y-88430010D01*
X46444465Y-88409206D01*
X46458674Y-88394996D01*
X46473223Y-88373223D01*
X46494996Y-88358674D01*
X46509206Y-88344465D01*
X46530010Y-88335278D01*
X46554329Y-88319030D01*
X46577043Y-88314511D01*
X46594591Y-88306764D01*
X46645952Y-88300805D01*
X46650000Y-88300000D01*
X47175000Y-88300000D01*
X47179047Y-88300805D01*
G37*
G36*
X19354047Y-87300805D02*
G01*
X19405408Y-87306764D01*
X19422954Y-87314511D01*
X19445671Y-87319030D01*
X19469991Y-87335280D01*
X19490793Y-87344465D01*
X19505000Y-87358672D01*
X19526777Y-87373223D01*
X19541327Y-87394999D01*
X19555534Y-87409206D01*
X19564718Y-87430006D01*
X19580970Y-87454329D01*
X19585489Y-87477048D01*
X19593235Y-87494591D01*
X19599192Y-87545940D01*
X19600000Y-87550000D01*
X19600000Y-88450000D01*
X19599192Y-88454059D01*
X19593235Y-88505408D01*
X19585489Y-88522950D01*
X19580970Y-88545671D01*
X19564716Y-88569995D01*
X19555534Y-88590793D01*
X19541329Y-88604997D01*
X19526777Y-88626777D01*
X19504997Y-88641329D01*
X19490793Y-88655534D01*
X19469995Y-88664716D01*
X19445671Y-88680970D01*
X19422950Y-88685489D01*
X19405408Y-88693235D01*
X19354061Y-88699192D01*
X19350000Y-88700000D01*
X18825000Y-88700000D01*
X18820941Y-88699192D01*
X18769591Y-88693235D01*
X18752048Y-88685489D01*
X18729329Y-88680970D01*
X18705006Y-88664718D01*
X18684206Y-88655534D01*
X18669999Y-88641327D01*
X18648223Y-88626777D01*
X18633672Y-88605000D01*
X18619465Y-88590793D01*
X18610280Y-88569991D01*
X18594030Y-88545671D01*
X18589511Y-88522954D01*
X18581764Y-88505408D01*
X18575805Y-88454049D01*
X18575000Y-88450000D01*
X18575000Y-87550000D01*
X18575804Y-87545953D01*
X18581764Y-87494591D01*
X18589511Y-87477043D01*
X18594030Y-87454329D01*
X18610278Y-87430010D01*
X18619465Y-87409206D01*
X18633674Y-87394996D01*
X18648223Y-87373223D01*
X18669996Y-87358674D01*
X18684206Y-87344465D01*
X18705010Y-87335278D01*
X18729329Y-87319030D01*
X18752043Y-87314511D01*
X18769591Y-87306764D01*
X18820952Y-87300805D01*
X18825000Y-87300000D01*
X19350000Y-87300000D01*
X19354047Y-87300805D01*
G37*
G36*
X21179047Y-87300805D02*
G01*
X21230408Y-87306764D01*
X21247954Y-87314511D01*
X21270671Y-87319030D01*
X21294991Y-87335280D01*
X21315793Y-87344465D01*
X21330000Y-87358672D01*
X21351777Y-87373223D01*
X21366327Y-87394999D01*
X21380534Y-87409206D01*
X21389718Y-87430006D01*
X21405970Y-87454329D01*
X21410489Y-87477048D01*
X21418235Y-87494591D01*
X21424192Y-87545940D01*
X21425000Y-87550000D01*
X21425000Y-88450000D01*
X21424192Y-88454059D01*
X21418235Y-88505408D01*
X21410489Y-88522950D01*
X21405970Y-88545671D01*
X21389716Y-88569995D01*
X21380534Y-88590793D01*
X21366329Y-88604997D01*
X21351777Y-88626777D01*
X21329997Y-88641329D01*
X21315793Y-88655534D01*
X21294995Y-88664716D01*
X21270671Y-88680970D01*
X21247950Y-88685489D01*
X21230408Y-88693235D01*
X21179061Y-88699192D01*
X21175000Y-88700000D01*
X20650000Y-88700000D01*
X20645941Y-88699192D01*
X20594591Y-88693235D01*
X20577048Y-88685489D01*
X20554329Y-88680970D01*
X20530006Y-88664718D01*
X20509206Y-88655534D01*
X20494999Y-88641327D01*
X20473223Y-88626777D01*
X20458672Y-88605000D01*
X20444465Y-88590793D01*
X20435280Y-88569991D01*
X20419030Y-88545671D01*
X20414511Y-88522954D01*
X20406764Y-88505408D01*
X20400805Y-88454049D01*
X20400000Y-88450000D01*
X20400000Y-87550000D01*
X20400804Y-87545953D01*
X20406764Y-87494591D01*
X20414511Y-87477043D01*
X20419030Y-87454329D01*
X20435278Y-87430010D01*
X20444465Y-87409206D01*
X20458674Y-87394996D01*
X20473223Y-87373223D01*
X20494996Y-87358674D01*
X20509206Y-87344465D01*
X20530010Y-87335278D01*
X20554329Y-87319030D01*
X20577043Y-87314511D01*
X20594591Y-87306764D01*
X20645952Y-87300805D01*
X20650000Y-87300000D01*
X21175000Y-87300000D01*
X21179047Y-87300805D01*
G37*
G36*
X58246742Y-85826601D02*
G01*
X58400687Y-85890367D01*
X58539234Y-85982941D01*
X58657059Y-86100766D01*
X58749633Y-86239313D01*
X58813399Y-86393258D01*
X58845907Y-86556685D01*
X58845907Y-86723315D01*
X58813399Y-86886742D01*
X58749633Y-87040687D01*
X58657059Y-87179234D01*
X58539234Y-87297059D01*
X58400687Y-87389633D01*
X58246742Y-87453399D01*
X58083315Y-87485907D01*
X57916685Y-87485907D01*
X57753258Y-87453399D01*
X57599313Y-87389633D01*
X57460766Y-87297059D01*
X57342941Y-87179234D01*
X57250367Y-87040687D01*
X57186601Y-86886742D01*
X57154093Y-86723315D01*
X57154093Y-86556685D01*
X57186601Y-86393258D01*
X57250367Y-86239313D01*
X57342941Y-86100766D01*
X57460766Y-85982941D01*
X57599313Y-85890367D01*
X57753258Y-85826601D01*
X57916685Y-85794093D01*
X58083315Y-85794093D01*
X58246742Y-85826601D01*
G37*
G36*
X83646742Y-85826601D02*
G01*
X83800687Y-85890367D01*
X83939234Y-85982941D01*
X84057059Y-86100766D01*
X84149633Y-86239313D01*
X84213399Y-86393258D01*
X84245907Y-86556685D01*
X84245907Y-86723315D01*
X84213399Y-86886742D01*
X84149633Y-87040687D01*
X84057059Y-87179234D01*
X83939234Y-87297059D01*
X83800687Y-87389633D01*
X83646742Y-87453399D01*
X83483315Y-87485907D01*
X83316685Y-87485907D01*
X83153258Y-87453399D01*
X82999313Y-87389633D01*
X82860766Y-87297059D01*
X82742941Y-87179234D01*
X82650367Y-87040687D01*
X82586601Y-86886742D01*
X82554093Y-86723315D01*
X82554093Y-86556685D01*
X82586601Y-86393258D01*
X82650367Y-86239313D01*
X82742941Y-86100766D01*
X82860766Y-85982941D01*
X82999313Y-85890367D01*
X83153258Y-85826601D01*
X83316685Y-85794093D01*
X83483315Y-85794093D01*
X83646742Y-85826601D01*
G37*
G36*
X45354047Y-85300805D02*
G01*
X45405408Y-85306764D01*
X45422954Y-85314511D01*
X45445671Y-85319030D01*
X45469991Y-85335280D01*
X45490793Y-85344465D01*
X45505000Y-85358672D01*
X45526777Y-85373223D01*
X45541327Y-85394999D01*
X45555534Y-85409206D01*
X45564718Y-85430006D01*
X45580970Y-85454329D01*
X45585489Y-85477048D01*
X45593235Y-85494591D01*
X45599192Y-85545940D01*
X45600000Y-85550000D01*
X45600000Y-86450000D01*
X45599192Y-86454059D01*
X45593235Y-86505408D01*
X45585489Y-86522950D01*
X45580970Y-86545671D01*
X45564716Y-86569995D01*
X45555534Y-86590793D01*
X45541329Y-86604997D01*
X45526777Y-86626777D01*
X45504997Y-86641329D01*
X45490793Y-86655534D01*
X45469995Y-86664716D01*
X45445671Y-86680970D01*
X45422950Y-86685489D01*
X45405408Y-86693235D01*
X45354061Y-86699192D01*
X45350000Y-86700000D01*
X44825000Y-86700000D01*
X44820941Y-86699192D01*
X44769591Y-86693235D01*
X44752048Y-86685489D01*
X44729329Y-86680970D01*
X44705006Y-86664718D01*
X44684206Y-86655534D01*
X44669999Y-86641327D01*
X44648223Y-86626777D01*
X44633672Y-86605000D01*
X44619465Y-86590793D01*
X44610280Y-86569991D01*
X44594030Y-86545671D01*
X44589511Y-86522954D01*
X44581764Y-86505408D01*
X44575805Y-86454049D01*
X44575000Y-86450000D01*
X44575000Y-85550000D01*
X44575804Y-85545953D01*
X44581764Y-85494591D01*
X44589511Y-85477043D01*
X44594030Y-85454329D01*
X44610278Y-85430010D01*
X44619465Y-85409206D01*
X44633674Y-85394996D01*
X44648223Y-85373223D01*
X44669996Y-85358674D01*
X44684206Y-85344465D01*
X44705010Y-85335278D01*
X44729329Y-85319030D01*
X44752043Y-85314511D01*
X44769591Y-85306764D01*
X44820952Y-85300805D01*
X44825000Y-85300000D01*
X45350000Y-85300000D01*
X45354047Y-85300805D01*
G37*
G36*
X47179047Y-85300805D02*
G01*
X47230408Y-85306764D01*
X47247954Y-85314511D01*
X47270671Y-85319030D01*
X47294991Y-85335280D01*
X47315793Y-85344465D01*
X47330000Y-85358672D01*
X47351777Y-85373223D01*
X47366327Y-85394999D01*
X47380534Y-85409206D01*
X47389718Y-85430006D01*
X47405970Y-85454329D01*
X47410489Y-85477048D01*
X47418235Y-85494591D01*
X47424192Y-85545940D01*
X47425000Y-85550000D01*
X47425000Y-86450000D01*
X47424192Y-86454059D01*
X47418235Y-86505408D01*
X47410489Y-86522950D01*
X47405970Y-86545671D01*
X47389716Y-86569995D01*
X47380534Y-86590793D01*
X47366329Y-86604997D01*
X47351777Y-86626777D01*
X47329997Y-86641329D01*
X47315793Y-86655534D01*
X47294995Y-86664716D01*
X47270671Y-86680970D01*
X47247950Y-86685489D01*
X47230408Y-86693235D01*
X47179061Y-86699192D01*
X47175000Y-86700000D01*
X46650000Y-86700000D01*
X46645941Y-86699192D01*
X46594591Y-86693235D01*
X46577048Y-86685489D01*
X46554329Y-86680970D01*
X46530006Y-86664718D01*
X46509206Y-86655534D01*
X46494999Y-86641327D01*
X46473223Y-86626777D01*
X46458672Y-86605000D01*
X46444465Y-86590793D01*
X46435280Y-86569991D01*
X46419030Y-86545671D01*
X46414511Y-86522954D01*
X46406764Y-86505408D01*
X46400805Y-86454049D01*
X46400000Y-86450000D01*
X46400000Y-85550000D01*
X46400804Y-85545953D01*
X46406764Y-85494591D01*
X46414511Y-85477043D01*
X46419030Y-85454329D01*
X46435278Y-85430010D01*
X46444465Y-85409206D01*
X46458674Y-85394996D01*
X46473223Y-85373223D01*
X46494996Y-85358674D01*
X46509206Y-85344465D01*
X46530010Y-85335278D01*
X46554329Y-85319030D01*
X46577043Y-85314511D01*
X46594591Y-85306764D01*
X46645952Y-85300805D01*
X46650000Y-85300000D01*
X47175000Y-85300000D01*
X47179047Y-85300805D01*
G37*
G36*
X58246742Y-83286601D02*
G01*
X58400687Y-83350367D01*
X58539234Y-83442941D01*
X58657059Y-83560766D01*
X58749633Y-83699313D01*
X58813399Y-83853258D01*
X58845907Y-84016685D01*
X58845907Y-84183315D01*
X58813399Y-84346742D01*
X58749633Y-84500687D01*
X58657059Y-84639234D01*
X58539234Y-84757059D01*
X58400687Y-84849633D01*
X58246742Y-84913399D01*
X58083315Y-84945907D01*
X57916685Y-84945907D01*
X57753258Y-84913399D01*
X57599313Y-84849633D01*
X57460766Y-84757059D01*
X57342941Y-84639234D01*
X57250367Y-84500687D01*
X57186601Y-84346742D01*
X57154093Y-84183315D01*
X57154093Y-84016685D01*
X57186601Y-83853258D01*
X57250367Y-83699313D01*
X57342941Y-83560766D01*
X57460766Y-83442941D01*
X57599313Y-83350367D01*
X57753258Y-83286601D01*
X57916685Y-83254093D01*
X58083315Y-83254093D01*
X58246742Y-83286601D01*
G37*
G36*
X83646742Y-83286601D02*
G01*
X83800687Y-83350367D01*
X83939234Y-83442941D01*
X84057059Y-83560766D01*
X84149633Y-83699313D01*
X84213399Y-83853258D01*
X84245907Y-84016685D01*
X84245907Y-84183315D01*
X84213399Y-84346742D01*
X84149633Y-84500687D01*
X84057059Y-84639234D01*
X83939234Y-84757059D01*
X83800687Y-84849633D01*
X83646742Y-84913399D01*
X83483315Y-84945907D01*
X83316685Y-84945907D01*
X83153258Y-84913399D01*
X82999313Y-84849633D01*
X82860766Y-84757059D01*
X82742941Y-84639234D01*
X82650367Y-84500687D01*
X82586601Y-84346742D01*
X82554093Y-84183315D01*
X82554093Y-84016685D01*
X82586601Y-83853258D01*
X82650367Y-83699313D01*
X82742941Y-83560766D01*
X82860766Y-83442941D01*
X82999313Y-83350367D01*
X83153258Y-83286601D01*
X83316685Y-83254093D01*
X83483315Y-83254093D01*
X83646742Y-83286601D01*
G37*
G36*
X19354047Y-83300805D02*
G01*
X19405408Y-83306764D01*
X19422954Y-83314511D01*
X19445671Y-83319030D01*
X19469991Y-83335280D01*
X19490793Y-83344465D01*
X19505000Y-83358672D01*
X19526777Y-83373223D01*
X19541327Y-83394999D01*
X19555534Y-83409206D01*
X19564718Y-83430006D01*
X19580970Y-83454329D01*
X19585489Y-83477048D01*
X19593235Y-83494591D01*
X19599192Y-83545940D01*
X19600000Y-83550000D01*
X19600000Y-84450000D01*
X19599192Y-84454059D01*
X19593235Y-84505408D01*
X19585489Y-84522950D01*
X19580970Y-84545671D01*
X19564716Y-84569995D01*
X19555534Y-84590793D01*
X19541329Y-84604997D01*
X19526777Y-84626777D01*
X19504997Y-84641329D01*
X19490793Y-84655534D01*
X19469995Y-84664716D01*
X19445671Y-84680970D01*
X19422950Y-84685489D01*
X19405408Y-84693235D01*
X19354061Y-84699192D01*
X19350000Y-84700000D01*
X18825000Y-84700000D01*
X18820941Y-84699192D01*
X18769591Y-84693235D01*
X18752048Y-84685489D01*
X18729329Y-84680970D01*
X18705006Y-84664718D01*
X18684206Y-84655534D01*
X18669999Y-84641327D01*
X18648223Y-84626777D01*
X18633672Y-84605000D01*
X18619465Y-84590793D01*
X18610280Y-84569991D01*
X18594030Y-84545671D01*
X18589511Y-84522954D01*
X18581764Y-84505408D01*
X18575805Y-84454049D01*
X18575000Y-84450000D01*
X18575000Y-83550000D01*
X18575804Y-83545953D01*
X18581764Y-83494591D01*
X18589511Y-83477043D01*
X18594030Y-83454329D01*
X18610278Y-83430010D01*
X18619465Y-83409206D01*
X18633674Y-83394996D01*
X18648223Y-83373223D01*
X18669996Y-83358674D01*
X18684206Y-83344465D01*
X18705010Y-83335278D01*
X18729329Y-83319030D01*
X18752043Y-83314511D01*
X18769591Y-83306764D01*
X18820952Y-83300805D01*
X18825000Y-83300000D01*
X19350000Y-83300000D01*
X19354047Y-83300805D01*
G37*
G36*
X21179047Y-83300805D02*
G01*
X21230408Y-83306764D01*
X21247954Y-83314511D01*
X21270671Y-83319030D01*
X21294991Y-83335280D01*
X21315793Y-83344465D01*
X21330000Y-83358672D01*
X21351777Y-83373223D01*
X21366327Y-83394999D01*
X21380534Y-83409206D01*
X21389718Y-83430006D01*
X21405970Y-83454329D01*
X21410489Y-83477048D01*
X21418235Y-83494591D01*
X21424192Y-83545940D01*
X21425000Y-83550000D01*
X21425000Y-84450000D01*
X21424192Y-84454059D01*
X21418235Y-84505408D01*
X21410489Y-84522950D01*
X21405970Y-84545671D01*
X21389716Y-84569995D01*
X21380534Y-84590793D01*
X21366329Y-84604997D01*
X21351777Y-84626777D01*
X21329997Y-84641329D01*
X21315793Y-84655534D01*
X21294995Y-84664716D01*
X21270671Y-84680970D01*
X21247950Y-84685489D01*
X21230408Y-84693235D01*
X21179061Y-84699192D01*
X21175000Y-84700000D01*
X20650000Y-84700000D01*
X20645941Y-84699192D01*
X20594591Y-84693235D01*
X20577048Y-84685489D01*
X20554329Y-84680970D01*
X20530006Y-84664718D01*
X20509206Y-84655534D01*
X20494999Y-84641327D01*
X20473223Y-84626777D01*
X20458672Y-84605000D01*
X20444465Y-84590793D01*
X20435280Y-84569991D01*
X20419030Y-84545671D01*
X20414511Y-84522954D01*
X20406764Y-84505408D01*
X20400805Y-84454049D01*
X20400000Y-84450000D01*
X20400000Y-83550000D01*
X20400804Y-83545953D01*
X20406764Y-83494591D01*
X20414511Y-83477043D01*
X20419030Y-83454329D01*
X20435278Y-83430010D01*
X20444465Y-83409206D01*
X20458674Y-83394996D01*
X20473223Y-83373223D01*
X20494996Y-83358674D01*
X20509206Y-83344465D01*
X20530010Y-83335278D01*
X20554329Y-83319030D01*
X20577043Y-83314511D01*
X20594591Y-83306764D01*
X20645952Y-83300805D01*
X20650000Y-83300000D01*
X21175000Y-83300000D01*
X21179047Y-83300805D01*
G37*
G36*
X94290285Y-82043060D02*
G01*
X94471397Y-82118079D01*
X94634393Y-82226990D01*
X94773010Y-82365607D01*
X94881921Y-82528603D01*
X94956940Y-82709715D01*
X94995185Y-82901983D01*
X94995185Y-83098017D01*
X94956940Y-83290285D01*
X94881921Y-83471397D01*
X94773010Y-83634393D01*
X94634393Y-83773010D01*
X94471397Y-83881921D01*
X94290285Y-83956940D01*
X94098017Y-83995185D01*
X93901983Y-83995185D01*
X93709715Y-83956940D01*
X93528603Y-83881921D01*
X93365607Y-83773010D01*
X93226990Y-83634393D01*
X93118079Y-83471397D01*
X93043060Y-83290285D01*
X93004815Y-83098017D01*
X93004815Y-82901983D01*
X93043060Y-82709715D01*
X93118079Y-82528603D01*
X93226990Y-82365607D01*
X93365607Y-82226990D01*
X93528603Y-82118079D01*
X93709715Y-82043060D01*
X93901983Y-82004815D01*
X94098017Y-82004815D01*
X94290285Y-82043060D01*
G37*
G36*
X45354047Y-82300805D02*
G01*
X45405408Y-82306764D01*
X45422954Y-82314511D01*
X45445671Y-82319030D01*
X45469991Y-82335280D01*
X45490793Y-82344465D01*
X45505000Y-82358672D01*
X45526777Y-82373223D01*
X45541327Y-82394999D01*
X45555534Y-82409206D01*
X45564718Y-82430006D01*
X45580970Y-82454329D01*
X45585489Y-82477048D01*
X45593235Y-82494591D01*
X45599192Y-82545940D01*
X45600000Y-82550000D01*
X45600000Y-83450000D01*
X45599192Y-83454059D01*
X45593235Y-83505408D01*
X45585489Y-83522950D01*
X45580970Y-83545671D01*
X45564716Y-83569995D01*
X45555534Y-83590793D01*
X45541329Y-83604997D01*
X45526777Y-83626777D01*
X45504997Y-83641329D01*
X45490793Y-83655534D01*
X45469995Y-83664716D01*
X45445671Y-83680970D01*
X45422950Y-83685489D01*
X45405408Y-83693235D01*
X45354061Y-83699192D01*
X45350000Y-83700000D01*
X44825000Y-83700000D01*
X44820941Y-83699192D01*
X44769591Y-83693235D01*
X44752048Y-83685489D01*
X44729329Y-83680970D01*
X44705006Y-83664718D01*
X44684206Y-83655534D01*
X44669999Y-83641327D01*
X44648223Y-83626777D01*
X44633672Y-83605000D01*
X44619465Y-83590793D01*
X44610280Y-83569991D01*
X44594030Y-83545671D01*
X44589511Y-83522954D01*
X44581764Y-83505408D01*
X44575805Y-83454049D01*
X44575000Y-83450000D01*
X44575000Y-82550000D01*
X44575804Y-82545953D01*
X44581764Y-82494591D01*
X44589511Y-82477043D01*
X44594030Y-82454329D01*
X44610278Y-82430010D01*
X44619465Y-82409206D01*
X44633674Y-82394996D01*
X44648223Y-82373223D01*
X44669996Y-82358674D01*
X44684206Y-82344465D01*
X44705010Y-82335278D01*
X44729329Y-82319030D01*
X44752043Y-82314511D01*
X44769591Y-82306764D01*
X44820952Y-82300805D01*
X44825000Y-82300000D01*
X45350000Y-82300000D01*
X45354047Y-82300805D01*
G37*
G36*
X47179047Y-82300805D02*
G01*
X47230408Y-82306764D01*
X47247954Y-82314511D01*
X47270671Y-82319030D01*
X47294991Y-82335280D01*
X47315793Y-82344465D01*
X47330000Y-82358672D01*
X47351777Y-82373223D01*
X47366327Y-82394999D01*
X47380534Y-82409206D01*
X47389718Y-82430006D01*
X47405970Y-82454329D01*
X47410489Y-82477048D01*
X47418235Y-82494591D01*
X47424192Y-82545940D01*
X47425000Y-82550000D01*
X47425000Y-83450000D01*
X47424192Y-83454059D01*
X47418235Y-83505408D01*
X47410489Y-83522950D01*
X47405970Y-83545671D01*
X47389716Y-83569995D01*
X47380534Y-83590793D01*
X47366329Y-83604997D01*
X47351777Y-83626777D01*
X47329997Y-83641329D01*
X47315793Y-83655534D01*
X47294995Y-83664716D01*
X47270671Y-83680970D01*
X47247950Y-83685489D01*
X47230408Y-83693235D01*
X47179061Y-83699192D01*
X47175000Y-83700000D01*
X46650000Y-83700000D01*
X46645941Y-83699192D01*
X46594591Y-83693235D01*
X46577048Y-83685489D01*
X46554329Y-83680970D01*
X46530006Y-83664718D01*
X46509206Y-83655534D01*
X46494999Y-83641327D01*
X46473223Y-83626777D01*
X46458672Y-83605000D01*
X46444465Y-83590793D01*
X46435280Y-83569991D01*
X46419030Y-83545671D01*
X46414511Y-83522954D01*
X46406764Y-83505408D01*
X46400805Y-83454049D01*
X46400000Y-83450000D01*
X46400000Y-82550000D01*
X46400804Y-82545953D01*
X46406764Y-82494591D01*
X46414511Y-82477043D01*
X46419030Y-82454329D01*
X46435278Y-82430010D01*
X46444465Y-82409206D01*
X46458674Y-82394996D01*
X46473223Y-82373223D01*
X46494996Y-82358674D01*
X46509206Y-82344465D01*
X46530010Y-82335278D01*
X46554329Y-82319030D01*
X46577043Y-82314511D01*
X46594591Y-82306764D01*
X46645952Y-82300805D01*
X46650000Y-82300000D01*
X47175000Y-82300000D01*
X47179047Y-82300805D01*
G37*
G36*
X58246742Y-80746601D02*
G01*
X58400687Y-80810367D01*
X58539234Y-80902941D01*
X58657059Y-81020766D01*
X58749633Y-81159313D01*
X58813399Y-81313258D01*
X58845907Y-81476685D01*
X58845907Y-81643315D01*
X58813399Y-81806742D01*
X58749633Y-81960687D01*
X58657059Y-82099234D01*
X58539234Y-82217059D01*
X58400687Y-82309633D01*
X58246742Y-82373399D01*
X58083315Y-82405907D01*
X57916685Y-82405907D01*
X57753258Y-82373399D01*
X57599313Y-82309633D01*
X57460766Y-82217059D01*
X57342941Y-82099234D01*
X57250367Y-81960687D01*
X57186601Y-81806742D01*
X57154093Y-81643315D01*
X57154093Y-81476685D01*
X57186601Y-81313258D01*
X57250367Y-81159313D01*
X57342941Y-81020766D01*
X57460766Y-80902941D01*
X57599313Y-80810367D01*
X57753258Y-80746601D01*
X57916685Y-80714093D01*
X58083315Y-80714093D01*
X58246742Y-80746601D01*
G37*
G36*
X83646742Y-80746601D02*
G01*
X83800687Y-80810367D01*
X83939234Y-80902941D01*
X84057059Y-81020766D01*
X84149633Y-81159313D01*
X84213399Y-81313258D01*
X84245907Y-81476685D01*
X84245907Y-81643315D01*
X84213399Y-81806742D01*
X84149633Y-81960687D01*
X84057059Y-82099234D01*
X83939234Y-82217059D01*
X83800687Y-82309633D01*
X83646742Y-82373399D01*
X83483315Y-82405907D01*
X83316685Y-82405907D01*
X83153258Y-82373399D01*
X82999313Y-82309633D01*
X82860766Y-82217059D01*
X82742941Y-82099234D01*
X82650367Y-81960687D01*
X82586601Y-81806742D01*
X82554093Y-81643315D01*
X82554093Y-81476685D01*
X82586601Y-81313258D01*
X82650367Y-81159313D01*
X82742941Y-81020766D01*
X82860766Y-80902941D01*
X82999313Y-80810367D01*
X83153258Y-80746601D01*
X83316685Y-80714093D01*
X83483315Y-80714093D01*
X83646742Y-80746601D01*
G37*
G36*
X19354047Y-79300805D02*
G01*
X19405408Y-79306764D01*
X19422954Y-79314511D01*
X19445671Y-79319030D01*
X19469991Y-79335280D01*
X19490793Y-79344465D01*
X19505000Y-79358672D01*
X19526777Y-79373223D01*
X19541327Y-79394999D01*
X19555534Y-79409206D01*
X19564718Y-79430006D01*
X19580970Y-79454329D01*
X19585489Y-79477048D01*
X19593235Y-79494591D01*
X19599192Y-79545940D01*
X19600000Y-79550000D01*
X19600000Y-80450000D01*
X19599192Y-80454059D01*
X19593235Y-80505408D01*
X19585489Y-80522950D01*
X19580970Y-80545671D01*
X19564716Y-80569995D01*
X19555534Y-80590793D01*
X19541329Y-80604997D01*
X19526777Y-80626777D01*
X19504997Y-80641329D01*
X19490793Y-80655534D01*
X19469995Y-80664716D01*
X19445671Y-80680970D01*
X19422950Y-80685489D01*
X19405408Y-80693235D01*
X19354061Y-80699192D01*
X19350000Y-80700000D01*
X18825000Y-80700000D01*
X18820941Y-80699192D01*
X18769591Y-80693235D01*
X18752048Y-80685489D01*
X18729329Y-80680970D01*
X18705006Y-80664718D01*
X18684206Y-80655534D01*
X18669999Y-80641327D01*
X18648223Y-80626777D01*
X18633672Y-80605000D01*
X18619465Y-80590793D01*
X18610280Y-80569991D01*
X18594030Y-80545671D01*
X18589511Y-80522954D01*
X18581764Y-80505408D01*
X18575805Y-80454049D01*
X18575000Y-80450000D01*
X18575000Y-79550000D01*
X18575804Y-79545953D01*
X18581764Y-79494591D01*
X18589511Y-79477043D01*
X18594030Y-79454329D01*
X18610278Y-79430010D01*
X18619465Y-79409206D01*
X18633674Y-79394996D01*
X18648223Y-79373223D01*
X18669996Y-79358674D01*
X18684206Y-79344465D01*
X18705010Y-79335278D01*
X18729329Y-79319030D01*
X18752043Y-79314511D01*
X18769591Y-79306764D01*
X18820952Y-79300805D01*
X18825000Y-79300000D01*
X19350000Y-79300000D01*
X19354047Y-79300805D01*
G37*
G36*
X21179047Y-79300805D02*
G01*
X21230408Y-79306764D01*
X21247954Y-79314511D01*
X21270671Y-79319030D01*
X21294991Y-79335280D01*
X21315793Y-79344465D01*
X21330000Y-79358672D01*
X21351777Y-79373223D01*
X21366327Y-79394999D01*
X21380534Y-79409206D01*
X21389718Y-79430006D01*
X21405970Y-79454329D01*
X21410489Y-79477048D01*
X21418235Y-79494591D01*
X21424192Y-79545940D01*
X21425000Y-79550000D01*
X21425000Y-80450000D01*
X21424192Y-80454059D01*
X21418235Y-80505408D01*
X21410489Y-80522950D01*
X21405970Y-80545671D01*
X21389716Y-80569995D01*
X21380534Y-80590793D01*
X21366329Y-80604997D01*
X21351777Y-80626777D01*
X21329997Y-80641329D01*
X21315793Y-80655534D01*
X21294995Y-80664716D01*
X21270671Y-80680970D01*
X21247950Y-80685489D01*
X21230408Y-80693235D01*
X21179061Y-80699192D01*
X21175000Y-80700000D01*
X20650000Y-80700000D01*
X20645941Y-80699192D01*
X20594591Y-80693235D01*
X20577048Y-80685489D01*
X20554329Y-80680970D01*
X20530006Y-80664718D01*
X20509206Y-80655534D01*
X20494999Y-80641327D01*
X20473223Y-80626777D01*
X20458672Y-80605000D01*
X20444465Y-80590793D01*
X20435280Y-80569991D01*
X20419030Y-80545671D01*
X20414511Y-80522954D01*
X20406764Y-80505408D01*
X20400805Y-80454049D01*
X20400000Y-80450000D01*
X20400000Y-79550000D01*
X20400804Y-79545953D01*
X20406764Y-79494591D01*
X20414511Y-79477043D01*
X20419030Y-79454329D01*
X20435278Y-79430010D01*
X20444465Y-79409206D01*
X20458674Y-79394996D01*
X20473223Y-79373223D01*
X20494996Y-79358674D01*
X20509206Y-79344465D01*
X20530010Y-79335278D01*
X20554329Y-79319030D01*
X20577043Y-79314511D01*
X20594591Y-79306764D01*
X20645952Y-79300805D01*
X20650000Y-79300000D01*
X21175000Y-79300000D01*
X21179047Y-79300805D01*
G37*
G36*
X45354047Y-79300805D02*
G01*
X45405408Y-79306764D01*
X45422954Y-79314511D01*
X45445671Y-79319030D01*
X45469991Y-79335280D01*
X45490793Y-79344465D01*
X45505000Y-79358672D01*
X45526777Y-79373223D01*
X45541327Y-79394999D01*
X45555534Y-79409206D01*
X45564718Y-79430006D01*
X45580970Y-79454329D01*
X45585489Y-79477048D01*
X45593235Y-79494591D01*
X45599192Y-79545940D01*
X45600000Y-79550000D01*
X45600000Y-80450000D01*
X45599192Y-80454059D01*
X45593235Y-80505408D01*
X45585489Y-80522950D01*
X45580970Y-80545671D01*
X45564716Y-80569995D01*
X45555534Y-80590793D01*
X45541329Y-80604997D01*
X45526777Y-80626777D01*
X45504997Y-80641329D01*
X45490793Y-80655534D01*
X45469995Y-80664716D01*
X45445671Y-80680970D01*
X45422950Y-80685489D01*
X45405408Y-80693235D01*
X45354061Y-80699192D01*
X45350000Y-80700000D01*
X44825000Y-80700000D01*
X44820941Y-80699192D01*
X44769591Y-80693235D01*
X44752048Y-80685489D01*
X44729329Y-80680970D01*
X44705006Y-80664718D01*
X44684206Y-80655534D01*
X44669999Y-80641327D01*
X44648223Y-80626777D01*
X44633672Y-80605000D01*
X44619465Y-80590793D01*
X44610280Y-80569991D01*
X44594030Y-80545671D01*
X44589511Y-80522954D01*
X44581764Y-80505408D01*
X44575805Y-80454049D01*
X44575000Y-80450000D01*
X44575000Y-79550000D01*
X44575804Y-79545953D01*
X44581764Y-79494591D01*
X44589511Y-79477043D01*
X44594030Y-79454329D01*
X44610278Y-79430010D01*
X44619465Y-79409206D01*
X44633674Y-79394996D01*
X44648223Y-79373223D01*
X44669996Y-79358674D01*
X44684206Y-79344465D01*
X44705010Y-79335278D01*
X44729329Y-79319030D01*
X44752043Y-79314511D01*
X44769591Y-79306764D01*
X44820952Y-79300805D01*
X44825000Y-79300000D01*
X45350000Y-79300000D01*
X45354047Y-79300805D01*
G37*
G36*
X47179047Y-79300805D02*
G01*
X47230408Y-79306764D01*
X47247954Y-79314511D01*
X47270671Y-79319030D01*
X47294991Y-79335280D01*
X47315793Y-79344465D01*
X47330000Y-79358672D01*
X47351777Y-79373223D01*
X47366327Y-79394999D01*
X47380534Y-79409206D01*
X47389718Y-79430006D01*
X47405970Y-79454329D01*
X47410489Y-79477048D01*
X47418235Y-79494591D01*
X47424192Y-79545940D01*
X47425000Y-79550000D01*
X47425000Y-80450000D01*
X47424192Y-80454059D01*
X47418235Y-80505408D01*
X47410489Y-80522950D01*
X47405970Y-80545671D01*
X47389716Y-80569995D01*
X47380534Y-80590793D01*
X47366329Y-80604997D01*
X47351777Y-80626777D01*
X47329997Y-80641329D01*
X47315793Y-80655534D01*
X47294995Y-80664716D01*
X47270671Y-80680970D01*
X47247950Y-80685489D01*
X47230408Y-80693235D01*
X47179061Y-80699192D01*
X47175000Y-80700000D01*
X46650000Y-80700000D01*
X46645941Y-80699192D01*
X46594591Y-80693235D01*
X46577048Y-80685489D01*
X46554329Y-80680970D01*
X46530006Y-80664718D01*
X46509206Y-80655534D01*
X46494999Y-80641327D01*
X46473223Y-80626777D01*
X46458672Y-80605000D01*
X46444465Y-80590793D01*
X46435280Y-80569991D01*
X46419030Y-80545671D01*
X46414511Y-80522954D01*
X46406764Y-80505408D01*
X46400805Y-80454049D01*
X46400000Y-80450000D01*
X46400000Y-79550000D01*
X46400804Y-79545953D01*
X46406764Y-79494591D01*
X46414511Y-79477043D01*
X46419030Y-79454329D01*
X46435278Y-79430010D01*
X46444465Y-79409206D01*
X46458674Y-79394996D01*
X46473223Y-79373223D01*
X46494996Y-79358674D01*
X46509206Y-79344465D01*
X46530010Y-79335278D01*
X46554329Y-79319030D01*
X46577043Y-79314511D01*
X46594591Y-79306764D01*
X46645952Y-79300805D01*
X46650000Y-79300000D01*
X47175000Y-79300000D01*
X47179047Y-79300805D01*
G37*
G36*
X58246742Y-78206601D02*
G01*
X58400687Y-78270367D01*
X58539234Y-78362941D01*
X58657059Y-78480766D01*
X58749633Y-78619313D01*
X58813399Y-78773258D01*
X58845907Y-78936685D01*
X58845907Y-79103315D01*
X58813399Y-79266742D01*
X58749633Y-79420687D01*
X58657059Y-79559234D01*
X58539234Y-79677059D01*
X58400687Y-79769633D01*
X58246742Y-79833399D01*
X58083315Y-79865907D01*
X57916685Y-79865907D01*
X57753258Y-79833399D01*
X57599313Y-79769633D01*
X57460766Y-79677059D01*
X57342941Y-79559234D01*
X57250367Y-79420687D01*
X57186601Y-79266742D01*
X57154093Y-79103315D01*
X57154093Y-78936685D01*
X57186601Y-78773258D01*
X57250367Y-78619313D01*
X57342941Y-78480766D01*
X57460766Y-78362941D01*
X57599313Y-78270367D01*
X57753258Y-78206601D01*
X57916685Y-78174093D01*
X58083315Y-78174093D01*
X58246742Y-78206601D01*
G37*
G36*
X83646742Y-78206601D02*
G01*
X83800687Y-78270367D01*
X83939234Y-78362941D01*
X84057059Y-78480766D01*
X84149633Y-78619313D01*
X84213399Y-78773258D01*
X84245907Y-78936685D01*
X84245907Y-79103315D01*
X84213399Y-79266742D01*
X84149633Y-79420687D01*
X84057059Y-79559234D01*
X83939234Y-79677059D01*
X83800687Y-79769633D01*
X83646742Y-79833399D01*
X83483315Y-79865907D01*
X83316685Y-79865907D01*
X83153258Y-79833399D01*
X82999313Y-79769633D01*
X82860766Y-79677059D01*
X82742941Y-79559234D01*
X82650367Y-79420687D01*
X82586601Y-79266742D01*
X82554093Y-79103315D01*
X82554093Y-78936685D01*
X82586601Y-78773258D01*
X82650367Y-78619313D01*
X82742941Y-78480766D01*
X82860766Y-78362941D01*
X82999313Y-78270367D01*
X83153258Y-78206601D01*
X83316685Y-78174093D01*
X83483315Y-78174093D01*
X83646742Y-78206601D01*
G37*
G36*
X7290285Y-76043060D02*
G01*
X7471397Y-76118079D01*
X7634393Y-76226990D01*
X7773010Y-76365607D01*
X7881921Y-76528603D01*
X7956940Y-76709715D01*
X7995185Y-76901983D01*
X7995185Y-77098017D01*
X7956940Y-77290285D01*
X7881921Y-77471397D01*
X7773010Y-77634393D01*
X7634393Y-77773010D01*
X7471397Y-77881921D01*
X7290285Y-77956940D01*
X7098017Y-77995185D01*
X6901983Y-77995185D01*
X6709715Y-77956940D01*
X6528603Y-77881921D01*
X6365607Y-77773010D01*
X6226990Y-77634393D01*
X6118079Y-77471397D01*
X6043060Y-77290285D01*
X6004815Y-77098017D01*
X6004815Y-76901983D01*
X6043060Y-76709715D01*
X6118079Y-76528603D01*
X6226990Y-76365607D01*
X6365607Y-76226990D01*
X6528603Y-76118079D01*
X6709715Y-76043060D01*
X6901983Y-76004815D01*
X7098017Y-76004815D01*
X7290285Y-76043060D01*
G37*
G36*
X45354047Y-76300805D02*
G01*
X45405408Y-76306764D01*
X45422954Y-76314511D01*
X45445671Y-76319030D01*
X45469991Y-76335280D01*
X45490793Y-76344465D01*
X45505000Y-76358672D01*
X45526777Y-76373223D01*
X45541327Y-76394999D01*
X45555534Y-76409206D01*
X45564718Y-76430006D01*
X45580970Y-76454329D01*
X45585489Y-76477048D01*
X45593235Y-76494591D01*
X45599192Y-76545940D01*
X45600000Y-76550000D01*
X45600000Y-77450000D01*
X45599192Y-77454059D01*
X45593235Y-77505408D01*
X45585489Y-77522950D01*
X45580970Y-77545671D01*
X45564716Y-77569995D01*
X45555534Y-77590793D01*
X45541329Y-77604997D01*
X45526777Y-77626777D01*
X45504997Y-77641329D01*
X45490793Y-77655534D01*
X45469995Y-77664716D01*
X45445671Y-77680970D01*
X45422950Y-77685489D01*
X45405408Y-77693235D01*
X45354061Y-77699192D01*
X45350000Y-77700000D01*
X44825000Y-77700000D01*
X44820941Y-77699192D01*
X44769591Y-77693235D01*
X44752048Y-77685489D01*
X44729329Y-77680970D01*
X44705006Y-77664718D01*
X44684206Y-77655534D01*
X44669999Y-77641327D01*
X44648223Y-77626777D01*
X44633672Y-77605000D01*
X44619465Y-77590793D01*
X44610280Y-77569991D01*
X44594030Y-77545671D01*
X44589511Y-77522954D01*
X44581764Y-77505408D01*
X44575805Y-77454049D01*
X44575000Y-77450000D01*
X44575000Y-76550000D01*
X44575804Y-76545953D01*
X44581764Y-76494591D01*
X44589511Y-76477043D01*
X44594030Y-76454329D01*
X44610278Y-76430010D01*
X44619465Y-76409206D01*
X44633674Y-76394996D01*
X44648223Y-76373223D01*
X44669996Y-76358674D01*
X44684206Y-76344465D01*
X44705010Y-76335278D01*
X44729329Y-76319030D01*
X44752043Y-76314511D01*
X44769591Y-76306764D01*
X44820952Y-76300805D01*
X44825000Y-76300000D01*
X45350000Y-76300000D01*
X45354047Y-76300805D01*
G37*
G36*
X47179047Y-76300805D02*
G01*
X47230408Y-76306764D01*
X47247954Y-76314511D01*
X47270671Y-76319030D01*
X47294991Y-76335280D01*
X47315793Y-76344465D01*
X47330000Y-76358672D01*
X47351777Y-76373223D01*
X47366327Y-76394999D01*
X47380534Y-76409206D01*
X47389718Y-76430006D01*
X47405970Y-76454329D01*
X47410489Y-76477048D01*
X47418235Y-76494591D01*
X47424192Y-76545940D01*
X47425000Y-76550000D01*
X47425000Y-77450000D01*
X47424192Y-77454059D01*
X47418235Y-77505408D01*
X47410489Y-77522950D01*
X47405970Y-77545671D01*
X47389716Y-77569995D01*
X47380534Y-77590793D01*
X47366329Y-77604997D01*
X47351777Y-77626777D01*
X47329997Y-77641329D01*
X47315793Y-77655534D01*
X47294995Y-77664716D01*
X47270671Y-77680970D01*
X47247950Y-77685489D01*
X47230408Y-77693235D01*
X47179061Y-77699192D01*
X47175000Y-77700000D01*
X46650000Y-77700000D01*
X46645941Y-77699192D01*
X46594591Y-77693235D01*
X46577048Y-77685489D01*
X46554329Y-77680970D01*
X46530006Y-77664718D01*
X46509206Y-77655534D01*
X46494999Y-77641327D01*
X46473223Y-77626777D01*
X46458672Y-77605000D01*
X46444465Y-77590793D01*
X46435280Y-77569991D01*
X46419030Y-77545671D01*
X46414511Y-77522954D01*
X46406764Y-77505408D01*
X46400805Y-77454049D01*
X46400000Y-77450000D01*
X46400000Y-76550000D01*
X46400804Y-76545953D01*
X46406764Y-76494591D01*
X46414511Y-76477043D01*
X46419030Y-76454329D01*
X46435278Y-76430010D01*
X46444465Y-76409206D01*
X46458674Y-76394996D01*
X46473223Y-76373223D01*
X46494996Y-76358674D01*
X46509206Y-76344465D01*
X46530010Y-76335278D01*
X46554329Y-76319030D01*
X46577043Y-76314511D01*
X46594591Y-76306764D01*
X46645952Y-76300805D01*
X46650000Y-76300000D01*
X47175000Y-76300000D01*
X47179047Y-76300805D01*
G37*
G36*
X93354047Y-76300805D02*
G01*
X93405408Y-76306764D01*
X93422954Y-76314511D01*
X93445671Y-76319030D01*
X93469991Y-76335280D01*
X93490793Y-76344465D01*
X93505000Y-76358672D01*
X93526777Y-76373223D01*
X93541327Y-76394999D01*
X93555534Y-76409206D01*
X93564718Y-76430006D01*
X93580970Y-76454329D01*
X93585489Y-76477048D01*
X93593235Y-76494591D01*
X93599192Y-76545940D01*
X93600000Y-76550000D01*
X93600000Y-77450000D01*
X93599192Y-77454059D01*
X93593235Y-77505408D01*
X93585489Y-77522950D01*
X93580970Y-77545671D01*
X93564716Y-77569995D01*
X93555534Y-77590793D01*
X93541329Y-77604997D01*
X93526777Y-77626777D01*
X93504997Y-77641329D01*
X93490793Y-77655534D01*
X93469995Y-77664716D01*
X93445671Y-77680970D01*
X93422950Y-77685489D01*
X93405408Y-77693235D01*
X93354061Y-77699192D01*
X93350000Y-77700000D01*
X92825000Y-77700000D01*
X92820941Y-77699192D01*
X92769591Y-77693235D01*
X92752048Y-77685489D01*
X92729329Y-77680970D01*
X92705006Y-77664718D01*
X92684206Y-77655534D01*
X92669999Y-77641327D01*
X92648223Y-77626777D01*
X92633672Y-77605000D01*
X92619465Y-77590793D01*
X92610280Y-77569991D01*
X92594030Y-77545671D01*
X92589511Y-77522954D01*
X92581764Y-77505408D01*
X92575805Y-77454049D01*
X92575000Y-77450000D01*
X92575000Y-76550000D01*
X92575804Y-76545953D01*
X92581764Y-76494591D01*
X92589511Y-76477043D01*
X92594030Y-76454329D01*
X92610278Y-76430010D01*
X92619465Y-76409206D01*
X92633674Y-76394996D01*
X92648223Y-76373223D01*
X92669996Y-76358674D01*
X92684206Y-76344465D01*
X92705010Y-76335278D01*
X92729329Y-76319030D01*
X92752043Y-76314511D01*
X92769591Y-76306764D01*
X92820952Y-76300805D01*
X92825000Y-76300000D01*
X93350000Y-76300000D01*
X93354047Y-76300805D01*
G37*
G36*
X95179047Y-76300805D02*
G01*
X95230408Y-76306764D01*
X95247954Y-76314511D01*
X95270671Y-76319030D01*
X95294991Y-76335280D01*
X95315793Y-76344465D01*
X95330000Y-76358672D01*
X95351777Y-76373223D01*
X95366327Y-76394999D01*
X95380534Y-76409206D01*
X95389718Y-76430006D01*
X95405970Y-76454329D01*
X95410489Y-76477048D01*
X95418235Y-76494591D01*
X95424192Y-76545940D01*
X95425000Y-76550000D01*
X95425000Y-77450000D01*
X95424192Y-77454059D01*
X95418235Y-77505408D01*
X95410489Y-77522950D01*
X95405970Y-77545671D01*
X95389716Y-77569995D01*
X95380534Y-77590793D01*
X95366329Y-77604997D01*
X95351777Y-77626777D01*
X95329997Y-77641329D01*
X95315793Y-77655534D01*
X95294995Y-77664716D01*
X95270671Y-77680970D01*
X95247950Y-77685489D01*
X95230408Y-77693235D01*
X95179061Y-77699192D01*
X95175000Y-77700000D01*
X94650000Y-77700000D01*
X94645941Y-77699192D01*
X94594591Y-77693235D01*
X94577048Y-77685489D01*
X94554329Y-77680970D01*
X94530006Y-77664718D01*
X94509206Y-77655534D01*
X94494999Y-77641327D01*
X94473223Y-77626777D01*
X94458672Y-77605000D01*
X94444465Y-77590793D01*
X94435280Y-77569991D01*
X94419030Y-77545671D01*
X94414511Y-77522954D01*
X94406764Y-77505408D01*
X94400805Y-77454049D01*
X94400000Y-77450000D01*
X94400000Y-76550000D01*
X94400804Y-76545953D01*
X94406764Y-76494591D01*
X94414511Y-76477043D01*
X94419030Y-76454329D01*
X94435278Y-76430010D01*
X94444465Y-76409206D01*
X94458674Y-76394996D01*
X94473223Y-76373223D01*
X94494996Y-76358674D01*
X94509206Y-76344465D01*
X94530010Y-76335278D01*
X94554329Y-76319030D01*
X94577043Y-76314511D01*
X94594591Y-76306764D01*
X94645952Y-76300805D01*
X94650000Y-76300000D01*
X95175000Y-76300000D01*
X95179047Y-76300805D01*
G37*
G36*
X58246742Y-75666601D02*
G01*
X58400687Y-75730367D01*
X58539234Y-75822941D01*
X58657059Y-75940766D01*
X58749633Y-76079313D01*
X58813399Y-76233258D01*
X58845907Y-76396685D01*
X58845907Y-76563315D01*
X58813399Y-76726742D01*
X58749633Y-76880687D01*
X58657059Y-77019234D01*
X58539234Y-77137059D01*
X58400687Y-77229633D01*
X58246742Y-77293399D01*
X58083315Y-77325907D01*
X57916685Y-77325907D01*
X57753258Y-77293399D01*
X57599313Y-77229633D01*
X57460766Y-77137059D01*
X57342941Y-77019234D01*
X57250367Y-76880687D01*
X57186601Y-76726742D01*
X57154093Y-76563315D01*
X57154093Y-76396685D01*
X57186601Y-76233258D01*
X57250367Y-76079313D01*
X57342941Y-75940766D01*
X57460766Y-75822941D01*
X57599313Y-75730367D01*
X57753258Y-75666601D01*
X57916685Y-75634093D01*
X58083315Y-75634093D01*
X58246742Y-75666601D01*
G37*
G36*
X83646742Y-75666601D02*
G01*
X83800687Y-75730367D01*
X83939234Y-75822941D01*
X84057059Y-75940766D01*
X84149633Y-76079313D01*
X84213399Y-76233258D01*
X84245907Y-76396685D01*
X84245907Y-76563315D01*
X84213399Y-76726742D01*
X84149633Y-76880687D01*
X84057059Y-77019234D01*
X83939234Y-77137059D01*
X83800687Y-77229633D01*
X83646742Y-77293399D01*
X83483315Y-77325907D01*
X83316685Y-77325907D01*
X83153258Y-77293399D01*
X82999313Y-77229633D01*
X82860766Y-77137059D01*
X82742941Y-77019234D01*
X82650367Y-76880687D01*
X82586601Y-76726742D01*
X82554093Y-76563315D01*
X82554093Y-76396685D01*
X82586601Y-76233258D01*
X82650367Y-76079313D01*
X82742941Y-75940766D01*
X82860766Y-75822941D01*
X82999313Y-75730367D01*
X83153258Y-75666601D01*
X83316685Y-75634093D01*
X83483315Y-75634093D01*
X83646742Y-75666601D01*
G37*
G36*
X32246742Y-73726601D02*
G01*
X32400687Y-73790367D01*
X32539234Y-73882941D01*
X32657059Y-74000766D01*
X32749633Y-74139313D01*
X32813399Y-74293258D01*
X32845907Y-74456685D01*
X32845907Y-74623315D01*
X32813399Y-74786742D01*
X32749633Y-74940687D01*
X32657059Y-75079234D01*
X32539234Y-75197059D01*
X32400687Y-75289633D01*
X32246742Y-75353399D01*
X32083315Y-75385907D01*
X31916685Y-75385907D01*
X31753258Y-75353399D01*
X31599313Y-75289633D01*
X31460766Y-75197059D01*
X31342941Y-75079234D01*
X31250367Y-74940687D01*
X31186601Y-74786742D01*
X31154093Y-74623315D01*
X31154093Y-74456685D01*
X31186601Y-74293258D01*
X31250367Y-74139313D01*
X31342941Y-74000766D01*
X31460766Y-73882941D01*
X31599313Y-73790367D01*
X31753258Y-73726601D01*
X31916685Y-73694093D01*
X32083315Y-73694093D01*
X32246742Y-73726601D01*
G37*
G36*
X58246742Y-73126601D02*
G01*
X58400687Y-73190367D01*
X58539234Y-73282941D01*
X58657059Y-73400766D01*
X58749633Y-73539313D01*
X58813399Y-73693258D01*
X58845907Y-73856685D01*
X58845907Y-74023315D01*
X58813399Y-74186742D01*
X58749633Y-74340687D01*
X58657059Y-74479234D01*
X58539234Y-74597059D01*
X58400687Y-74689633D01*
X58246742Y-74753399D01*
X58083315Y-74785907D01*
X57916685Y-74785907D01*
X57753258Y-74753399D01*
X57599313Y-74689633D01*
X57460766Y-74597059D01*
X57342941Y-74479234D01*
X57250367Y-74340687D01*
X57186601Y-74186742D01*
X57154093Y-74023315D01*
X57154093Y-73856685D01*
X57186601Y-73693258D01*
X57250367Y-73539313D01*
X57342941Y-73400766D01*
X57460766Y-73282941D01*
X57599313Y-73190367D01*
X57753258Y-73126601D01*
X57916685Y-73094093D01*
X58083315Y-73094093D01*
X58246742Y-73126601D01*
G37*
G36*
X83646742Y-73126601D02*
G01*
X83800687Y-73190367D01*
X83939234Y-73282941D01*
X84057059Y-73400766D01*
X84149633Y-73539313D01*
X84213399Y-73693258D01*
X84245907Y-73856685D01*
X84245907Y-74023315D01*
X84213399Y-74186742D01*
X84149633Y-74340687D01*
X84057059Y-74479234D01*
X83939234Y-74597059D01*
X83800687Y-74689633D01*
X83646742Y-74753399D01*
X83483315Y-74785907D01*
X83316685Y-74785907D01*
X83153258Y-74753399D01*
X82999313Y-74689633D01*
X82860766Y-74597059D01*
X82742941Y-74479234D01*
X82650367Y-74340687D01*
X82586601Y-74186742D01*
X82554093Y-74023315D01*
X82554093Y-73856685D01*
X82586601Y-73693258D01*
X82650367Y-73539313D01*
X82742941Y-73400766D01*
X82860766Y-73282941D01*
X82999313Y-73190367D01*
X83153258Y-73126601D01*
X83316685Y-73094093D01*
X83483315Y-73094093D01*
X83646742Y-73126601D01*
G37*
G36*
X19354047Y-73300805D02*
G01*
X19405408Y-73306764D01*
X19422954Y-73314511D01*
X19445671Y-73319030D01*
X19469991Y-73335280D01*
X19490793Y-73344465D01*
X19505000Y-73358672D01*
X19526777Y-73373223D01*
X19541327Y-73394999D01*
X19555534Y-73409206D01*
X19564718Y-73430006D01*
X19580970Y-73454329D01*
X19585489Y-73477048D01*
X19593235Y-73494591D01*
X19599192Y-73545940D01*
X19600000Y-73550000D01*
X19600000Y-74450000D01*
X19599192Y-74454059D01*
X19593235Y-74505408D01*
X19585489Y-74522950D01*
X19580970Y-74545671D01*
X19564716Y-74569995D01*
X19555534Y-74590793D01*
X19541329Y-74604997D01*
X19526777Y-74626777D01*
X19504997Y-74641329D01*
X19490793Y-74655534D01*
X19469995Y-74664716D01*
X19445671Y-74680970D01*
X19422950Y-74685489D01*
X19405408Y-74693235D01*
X19354061Y-74699192D01*
X19350000Y-74700000D01*
X18825000Y-74700000D01*
X18820941Y-74699192D01*
X18769591Y-74693235D01*
X18752048Y-74685489D01*
X18729329Y-74680970D01*
X18705006Y-74664718D01*
X18684206Y-74655534D01*
X18669999Y-74641327D01*
X18648223Y-74626777D01*
X18633672Y-74605000D01*
X18619465Y-74590793D01*
X18610280Y-74569991D01*
X18594030Y-74545671D01*
X18589511Y-74522954D01*
X18581764Y-74505408D01*
X18575805Y-74454049D01*
X18575000Y-74450000D01*
X18575000Y-73550000D01*
X18575804Y-73545953D01*
X18581764Y-73494591D01*
X18589511Y-73477043D01*
X18594030Y-73454329D01*
X18610278Y-73430010D01*
X18619465Y-73409206D01*
X18633674Y-73394996D01*
X18648223Y-73373223D01*
X18669996Y-73358674D01*
X18684206Y-73344465D01*
X18705010Y-73335278D01*
X18729329Y-73319030D01*
X18752043Y-73314511D01*
X18769591Y-73306764D01*
X18820952Y-73300805D01*
X18825000Y-73300000D01*
X19350000Y-73300000D01*
X19354047Y-73300805D01*
G37*
G36*
X21179047Y-73300805D02*
G01*
X21230408Y-73306764D01*
X21247954Y-73314511D01*
X21270671Y-73319030D01*
X21294991Y-73335280D01*
X21315793Y-73344465D01*
X21330000Y-73358672D01*
X21351777Y-73373223D01*
X21366327Y-73394999D01*
X21380534Y-73409206D01*
X21389718Y-73430006D01*
X21405970Y-73454329D01*
X21410489Y-73477048D01*
X21418235Y-73494591D01*
X21424192Y-73545940D01*
X21425000Y-73550000D01*
X21425000Y-74450000D01*
X21424192Y-74454059D01*
X21418235Y-74505408D01*
X21410489Y-74522950D01*
X21405970Y-74545671D01*
X21389716Y-74569995D01*
X21380534Y-74590793D01*
X21366329Y-74604997D01*
X21351777Y-74626777D01*
X21329997Y-74641329D01*
X21315793Y-74655534D01*
X21294995Y-74664716D01*
X21270671Y-74680970D01*
X21247950Y-74685489D01*
X21230408Y-74693235D01*
X21179061Y-74699192D01*
X21175000Y-74700000D01*
X20650000Y-74700000D01*
X20645941Y-74699192D01*
X20594591Y-74693235D01*
X20577048Y-74685489D01*
X20554329Y-74680970D01*
X20530006Y-74664718D01*
X20509206Y-74655534D01*
X20494999Y-74641327D01*
X20473223Y-74626777D01*
X20458672Y-74605000D01*
X20444465Y-74590793D01*
X20435280Y-74569991D01*
X20419030Y-74545671D01*
X20414511Y-74522954D01*
X20406764Y-74505408D01*
X20400805Y-74454049D01*
X20400000Y-74450000D01*
X20400000Y-73550000D01*
X20400804Y-73545953D01*
X20406764Y-73494591D01*
X20414511Y-73477043D01*
X20419030Y-73454329D01*
X20435278Y-73430010D01*
X20444465Y-73409206D01*
X20458674Y-73394996D01*
X20473223Y-73373223D01*
X20494996Y-73358674D01*
X20509206Y-73344465D01*
X20530010Y-73335278D01*
X20554329Y-73319030D01*
X20577043Y-73314511D01*
X20594591Y-73306764D01*
X20645952Y-73300805D01*
X20650000Y-73300000D01*
X21175000Y-73300000D01*
X21179047Y-73300805D01*
G37*
G36*
X45354047Y-73300805D02*
G01*
X45405408Y-73306764D01*
X45422954Y-73314511D01*
X45445671Y-73319030D01*
X45469991Y-73335280D01*
X45490793Y-73344465D01*
X45505000Y-73358672D01*
X45526777Y-73373223D01*
X45541327Y-73394999D01*
X45555534Y-73409206D01*
X45564718Y-73430006D01*
X45580970Y-73454329D01*
X45585489Y-73477048D01*
X45593235Y-73494591D01*
X45599192Y-73545940D01*
X45600000Y-73550000D01*
X45600000Y-74450000D01*
X45599192Y-74454059D01*
X45593235Y-74505408D01*
X45585489Y-74522950D01*
X45580970Y-74545671D01*
X45564716Y-74569995D01*
X45555534Y-74590793D01*
X45541329Y-74604997D01*
X45526777Y-74626777D01*
X45504997Y-74641329D01*
X45490793Y-74655534D01*
X45469995Y-74664716D01*
X45445671Y-74680970D01*
X45422950Y-74685489D01*
X45405408Y-74693235D01*
X45354061Y-74699192D01*
X45350000Y-74700000D01*
X44825000Y-74700000D01*
X44820941Y-74699192D01*
X44769591Y-74693235D01*
X44752048Y-74685489D01*
X44729329Y-74680970D01*
X44705006Y-74664718D01*
X44684206Y-74655534D01*
X44669999Y-74641327D01*
X44648223Y-74626777D01*
X44633672Y-74605000D01*
X44619465Y-74590793D01*
X44610280Y-74569991D01*
X44594030Y-74545671D01*
X44589511Y-74522954D01*
X44581764Y-74505408D01*
X44575805Y-74454049D01*
X44575000Y-74450000D01*
X44575000Y-73550000D01*
X44575804Y-73545953D01*
X44581764Y-73494591D01*
X44589511Y-73477043D01*
X44594030Y-73454329D01*
X44610278Y-73430010D01*
X44619465Y-73409206D01*
X44633674Y-73394996D01*
X44648223Y-73373223D01*
X44669996Y-73358674D01*
X44684206Y-73344465D01*
X44705010Y-73335278D01*
X44729329Y-73319030D01*
X44752043Y-73314511D01*
X44769591Y-73306764D01*
X44820952Y-73300805D01*
X44825000Y-73300000D01*
X45350000Y-73300000D01*
X45354047Y-73300805D01*
G37*
G36*
X47179047Y-73300805D02*
G01*
X47230408Y-73306764D01*
X47247954Y-73314511D01*
X47270671Y-73319030D01*
X47294991Y-73335280D01*
X47315793Y-73344465D01*
X47330000Y-73358672D01*
X47351777Y-73373223D01*
X47366327Y-73394999D01*
X47380534Y-73409206D01*
X47389718Y-73430006D01*
X47405970Y-73454329D01*
X47410489Y-73477048D01*
X47418235Y-73494591D01*
X47424192Y-73545940D01*
X47425000Y-73550000D01*
X47425000Y-74450000D01*
X47424192Y-74454059D01*
X47418235Y-74505408D01*
X47410489Y-74522950D01*
X47405970Y-74545671D01*
X47389716Y-74569995D01*
X47380534Y-74590793D01*
X47366329Y-74604997D01*
X47351777Y-74626777D01*
X47329997Y-74641329D01*
X47315793Y-74655534D01*
X47294995Y-74664716D01*
X47270671Y-74680970D01*
X47247950Y-74685489D01*
X47230408Y-74693235D01*
X47179061Y-74699192D01*
X47175000Y-74700000D01*
X46650000Y-74700000D01*
X46645941Y-74699192D01*
X46594591Y-74693235D01*
X46577048Y-74685489D01*
X46554329Y-74680970D01*
X46530006Y-74664718D01*
X46509206Y-74655534D01*
X46494999Y-74641327D01*
X46473223Y-74626777D01*
X46458672Y-74605000D01*
X46444465Y-74590793D01*
X46435280Y-74569991D01*
X46419030Y-74545671D01*
X46414511Y-74522954D01*
X46406764Y-74505408D01*
X46400805Y-74454049D01*
X46400000Y-74450000D01*
X46400000Y-73550000D01*
X46400804Y-73545953D01*
X46406764Y-73494591D01*
X46414511Y-73477043D01*
X46419030Y-73454329D01*
X46435278Y-73430010D01*
X46444465Y-73409206D01*
X46458674Y-73394996D01*
X46473223Y-73373223D01*
X46494996Y-73358674D01*
X46509206Y-73344465D01*
X46530010Y-73335278D01*
X46554329Y-73319030D01*
X46577043Y-73314511D01*
X46594591Y-73306764D01*
X46645952Y-73300805D01*
X46650000Y-73300000D01*
X47175000Y-73300000D01*
X47179047Y-73300805D01*
G37*
G36*
X93354047Y-72300805D02*
G01*
X93405408Y-72306764D01*
X93422954Y-72314511D01*
X93445671Y-72319030D01*
X93469991Y-72335280D01*
X93490793Y-72344465D01*
X93505000Y-72358672D01*
X93526777Y-72373223D01*
X93541327Y-72394999D01*
X93555534Y-72409206D01*
X93564718Y-72430006D01*
X93580970Y-72454329D01*
X93585489Y-72477048D01*
X93593235Y-72494591D01*
X93599192Y-72545940D01*
X93600000Y-72550000D01*
X93600000Y-73450000D01*
X93599192Y-73454059D01*
X93593235Y-73505408D01*
X93585489Y-73522950D01*
X93580970Y-73545671D01*
X93564716Y-73569995D01*
X93555534Y-73590793D01*
X93541329Y-73604997D01*
X93526777Y-73626777D01*
X93504997Y-73641329D01*
X93490793Y-73655534D01*
X93469995Y-73664716D01*
X93445671Y-73680970D01*
X93422950Y-73685489D01*
X93405408Y-73693235D01*
X93354061Y-73699192D01*
X93350000Y-73700000D01*
X92825000Y-73700000D01*
X92820941Y-73699192D01*
X92769591Y-73693235D01*
X92752048Y-73685489D01*
X92729329Y-73680970D01*
X92705006Y-73664718D01*
X92684206Y-73655534D01*
X92669999Y-73641327D01*
X92648223Y-73626777D01*
X92633672Y-73605000D01*
X92619465Y-73590793D01*
X92610280Y-73569991D01*
X92594030Y-73545671D01*
X92589511Y-73522954D01*
X92581764Y-73505408D01*
X92575805Y-73454049D01*
X92575000Y-73450000D01*
X92575000Y-72550000D01*
X92575804Y-72545953D01*
X92581764Y-72494591D01*
X92589511Y-72477043D01*
X92594030Y-72454329D01*
X92610278Y-72430010D01*
X92619465Y-72409206D01*
X92633674Y-72394996D01*
X92648223Y-72373223D01*
X92669996Y-72358674D01*
X92684206Y-72344465D01*
X92705010Y-72335278D01*
X92729329Y-72319030D01*
X92752043Y-72314511D01*
X92769591Y-72306764D01*
X92820952Y-72300805D01*
X92825000Y-72300000D01*
X93350000Y-72300000D01*
X93354047Y-72300805D01*
G37*
G36*
X95179047Y-72300805D02*
G01*
X95230408Y-72306764D01*
X95247954Y-72314511D01*
X95270671Y-72319030D01*
X95294991Y-72335280D01*
X95315793Y-72344465D01*
X95330000Y-72358672D01*
X95351777Y-72373223D01*
X95366327Y-72394999D01*
X95380534Y-72409206D01*
X95389718Y-72430006D01*
X95405970Y-72454329D01*
X95410489Y-72477048D01*
X95418235Y-72494591D01*
X95424192Y-72545940D01*
X95425000Y-72550000D01*
X95425000Y-73450000D01*
X95424192Y-73454059D01*
X95418235Y-73505408D01*
X95410489Y-73522950D01*
X95405970Y-73545671D01*
X95389716Y-73569995D01*
X95380534Y-73590793D01*
X95366329Y-73604997D01*
X95351777Y-73626777D01*
X95329997Y-73641329D01*
X95315793Y-73655534D01*
X95294995Y-73664716D01*
X95270671Y-73680970D01*
X95247950Y-73685489D01*
X95230408Y-73693235D01*
X95179061Y-73699192D01*
X95175000Y-73700000D01*
X94650000Y-73700000D01*
X94645941Y-73699192D01*
X94594591Y-73693235D01*
X94577048Y-73685489D01*
X94554329Y-73680970D01*
X94530006Y-73664718D01*
X94509206Y-73655534D01*
X94494999Y-73641327D01*
X94473223Y-73626777D01*
X94458672Y-73605000D01*
X94444465Y-73590793D01*
X94435280Y-73569991D01*
X94419030Y-73545671D01*
X94414511Y-73522954D01*
X94406764Y-73505408D01*
X94400805Y-73454049D01*
X94400000Y-73450000D01*
X94400000Y-72550000D01*
X94400804Y-72545953D01*
X94406764Y-72494591D01*
X94414511Y-72477043D01*
X94419030Y-72454329D01*
X94435278Y-72430010D01*
X94444465Y-72409206D01*
X94458674Y-72394996D01*
X94473223Y-72373223D01*
X94494996Y-72358674D01*
X94509206Y-72344465D01*
X94530010Y-72335278D01*
X94554329Y-72319030D01*
X94577043Y-72314511D01*
X94594591Y-72306764D01*
X94645952Y-72300805D01*
X94650000Y-72300000D01*
X95175000Y-72300000D01*
X95179047Y-72300805D01*
G37*
G36*
X32850000Y-72850000D02*
G01*
X31150000Y-72850000D01*
X31150000Y-71150000D01*
X32850000Y-71150000D01*
X32850000Y-72850000D01*
G37*
G36*
X58246742Y-70586601D02*
G01*
X58400687Y-70650367D01*
X58539234Y-70742941D01*
X58657059Y-70860766D01*
X58749633Y-70999313D01*
X58813399Y-71153258D01*
X58845907Y-71316685D01*
X58845907Y-71483315D01*
X58813399Y-71646742D01*
X58749633Y-71800687D01*
X58657059Y-71939234D01*
X58539234Y-72057059D01*
X58400687Y-72149633D01*
X58246742Y-72213399D01*
X58083315Y-72245907D01*
X57916685Y-72245907D01*
X57753258Y-72213399D01*
X57599313Y-72149633D01*
X57460766Y-72057059D01*
X57342941Y-71939234D01*
X57250367Y-71800687D01*
X57186601Y-71646742D01*
X57154093Y-71483315D01*
X57154093Y-71316685D01*
X57186601Y-71153258D01*
X57250367Y-70999313D01*
X57342941Y-70860766D01*
X57460766Y-70742941D01*
X57599313Y-70650367D01*
X57753258Y-70586601D01*
X57916685Y-70554093D01*
X58083315Y-70554093D01*
X58246742Y-70586601D01*
G37*
G36*
X83646742Y-70586601D02*
G01*
X83800687Y-70650367D01*
X83939234Y-70742941D01*
X84057059Y-70860766D01*
X84149633Y-70999313D01*
X84213399Y-71153258D01*
X84245907Y-71316685D01*
X84245907Y-71483315D01*
X84213399Y-71646742D01*
X84149633Y-71800687D01*
X84057059Y-71939234D01*
X83939234Y-72057059D01*
X83800687Y-72149633D01*
X83646742Y-72213399D01*
X83483315Y-72245907D01*
X83316685Y-72245907D01*
X83153258Y-72213399D01*
X82999313Y-72149633D01*
X82860766Y-72057059D01*
X82742941Y-71939234D01*
X82650367Y-71800687D01*
X82586601Y-71646742D01*
X82554093Y-71483315D01*
X82554093Y-71316685D01*
X82586601Y-71153258D01*
X82650367Y-70999313D01*
X82742941Y-70860766D01*
X82860766Y-70742941D01*
X82999313Y-70650367D01*
X83153258Y-70586601D01*
X83316685Y-70554093D01*
X83483315Y-70554093D01*
X83646742Y-70586601D01*
G37*
G36*
X7290285Y-70043060D02*
G01*
X7471397Y-70118079D01*
X7634393Y-70226990D01*
X7773010Y-70365607D01*
X7881921Y-70528603D01*
X7956940Y-70709715D01*
X7995185Y-70901983D01*
X7995185Y-71098017D01*
X7956940Y-71290285D01*
X7881921Y-71471397D01*
X7773010Y-71634393D01*
X7634393Y-71773010D01*
X7471397Y-71881921D01*
X7290285Y-71956940D01*
X7098017Y-71995185D01*
X6901983Y-71995185D01*
X6709715Y-71956940D01*
X6528603Y-71881921D01*
X6365607Y-71773010D01*
X6226990Y-71634393D01*
X6118079Y-71471397D01*
X6043060Y-71290285D01*
X6004815Y-71098017D01*
X6004815Y-70901983D01*
X6043060Y-70709715D01*
X6118079Y-70528603D01*
X6226990Y-70365607D01*
X6365607Y-70226990D01*
X6528603Y-70118079D01*
X6709715Y-70043060D01*
X6901983Y-70004815D01*
X7098017Y-70004815D01*
X7290285Y-70043060D01*
G37*
G36*
X45354047Y-70300805D02*
G01*
X45405408Y-70306764D01*
X45422954Y-70314511D01*
X45445671Y-70319030D01*
X45469991Y-70335280D01*
X45490793Y-70344465D01*
X45505000Y-70358672D01*
X45526777Y-70373223D01*
X45541327Y-70394999D01*
X45555534Y-70409206D01*
X45564718Y-70430006D01*
X45580970Y-70454329D01*
X45585489Y-70477048D01*
X45593235Y-70494591D01*
X45599192Y-70545940D01*
X45600000Y-70550000D01*
X45600000Y-71450000D01*
X45599192Y-71454059D01*
X45593235Y-71505408D01*
X45585489Y-71522950D01*
X45580970Y-71545671D01*
X45564716Y-71569995D01*
X45555534Y-71590793D01*
X45541329Y-71604997D01*
X45526777Y-71626777D01*
X45504997Y-71641329D01*
X45490793Y-71655534D01*
X45469995Y-71664716D01*
X45445671Y-71680970D01*
X45422950Y-71685489D01*
X45405408Y-71693235D01*
X45354061Y-71699192D01*
X45350000Y-71700000D01*
X44825000Y-71700000D01*
X44820941Y-71699192D01*
X44769591Y-71693235D01*
X44752048Y-71685489D01*
X44729329Y-71680970D01*
X44705006Y-71664718D01*
X44684206Y-71655534D01*
X44669999Y-71641327D01*
X44648223Y-71626777D01*
X44633672Y-71605000D01*
X44619465Y-71590793D01*
X44610280Y-71569991D01*
X44594030Y-71545671D01*
X44589511Y-71522954D01*
X44581764Y-71505408D01*
X44575805Y-71454049D01*
X44575000Y-71450000D01*
X44575000Y-70550000D01*
X44575804Y-70545953D01*
X44581764Y-70494591D01*
X44589511Y-70477043D01*
X44594030Y-70454329D01*
X44610278Y-70430010D01*
X44619465Y-70409206D01*
X44633674Y-70394996D01*
X44648223Y-70373223D01*
X44669996Y-70358674D01*
X44684206Y-70344465D01*
X44705010Y-70335278D01*
X44729329Y-70319030D01*
X44752043Y-70314511D01*
X44769591Y-70306764D01*
X44820952Y-70300805D01*
X44825000Y-70300000D01*
X45350000Y-70300000D01*
X45354047Y-70300805D01*
G37*
G36*
X47179047Y-70300805D02*
G01*
X47230408Y-70306764D01*
X47247954Y-70314511D01*
X47270671Y-70319030D01*
X47294991Y-70335280D01*
X47315793Y-70344465D01*
X47330000Y-70358672D01*
X47351777Y-70373223D01*
X47366327Y-70394999D01*
X47380534Y-70409206D01*
X47389718Y-70430006D01*
X47405970Y-70454329D01*
X47410489Y-70477048D01*
X47418235Y-70494591D01*
X47424192Y-70545940D01*
X47425000Y-70550000D01*
X47425000Y-71450000D01*
X47424192Y-71454059D01*
X47418235Y-71505408D01*
X47410489Y-71522950D01*
X47405970Y-71545671D01*
X47389716Y-71569995D01*
X47380534Y-71590793D01*
X47366329Y-71604997D01*
X47351777Y-71626777D01*
X47329997Y-71641329D01*
X47315793Y-71655534D01*
X47294995Y-71664716D01*
X47270671Y-71680970D01*
X47247950Y-71685489D01*
X47230408Y-71693235D01*
X47179061Y-71699192D01*
X47175000Y-71700000D01*
X46650000Y-71700000D01*
X46645941Y-71699192D01*
X46594591Y-71693235D01*
X46577048Y-71685489D01*
X46554329Y-71680970D01*
X46530006Y-71664718D01*
X46509206Y-71655534D01*
X46494999Y-71641327D01*
X46473223Y-71626777D01*
X46458672Y-71605000D01*
X46444465Y-71590793D01*
X46435280Y-71569991D01*
X46419030Y-71545671D01*
X46414511Y-71522954D01*
X46406764Y-71505408D01*
X46400805Y-71454049D01*
X46400000Y-71450000D01*
X46400000Y-70550000D01*
X46400804Y-70545953D01*
X46406764Y-70494591D01*
X46414511Y-70477043D01*
X46419030Y-70454329D01*
X46435278Y-70430010D01*
X46444465Y-70409206D01*
X46458674Y-70394996D01*
X46473223Y-70373223D01*
X46494996Y-70358674D01*
X46509206Y-70344465D01*
X46530010Y-70335278D01*
X46554329Y-70319030D01*
X46577043Y-70314511D01*
X46594591Y-70306764D01*
X46645952Y-70300805D01*
X46650000Y-70300000D01*
X47175000Y-70300000D01*
X47179047Y-70300805D01*
G37*
G36*
X19354047Y-69300805D02*
G01*
X19405408Y-69306764D01*
X19422954Y-69314511D01*
X19445671Y-69319030D01*
X19469991Y-69335280D01*
X19490793Y-69344465D01*
X19505000Y-69358672D01*
X19526777Y-69373223D01*
X19541327Y-69394999D01*
X19555534Y-69409206D01*
X19564718Y-69430006D01*
X19580970Y-69454329D01*
X19585489Y-69477048D01*
X19593235Y-69494591D01*
X19599192Y-69545940D01*
X19600000Y-69550000D01*
X19600000Y-70450000D01*
X19599192Y-70454059D01*
X19593235Y-70505408D01*
X19585489Y-70522950D01*
X19580970Y-70545671D01*
X19564716Y-70569995D01*
X19555534Y-70590793D01*
X19541329Y-70604997D01*
X19526777Y-70626777D01*
X19504997Y-70641329D01*
X19490793Y-70655534D01*
X19469995Y-70664716D01*
X19445671Y-70680970D01*
X19422950Y-70685489D01*
X19405408Y-70693235D01*
X19354061Y-70699192D01*
X19350000Y-70700000D01*
X18825000Y-70700000D01*
X18820941Y-70699192D01*
X18769591Y-70693235D01*
X18752048Y-70685489D01*
X18729329Y-70680970D01*
X18705006Y-70664718D01*
X18684206Y-70655534D01*
X18669999Y-70641327D01*
X18648223Y-70626777D01*
X18633672Y-70605000D01*
X18619465Y-70590793D01*
X18610280Y-70569991D01*
X18594030Y-70545671D01*
X18589511Y-70522954D01*
X18581764Y-70505408D01*
X18575805Y-70454049D01*
X18575000Y-70450000D01*
X18575000Y-69550000D01*
X18575804Y-69545953D01*
X18581764Y-69494591D01*
X18589511Y-69477043D01*
X18594030Y-69454329D01*
X18610278Y-69430010D01*
X18619465Y-69409206D01*
X18633674Y-69394996D01*
X18648223Y-69373223D01*
X18669996Y-69358674D01*
X18684206Y-69344465D01*
X18705010Y-69335278D01*
X18729329Y-69319030D01*
X18752043Y-69314511D01*
X18769591Y-69306764D01*
X18820952Y-69300805D01*
X18825000Y-69300000D01*
X19350000Y-69300000D01*
X19354047Y-69300805D01*
G37*
G36*
X21179047Y-69300805D02*
G01*
X21230408Y-69306764D01*
X21247954Y-69314511D01*
X21270671Y-69319030D01*
X21294991Y-69335280D01*
X21315793Y-69344465D01*
X21330000Y-69358672D01*
X21351777Y-69373223D01*
X21366327Y-69394999D01*
X21380534Y-69409206D01*
X21389718Y-69430006D01*
X21405970Y-69454329D01*
X21410489Y-69477048D01*
X21418235Y-69494591D01*
X21424192Y-69545940D01*
X21425000Y-69550000D01*
X21425000Y-70450000D01*
X21424192Y-70454059D01*
X21418235Y-70505408D01*
X21410489Y-70522950D01*
X21405970Y-70545671D01*
X21389716Y-70569995D01*
X21380534Y-70590793D01*
X21366329Y-70604997D01*
X21351777Y-70626777D01*
X21329997Y-70641329D01*
X21315793Y-70655534D01*
X21294995Y-70664716D01*
X21270671Y-70680970D01*
X21247950Y-70685489D01*
X21230408Y-70693235D01*
X21179061Y-70699192D01*
X21175000Y-70700000D01*
X20650000Y-70700000D01*
X20645941Y-70699192D01*
X20594591Y-70693235D01*
X20577048Y-70685489D01*
X20554329Y-70680970D01*
X20530006Y-70664718D01*
X20509206Y-70655534D01*
X20494999Y-70641327D01*
X20473223Y-70626777D01*
X20458672Y-70605000D01*
X20444465Y-70590793D01*
X20435280Y-70569991D01*
X20419030Y-70545671D01*
X20414511Y-70522954D01*
X20406764Y-70505408D01*
X20400805Y-70454049D01*
X20400000Y-70450000D01*
X20400000Y-69550000D01*
X20400804Y-69545953D01*
X20406764Y-69494591D01*
X20414511Y-69477043D01*
X20419030Y-69454329D01*
X20435278Y-69430010D01*
X20444465Y-69409206D01*
X20458674Y-69394996D01*
X20473223Y-69373223D01*
X20494996Y-69358674D01*
X20509206Y-69344465D01*
X20530010Y-69335278D01*
X20554329Y-69319030D01*
X20577043Y-69314511D01*
X20594591Y-69306764D01*
X20645952Y-69300805D01*
X20650000Y-69300000D01*
X21175000Y-69300000D01*
X21179047Y-69300805D01*
G37*
G36*
X58246742Y-68046601D02*
G01*
X58400687Y-68110367D01*
X58539234Y-68202941D01*
X58657059Y-68320766D01*
X58749633Y-68459313D01*
X58813399Y-68613258D01*
X58845907Y-68776685D01*
X58845907Y-68943315D01*
X58813399Y-69106742D01*
X58749633Y-69260687D01*
X58657059Y-69399234D01*
X58539234Y-69517059D01*
X58400687Y-69609633D01*
X58246742Y-69673399D01*
X58083315Y-69705907D01*
X57916685Y-69705907D01*
X57753258Y-69673399D01*
X57599313Y-69609633D01*
X57460766Y-69517059D01*
X57342941Y-69399234D01*
X57250367Y-69260687D01*
X57186601Y-69106742D01*
X57154093Y-68943315D01*
X57154093Y-68776685D01*
X57186601Y-68613258D01*
X57250367Y-68459313D01*
X57342941Y-68320766D01*
X57460766Y-68202941D01*
X57599313Y-68110367D01*
X57753258Y-68046601D01*
X57916685Y-68014093D01*
X58083315Y-68014093D01*
X58246742Y-68046601D01*
G37*
G36*
X83646742Y-68046601D02*
G01*
X83800687Y-68110367D01*
X83939234Y-68202941D01*
X84057059Y-68320766D01*
X84149633Y-68459313D01*
X84213399Y-68613258D01*
X84245907Y-68776685D01*
X84245907Y-68943315D01*
X84213399Y-69106742D01*
X84149633Y-69260687D01*
X84057059Y-69399234D01*
X83939234Y-69517059D01*
X83800687Y-69609633D01*
X83646742Y-69673399D01*
X83483315Y-69705907D01*
X83316685Y-69705907D01*
X83153258Y-69673399D01*
X82999313Y-69609633D01*
X82860766Y-69517059D01*
X82742941Y-69399234D01*
X82650367Y-69260687D01*
X82586601Y-69106742D01*
X82554093Y-68943315D01*
X82554093Y-68776685D01*
X82586601Y-68613258D01*
X82650367Y-68459313D01*
X82742941Y-68320766D01*
X82860766Y-68202941D01*
X82999313Y-68110367D01*
X83153258Y-68046601D01*
X83316685Y-68014093D01*
X83483315Y-68014093D01*
X83646742Y-68046601D01*
G37*
G36*
X93354047Y-68300805D02*
G01*
X93405408Y-68306764D01*
X93422954Y-68314511D01*
X93445671Y-68319030D01*
X93469991Y-68335280D01*
X93490793Y-68344465D01*
X93505000Y-68358672D01*
X93526777Y-68373223D01*
X93541327Y-68394999D01*
X93555534Y-68409206D01*
X93564718Y-68430006D01*
X93580970Y-68454329D01*
X93585489Y-68477048D01*
X93593235Y-68494591D01*
X93599192Y-68545940D01*
X93600000Y-68550000D01*
X93600000Y-69450000D01*
X93599192Y-69454059D01*
X93593235Y-69505408D01*
X93585489Y-69522950D01*
X93580970Y-69545671D01*
X93564716Y-69569995D01*
X93555534Y-69590793D01*
X93541329Y-69604997D01*
X93526777Y-69626777D01*
X93504997Y-69641329D01*
X93490793Y-69655534D01*
X93469995Y-69664716D01*
X93445671Y-69680970D01*
X93422950Y-69685489D01*
X93405408Y-69693235D01*
X93354061Y-69699192D01*
X93350000Y-69700000D01*
X92825000Y-69700000D01*
X92820941Y-69699192D01*
X92769591Y-69693235D01*
X92752048Y-69685489D01*
X92729329Y-69680970D01*
X92705006Y-69664718D01*
X92684206Y-69655534D01*
X92669999Y-69641327D01*
X92648223Y-69626777D01*
X92633672Y-69605000D01*
X92619465Y-69590793D01*
X92610280Y-69569991D01*
X92594030Y-69545671D01*
X92589511Y-69522954D01*
X92581764Y-69505408D01*
X92575805Y-69454049D01*
X92575000Y-69450000D01*
X92575000Y-68550000D01*
X92575804Y-68545953D01*
X92581764Y-68494591D01*
X92589511Y-68477043D01*
X92594030Y-68454329D01*
X92610278Y-68430010D01*
X92619465Y-68409206D01*
X92633674Y-68394996D01*
X92648223Y-68373223D01*
X92669996Y-68358674D01*
X92684206Y-68344465D01*
X92705010Y-68335278D01*
X92729329Y-68319030D01*
X92752043Y-68314511D01*
X92769591Y-68306764D01*
X92820952Y-68300805D01*
X92825000Y-68300000D01*
X93350000Y-68300000D01*
X93354047Y-68300805D01*
G37*
G36*
X95179047Y-68300805D02*
G01*
X95230408Y-68306764D01*
X95247954Y-68314511D01*
X95270671Y-68319030D01*
X95294991Y-68335280D01*
X95315793Y-68344465D01*
X95330000Y-68358672D01*
X95351777Y-68373223D01*
X95366327Y-68394999D01*
X95380534Y-68409206D01*
X95389718Y-68430006D01*
X95405970Y-68454329D01*
X95410489Y-68477048D01*
X95418235Y-68494591D01*
X95424192Y-68545940D01*
X95425000Y-68550000D01*
X95425000Y-69450000D01*
X95424192Y-69454059D01*
X95418235Y-69505408D01*
X95410489Y-69522950D01*
X95405970Y-69545671D01*
X95389716Y-69569995D01*
X95380534Y-69590793D01*
X95366329Y-69604997D01*
X95351777Y-69626777D01*
X95329997Y-69641329D01*
X95315793Y-69655534D01*
X95294995Y-69664716D01*
X95270671Y-69680970D01*
X95247950Y-69685489D01*
X95230408Y-69693235D01*
X95179061Y-69699192D01*
X95175000Y-69700000D01*
X94650000Y-69700000D01*
X94645941Y-69699192D01*
X94594591Y-69693235D01*
X94577048Y-69685489D01*
X94554329Y-69680970D01*
X94530006Y-69664718D01*
X94509206Y-69655534D01*
X94494999Y-69641327D01*
X94473223Y-69626777D01*
X94458672Y-69605000D01*
X94444465Y-69590793D01*
X94435280Y-69569991D01*
X94419030Y-69545671D01*
X94414511Y-69522954D01*
X94406764Y-69505408D01*
X94400805Y-69454049D01*
X94400000Y-69450000D01*
X94400000Y-68550000D01*
X94400804Y-68545953D01*
X94406764Y-68494591D01*
X94414511Y-68477043D01*
X94419030Y-68454329D01*
X94435278Y-68430010D01*
X94444465Y-68409206D01*
X94458674Y-68394996D01*
X94473223Y-68373223D01*
X94494996Y-68358674D01*
X94509206Y-68344465D01*
X94530010Y-68335278D01*
X94554329Y-68319030D01*
X94577043Y-68314511D01*
X94594591Y-68306764D01*
X94645952Y-68300805D01*
X94650000Y-68300000D01*
X95175000Y-68300000D01*
X95179047Y-68300805D01*
G37*
G36*
X45354047Y-67300805D02*
G01*
X45405408Y-67306764D01*
X45422954Y-67314511D01*
X45445671Y-67319030D01*
X45469991Y-67335280D01*
X45490793Y-67344465D01*
X45505000Y-67358672D01*
X45526777Y-67373223D01*
X45541327Y-67394999D01*
X45555534Y-67409206D01*
X45564718Y-67430006D01*
X45580970Y-67454329D01*
X45585489Y-67477048D01*
X45593235Y-67494591D01*
X45599192Y-67545940D01*
X45600000Y-67550000D01*
X45600000Y-68450000D01*
X45599192Y-68454059D01*
X45593235Y-68505408D01*
X45585489Y-68522950D01*
X45580970Y-68545671D01*
X45564716Y-68569995D01*
X45555534Y-68590793D01*
X45541329Y-68604997D01*
X45526777Y-68626777D01*
X45504997Y-68641329D01*
X45490793Y-68655534D01*
X45469995Y-68664716D01*
X45445671Y-68680970D01*
X45422950Y-68685489D01*
X45405408Y-68693235D01*
X45354061Y-68699192D01*
X45350000Y-68700000D01*
X44825000Y-68700000D01*
X44820941Y-68699192D01*
X44769591Y-68693235D01*
X44752048Y-68685489D01*
X44729329Y-68680970D01*
X44705006Y-68664718D01*
X44684206Y-68655534D01*
X44669999Y-68641327D01*
X44648223Y-68626777D01*
X44633672Y-68605000D01*
X44619465Y-68590793D01*
X44610280Y-68569991D01*
X44594030Y-68545671D01*
X44589511Y-68522954D01*
X44581764Y-68505408D01*
X44575805Y-68454049D01*
X44575000Y-68450000D01*
X44575000Y-67550000D01*
X44575804Y-67545953D01*
X44581764Y-67494591D01*
X44589511Y-67477043D01*
X44594030Y-67454329D01*
X44610278Y-67430010D01*
X44619465Y-67409206D01*
X44633674Y-67394996D01*
X44648223Y-67373223D01*
X44669996Y-67358674D01*
X44684206Y-67344465D01*
X44705010Y-67335278D01*
X44729329Y-67319030D01*
X44752043Y-67314511D01*
X44769591Y-67306764D01*
X44820952Y-67300805D01*
X44825000Y-67300000D01*
X45350000Y-67300000D01*
X45354047Y-67300805D01*
G37*
G36*
X47179047Y-67300805D02*
G01*
X47230408Y-67306764D01*
X47247954Y-67314511D01*
X47270671Y-67319030D01*
X47294991Y-67335280D01*
X47315793Y-67344465D01*
X47330000Y-67358672D01*
X47351777Y-67373223D01*
X47366327Y-67394999D01*
X47380534Y-67409206D01*
X47389718Y-67430006D01*
X47405970Y-67454329D01*
X47410489Y-67477048D01*
X47418235Y-67494591D01*
X47424192Y-67545940D01*
X47425000Y-67550000D01*
X47425000Y-68450000D01*
X47424192Y-68454059D01*
X47418235Y-68505408D01*
X47410489Y-68522950D01*
X47405970Y-68545671D01*
X47389716Y-68569995D01*
X47380534Y-68590793D01*
X47366329Y-68604997D01*
X47351777Y-68626777D01*
X47329997Y-68641329D01*
X47315793Y-68655534D01*
X47294995Y-68664716D01*
X47270671Y-68680970D01*
X47247950Y-68685489D01*
X47230408Y-68693235D01*
X47179061Y-68699192D01*
X47175000Y-68700000D01*
X46650000Y-68700000D01*
X46645941Y-68699192D01*
X46594591Y-68693235D01*
X46577048Y-68685489D01*
X46554329Y-68680970D01*
X46530006Y-68664718D01*
X46509206Y-68655534D01*
X46494999Y-68641327D01*
X46473223Y-68626777D01*
X46458672Y-68605000D01*
X46444465Y-68590793D01*
X46435280Y-68569991D01*
X46419030Y-68545671D01*
X46414511Y-68522954D01*
X46406764Y-68505408D01*
X46400805Y-68454049D01*
X46400000Y-68450000D01*
X46400000Y-67550000D01*
X46400804Y-67545953D01*
X46406764Y-67494591D01*
X46414511Y-67477043D01*
X46419030Y-67454329D01*
X46435278Y-67430010D01*
X46444465Y-67409206D01*
X46458674Y-67394996D01*
X46473223Y-67373223D01*
X46494996Y-67358674D01*
X46509206Y-67344465D01*
X46530010Y-67335278D01*
X46554329Y-67319030D01*
X46577043Y-67314511D01*
X46594591Y-67306764D01*
X46645952Y-67300805D01*
X46650000Y-67300000D01*
X47175000Y-67300000D01*
X47179047Y-67300805D01*
G37*
G36*
X58246742Y-65506601D02*
G01*
X58400687Y-65570367D01*
X58539234Y-65662941D01*
X58657059Y-65780766D01*
X58749633Y-65919313D01*
X58813399Y-66073258D01*
X58845907Y-66236685D01*
X58845907Y-66403315D01*
X58813399Y-66566742D01*
X58749633Y-66720687D01*
X58657059Y-66859234D01*
X58539234Y-66977059D01*
X58400687Y-67069633D01*
X58246742Y-67133399D01*
X58083315Y-67165907D01*
X57916685Y-67165907D01*
X57753258Y-67133399D01*
X57599313Y-67069633D01*
X57460766Y-66977059D01*
X57342941Y-66859234D01*
X57250367Y-66720687D01*
X57186601Y-66566742D01*
X57154093Y-66403315D01*
X57154093Y-66236685D01*
X57186601Y-66073258D01*
X57250367Y-65919313D01*
X57342941Y-65780766D01*
X57460766Y-65662941D01*
X57599313Y-65570367D01*
X57753258Y-65506601D01*
X57916685Y-65474093D01*
X58083315Y-65474093D01*
X58246742Y-65506601D01*
G37*
G36*
X83646742Y-65506601D02*
G01*
X83800687Y-65570367D01*
X83939234Y-65662941D01*
X84057059Y-65780766D01*
X84149633Y-65919313D01*
X84213399Y-66073258D01*
X84245907Y-66236685D01*
X84245907Y-66403315D01*
X84213399Y-66566742D01*
X84149633Y-66720687D01*
X84057059Y-66859234D01*
X83939234Y-66977059D01*
X83800687Y-67069633D01*
X83646742Y-67133399D01*
X83483315Y-67165907D01*
X83316685Y-67165907D01*
X83153258Y-67133399D01*
X82999313Y-67069633D01*
X82860766Y-66977059D01*
X82742941Y-66859234D01*
X82650367Y-66720687D01*
X82586601Y-66566742D01*
X82554093Y-66403315D01*
X82554093Y-66236685D01*
X82586601Y-66073258D01*
X82650367Y-65919313D01*
X82742941Y-65780766D01*
X82860766Y-65662941D01*
X82999313Y-65570367D01*
X83153258Y-65506601D01*
X83316685Y-65474093D01*
X83483315Y-65474093D01*
X83646742Y-65506601D01*
G37*
G36*
X19354047Y-65300805D02*
G01*
X19405408Y-65306764D01*
X19422954Y-65314511D01*
X19445671Y-65319030D01*
X19469991Y-65335280D01*
X19490793Y-65344465D01*
X19505000Y-65358672D01*
X19526777Y-65373223D01*
X19541327Y-65394999D01*
X19555534Y-65409206D01*
X19564718Y-65430006D01*
X19580970Y-65454329D01*
X19585489Y-65477048D01*
X19593235Y-65494591D01*
X19599192Y-65545940D01*
X19600000Y-65550000D01*
X19600000Y-66450000D01*
X19599192Y-66454059D01*
X19593235Y-66505408D01*
X19585489Y-66522950D01*
X19580970Y-66545671D01*
X19564716Y-66569995D01*
X19555534Y-66590793D01*
X19541329Y-66604997D01*
X19526777Y-66626777D01*
X19504997Y-66641329D01*
X19490793Y-66655534D01*
X19469995Y-66664716D01*
X19445671Y-66680970D01*
X19422950Y-66685489D01*
X19405408Y-66693235D01*
X19354061Y-66699192D01*
X19350000Y-66700000D01*
X18825000Y-66700000D01*
X18820941Y-66699192D01*
X18769591Y-66693235D01*
X18752048Y-66685489D01*
X18729329Y-66680970D01*
X18705006Y-66664718D01*
X18684206Y-66655534D01*
X18669999Y-66641327D01*
X18648223Y-66626777D01*
X18633672Y-66605000D01*
X18619465Y-66590793D01*
X18610280Y-66569991D01*
X18594030Y-66545671D01*
X18589511Y-66522954D01*
X18581764Y-66505408D01*
X18575805Y-66454049D01*
X18575000Y-66450000D01*
X18575000Y-65550000D01*
X18575804Y-65545953D01*
X18581764Y-65494591D01*
X18589511Y-65477043D01*
X18594030Y-65454329D01*
X18610278Y-65430010D01*
X18619465Y-65409206D01*
X18633674Y-65394996D01*
X18648223Y-65373223D01*
X18669996Y-65358674D01*
X18684206Y-65344465D01*
X18705010Y-65335278D01*
X18729329Y-65319030D01*
X18752043Y-65314511D01*
X18769591Y-65306764D01*
X18820952Y-65300805D01*
X18825000Y-65300000D01*
X19350000Y-65300000D01*
X19354047Y-65300805D01*
G37*
G36*
X21179047Y-65300805D02*
G01*
X21230408Y-65306764D01*
X21247954Y-65314511D01*
X21270671Y-65319030D01*
X21294991Y-65335280D01*
X21315793Y-65344465D01*
X21330000Y-65358672D01*
X21351777Y-65373223D01*
X21366327Y-65394999D01*
X21380534Y-65409206D01*
X21389718Y-65430006D01*
X21405970Y-65454329D01*
X21410489Y-65477048D01*
X21418235Y-65494591D01*
X21424192Y-65545940D01*
X21425000Y-65550000D01*
X21425000Y-66450000D01*
X21424192Y-66454059D01*
X21418235Y-66505408D01*
X21410489Y-66522950D01*
X21405970Y-66545671D01*
X21389716Y-66569995D01*
X21380534Y-66590793D01*
X21366329Y-66604997D01*
X21351777Y-66626777D01*
X21329997Y-66641329D01*
X21315793Y-66655534D01*
X21294995Y-66664716D01*
X21270671Y-66680970D01*
X21247950Y-66685489D01*
X21230408Y-66693235D01*
X21179061Y-66699192D01*
X21175000Y-66700000D01*
X20650000Y-66700000D01*
X20645941Y-66699192D01*
X20594591Y-66693235D01*
X20577048Y-66685489D01*
X20554329Y-66680970D01*
X20530006Y-66664718D01*
X20509206Y-66655534D01*
X20494999Y-66641327D01*
X20473223Y-66626777D01*
X20458672Y-66605000D01*
X20444465Y-66590793D01*
X20435280Y-66569991D01*
X20419030Y-66545671D01*
X20414511Y-66522954D01*
X20406764Y-66505408D01*
X20400805Y-66454049D01*
X20400000Y-66450000D01*
X20400000Y-65550000D01*
X20400804Y-65545953D01*
X20406764Y-65494591D01*
X20414511Y-65477043D01*
X20419030Y-65454329D01*
X20435278Y-65430010D01*
X20444465Y-65409206D01*
X20458674Y-65394996D01*
X20473223Y-65373223D01*
X20494996Y-65358674D01*
X20509206Y-65344465D01*
X20530010Y-65335278D01*
X20554329Y-65319030D01*
X20577043Y-65314511D01*
X20594591Y-65306764D01*
X20645952Y-65300805D01*
X20650000Y-65300000D01*
X21175000Y-65300000D01*
X21179047Y-65300805D01*
G37*
G36*
X7290285Y-64043060D02*
G01*
X7471397Y-64118079D01*
X7634393Y-64226990D01*
X7773010Y-64365607D01*
X7881921Y-64528603D01*
X7956940Y-64709715D01*
X7995185Y-64901983D01*
X7995185Y-65098017D01*
X7956940Y-65290285D01*
X7881921Y-65471397D01*
X7773010Y-65634393D01*
X7634393Y-65773010D01*
X7471397Y-65881921D01*
X7290285Y-65956940D01*
X7098017Y-65995185D01*
X6901983Y-65995185D01*
X6709715Y-65956940D01*
X6528603Y-65881921D01*
X6365607Y-65773010D01*
X6226990Y-65634393D01*
X6118079Y-65471397D01*
X6043060Y-65290285D01*
X6004815Y-65098017D01*
X6004815Y-64901983D01*
X6043060Y-64709715D01*
X6118079Y-64528603D01*
X6226990Y-64365607D01*
X6365607Y-64226990D01*
X6528603Y-64118079D01*
X6709715Y-64043060D01*
X6901983Y-64004815D01*
X7098017Y-64004815D01*
X7290285Y-64043060D01*
G37*
G36*
X45354047Y-64300805D02*
G01*
X45405408Y-64306764D01*
X45422954Y-64314511D01*
X45445671Y-64319030D01*
X45469991Y-64335280D01*
X45490793Y-64344465D01*
X45505000Y-64358672D01*
X45526777Y-64373223D01*
X45541327Y-64394999D01*
X45555534Y-64409206D01*
X45564718Y-64430006D01*
X45580970Y-64454329D01*
X45585489Y-64477048D01*
X45593235Y-64494591D01*
X45599192Y-64545940D01*
X45600000Y-64550000D01*
X45600000Y-65450000D01*
X45599192Y-65454059D01*
X45593235Y-65505408D01*
X45585489Y-65522950D01*
X45580970Y-65545671D01*
X45564716Y-65569995D01*
X45555534Y-65590793D01*
X45541329Y-65604997D01*
X45526777Y-65626777D01*
X45504997Y-65641329D01*
X45490793Y-65655534D01*
X45469995Y-65664716D01*
X45445671Y-65680970D01*
X45422950Y-65685489D01*
X45405408Y-65693235D01*
X45354061Y-65699192D01*
X45350000Y-65700000D01*
X44825000Y-65700000D01*
X44820941Y-65699192D01*
X44769591Y-65693235D01*
X44752048Y-65685489D01*
X44729329Y-65680970D01*
X44705006Y-65664718D01*
X44684206Y-65655534D01*
X44669999Y-65641327D01*
X44648223Y-65626777D01*
X44633672Y-65605000D01*
X44619465Y-65590793D01*
X44610280Y-65569991D01*
X44594030Y-65545671D01*
X44589511Y-65522954D01*
X44581764Y-65505408D01*
X44575805Y-65454049D01*
X44575000Y-65450000D01*
X44575000Y-64550000D01*
X44575804Y-64545953D01*
X44581764Y-64494591D01*
X44589511Y-64477043D01*
X44594030Y-64454329D01*
X44610278Y-64430010D01*
X44619465Y-64409206D01*
X44633674Y-64394996D01*
X44648223Y-64373223D01*
X44669996Y-64358674D01*
X44684206Y-64344465D01*
X44705010Y-64335278D01*
X44729329Y-64319030D01*
X44752043Y-64314511D01*
X44769591Y-64306764D01*
X44820952Y-64300805D01*
X44825000Y-64300000D01*
X45350000Y-64300000D01*
X45354047Y-64300805D01*
G37*
G36*
X47179047Y-64300805D02*
G01*
X47230408Y-64306764D01*
X47247954Y-64314511D01*
X47270671Y-64319030D01*
X47294991Y-64335280D01*
X47315793Y-64344465D01*
X47330000Y-64358672D01*
X47351777Y-64373223D01*
X47366327Y-64394999D01*
X47380534Y-64409206D01*
X47389718Y-64430006D01*
X47405970Y-64454329D01*
X47410489Y-64477048D01*
X47418235Y-64494591D01*
X47424192Y-64545940D01*
X47425000Y-64550000D01*
X47425000Y-65450000D01*
X47424192Y-65454059D01*
X47418235Y-65505408D01*
X47410489Y-65522950D01*
X47405970Y-65545671D01*
X47389716Y-65569995D01*
X47380534Y-65590793D01*
X47366329Y-65604997D01*
X47351777Y-65626777D01*
X47329997Y-65641329D01*
X47315793Y-65655534D01*
X47294995Y-65664716D01*
X47270671Y-65680970D01*
X47247950Y-65685489D01*
X47230408Y-65693235D01*
X47179061Y-65699192D01*
X47175000Y-65700000D01*
X46650000Y-65700000D01*
X46645941Y-65699192D01*
X46594591Y-65693235D01*
X46577048Y-65685489D01*
X46554329Y-65680970D01*
X46530006Y-65664718D01*
X46509206Y-65655534D01*
X46494999Y-65641327D01*
X46473223Y-65626777D01*
X46458672Y-65605000D01*
X46444465Y-65590793D01*
X46435280Y-65569991D01*
X46419030Y-65545671D01*
X46414511Y-65522954D01*
X46406764Y-65505408D01*
X46400805Y-65454049D01*
X46400000Y-65450000D01*
X46400000Y-64550000D01*
X46400804Y-64545953D01*
X46406764Y-64494591D01*
X46414511Y-64477043D01*
X46419030Y-64454329D01*
X46435278Y-64430010D01*
X46444465Y-64409206D01*
X46458674Y-64394996D01*
X46473223Y-64373223D01*
X46494996Y-64358674D01*
X46509206Y-64344465D01*
X46530010Y-64335278D01*
X46554329Y-64319030D01*
X46577043Y-64314511D01*
X46594591Y-64306764D01*
X46645952Y-64300805D01*
X46650000Y-64300000D01*
X47175000Y-64300000D01*
X47179047Y-64300805D01*
G37*
G36*
X93354047Y-64300805D02*
G01*
X93405408Y-64306764D01*
X93422954Y-64314511D01*
X93445671Y-64319030D01*
X93469991Y-64335280D01*
X93490793Y-64344465D01*
X93505000Y-64358672D01*
X93526777Y-64373223D01*
X93541327Y-64394999D01*
X93555534Y-64409206D01*
X93564718Y-64430006D01*
X93580970Y-64454329D01*
X93585489Y-64477048D01*
X93593235Y-64494591D01*
X93599192Y-64545940D01*
X93600000Y-64550000D01*
X93600000Y-65450000D01*
X93599192Y-65454059D01*
X93593235Y-65505408D01*
X93585489Y-65522950D01*
X93580970Y-65545671D01*
X93564716Y-65569995D01*
X93555534Y-65590793D01*
X93541329Y-65604997D01*
X93526777Y-65626777D01*
X93504997Y-65641329D01*
X93490793Y-65655534D01*
X93469995Y-65664716D01*
X93445671Y-65680970D01*
X93422950Y-65685489D01*
X93405408Y-65693235D01*
X93354061Y-65699192D01*
X93350000Y-65700000D01*
X92825000Y-65700000D01*
X92820941Y-65699192D01*
X92769591Y-65693235D01*
X92752048Y-65685489D01*
X92729329Y-65680970D01*
X92705006Y-65664718D01*
X92684206Y-65655534D01*
X92669999Y-65641327D01*
X92648223Y-65626777D01*
X92633672Y-65605000D01*
X92619465Y-65590793D01*
X92610280Y-65569991D01*
X92594030Y-65545671D01*
X92589511Y-65522954D01*
X92581764Y-65505408D01*
X92575805Y-65454049D01*
X92575000Y-65450000D01*
X92575000Y-64550000D01*
X92575804Y-64545953D01*
X92581764Y-64494591D01*
X92589511Y-64477043D01*
X92594030Y-64454329D01*
X92610278Y-64430010D01*
X92619465Y-64409206D01*
X92633674Y-64394996D01*
X92648223Y-64373223D01*
X92669996Y-64358674D01*
X92684206Y-64344465D01*
X92705010Y-64335278D01*
X92729329Y-64319030D01*
X92752043Y-64314511D01*
X92769591Y-64306764D01*
X92820952Y-64300805D01*
X92825000Y-64300000D01*
X93350000Y-64300000D01*
X93354047Y-64300805D01*
G37*
G36*
X95179047Y-64300805D02*
G01*
X95230408Y-64306764D01*
X95247954Y-64314511D01*
X95270671Y-64319030D01*
X95294991Y-64335280D01*
X95315793Y-64344465D01*
X95330000Y-64358672D01*
X95351777Y-64373223D01*
X95366327Y-64394999D01*
X95380534Y-64409206D01*
X95389718Y-64430006D01*
X95405970Y-64454329D01*
X95410489Y-64477048D01*
X95418235Y-64494591D01*
X95424192Y-64545940D01*
X95425000Y-64550000D01*
X95425000Y-65450000D01*
X95424192Y-65454059D01*
X95418235Y-65505408D01*
X95410489Y-65522950D01*
X95405970Y-65545671D01*
X95389716Y-65569995D01*
X95380534Y-65590793D01*
X95366329Y-65604997D01*
X95351777Y-65626777D01*
X95329997Y-65641329D01*
X95315793Y-65655534D01*
X95294995Y-65664716D01*
X95270671Y-65680970D01*
X95247950Y-65685489D01*
X95230408Y-65693235D01*
X95179061Y-65699192D01*
X95175000Y-65700000D01*
X94650000Y-65700000D01*
X94645941Y-65699192D01*
X94594591Y-65693235D01*
X94577048Y-65685489D01*
X94554329Y-65680970D01*
X94530006Y-65664718D01*
X94509206Y-65655534D01*
X94494999Y-65641327D01*
X94473223Y-65626777D01*
X94458672Y-65605000D01*
X94444465Y-65590793D01*
X94435280Y-65569991D01*
X94419030Y-65545671D01*
X94414511Y-65522954D01*
X94406764Y-65505408D01*
X94400805Y-65454049D01*
X94400000Y-65450000D01*
X94400000Y-64550000D01*
X94400804Y-64545953D01*
X94406764Y-64494591D01*
X94414511Y-64477043D01*
X94419030Y-64454329D01*
X94435278Y-64430010D01*
X94444465Y-64409206D01*
X94458674Y-64394996D01*
X94473223Y-64373223D01*
X94494996Y-64358674D01*
X94509206Y-64344465D01*
X94530010Y-64335278D01*
X94554329Y-64319030D01*
X94577043Y-64314511D01*
X94594591Y-64306764D01*
X94645952Y-64300805D01*
X94650000Y-64300000D01*
X95175000Y-64300000D01*
X95179047Y-64300805D01*
G37*
G36*
X58246742Y-62966601D02*
G01*
X58400687Y-63030367D01*
X58539234Y-63122941D01*
X58657059Y-63240766D01*
X58749633Y-63379313D01*
X58813399Y-63533258D01*
X58845907Y-63696685D01*
X58845907Y-63863315D01*
X58813399Y-64026742D01*
X58749633Y-64180687D01*
X58657059Y-64319234D01*
X58539234Y-64437059D01*
X58400687Y-64529633D01*
X58246742Y-64593399D01*
X58083315Y-64625907D01*
X57916685Y-64625907D01*
X57753258Y-64593399D01*
X57599313Y-64529633D01*
X57460766Y-64437059D01*
X57342941Y-64319234D01*
X57250367Y-64180687D01*
X57186601Y-64026742D01*
X57154093Y-63863315D01*
X57154093Y-63696685D01*
X57186601Y-63533258D01*
X57250367Y-63379313D01*
X57342941Y-63240766D01*
X57460766Y-63122941D01*
X57599313Y-63030367D01*
X57753258Y-62966601D01*
X57916685Y-62934093D01*
X58083315Y-62934093D01*
X58246742Y-62966601D01*
G37*
G36*
X83646742Y-62966601D02*
G01*
X83800687Y-63030367D01*
X83939234Y-63122941D01*
X84057059Y-63240766D01*
X84149633Y-63379313D01*
X84213399Y-63533258D01*
X84245907Y-63696685D01*
X84245907Y-63863315D01*
X84213399Y-64026742D01*
X84149633Y-64180687D01*
X84057059Y-64319234D01*
X83939234Y-64437059D01*
X83800687Y-64529633D01*
X83646742Y-64593399D01*
X83483315Y-64625907D01*
X83316685Y-64625907D01*
X83153258Y-64593399D01*
X82999313Y-64529633D01*
X82860766Y-64437059D01*
X82742941Y-64319234D01*
X82650367Y-64180687D01*
X82586601Y-64026742D01*
X82554093Y-63863315D01*
X82554093Y-63696685D01*
X82586601Y-63533258D01*
X82650367Y-63379313D01*
X82742941Y-63240766D01*
X82860766Y-63122941D01*
X82999313Y-63030367D01*
X83153258Y-62966601D01*
X83316685Y-62934093D01*
X83483315Y-62934093D01*
X83646742Y-62966601D01*
G37*
G36*
X19354047Y-61300805D02*
G01*
X19405408Y-61306764D01*
X19422954Y-61314511D01*
X19445671Y-61319030D01*
X19469991Y-61335280D01*
X19490793Y-61344465D01*
X19505000Y-61358672D01*
X19526777Y-61373223D01*
X19541327Y-61394999D01*
X19555534Y-61409206D01*
X19564718Y-61430006D01*
X19580970Y-61454329D01*
X19585489Y-61477048D01*
X19593235Y-61494591D01*
X19599192Y-61545940D01*
X19600000Y-61550000D01*
X19600000Y-62450000D01*
X19599192Y-62454059D01*
X19593235Y-62505408D01*
X19585489Y-62522950D01*
X19580970Y-62545671D01*
X19564716Y-62569995D01*
X19555534Y-62590793D01*
X19541329Y-62604997D01*
X19526777Y-62626777D01*
X19504997Y-62641329D01*
X19490793Y-62655534D01*
X19469995Y-62664716D01*
X19445671Y-62680970D01*
X19422950Y-62685489D01*
X19405408Y-62693235D01*
X19354061Y-62699192D01*
X19350000Y-62700000D01*
X18825000Y-62700000D01*
X18820941Y-62699192D01*
X18769591Y-62693235D01*
X18752048Y-62685489D01*
X18729329Y-62680970D01*
X18705006Y-62664718D01*
X18684206Y-62655534D01*
X18669999Y-62641327D01*
X18648223Y-62626777D01*
X18633672Y-62605000D01*
X18619465Y-62590793D01*
X18610280Y-62569991D01*
X18594030Y-62545671D01*
X18589511Y-62522954D01*
X18581764Y-62505408D01*
X18575805Y-62454049D01*
X18575000Y-62450000D01*
X18575000Y-61550000D01*
X18575804Y-61545953D01*
X18581764Y-61494591D01*
X18589511Y-61477043D01*
X18594030Y-61454329D01*
X18610278Y-61430010D01*
X18619465Y-61409206D01*
X18633674Y-61394996D01*
X18648223Y-61373223D01*
X18669996Y-61358674D01*
X18684206Y-61344465D01*
X18705010Y-61335278D01*
X18729329Y-61319030D01*
X18752043Y-61314511D01*
X18769591Y-61306764D01*
X18820952Y-61300805D01*
X18825000Y-61300000D01*
X19350000Y-61300000D01*
X19354047Y-61300805D01*
G37*
G36*
X21179047Y-61300805D02*
G01*
X21230408Y-61306764D01*
X21247954Y-61314511D01*
X21270671Y-61319030D01*
X21294991Y-61335280D01*
X21315793Y-61344465D01*
X21330000Y-61358672D01*
X21351777Y-61373223D01*
X21366327Y-61394999D01*
X21380534Y-61409206D01*
X21389718Y-61430006D01*
X21405970Y-61454329D01*
X21410489Y-61477048D01*
X21418235Y-61494591D01*
X21424192Y-61545940D01*
X21425000Y-61550000D01*
X21425000Y-62450000D01*
X21424192Y-62454059D01*
X21418235Y-62505408D01*
X21410489Y-62522950D01*
X21405970Y-62545671D01*
X21389716Y-62569995D01*
X21380534Y-62590793D01*
X21366329Y-62604997D01*
X21351777Y-62626777D01*
X21329997Y-62641329D01*
X21315793Y-62655534D01*
X21294995Y-62664716D01*
X21270671Y-62680970D01*
X21247950Y-62685489D01*
X21230408Y-62693235D01*
X21179061Y-62699192D01*
X21175000Y-62700000D01*
X20650000Y-62700000D01*
X20645941Y-62699192D01*
X20594591Y-62693235D01*
X20577048Y-62685489D01*
X20554329Y-62680970D01*
X20530006Y-62664718D01*
X20509206Y-62655534D01*
X20494999Y-62641327D01*
X20473223Y-62626777D01*
X20458672Y-62605000D01*
X20444465Y-62590793D01*
X20435280Y-62569991D01*
X20419030Y-62545671D01*
X20414511Y-62522954D01*
X20406764Y-62505408D01*
X20400805Y-62454049D01*
X20400000Y-62450000D01*
X20400000Y-61550000D01*
X20400804Y-61545953D01*
X20406764Y-61494591D01*
X20414511Y-61477043D01*
X20419030Y-61454329D01*
X20435278Y-61430010D01*
X20444465Y-61409206D01*
X20458674Y-61394996D01*
X20473223Y-61373223D01*
X20494996Y-61358674D01*
X20509206Y-61344465D01*
X20530010Y-61335278D01*
X20554329Y-61319030D01*
X20577043Y-61314511D01*
X20594591Y-61306764D01*
X20645952Y-61300805D01*
X20650000Y-61300000D01*
X21175000Y-61300000D01*
X21179047Y-61300805D01*
G37*
G36*
X45354047Y-61300805D02*
G01*
X45405408Y-61306764D01*
X45422954Y-61314511D01*
X45445671Y-61319030D01*
X45469991Y-61335280D01*
X45490793Y-61344465D01*
X45505000Y-61358672D01*
X45526777Y-61373223D01*
X45541327Y-61394999D01*
X45555534Y-61409206D01*
X45564718Y-61430006D01*
X45580970Y-61454329D01*
X45585489Y-61477048D01*
X45593235Y-61494591D01*
X45599192Y-61545940D01*
X45600000Y-61550000D01*
X45600000Y-62450000D01*
X45599192Y-62454059D01*
X45593235Y-62505408D01*
X45585489Y-62522950D01*
X45580970Y-62545671D01*
X45564716Y-62569995D01*
X45555534Y-62590793D01*
X45541329Y-62604997D01*
X45526777Y-62626777D01*
X45504997Y-62641329D01*
X45490793Y-62655534D01*
X45469995Y-62664716D01*
X45445671Y-62680970D01*
X45422950Y-62685489D01*
X45405408Y-62693235D01*
X45354061Y-62699192D01*
X45350000Y-62700000D01*
X44825000Y-62700000D01*
X44820941Y-62699192D01*
X44769591Y-62693235D01*
X44752048Y-62685489D01*
X44729329Y-62680970D01*
X44705006Y-62664718D01*
X44684206Y-62655534D01*
X44669999Y-62641327D01*
X44648223Y-62626777D01*
X44633672Y-62605000D01*
X44619465Y-62590793D01*
X44610280Y-62569991D01*
X44594030Y-62545671D01*
X44589511Y-62522954D01*
X44581764Y-62505408D01*
X44575805Y-62454049D01*
X44575000Y-62450000D01*
X44575000Y-61550000D01*
X44575804Y-61545953D01*
X44581764Y-61494591D01*
X44589511Y-61477043D01*
X44594030Y-61454329D01*
X44610278Y-61430010D01*
X44619465Y-61409206D01*
X44633674Y-61394996D01*
X44648223Y-61373223D01*
X44669996Y-61358674D01*
X44684206Y-61344465D01*
X44705010Y-61335278D01*
X44729329Y-61319030D01*
X44752043Y-61314511D01*
X44769591Y-61306764D01*
X44820952Y-61300805D01*
X44825000Y-61300000D01*
X45350000Y-61300000D01*
X45354047Y-61300805D01*
G37*
G36*
X47179047Y-61300805D02*
G01*
X47230408Y-61306764D01*
X47247954Y-61314511D01*
X47270671Y-61319030D01*
X47294991Y-61335280D01*
X47315793Y-61344465D01*
X47330000Y-61358672D01*
X47351777Y-61373223D01*
X47366327Y-61394999D01*
X47380534Y-61409206D01*
X47389718Y-61430006D01*
X47405970Y-61454329D01*
X47410489Y-61477048D01*
X47418235Y-61494591D01*
X47424192Y-61545940D01*
X47425000Y-61550000D01*
X47425000Y-62450000D01*
X47424192Y-62454059D01*
X47418235Y-62505408D01*
X47410489Y-62522950D01*
X47405970Y-62545671D01*
X47389716Y-62569995D01*
X47380534Y-62590793D01*
X47366329Y-62604997D01*
X47351777Y-62626777D01*
X47329997Y-62641329D01*
X47315793Y-62655534D01*
X47294995Y-62664716D01*
X47270671Y-62680970D01*
X47247950Y-62685489D01*
X47230408Y-62693235D01*
X47179061Y-62699192D01*
X47175000Y-62700000D01*
X46650000Y-62700000D01*
X46645941Y-62699192D01*
X46594591Y-62693235D01*
X46577048Y-62685489D01*
X46554329Y-62680970D01*
X46530006Y-62664718D01*
X46509206Y-62655534D01*
X46494999Y-62641327D01*
X46473223Y-62626777D01*
X46458672Y-62605000D01*
X46444465Y-62590793D01*
X46435280Y-62569991D01*
X46419030Y-62545671D01*
X46414511Y-62522954D01*
X46406764Y-62505408D01*
X46400805Y-62454049D01*
X46400000Y-62450000D01*
X46400000Y-61550000D01*
X46400804Y-61545953D01*
X46406764Y-61494591D01*
X46414511Y-61477043D01*
X46419030Y-61454329D01*
X46435278Y-61430010D01*
X46444465Y-61409206D01*
X46458674Y-61394996D01*
X46473223Y-61373223D01*
X46494996Y-61358674D01*
X46509206Y-61344465D01*
X46530010Y-61335278D01*
X46554329Y-61319030D01*
X46577043Y-61314511D01*
X46594591Y-61306764D01*
X46645952Y-61300805D01*
X46650000Y-61300000D01*
X47175000Y-61300000D01*
X47179047Y-61300805D01*
G37*
G36*
X58246742Y-60426601D02*
G01*
X58400687Y-60490367D01*
X58539234Y-60582941D01*
X58657059Y-60700766D01*
X58749633Y-60839313D01*
X58813399Y-60993258D01*
X58845907Y-61156685D01*
X58845907Y-61323315D01*
X58813399Y-61486742D01*
X58749633Y-61640687D01*
X58657059Y-61779234D01*
X58539234Y-61897059D01*
X58400687Y-61989633D01*
X58246742Y-62053399D01*
X58083315Y-62085907D01*
X57916685Y-62085907D01*
X57753258Y-62053399D01*
X57599313Y-61989633D01*
X57460766Y-61897059D01*
X57342941Y-61779234D01*
X57250367Y-61640687D01*
X57186601Y-61486742D01*
X57154093Y-61323315D01*
X57154093Y-61156685D01*
X57186601Y-60993258D01*
X57250367Y-60839313D01*
X57342941Y-60700766D01*
X57460766Y-60582941D01*
X57599313Y-60490367D01*
X57753258Y-60426601D01*
X57916685Y-60394093D01*
X58083315Y-60394093D01*
X58246742Y-60426601D01*
G37*
G36*
X83646742Y-60426601D02*
G01*
X83800687Y-60490367D01*
X83939234Y-60582941D01*
X84057059Y-60700766D01*
X84149633Y-60839313D01*
X84213399Y-60993258D01*
X84245907Y-61156685D01*
X84245907Y-61323315D01*
X84213399Y-61486742D01*
X84149633Y-61640687D01*
X84057059Y-61779234D01*
X83939234Y-61897059D01*
X83800687Y-61989633D01*
X83646742Y-62053399D01*
X83483315Y-62085907D01*
X83316685Y-62085907D01*
X83153258Y-62053399D01*
X82999313Y-61989633D01*
X82860766Y-61897059D01*
X82742941Y-61779234D01*
X82650367Y-61640687D01*
X82586601Y-61486742D01*
X82554093Y-61323315D01*
X82554093Y-61156685D01*
X82586601Y-60993258D01*
X82650367Y-60839313D01*
X82742941Y-60700766D01*
X82860766Y-60582941D01*
X82999313Y-60490367D01*
X83153258Y-60426601D01*
X83316685Y-60394093D01*
X83483315Y-60394093D01*
X83646742Y-60426601D01*
G37*
G36*
X93354047Y-60300805D02*
G01*
X93405408Y-60306764D01*
X93422954Y-60314511D01*
X93445671Y-60319030D01*
X93469991Y-60335280D01*
X93490793Y-60344465D01*
X93505000Y-60358672D01*
X93526777Y-60373223D01*
X93541327Y-60394999D01*
X93555534Y-60409206D01*
X93564718Y-60430006D01*
X93580970Y-60454329D01*
X93585489Y-60477048D01*
X93593235Y-60494591D01*
X93599192Y-60545940D01*
X93600000Y-60550000D01*
X93600000Y-61450000D01*
X93599192Y-61454059D01*
X93593235Y-61505408D01*
X93585489Y-61522950D01*
X93580970Y-61545671D01*
X93564716Y-61569995D01*
X93555534Y-61590793D01*
X93541329Y-61604997D01*
X93526777Y-61626777D01*
X93504997Y-61641329D01*
X93490793Y-61655534D01*
X93469995Y-61664716D01*
X93445671Y-61680970D01*
X93422950Y-61685489D01*
X93405408Y-61693235D01*
X93354061Y-61699192D01*
X93350000Y-61700000D01*
X92825000Y-61700000D01*
X92820941Y-61699192D01*
X92769591Y-61693235D01*
X92752048Y-61685489D01*
X92729329Y-61680970D01*
X92705006Y-61664718D01*
X92684206Y-61655534D01*
X92669999Y-61641327D01*
X92648223Y-61626777D01*
X92633672Y-61605000D01*
X92619465Y-61590793D01*
X92610280Y-61569991D01*
X92594030Y-61545671D01*
X92589511Y-61522954D01*
X92581764Y-61505408D01*
X92575805Y-61454049D01*
X92575000Y-61450000D01*
X92575000Y-60550000D01*
X92575804Y-60545953D01*
X92581764Y-60494591D01*
X92589511Y-60477043D01*
X92594030Y-60454329D01*
X92610278Y-60430010D01*
X92619465Y-60409206D01*
X92633674Y-60394996D01*
X92648223Y-60373223D01*
X92669996Y-60358674D01*
X92684206Y-60344465D01*
X92705010Y-60335278D01*
X92729329Y-60319030D01*
X92752043Y-60314511D01*
X92769591Y-60306764D01*
X92820952Y-60300805D01*
X92825000Y-60300000D01*
X93350000Y-60300000D01*
X93354047Y-60300805D01*
G37*
G36*
X95179047Y-60300805D02*
G01*
X95230408Y-60306764D01*
X95247954Y-60314511D01*
X95270671Y-60319030D01*
X95294991Y-60335280D01*
X95315793Y-60344465D01*
X95330000Y-60358672D01*
X95351777Y-60373223D01*
X95366327Y-60394999D01*
X95380534Y-60409206D01*
X95389718Y-60430006D01*
X95405970Y-60454329D01*
X95410489Y-60477048D01*
X95418235Y-60494591D01*
X95424192Y-60545940D01*
X95425000Y-60550000D01*
X95425000Y-61450000D01*
X95424192Y-61454059D01*
X95418235Y-61505408D01*
X95410489Y-61522950D01*
X95405970Y-61545671D01*
X95389716Y-61569995D01*
X95380534Y-61590793D01*
X95366329Y-61604997D01*
X95351777Y-61626777D01*
X95329997Y-61641329D01*
X95315793Y-61655534D01*
X95294995Y-61664716D01*
X95270671Y-61680970D01*
X95247950Y-61685489D01*
X95230408Y-61693235D01*
X95179061Y-61699192D01*
X95175000Y-61700000D01*
X94650000Y-61700000D01*
X94645941Y-61699192D01*
X94594591Y-61693235D01*
X94577048Y-61685489D01*
X94554329Y-61680970D01*
X94530006Y-61664718D01*
X94509206Y-61655534D01*
X94494999Y-61641327D01*
X94473223Y-61626777D01*
X94458672Y-61605000D01*
X94444465Y-61590793D01*
X94435280Y-61569991D01*
X94419030Y-61545671D01*
X94414511Y-61522954D01*
X94406764Y-61505408D01*
X94400805Y-61454049D01*
X94400000Y-61450000D01*
X94400000Y-60550000D01*
X94400804Y-60545953D01*
X94406764Y-60494591D01*
X94414511Y-60477043D01*
X94419030Y-60454329D01*
X94435278Y-60430010D01*
X94444465Y-60409206D01*
X94458674Y-60394996D01*
X94473223Y-60373223D01*
X94494996Y-60358674D01*
X94509206Y-60344465D01*
X94530010Y-60335278D01*
X94554329Y-60319030D01*
X94577043Y-60314511D01*
X94594591Y-60306764D01*
X94645952Y-60300805D01*
X94650000Y-60300000D01*
X95175000Y-60300000D01*
X95179047Y-60300805D01*
G37*
G36*
X7290285Y-58043060D02*
G01*
X7471397Y-58118079D01*
X7634393Y-58226990D01*
X7773010Y-58365607D01*
X7881921Y-58528603D01*
X7956940Y-58709715D01*
X7995185Y-58901983D01*
X7995185Y-59098017D01*
X7956940Y-59290285D01*
X7881921Y-59471397D01*
X7773010Y-59634393D01*
X7634393Y-59773010D01*
X7471397Y-59881921D01*
X7290285Y-59956940D01*
X7098017Y-59995185D01*
X6901983Y-59995185D01*
X6709715Y-59956940D01*
X6528603Y-59881921D01*
X6365607Y-59773010D01*
X6226990Y-59634393D01*
X6118079Y-59471397D01*
X6043060Y-59290285D01*
X6004815Y-59098017D01*
X6004815Y-58901983D01*
X6043060Y-58709715D01*
X6118079Y-58528603D01*
X6226990Y-58365607D01*
X6365607Y-58226990D01*
X6528603Y-58118079D01*
X6709715Y-58043060D01*
X6901983Y-58004815D01*
X7098017Y-58004815D01*
X7290285Y-58043060D01*
G37*
G36*
X45354047Y-58300805D02*
G01*
X45405408Y-58306764D01*
X45422954Y-58314511D01*
X45445671Y-58319030D01*
X45469991Y-58335280D01*
X45490793Y-58344465D01*
X45505000Y-58358672D01*
X45526777Y-58373223D01*
X45541327Y-58394999D01*
X45555534Y-58409206D01*
X45564718Y-58430006D01*
X45580970Y-58454329D01*
X45585489Y-58477048D01*
X45593235Y-58494591D01*
X45599192Y-58545940D01*
X45600000Y-58550000D01*
X45600000Y-59450000D01*
X45599192Y-59454059D01*
X45593235Y-59505408D01*
X45585489Y-59522950D01*
X45580970Y-59545671D01*
X45564716Y-59569995D01*
X45555534Y-59590793D01*
X45541329Y-59604997D01*
X45526777Y-59626777D01*
X45504997Y-59641329D01*
X45490793Y-59655534D01*
X45469995Y-59664716D01*
X45445671Y-59680970D01*
X45422950Y-59685489D01*
X45405408Y-59693235D01*
X45354061Y-59699192D01*
X45350000Y-59700000D01*
X44825000Y-59700000D01*
X44820941Y-59699192D01*
X44769591Y-59693235D01*
X44752048Y-59685489D01*
X44729329Y-59680970D01*
X44705006Y-59664718D01*
X44684206Y-59655534D01*
X44669999Y-59641327D01*
X44648223Y-59626777D01*
X44633672Y-59605000D01*
X44619465Y-59590793D01*
X44610280Y-59569991D01*
X44594030Y-59545671D01*
X44589511Y-59522954D01*
X44581764Y-59505408D01*
X44575805Y-59454049D01*
X44575000Y-59450000D01*
X44575000Y-58550000D01*
X44575804Y-58545953D01*
X44581764Y-58494591D01*
X44589511Y-58477043D01*
X44594030Y-58454329D01*
X44610278Y-58430010D01*
X44619465Y-58409206D01*
X44633674Y-58394996D01*
X44648223Y-58373223D01*
X44669996Y-58358674D01*
X44684206Y-58344465D01*
X44705010Y-58335278D01*
X44729329Y-58319030D01*
X44752043Y-58314511D01*
X44769591Y-58306764D01*
X44820952Y-58300805D01*
X44825000Y-58300000D01*
X45350000Y-58300000D01*
X45354047Y-58300805D01*
G37*
G36*
X47179047Y-58300805D02*
G01*
X47230408Y-58306764D01*
X47247954Y-58314511D01*
X47270671Y-58319030D01*
X47294991Y-58335280D01*
X47315793Y-58344465D01*
X47330000Y-58358672D01*
X47351777Y-58373223D01*
X47366327Y-58394999D01*
X47380534Y-58409206D01*
X47389718Y-58430006D01*
X47405970Y-58454329D01*
X47410489Y-58477048D01*
X47418235Y-58494591D01*
X47424192Y-58545940D01*
X47425000Y-58550000D01*
X47425000Y-59450000D01*
X47424192Y-59454059D01*
X47418235Y-59505408D01*
X47410489Y-59522950D01*
X47405970Y-59545671D01*
X47389716Y-59569995D01*
X47380534Y-59590793D01*
X47366329Y-59604997D01*
X47351777Y-59626777D01*
X47329997Y-59641329D01*
X47315793Y-59655534D01*
X47294995Y-59664716D01*
X47270671Y-59680970D01*
X47247950Y-59685489D01*
X47230408Y-59693235D01*
X47179061Y-59699192D01*
X47175000Y-59700000D01*
X46650000Y-59700000D01*
X46645941Y-59699192D01*
X46594591Y-59693235D01*
X46577048Y-59685489D01*
X46554329Y-59680970D01*
X46530006Y-59664718D01*
X46509206Y-59655534D01*
X46494999Y-59641327D01*
X46473223Y-59626777D01*
X46458672Y-59605000D01*
X46444465Y-59590793D01*
X46435280Y-59569991D01*
X46419030Y-59545671D01*
X46414511Y-59522954D01*
X46406764Y-59505408D01*
X46400805Y-59454049D01*
X46400000Y-59450000D01*
X46400000Y-58550000D01*
X46400804Y-58545953D01*
X46406764Y-58494591D01*
X46414511Y-58477043D01*
X46419030Y-58454329D01*
X46435278Y-58430010D01*
X46444465Y-58409206D01*
X46458674Y-58394996D01*
X46473223Y-58373223D01*
X46494996Y-58358674D01*
X46509206Y-58344465D01*
X46530010Y-58335278D01*
X46554329Y-58319030D01*
X46577043Y-58314511D01*
X46594591Y-58306764D01*
X46645952Y-58300805D01*
X46650000Y-58300000D01*
X47175000Y-58300000D01*
X47179047Y-58300805D01*
G37*
G36*
X58246742Y-57886601D02*
G01*
X58400687Y-57950367D01*
X58539234Y-58042941D01*
X58657059Y-58160766D01*
X58749633Y-58299313D01*
X58813399Y-58453258D01*
X58845907Y-58616685D01*
X58845907Y-58783315D01*
X58813399Y-58946742D01*
X58749633Y-59100687D01*
X58657059Y-59239234D01*
X58539234Y-59357059D01*
X58400687Y-59449633D01*
X58246742Y-59513399D01*
X58083315Y-59545907D01*
X57916685Y-59545907D01*
X57753258Y-59513399D01*
X57599313Y-59449633D01*
X57460766Y-59357059D01*
X57342941Y-59239234D01*
X57250367Y-59100687D01*
X57186601Y-58946742D01*
X57154093Y-58783315D01*
X57154093Y-58616685D01*
X57186601Y-58453258D01*
X57250367Y-58299313D01*
X57342941Y-58160766D01*
X57460766Y-58042941D01*
X57599313Y-57950367D01*
X57753258Y-57886601D01*
X57916685Y-57854093D01*
X58083315Y-57854093D01*
X58246742Y-57886601D01*
G37*
G36*
X83646742Y-57886601D02*
G01*
X83800687Y-57950367D01*
X83939234Y-58042941D01*
X84057059Y-58160766D01*
X84149633Y-58299313D01*
X84213399Y-58453258D01*
X84245907Y-58616685D01*
X84245907Y-58783315D01*
X84213399Y-58946742D01*
X84149633Y-59100687D01*
X84057059Y-59239234D01*
X83939234Y-59357059D01*
X83800687Y-59449633D01*
X83646742Y-59513399D01*
X83483315Y-59545907D01*
X83316685Y-59545907D01*
X83153258Y-59513399D01*
X82999313Y-59449633D01*
X82860766Y-59357059D01*
X82742941Y-59239234D01*
X82650367Y-59100687D01*
X82586601Y-58946742D01*
X82554093Y-58783315D01*
X82554093Y-58616685D01*
X82586601Y-58453258D01*
X82650367Y-58299313D01*
X82742941Y-58160766D01*
X82860766Y-58042941D01*
X82999313Y-57950367D01*
X83153258Y-57886601D01*
X83316685Y-57854093D01*
X83483315Y-57854093D01*
X83646742Y-57886601D01*
G37*
G36*
X93354047Y-56300805D02*
G01*
X93405408Y-56306764D01*
X93422954Y-56314511D01*
X93445671Y-56319030D01*
X93469991Y-56335280D01*
X93490793Y-56344465D01*
X93505000Y-56358672D01*
X93526777Y-56373223D01*
X93541327Y-56394999D01*
X93555534Y-56409206D01*
X93564718Y-56430006D01*
X93580970Y-56454329D01*
X93585489Y-56477048D01*
X93593235Y-56494591D01*
X93599192Y-56545940D01*
X93600000Y-56550000D01*
X93600000Y-57450000D01*
X93599192Y-57454059D01*
X93593235Y-57505408D01*
X93585489Y-57522950D01*
X93580970Y-57545671D01*
X93564716Y-57569995D01*
X93555534Y-57590793D01*
X93541329Y-57604997D01*
X93526777Y-57626777D01*
X93504997Y-57641329D01*
X93490793Y-57655534D01*
X93469995Y-57664716D01*
X93445671Y-57680970D01*
X93422950Y-57685489D01*
X93405408Y-57693235D01*
X93354061Y-57699192D01*
X93350000Y-57700000D01*
X92825000Y-57700000D01*
X92820941Y-57699192D01*
X92769591Y-57693235D01*
X92752048Y-57685489D01*
X92729329Y-57680970D01*
X92705006Y-57664718D01*
X92684206Y-57655534D01*
X92669999Y-57641327D01*
X92648223Y-57626777D01*
X92633672Y-57605000D01*
X92619465Y-57590793D01*
X92610280Y-57569991D01*
X92594030Y-57545671D01*
X92589511Y-57522954D01*
X92581764Y-57505408D01*
X92575805Y-57454049D01*
X92575000Y-57450000D01*
X92575000Y-56550000D01*
X92575804Y-56545953D01*
X92581764Y-56494591D01*
X92589511Y-56477043D01*
X92594030Y-56454329D01*
X92610278Y-56430010D01*
X92619465Y-56409206D01*
X92633674Y-56394996D01*
X92648223Y-56373223D01*
X92669996Y-56358674D01*
X92684206Y-56344465D01*
X92705010Y-56335278D01*
X92729329Y-56319030D01*
X92752043Y-56314511D01*
X92769591Y-56306764D01*
X92820952Y-56300805D01*
X92825000Y-56300000D01*
X93350000Y-56300000D01*
X93354047Y-56300805D01*
G37*
G36*
X95179047Y-56300805D02*
G01*
X95230408Y-56306764D01*
X95247954Y-56314511D01*
X95270671Y-56319030D01*
X95294991Y-56335280D01*
X95315793Y-56344465D01*
X95330000Y-56358672D01*
X95351777Y-56373223D01*
X95366327Y-56394999D01*
X95380534Y-56409206D01*
X95389718Y-56430006D01*
X95405970Y-56454329D01*
X95410489Y-56477048D01*
X95418235Y-56494591D01*
X95424192Y-56545940D01*
X95425000Y-56550000D01*
X95425000Y-57450000D01*
X95424192Y-57454059D01*
X95418235Y-57505408D01*
X95410489Y-57522950D01*
X95405970Y-57545671D01*
X95389716Y-57569995D01*
X95380534Y-57590793D01*
X95366329Y-57604997D01*
X95351777Y-57626777D01*
X95329997Y-57641329D01*
X95315793Y-57655534D01*
X95294995Y-57664716D01*
X95270671Y-57680970D01*
X95247950Y-57685489D01*
X95230408Y-57693235D01*
X95179061Y-57699192D01*
X95175000Y-57700000D01*
X94650000Y-57700000D01*
X94645941Y-57699192D01*
X94594591Y-57693235D01*
X94577048Y-57685489D01*
X94554329Y-57680970D01*
X94530006Y-57664718D01*
X94509206Y-57655534D01*
X94494999Y-57641327D01*
X94473223Y-57626777D01*
X94458672Y-57605000D01*
X94444465Y-57590793D01*
X94435280Y-57569991D01*
X94419030Y-57545671D01*
X94414511Y-57522954D01*
X94406764Y-57505408D01*
X94400805Y-57454049D01*
X94400000Y-57450000D01*
X94400000Y-56550000D01*
X94400804Y-56545953D01*
X94406764Y-56494591D01*
X94414511Y-56477043D01*
X94419030Y-56454329D01*
X94435278Y-56430010D01*
X94444465Y-56409206D01*
X94458674Y-56394996D01*
X94473223Y-56373223D01*
X94494996Y-56358674D01*
X94509206Y-56344465D01*
X94530010Y-56335278D01*
X94554329Y-56319030D01*
X94577043Y-56314511D01*
X94594591Y-56306764D01*
X94645952Y-56300805D01*
X94650000Y-56300000D01*
X95175000Y-56300000D01*
X95179047Y-56300805D01*
G37*
G36*
X58246742Y-55346601D02*
G01*
X58400687Y-55410367D01*
X58539234Y-55502941D01*
X58657059Y-55620766D01*
X58749633Y-55759313D01*
X58813399Y-55913258D01*
X58845907Y-56076685D01*
X58845907Y-56243315D01*
X58813399Y-56406742D01*
X58749633Y-56560687D01*
X58657059Y-56699234D01*
X58539234Y-56817059D01*
X58400687Y-56909633D01*
X58246742Y-56973399D01*
X58083315Y-57005907D01*
X57916685Y-57005907D01*
X57753258Y-56973399D01*
X57599313Y-56909633D01*
X57460766Y-56817059D01*
X57342941Y-56699234D01*
X57250367Y-56560687D01*
X57186601Y-56406742D01*
X57154093Y-56243315D01*
X57154093Y-56076685D01*
X57186601Y-55913258D01*
X57250367Y-55759313D01*
X57342941Y-55620766D01*
X57460766Y-55502941D01*
X57599313Y-55410367D01*
X57753258Y-55346601D01*
X57916685Y-55314093D01*
X58083315Y-55314093D01*
X58246742Y-55346601D01*
G37*
G36*
X83646742Y-55346601D02*
G01*
X83800687Y-55410367D01*
X83939234Y-55502941D01*
X84057059Y-55620766D01*
X84149633Y-55759313D01*
X84213399Y-55913258D01*
X84245907Y-56076685D01*
X84245907Y-56243315D01*
X84213399Y-56406742D01*
X84149633Y-56560687D01*
X84057059Y-56699234D01*
X83939234Y-56817059D01*
X83800687Y-56909633D01*
X83646742Y-56973399D01*
X83483315Y-57005907D01*
X83316685Y-57005907D01*
X83153258Y-56973399D01*
X82999313Y-56909633D01*
X82860766Y-56817059D01*
X82742941Y-56699234D01*
X82650367Y-56560687D01*
X82586601Y-56406742D01*
X82554093Y-56243315D01*
X82554093Y-56076685D01*
X82586601Y-55913258D01*
X82650367Y-55759313D01*
X82742941Y-55620766D01*
X82860766Y-55502941D01*
X82999313Y-55410367D01*
X83153258Y-55346601D01*
X83316685Y-55314093D01*
X83483315Y-55314093D01*
X83646742Y-55346601D01*
G37*
G36*
X45354047Y-55300805D02*
G01*
X45405408Y-55306764D01*
X45422954Y-55314511D01*
X45445671Y-55319030D01*
X45469991Y-55335280D01*
X45490793Y-55344465D01*
X45505000Y-55358672D01*
X45526777Y-55373223D01*
X45541327Y-55394999D01*
X45555534Y-55409206D01*
X45564718Y-55430006D01*
X45580970Y-55454329D01*
X45585489Y-55477048D01*
X45593235Y-55494591D01*
X45599192Y-55545940D01*
X45600000Y-55550000D01*
X45600000Y-56450000D01*
X45599192Y-56454059D01*
X45593235Y-56505408D01*
X45585489Y-56522950D01*
X45580970Y-56545671D01*
X45564716Y-56569995D01*
X45555534Y-56590793D01*
X45541329Y-56604997D01*
X45526777Y-56626777D01*
X45504997Y-56641329D01*
X45490793Y-56655534D01*
X45469995Y-56664716D01*
X45445671Y-56680970D01*
X45422950Y-56685489D01*
X45405408Y-56693235D01*
X45354061Y-56699192D01*
X45350000Y-56700000D01*
X44825000Y-56700000D01*
X44820941Y-56699192D01*
X44769591Y-56693235D01*
X44752048Y-56685489D01*
X44729329Y-56680970D01*
X44705006Y-56664718D01*
X44684206Y-56655534D01*
X44669999Y-56641327D01*
X44648223Y-56626777D01*
X44633672Y-56605000D01*
X44619465Y-56590793D01*
X44610280Y-56569991D01*
X44594030Y-56545671D01*
X44589511Y-56522954D01*
X44581764Y-56505408D01*
X44575805Y-56454049D01*
X44575000Y-56450000D01*
X44575000Y-55550000D01*
X44575804Y-55545953D01*
X44581764Y-55494591D01*
X44589511Y-55477043D01*
X44594030Y-55454329D01*
X44610278Y-55430010D01*
X44619465Y-55409206D01*
X44633674Y-55394996D01*
X44648223Y-55373223D01*
X44669996Y-55358674D01*
X44684206Y-55344465D01*
X44705010Y-55335278D01*
X44729329Y-55319030D01*
X44752043Y-55314511D01*
X44769591Y-55306764D01*
X44820952Y-55300805D01*
X44825000Y-55300000D01*
X45350000Y-55300000D01*
X45354047Y-55300805D01*
G37*
G36*
X47179047Y-55300805D02*
G01*
X47230408Y-55306764D01*
X47247954Y-55314511D01*
X47270671Y-55319030D01*
X47294991Y-55335280D01*
X47315793Y-55344465D01*
X47330000Y-55358672D01*
X47351777Y-55373223D01*
X47366327Y-55394999D01*
X47380534Y-55409206D01*
X47389718Y-55430006D01*
X47405970Y-55454329D01*
X47410489Y-55477048D01*
X47418235Y-55494591D01*
X47424192Y-55545940D01*
X47425000Y-55550000D01*
X47425000Y-56450000D01*
X47424192Y-56454059D01*
X47418235Y-56505408D01*
X47410489Y-56522950D01*
X47405970Y-56545671D01*
X47389716Y-56569995D01*
X47380534Y-56590793D01*
X47366329Y-56604997D01*
X47351777Y-56626777D01*
X47329997Y-56641329D01*
X47315793Y-56655534D01*
X47294995Y-56664716D01*
X47270671Y-56680970D01*
X47247950Y-56685489D01*
X47230408Y-56693235D01*
X47179061Y-56699192D01*
X47175000Y-56700000D01*
X46650000Y-56700000D01*
X46645941Y-56699192D01*
X46594591Y-56693235D01*
X46577048Y-56685489D01*
X46554329Y-56680970D01*
X46530006Y-56664718D01*
X46509206Y-56655534D01*
X46494999Y-56641327D01*
X46473223Y-56626777D01*
X46458672Y-56605000D01*
X46444465Y-56590793D01*
X46435280Y-56569991D01*
X46419030Y-56545671D01*
X46414511Y-56522954D01*
X46406764Y-56505408D01*
X46400805Y-56454049D01*
X46400000Y-56450000D01*
X46400000Y-55550000D01*
X46400804Y-55545953D01*
X46406764Y-55494591D01*
X46414511Y-55477043D01*
X46419030Y-55454329D01*
X46435278Y-55430010D01*
X46444465Y-55409206D01*
X46458674Y-55394996D01*
X46473223Y-55373223D01*
X46494996Y-55358674D01*
X46509206Y-55344465D01*
X46530010Y-55335278D01*
X46554329Y-55319030D01*
X46577043Y-55314511D01*
X46594591Y-55306764D01*
X46645952Y-55300805D01*
X46650000Y-55300000D01*
X47175000Y-55300000D01*
X47179047Y-55300805D01*
G37*
G36*
X58246742Y-52806601D02*
G01*
X58400687Y-52870367D01*
X58539234Y-52962941D01*
X58657059Y-53080766D01*
X58749633Y-53219313D01*
X58813399Y-53373258D01*
X58845907Y-53536685D01*
X58845907Y-53703315D01*
X58813399Y-53866742D01*
X58749633Y-54020687D01*
X58657059Y-54159234D01*
X58539234Y-54277059D01*
X58400687Y-54369633D01*
X58246742Y-54433399D01*
X58083315Y-54465907D01*
X57916685Y-54465907D01*
X57753258Y-54433399D01*
X57599313Y-54369633D01*
X57460766Y-54277059D01*
X57342941Y-54159234D01*
X57250367Y-54020687D01*
X57186601Y-53866742D01*
X57154093Y-53703315D01*
X57154093Y-53536685D01*
X57186601Y-53373258D01*
X57250367Y-53219313D01*
X57342941Y-53080766D01*
X57460766Y-52962941D01*
X57599313Y-52870367D01*
X57753258Y-52806601D01*
X57916685Y-52774093D01*
X58083315Y-52774093D01*
X58246742Y-52806601D01*
G37*
G36*
X83646742Y-52806601D02*
G01*
X83800687Y-52870367D01*
X83939234Y-52962941D01*
X84057059Y-53080766D01*
X84149633Y-53219313D01*
X84213399Y-53373258D01*
X84245907Y-53536685D01*
X84245907Y-53703315D01*
X84213399Y-53866742D01*
X84149633Y-54020687D01*
X84057059Y-54159234D01*
X83939234Y-54277059D01*
X83800687Y-54369633D01*
X83646742Y-54433399D01*
X83483315Y-54465907D01*
X83316685Y-54465907D01*
X83153258Y-54433399D01*
X82999313Y-54369633D01*
X82860766Y-54277059D01*
X82742941Y-54159234D01*
X82650367Y-54020687D01*
X82586601Y-53866742D01*
X82554093Y-53703315D01*
X82554093Y-53536685D01*
X82586601Y-53373258D01*
X82650367Y-53219313D01*
X82742941Y-53080766D01*
X82860766Y-52962941D01*
X82999313Y-52870367D01*
X83153258Y-52806601D01*
X83316685Y-52774093D01*
X83483315Y-52774093D01*
X83646742Y-52806601D01*
G37*
G36*
X45354047Y-52300805D02*
G01*
X45405408Y-52306764D01*
X45422954Y-52314511D01*
X45445671Y-52319030D01*
X45469991Y-52335280D01*
X45490793Y-52344465D01*
X45505000Y-52358672D01*
X45526777Y-52373223D01*
X45541327Y-52394999D01*
X45555534Y-52409206D01*
X45564718Y-52430006D01*
X45580970Y-52454329D01*
X45585489Y-52477048D01*
X45593235Y-52494591D01*
X45599192Y-52545940D01*
X45600000Y-52550000D01*
X45600000Y-53450000D01*
X45599192Y-53454059D01*
X45593235Y-53505408D01*
X45585489Y-53522950D01*
X45580970Y-53545671D01*
X45564716Y-53569995D01*
X45555534Y-53590793D01*
X45541329Y-53604997D01*
X45526777Y-53626777D01*
X45504997Y-53641329D01*
X45490793Y-53655534D01*
X45469995Y-53664716D01*
X45445671Y-53680970D01*
X45422950Y-53685489D01*
X45405408Y-53693235D01*
X45354061Y-53699192D01*
X45350000Y-53700000D01*
X44825000Y-53700000D01*
X44820941Y-53699192D01*
X44769591Y-53693235D01*
X44752048Y-53685489D01*
X44729329Y-53680970D01*
X44705006Y-53664718D01*
X44684206Y-53655534D01*
X44669999Y-53641327D01*
X44648223Y-53626777D01*
X44633672Y-53605000D01*
X44619465Y-53590793D01*
X44610280Y-53569991D01*
X44594030Y-53545671D01*
X44589511Y-53522954D01*
X44581764Y-53505408D01*
X44575805Y-53454049D01*
X44575000Y-53450000D01*
X44575000Y-52550000D01*
X44575804Y-52545953D01*
X44581764Y-52494591D01*
X44589511Y-52477043D01*
X44594030Y-52454329D01*
X44610278Y-52430010D01*
X44619465Y-52409206D01*
X44633674Y-52394996D01*
X44648223Y-52373223D01*
X44669996Y-52358674D01*
X44684206Y-52344465D01*
X44705010Y-52335278D01*
X44729329Y-52319030D01*
X44752043Y-52314511D01*
X44769591Y-52306764D01*
X44820952Y-52300805D01*
X44825000Y-52300000D01*
X45350000Y-52300000D01*
X45354047Y-52300805D01*
G37*
G36*
X47179047Y-52300805D02*
G01*
X47230408Y-52306764D01*
X47247954Y-52314511D01*
X47270671Y-52319030D01*
X47294991Y-52335280D01*
X47315793Y-52344465D01*
X47330000Y-52358672D01*
X47351777Y-52373223D01*
X47366327Y-52394999D01*
X47380534Y-52409206D01*
X47389718Y-52430006D01*
X47405970Y-52454329D01*
X47410489Y-52477048D01*
X47418235Y-52494591D01*
X47424192Y-52545940D01*
X47425000Y-52550000D01*
X47425000Y-53450000D01*
X47424192Y-53454059D01*
X47418235Y-53505408D01*
X47410489Y-53522950D01*
X47405970Y-53545671D01*
X47389716Y-53569995D01*
X47380534Y-53590793D01*
X47366329Y-53604997D01*
X47351777Y-53626777D01*
X47329997Y-53641329D01*
X47315793Y-53655534D01*
X47294995Y-53664716D01*
X47270671Y-53680970D01*
X47247950Y-53685489D01*
X47230408Y-53693235D01*
X47179061Y-53699192D01*
X47175000Y-53700000D01*
X46650000Y-53700000D01*
X46645941Y-53699192D01*
X46594591Y-53693235D01*
X46577048Y-53685489D01*
X46554329Y-53680970D01*
X46530006Y-53664718D01*
X46509206Y-53655534D01*
X46494999Y-53641327D01*
X46473223Y-53626777D01*
X46458672Y-53605000D01*
X46444465Y-53590793D01*
X46435280Y-53569991D01*
X46419030Y-53545671D01*
X46414511Y-53522954D01*
X46406764Y-53505408D01*
X46400805Y-53454049D01*
X46400000Y-53450000D01*
X46400000Y-52550000D01*
X46400804Y-52545953D01*
X46406764Y-52494591D01*
X46414511Y-52477043D01*
X46419030Y-52454329D01*
X46435278Y-52430010D01*
X46444465Y-52409206D01*
X46458674Y-52394996D01*
X46473223Y-52373223D01*
X46494996Y-52358674D01*
X46509206Y-52344465D01*
X46530010Y-52335278D01*
X46554329Y-52319030D01*
X46577043Y-52314511D01*
X46594591Y-52306764D01*
X46645952Y-52300805D01*
X46650000Y-52300000D01*
X47175000Y-52300000D01*
X47179047Y-52300805D01*
G37*
G36*
X93354047Y-52300805D02*
G01*
X93405408Y-52306764D01*
X93422954Y-52314511D01*
X93445671Y-52319030D01*
X93469991Y-52335280D01*
X93490793Y-52344465D01*
X93505000Y-52358672D01*
X93526777Y-52373223D01*
X93541327Y-52394999D01*
X93555534Y-52409206D01*
X93564718Y-52430006D01*
X93580970Y-52454329D01*
X93585489Y-52477048D01*
X93593235Y-52494591D01*
X93599192Y-52545940D01*
X93600000Y-52550000D01*
X93600000Y-53450000D01*
X93599192Y-53454059D01*
X93593235Y-53505408D01*
X93585489Y-53522950D01*
X93580970Y-53545671D01*
X93564716Y-53569995D01*
X93555534Y-53590793D01*
X93541329Y-53604997D01*
X93526777Y-53626777D01*
X93504997Y-53641329D01*
X93490793Y-53655534D01*
X93469995Y-53664716D01*
X93445671Y-53680970D01*
X93422950Y-53685489D01*
X93405408Y-53693235D01*
X93354061Y-53699192D01*
X93350000Y-53700000D01*
X92825000Y-53700000D01*
X92820941Y-53699192D01*
X92769591Y-53693235D01*
X92752048Y-53685489D01*
X92729329Y-53680970D01*
X92705006Y-53664718D01*
X92684206Y-53655534D01*
X92669999Y-53641327D01*
X92648223Y-53626777D01*
X92633672Y-53605000D01*
X92619465Y-53590793D01*
X92610280Y-53569991D01*
X92594030Y-53545671D01*
X92589511Y-53522954D01*
X92581764Y-53505408D01*
X92575805Y-53454049D01*
X92575000Y-53450000D01*
X92575000Y-52550000D01*
X92575804Y-52545953D01*
X92581764Y-52494591D01*
X92589511Y-52477043D01*
X92594030Y-52454329D01*
X92610278Y-52430010D01*
X92619465Y-52409206D01*
X92633674Y-52394996D01*
X92648223Y-52373223D01*
X92669996Y-52358674D01*
X92684206Y-52344465D01*
X92705010Y-52335278D01*
X92729329Y-52319030D01*
X92752043Y-52314511D01*
X92769591Y-52306764D01*
X92820952Y-52300805D01*
X92825000Y-52300000D01*
X93350000Y-52300000D01*
X93354047Y-52300805D01*
G37*
G36*
X95179047Y-52300805D02*
G01*
X95230408Y-52306764D01*
X95247954Y-52314511D01*
X95270671Y-52319030D01*
X95294991Y-52335280D01*
X95315793Y-52344465D01*
X95330000Y-52358672D01*
X95351777Y-52373223D01*
X95366327Y-52394999D01*
X95380534Y-52409206D01*
X95389718Y-52430006D01*
X95405970Y-52454329D01*
X95410489Y-52477048D01*
X95418235Y-52494591D01*
X95424192Y-52545940D01*
X95425000Y-52550000D01*
X95425000Y-53450000D01*
X95424192Y-53454059D01*
X95418235Y-53505408D01*
X95410489Y-53522950D01*
X95405970Y-53545671D01*
X95389716Y-53569995D01*
X95380534Y-53590793D01*
X95366329Y-53604997D01*
X95351777Y-53626777D01*
X95329997Y-53641329D01*
X95315793Y-53655534D01*
X95294995Y-53664716D01*
X95270671Y-53680970D01*
X95247950Y-53685489D01*
X95230408Y-53693235D01*
X95179061Y-53699192D01*
X95175000Y-53700000D01*
X94650000Y-53700000D01*
X94645941Y-53699192D01*
X94594591Y-53693235D01*
X94577048Y-53685489D01*
X94554329Y-53680970D01*
X94530006Y-53664718D01*
X94509206Y-53655534D01*
X94494999Y-53641327D01*
X94473223Y-53626777D01*
X94458672Y-53605000D01*
X94444465Y-53590793D01*
X94435280Y-53569991D01*
X94419030Y-53545671D01*
X94414511Y-53522954D01*
X94406764Y-53505408D01*
X94400805Y-53454049D01*
X94400000Y-53450000D01*
X94400000Y-52550000D01*
X94400804Y-52545953D01*
X94406764Y-52494591D01*
X94414511Y-52477043D01*
X94419030Y-52454329D01*
X94435278Y-52430010D01*
X94444465Y-52409206D01*
X94458674Y-52394996D01*
X94473223Y-52373223D01*
X94494996Y-52358674D01*
X94509206Y-52344465D01*
X94530010Y-52335278D01*
X94554329Y-52319030D01*
X94577043Y-52314511D01*
X94594591Y-52306764D01*
X94645952Y-52300805D01*
X94650000Y-52300000D01*
X95175000Y-52300000D01*
X95179047Y-52300805D01*
G37*
G36*
X58246742Y-50266601D02*
G01*
X58400687Y-50330367D01*
X58539234Y-50422941D01*
X58657059Y-50540766D01*
X58749633Y-50679313D01*
X58813399Y-50833258D01*
X58845907Y-50996685D01*
X58845907Y-51163315D01*
X58813399Y-51326742D01*
X58749633Y-51480687D01*
X58657059Y-51619234D01*
X58539234Y-51737059D01*
X58400687Y-51829633D01*
X58246742Y-51893399D01*
X58083315Y-51925907D01*
X57916685Y-51925907D01*
X57753258Y-51893399D01*
X57599313Y-51829633D01*
X57460766Y-51737059D01*
X57342941Y-51619234D01*
X57250367Y-51480687D01*
X57186601Y-51326742D01*
X57154093Y-51163315D01*
X57154093Y-50996685D01*
X57186601Y-50833258D01*
X57250367Y-50679313D01*
X57342941Y-50540766D01*
X57460766Y-50422941D01*
X57599313Y-50330367D01*
X57753258Y-50266601D01*
X57916685Y-50234093D01*
X58083315Y-50234093D01*
X58246742Y-50266601D01*
G37*
G36*
X83646742Y-50266601D02*
G01*
X83800687Y-50330367D01*
X83939234Y-50422941D01*
X84057059Y-50540766D01*
X84149633Y-50679313D01*
X84213399Y-50833258D01*
X84245907Y-50996685D01*
X84245907Y-51163315D01*
X84213399Y-51326742D01*
X84149633Y-51480687D01*
X84057059Y-51619234D01*
X83939234Y-51737059D01*
X83800687Y-51829633D01*
X83646742Y-51893399D01*
X83483315Y-51925907D01*
X83316685Y-51925907D01*
X83153258Y-51893399D01*
X82999313Y-51829633D01*
X82860766Y-51737059D01*
X82742941Y-51619234D01*
X82650367Y-51480687D01*
X82586601Y-51326742D01*
X82554093Y-51163315D01*
X82554093Y-50996685D01*
X82586601Y-50833258D01*
X82650367Y-50679313D01*
X82742941Y-50540766D01*
X82860766Y-50422941D01*
X82999313Y-50330367D01*
X83153258Y-50266601D01*
X83316685Y-50234093D01*
X83483315Y-50234093D01*
X83646742Y-50266601D01*
G37*
G36*
X45354047Y-49300805D02*
G01*
X45405408Y-49306764D01*
X45422954Y-49314511D01*
X45445671Y-49319030D01*
X45469991Y-49335280D01*
X45490793Y-49344465D01*
X45505000Y-49358672D01*
X45526777Y-49373223D01*
X45541327Y-49394999D01*
X45555534Y-49409206D01*
X45564718Y-49430006D01*
X45580970Y-49454329D01*
X45585489Y-49477048D01*
X45593235Y-49494591D01*
X45599192Y-49545940D01*
X45600000Y-49550000D01*
X45600000Y-50450000D01*
X45599192Y-50454059D01*
X45593235Y-50505408D01*
X45585489Y-50522950D01*
X45580970Y-50545671D01*
X45564716Y-50569995D01*
X45555534Y-50590793D01*
X45541329Y-50604997D01*
X45526777Y-50626777D01*
X45504997Y-50641329D01*
X45490793Y-50655534D01*
X45469995Y-50664716D01*
X45445671Y-50680970D01*
X45422950Y-50685489D01*
X45405408Y-50693235D01*
X45354061Y-50699192D01*
X45350000Y-50700000D01*
X44825000Y-50700000D01*
X44820941Y-50699192D01*
X44769591Y-50693235D01*
X44752048Y-50685489D01*
X44729329Y-50680970D01*
X44705006Y-50664718D01*
X44684206Y-50655534D01*
X44669999Y-50641327D01*
X44648223Y-50626777D01*
X44633672Y-50605000D01*
X44619465Y-50590793D01*
X44610280Y-50569991D01*
X44594030Y-50545671D01*
X44589511Y-50522954D01*
X44581764Y-50505408D01*
X44575805Y-50454049D01*
X44575000Y-50450000D01*
X44575000Y-49550000D01*
X44575804Y-49545953D01*
X44581764Y-49494591D01*
X44589511Y-49477043D01*
X44594030Y-49454329D01*
X44610278Y-49430010D01*
X44619465Y-49409206D01*
X44633674Y-49394996D01*
X44648223Y-49373223D01*
X44669996Y-49358674D01*
X44684206Y-49344465D01*
X44705010Y-49335278D01*
X44729329Y-49319030D01*
X44752043Y-49314511D01*
X44769591Y-49306764D01*
X44820952Y-49300805D01*
X44825000Y-49300000D01*
X45350000Y-49300000D01*
X45354047Y-49300805D01*
G37*
G36*
X47179047Y-49300805D02*
G01*
X47230408Y-49306764D01*
X47247954Y-49314511D01*
X47270671Y-49319030D01*
X47294991Y-49335280D01*
X47315793Y-49344465D01*
X47330000Y-49358672D01*
X47351777Y-49373223D01*
X47366327Y-49394999D01*
X47380534Y-49409206D01*
X47389718Y-49430006D01*
X47405970Y-49454329D01*
X47410489Y-49477048D01*
X47418235Y-49494591D01*
X47424192Y-49545940D01*
X47425000Y-49550000D01*
X47425000Y-50450000D01*
X47424192Y-50454059D01*
X47418235Y-50505408D01*
X47410489Y-50522950D01*
X47405970Y-50545671D01*
X47389716Y-50569995D01*
X47380534Y-50590793D01*
X47366329Y-50604997D01*
X47351777Y-50626777D01*
X47329997Y-50641329D01*
X47315793Y-50655534D01*
X47294995Y-50664716D01*
X47270671Y-50680970D01*
X47247950Y-50685489D01*
X47230408Y-50693235D01*
X47179061Y-50699192D01*
X47175000Y-50700000D01*
X46650000Y-50700000D01*
X46645941Y-50699192D01*
X46594591Y-50693235D01*
X46577048Y-50685489D01*
X46554329Y-50680970D01*
X46530006Y-50664718D01*
X46509206Y-50655534D01*
X46494999Y-50641327D01*
X46473223Y-50626777D01*
X46458672Y-50605000D01*
X46444465Y-50590793D01*
X46435280Y-50569991D01*
X46419030Y-50545671D01*
X46414511Y-50522954D01*
X46406764Y-50505408D01*
X46400805Y-50454049D01*
X46400000Y-50450000D01*
X46400000Y-49550000D01*
X46400804Y-49545953D01*
X46406764Y-49494591D01*
X46414511Y-49477043D01*
X46419030Y-49454329D01*
X46435278Y-49430010D01*
X46444465Y-49409206D01*
X46458674Y-49394996D01*
X46473223Y-49373223D01*
X46494996Y-49358674D01*
X46509206Y-49344465D01*
X46530010Y-49335278D01*
X46554329Y-49319030D01*
X46577043Y-49314511D01*
X46594591Y-49306764D01*
X46645952Y-49300805D01*
X46650000Y-49300000D01*
X47175000Y-49300000D01*
X47179047Y-49300805D01*
G37*
G36*
X93354047Y-48300805D02*
G01*
X93405408Y-48306764D01*
X93422954Y-48314511D01*
X93445671Y-48319030D01*
X93469991Y-48335280D01*
X93490793Y-48344465D01*
X93505000Y-48358672D01*
X93526777Y-48373223D01*
X93541327Y-48394999D01*
X93555534Y-48409206D01*
X93564718Y-48430006D01*
X93580970Y-48454329D01*
X93585489Y-48477048D01*
X93593235Y-48494591D01*
X93599192Y-48545940D01*
X93600000Y-48550000D01*
X93600000Y-49450000D01*
X93599192Y-49454059D01*
X93593235Y-49505408D01*
X93585489Y-49522950D01*
X93580970Y-49545671D01*
X93564716Y-49569995D01*
X93555534Y-49590793D01*
X93541329Y-49604997D01*
X93526777Y-49626777D01*
X93504997Y-49641329D01*
X93490793Y-49655534D01*
X93469995Y-49664716D01*
X93445671Y-49680970D01*
X93422950Y-49685489D01*
X93405408Y-49693235D01*
X93354061Y-49699192D01*
X93350000Y-49700000D01*
X92825000Y-49700000D01*
X92820941Y-49699192D01*
X92769591Y-49693235D01*
X92752048Y-49685489D01*
X92729329Y-49680970D01*
X92705006Y-49664718D01*
X92684206Y-49655534D01*
X92669999Y-49641327D01*
X92648223Y-49626777D01*
X92633672Y-49605000D01*
X92619465Y-49590793D01*
X92610280Y-49569991D01*
X92594030Y-49545671D01*
X92589511Y-49522954D01*
X92581764Y-49505408D01*
X92575805Y-49454049D01*
X92575000Y-49450000D01*
X92575000Y-48550000D01*
X92575804Y-48545953D01*
X92581764Y-48494591D01*
X92589511Y-48477043D01*
X92594030Y-48454329D01*
X92610278Y-48430010D01*
X92619465Y-48409206D01*
X92633674Y-48394996D01*
X92648223Y-48373223D01*
X92669996Y-48358674D01*
X92684206Y-48344465D01*
X92705010Y-48335278D01*
X92729329Y-48319030D01*
X92752043Y-48314511D01*
X92769591Y-48306764D01*
X92820952Y-48300805D01*
X92825000Y-48300000D01*
X93350000Y-48300000D01*
X93354047Y-48300805D01*
G37*
G36*
X95179047Y-48300805D02*
G01*
X95230408Y-48306764D01*
X95247954Y-48314511D01*
X95270671Y-48319030D01*
X95294991Y-48335280D01*
X95315793Y-48344465D01*
X95330000Y-48358672D01*
X95351777Y-48373223D01*
X95366327Y-48394999D01*
X95380534Y-48409206D01*
X95389718Y-48430006D01*
X95405970Y-48454329D01*
X95410489Y-48477048D01*
X95418235Y-48494591D01*
X95424192Y-48545940D01*
X95425000Y-48550000D01*
X95425000Y-49450000D01*
X95424192Y-49454059D01*
X95418235Y-49505408D01*
X95410489Y-49522950D01*
X95405970Y-49545671D01*
X95389716Y-49569995D01*
X95380534Y-49590793D01*
X95366329Y-49604997D01*
X95351777Y-49626777D01*
X95329997Y-49641329D01*
X95315793Y-49655534D01*
X95294995Y-49664716D01*
X95270671Y-49680970D01*
X95247950Y-49685489D01*
X95230408Y-49693235D01*
X95179061Y-49699192D01*
X95175000Y-49700000D01*
X94650000Y-49700000D01*
X94645941Y-49699192D01*
X94594591Y-49693235D01*
X94577048Y-49685489D01*
X94554329Y-49680970D01*
X94530006Y-49664718D01*
X94509206Y-49655534D01*
X94494999Y-49641327D01*
X94473223Y-49626777D01*
X94458672Y-49605000D01*
X94444465Y-49590793D01*
X94435280Y-49569991D01*
X94419030Y-49545671D01*
X94414511Y-49522954D01*
X94406764Y-49505408D01*
X94400805Y-49454049D01*
X94400000Y-49450000D01*
X94400000Y-48550000D01*
X94400804Y-48545953D01*
X94406764Y-48494591D01*
X94414511Y-48477043D01*
X94419030Y-48454329D01*
X94435278Y-48430010D01*
X94444465Y-48409206D01*
X94458674Y-48394996D01*
X94473223Y-48373223D01*
X94494996Y-48358674D01*
X94509206Y-48344465D01*
X94530010Y-48335278D01*
X94554329Y-48319030D01*
X94577043Y-48314511D01*
X94594591Y-48306764D01*
X94645952Y-48300805D01*
X94650000Y-48300000D01*
X95175000Y-48300000D01*
X95179047Y-48300805D01*
G37*
G36*
X58246742Y-47726601D02*
G01*
X58400687Y-47790367D01*
X58539234Y-47882941D01*
X58657059Y-48000766D01*
X58749633Y-48139313D01*
X58813399Y-48293258D01*
X58845907Y-48456685D01*
X58845907Y-48623315D01*
X58813399Y-48786742D01*
X58749633Y-48940687D01*
X58657059Y-49079234D01*
X58539234Y-49197059D01*
X58400687Y-49289633D01*
X58246742Y-49353399D01*
X58083315Y-49385907D01*
X57916685Y-49385907D01*
X57753258Y-49353399D01*
X57599313Y-49289633D01*
X57460766Y-49197059D01*
X57342941Y-49079234D01*
X57250367Y-48940687D01*
X57186601Y-48786742D01*
X57154093Y-48623315D01*
X57154093Y-48456685D01*
X57186601Y-48293258D01*
X57250367Y-48139313D01*
X57342941Y-48000766D01*
X57460766Y-47882941D01*
X57599313Y-47790367D01*
X57753258Y-47726601D01*
X57916685Y-47694093D01*
X58083315Y-47694093D01*
X58246742Y-47726601D01*
G37*
G36*
X83646742Y-47726601D02*
G01*
X83800687Y-47790367D01*
X83939234Y-47882941D01*
X84057059Y-48000766D01*
X84149633Y-48139313D01*
X84213399Y-48293258D01*
X84245907Y-48456685D01*
X84245907Y-48623315D01*
X84213399Y-48786742D01*
X84149633Y-48940687D01*
X84057059Y-49079234D01*
X83939234Y-49197059D01*
X83800687Y-49289633D01*
X83646742Y-49353399D01*
X83483315Y-49385907D01*
X83316685Y-49385907D01*
X83153258Y-49353399D01*
X82999313Y-49289633D01*
X82860766Y-49197059D01*
X82742941Y-49079234D01*
X82650367Y-48940687D01*
X82586601Y-48786742D01*
X82554093Y-48623315D01*
X82554093Y-48456685D01*
X82586601Y-48293258D01*
X82650367Y-48139313D01*
X82742941Y-48000766D01*
X82860766Y-47882941D01*
X82999313Y-47790367D01*
X83153258Y-47726601D01*
X83316685Y-47694093D01*
X83483315Y-47694093D01*
X83646742Y-47726601D01*
G37*
G36*
X7290285Y-47043060D02*
G01*
X7471397Y-47118079D01*
X7634393Y-47226990D01*
X7773010Y-47365607D01*
X7881921Y-47528603D01*
X7956940Y-47709715D01*
X7995185Y-47901983D01*
X7995185Y-48098017D01*
X7956940Y-48290285D01*
X7881921Y-48471397D01*
X7773010Y-48634393D01*
X7634393Y-48773010D01*
X7471397Y-48881921D01*
X7290285Y-48956940D01*
X7098017Y-48995185D01*
X6901983Y-48995185D01*
X6709715Y-48956940D01*
X6528603Y-48881921D01*
X6365607Y-48773010D01*
X6226990Y-48634393D01*
X6118079Y-48471397D01*
X6043060Y-48290285D01*
X6004815Y-48098017D01*
X6004815Y-47901983D01*
X6043060Y-47709715D01*
X6118079Y-47528603D01*
X6226990Y-47365607D01*
X6365607Y-47226990D01*
X6528603Y-47118079D01*
X6709715Y-47043060D01*
X6901983Y-47004815D01*
X7098017Y-47004815D01*
X7290285Y-47043060D01*
G37*
G36*
X38290285Y-46043060D02*
G01*
X38471397Y-46118079D01*
X38634393Y-46226990D01*
X38773010Y-46365607D01*
X38881921Y-46528603D01*
X38956940Y-46709715D01*
X38995185Y-46901983D01*
X38995185Y-47098017D01*
X38956940Y-47290285D01*
X38881921Y-47471397D01*
X38773010Y-47634393D01*
X38634393Y-47773010D01*
X38471397Y-47881921D01*
X38290285Y-47956940D01*
X38098017Y-47995185D01*
X37901983Y-47995185D01*
X37709715Y-47956940D01*
X37528603Y-47881921D01*
X37365607Y-47773010D01*
X37226990Y-47634393D01*
X37118079Y-47471397D01*
X37043060Y-47290285D01*
X37004815Y-47098017D01*
X37004815Y-46901983D01*
X37043060Y-46709715D01*
X37118079Y-46528603D01*
X37226990Y-46365607D01*
X37365607Y-46226990D01*
X37528603Y-46118079D01*
X37709715Y-46043060D01*
X37901983Y-46004815D01*
X38098017Y-46004815D01*
X38290285Y-46043060D01*
G37*
G36*
X45354047Y-46300805D02*
G01*
X45405408Y-46306764D01*
X45422954Y-46314511D01*
X45445671Y-46319030D01*
X45469991Y-46335280D01*
X45490793Y-46344465D01*
X45505000Y-46358672D01*
X45526777Y-46373223D01*
X45541327Y-46394999D01*
X45555534Y-46409206D01*
X45564718Y-46430006D01*
X45580970Y-46454329D01*
X45585489Y-46477048D01*
X45593235Y-46494591D01*
X45599192Y-46545940D01*
X45600000Y-46550000D01*
X45600000Y-47450000D01*
X45599192Y-47454059D01*
X45593235Y-47505408D01*
X45585489Y-47522950D01*
X45580970Y-47545671D01*
X45564716Y-47569995D01*
X45555534Y-47590793D01*
X45541329Y-47604997D01*
X45526777Y-47626777D01*
X45504997Y-47641329D01*
X45490793Y-47655534D01*
X45469995Y-47664716D01*
X45445671Y-47680970D01*
X45422950Y-47685489D01*
X45405408Y-47693235D01*
X45354061Y-47699192D01*
X45350000Y-47700000D01*
X44825000Y-47700000D01*
X44820941Y-47699192D01*
X44769591Y-47693235D01*
X44752048Y-47685489D01*
X44729329Y-47680970D01*
X44705006Y-47664718D01*
X44684206Y-47655534D01*
X44669999Y-47641327D01*
X44648223Y-47626777D01*
X44633672Y-47605000D01*
X44619465Y-47590793D01*
X44610280Y-47569991D01*
X44594030Y-47545671D01*
X44589511Y-47522954D01*
X44581764Y-47505408D01*
X44575805Y-47454049D01*
X44575000Y-47450000D01*
X44575000Y-46550000D01*
X44575804Y-46545953D01*
X44581764Y-46494591D01*
X44589511Y-46477043D01*
X44594030Y-46454329D01*
X44610278Y-46430010D01*
X44619465Y-46409206D01*
X44633674Y-46394996D01*
X44648223Y-46373223D01*
X44669996Y-46358674D01*
X44684206Y-46344465D01*
X44705010Y-46335278D01*
X44729329Y-46319030D01*
X44752043Y-46314511D01*
X44769591Y-46306764D01*
X44820952Y-46300805D01*
X44825000Y-46300000D01*
X45350000Y-46300000D01*
X45354047Y-46300805D01*
G37*
G36*
X47179047Y-46300805D02*
G01*
X47230408Y-46306764D01*
X47247954Y-46314511D01*
X47270671Y-46319030D01*
X47294991Y-46335280D01*
X47315793Y-46344465D01*
X47330000Y-46358672D01*
X47351777Y-46373223D01*
X47366327Y-46394999D01*
X47380534Y-46409206D01*
X47389718Y-46430006D01*
X47405970Y-46454329D01*
X47410489Y-46477048D01*
X47418235Y-46494591D01*
X47424192Y-46545940D01*
X47425000Y-46550000D01*
X47425000Y-47450000D01*
X47424192Y-47454059D01*
X47418235Y-47505408D01*
X47410489Y-47522950D01*
X47405970Y-47545671D01*
X47389716Y-47569995D01*
X47380534Y-47590793D01*
X47366329Y-47604997D01*
X47351777Y-47626777D01*
X47329997Y-47641329D01*
X47315793Y-47655534D01*
X47294995Y-47664716D01*
X47270671Y-47680970D01*
X47247950Y-47685489D01*
X47230408Y-47693235D01*
X47179061Y-47699192D01*
X47175000Y-47700000D01*
X46650000Y-47700000D01*
X46645941Y-47699192D01*
X46594591Y-47693235D01*
X46577048Y-47685489D01*
X46554329Y-47680970D01*
X46530006Y-47664718D01*
X46509206Y-47655534D01*
X46494999Y-47641327D01*
X46473223Y-47626777D01*
X46458672Y-47605000D01*
X46444465Y-47590793D01*
X46435280Y-47569991D01*
X46419030Y-47545671D01*
X46414511Y-47522954D01*
X46406764Y-47505408D01*
X46400805Y-47454049D01*
X46400000Y-47450000D01*
X46400000Y-46550000D01*
X46400804Y-46545953D01*
X46406764Y-46494591D01*
X46414511Y-46477043D01*
X46419030Y-46454329D01*
X46435278Y-46430010D01*
X46444465Y-46409206D01*
X46458674Y-46394996D01*
X46473223Y-46373223D01*
X46494996Y-46358674D01*
X46509206Y-46344465D01*
X46530010Y-46335278D01*
X46554329Y-46319030D01*
X46577043Y-46314511D01*
X46594591Y-46306764D01*
X46645952Y-46300805D01*
X46650000Y-46300000D01*
X47175000Y-46300000D01*
X47179047Y-46300805D01*
G37*
G36*
X58850000Y-46850000D02*
G01*
X57150000Y-46850000D01*
X57150000Y-45150000D01*
X58850000Y-45150000D01*
X58850000Y-46850000D01*
G37*
G36*
X84250000Y-46850000D02*
G01*
X82550000Y-46850000D01*
X82550000Y-45150000D01*
X84250000Y-45150000D01*
X84250000Y-46850000D01*
G37*
G36*
X13246742Y-39726601D02*
G01*
X13400687Y-39790367D01*
X13539234Y-39882941D01*
X13657059Y-40000766D01*
X13749633Y-40139313D01*
X13813399Y-40293258D01*
X13845907Y-40456685D01*
X13845907Y-40623315D01*
X13813399Y-40786742D01*
X13749633Y-40940687D01*
X13657059Y-41079234D01*
X13539234Y-41197059D01*
X13400687Y-41289633D01*
X13246742Y-41353399D01*
X13083315Y-41385907D01*
X12916685Y-41385907D01*
X12753258Y-41353399D01*
X12599313Y-41289633D01*
X12460766Y-41197059D01*
X12342941Y-41079234D01*
X12250367Y-40940687D01*
X12186601Y-40786742D01*
X12154093Y-40623315D01*
X12154093Y-40456685D01*
X12186601Y-40293258D01*
X12250367Y-40139313D01*
X12342941Y-40000766D01*
X12460766Y-39882941D01*
X12599313Y-39790367D01*
X12753258Y-39726601D01*
X12916685Y-39694093D01*
X13083315Y-39694093D01*
X13246742Y-39726601D01*
G37*
G36*
X37290285Y-38043060D02*
G01*
X37471397Y-38118079D01*
X37634393Y-38226990D01*
X37773010Y-38365607D01*
X37881921Y-38528603D01*
X37956940Y-38709715D01*
X37995185Y-38901983D01*
X37995185Y-39098017D01*
X37956940Y-39290285D01*
X37881921Y-39471397D01*
X37773010Y-39634393D01*
X37634393Y-39773010D01*
X37471397Y-39881921D01*
X37290285Y-39956940D01*
X37098017Y-39995185D01*
X36901983Y-39995185D01*
X36709715Y-39956940D01*
X36528603Y-39881921D01*
X36365607Y-39773010D01*
X36226990Y-39634393D01*
X36118079Y-39471397D01*
X36043060Y-39290285D01*
X36004815Y-39098017D01*
X36004815Y-38901983D01*
X36043060Y-38709715D01*
X36118079Y-38528603D01*
X36226990Y-38365607D01*
X36365607Y-38226990D01*
X36528603Y-38118079D01*
X36709715Y-38043060D01*
X36901983Y-38004815D01*
X37098017Y-38004815D01*
X37290285Y-38043060D01*
G37*
G36*
X43290285Y-38043060D02*
G01*
X43471397Y-38118079D01*
X43634393Y-38226990D01*
X43773010Y-38365607D01*
X43881921Y-38528603D01*
X43956940Y-38709715D01*
X43995185Y-38901983D01*
X43995185Y-39098017D01*
X43956940Y-39290285D01*
X43881921Y-39471397D01*
X43773010Y-39634393D01*
X43634393Y-39773010D01*
X43471397Y-39881921D01*
X43290285Y-39956940D01*
X43098017Y-39995185D01*
X42901983Y-39995185D01*
X42709715Y-39956940D01*
X42528603Y-39881921D01*
X42365607Y-39773010D01*
X42226990Y-39634393D01*
X42118079Y-39471397D01*
X42043060Y-39290285D01*
X42004815Y-39098017D01*
X42004815Y-38901983D01*
X42043060Y-38709715D01*
X42118079Y-38528603D01*
X42226990Y-38365607D01*
X42365607Y-38226990D01*
X42528603Y-38118079D01*
X42709715Y-38043060D01*
X42901983Y-38004815D01*
X43098017Y-38004815D01*
X43290285Y-38043060D01*
G37*
G36*
X94290285Y-37043060D02*
G01*
X94471397Y-37118079D01*
X94634393Y-37226990D01*
X94773010Y-37365607D01*
X94881921Y-37528603D01*
X94956940Y-37709715D01*
X94995185Y-37901983D01*
X94995185Y-38098017D01*
X94956940Y-38290285D01*
X94881921Y-38471397D01*
X94773010Y-38634393D01*
X94634393Y-38773010D01*
X94471397Y-38881921D01*
X94290285Y-38956940D01*
X94098017Y-38995185D01*
X93901983Y-38995185D01*
X93709715Y-38956940D01*
X93528603Y-38881921D01*
X93365607Y-38773010D01*
X93226990Y-38634393D01*
X93118079Y-38471397D01*
X93043060Y-38290285D01*
X93004815Y-38098017D01*
X93004815Y-37901983D01*
X93043060Y-37709715D01*
X93118079Y-37528603D01*
X93226990Y-37365607D01*
X93365607Y-37226990D01*
X93528603Y-37118079D01*
X93709715Y-37043060D01*
X93901983Y-37004815D01*
X94098017Y-37004815D01*
X94290285Y-37043060D01*
G37*
G36*
X13850000Y-38850000D02*
G01*
X12150000Y-38850000D01*
X12150000Y-37150000D01*
X13850000Y-37150000D01*
X13850000Y-38850000D01*
G37*
G36*
X7290285Y-33043060D02*
G01*
X7471397Y-33118079D01*
X7634393Y-33226990D01*
X7773010Y-33365607D01*
X7881921Y-33528603D01*
X7956940Y-33709715D01*
X7995185Y-33901983D01*
X7995185Y-34098017D01*
X7956940Y-34290285D01*
X7881921Y-34471397D01*
X7773010Y-34634393D01*
X7634393Y-34773010D01*
X7471397Y-34881921D01*
X7290285Y-34956940D01*
X7098017Y-34995185D01*
X6901983Y-34995185D01*
X6709715Y-34956940D01*
X6528603Y-34881921D01*
X6365607Y-34773010D01*
X6226990Y-34634393D01*
X6118079Y-34471397D01*
X6043060Y-34290285D01*
X6004815Y-34098017D01*
X6004815Y-33901983D01*
X6043060Y-33709715D01*
X6118079Y-33528603D01*
X6226990Y-33365607D01*
X6365607Y-33226990D01*
X6528603Y-33118079D01*
X6709715Y-33043060D01*
X6901983Y-33004815D01*
X7098017Y-33004815D01*
X7290285Y-33043060D01*
G37*
G36*
X21304047Y-32275805D02*
G01*
X21355408Y-32281764D01*
X21372954Y-32289511D01*
X21395671Y-32294030D01*
X21419991Y-32310280D01*
X21440793Y-32319465D01*
X21455000Y-32333672D01*
X21476777Y-32348223D01*
X21491327Y-32369999D01*
X21505534Y-32384206D01*
X21514718Y-32405006D01*
X21530970Y-32429329D01*
X21535489Y-32452048D01*
X21543235Y-32469591D01*
X21549192Y-32520940D01*
X21550000Y-32525000D01*
X21550000Y-33475000D01*
X21549192Y-33479059D01*
X21543235Y-33530408D01*
X21535489Y-33547950D01*
X21530970Y-33570671D01*
X21514716Y-33594995D01*
X21505534Y-33615793D01*
X21491329Y-33629997D01*
X21476777Y-33651777D01*
X21454997Y-33666329D01*
X21440793Y-33680534D01*
X21419995Y-33689716D01*
X21395671Y-33705970D01*
X21372950Y-33710489D01*
X21355408Y-33718235D01*
X21304061Y-33724192D01*
X21300000Y-33725000D01*
X20800000Y-33725000D01*
X20795941Y-33724192D01*
X20744591Y-33718235D01*
X20727048Y-33710489D01*
X20704329Y-33705970D01*
X20680006Y-33689718D01*
X20659206Y-33680534D01*
X20644999Y-33666327D01*
X20623223Y-33651777D01*
X20608672Y-33630000D01*
X20594465Y-33615793D01*
X20585280Y-33594991D01*
X20569030Y-33570671D01*
X20564511Y-33547954D01*
X20556764Y-33530408D01*
X20550805Y-33479049D01*
X20550000Y-33475000D01*
X20550000Y-32525000D01*
X20550804Y-32520953D01*
X20556764Y-32469591D01*
X20564511Y-32452043D01*
X20569030Y-32429329D01*
X20585278Y-32405010D01*
X20594465Y-32384206D01*
X20608674Y-32369996D01*
X20623223Y-32348223D01*
X20644996Y-32333674D01*
X20659206Y-32319465D01*
X20680010Y-32310278D01*
X20704329Y-32294030D01*
X20727043Y-32289511D01*
X20744591Y-32281764D01*
X20795952Y-32275805D01*
X20800000Y-32275000D01*
X21300000Y-32275000D01*
X21304047Y-32275805D01*
G37*
G36*
X23204047Y-32275805D02*
G01*
X23255408Y-32281764D01*
X23272954Y-32289511D01*
X23295671Y-32294030D01*
X23319991Y-32310280D01*
X23340793Y-32319465D01*
X23355000Y-32333672D01*
X23376777Y-32348223D01*
X23391327Y-32369999D01*
X23405534Y-32384206D01*
X23414718Y-32405006D01*
X23430970Y-32429329D01*
X23435489Y-32452048D01*
X23443235Y-32469591D01*
X23449192Y-32520940D01*
X23450000Y-32525000D01*
X23450000Y-33475000D01*
X23449192Y-33479059D01*
X23443235Y-33530408D01*
X23435489Y-33547950D01*
X23430970Y-33570671D01*
X23414716Y-33594995D01*
X23405534Y-33615793D01*
X23391329Y-33629997D01*
X23376777Y-33651777D01*
X23354997Y-33666329D01*
X23340793Y-33680534D01*
X23319995Y-33689716D01*
X23295671Y-33705970D01*
X23272950Y-33710489D01*
X23255408Y-33718235D01*
X23204061Y-33724192D01*
X23200000Y-33725000D01*
X22700000Y-33725000D01*
X22695941Y-33724192D01*
X22644591Y-33718235D01*
X22627048Y-33710489D01*
X22604329Y-33705970D01*
X22580006Y-33689718D01*
X22559206Y-33680534D01*
X22544999Y-33666327D01*
X22523223Y-33651777D01*
X22508672Y-33630000D01*
X22494465Y-33615793D01*
X22485280Y-33594991D01*
X22469030Y-33570671D01*
X22464511Y-33547954D01*
X22456764Y-33530408D01*
X22450805Y-33479049D01*
X22450000Y-33475000D01*
X22450000Y-32525000D01*
X22450804Y-32520953D01*
X22456764Y-32469591D01*
X22464511Y-32452043D01*
X22469030Y-32429329D01*
X22485278Y-32405010D01*
X22494465Y-32384206D01*
X22508674Y-32369996D01*
X22523223Y-32348223D01*
X22544996Y-32333674D01*
X22559206Y-32319465D01*
X22580010Y-32310278D01*
X22604329Y-32294030D01*
X22627043Y-32289511D01*
X22644591Y-32281764D01*
X22695952Y-32275805D01*
X22700000Y-32275000D01*
X23200000Y-32275000D01*
X23204047Y-32275805D01*
G37*
G36*
X27304047Y-32275805D02*
G01*
X27355408Y-32281764D01*
X27372954Y-32289511D01*
X27395671Y-32294030D01*
X27419991Y-32310280D01*
X27440793Y-32319465D01*
X27455000Y-32333672D01*
X27476777Y-32348223D01*
X27491327Y-32369999D01*
X27505534Y-32384206D01*
X27514718Y-32405006D01*
X27530970Y-32429329D01*
X27535489Y-32452048D01*
X27543235Y-32469591D01*
X27549192Y-32520940D01*
X27550000Y-32525000D01*
X27550000Y-33475000D01*
X27549192Y-33479059D01*
X27543235Y-33530408D01*
X27535489Y-33547950D01*
X27530970Y-33570671D01*
X27514716Y-33594995D01*
X27505534Y-33615793D01*
X27491329Y-33629997D01*
X27476777Y-33651777D01*
X27454997Y-33666329D01*
X27440793Y-33680534D01*
X27419995Y-33689716D01*
X27395671Y-33705970D01*
X27372950Y-33710489D01*
X27355408Y-33718235D01*
X27304061Y-33724192D01*
X27300000Y-33725000D01*
X26800000Y-33725000D01*
X26795941Y-33724192D01*
X26744591Y-33718235D01*
X26727048Y-33710489D01*
X26704329Y-33705970D01*
X26680006Y-33689718D01*
X26659206Y-33680534D01*
X26644999Y-33666327D01*
X26623223Y-33651777D01*
X26608672Y-33630000D01*
X26594465Y-33615793D01*
X26585280Y-33594991D01*
X26569030Y-33570671D01*
X26564511Y-33547954D01*
X26556764Y-33530408D01*
X26550805Y-33479049D01*
X26550000Y-33475000D01*
X26550000Y-32525000D01*
X26550804Y-32520953D01*
X26556764Y-32469591D01*
X26564511Y-32452043D01*
X26569030Y-32429329D01*
X26585278Y-32405010D01*
X26594465Y-32384206D01*
X26608674Y-32369996D01*
X26623223Y-32348223D01*
X26644996Y-32333674D01*
X26659206Y-32319465D01*
X26680010Y-32310278D01*
X26704329Y-32294030D01*
X26727043Y-32289511D01*
X26744591Y-32281764D01*
X26795952Y-32275805D01*
X26800000Y-32275000D01*
X27300000Y-32275000D01*
X27304047Y-32275805D01*
G37*
G36*
X29204047Y-32275805D02*
G01*
X29255408Y-32281764D01*
X29272954Y-32289511D01*
X29295671Y-32294030D01*
X29319991Y-32310280D01*
X29340793Y-32319465D01*
X29355000Y-32333672D01*
X29376777Y-32348223D01*
X29391327Y-32369999D01*
X29405534Y-32384206D01*
X29414718Y-32405006D01*
X29430970Y-32429329D01*
X29435489Y-32452048D01*
X29443235Y-32469591D01*
X29449192Y-32520940D01*
X29450000Y-32525000D01*
X29450000Y-33475000D01*
X29449192Y-33479059D01*
X29443235Y-33530408D01*
X29435489Y-33547950D01*
X29430970Y-33570671D01*
X29414716Y-33594995D01*
X29405534Y-33615793D01*
X29391329Y-33629997D01*
X29376777Y-33651777D01*
X29354997Y-33666329D01*
X29340793Y-33680534D01*
X29319995Y-33689716D01*
X29295671Y-33705970D01*
X29272950Y-33710489D01*
X29255408Y-33718235D01*
X29204061Y-33724192D01*
X29200000Y-33725000D01*
X28700000Y-33725000D01*
X28695941Y-33724192D01*
X28644591Y-33718235D01*
X28627048Y-33710489D01*
X28604329Y-33705970D01*
X28580006Y-33689718D01*
X28559206Y-33680534D01*
X28544999Y-33666327D01*
X28523223Y-33651777D01*
X28508672Y-33630000D01*
X28494465Y-33615793D01*
X28485280Y-33594991D01*
X28469030Y-33570671D01*
X28464511Y-33547954D01*
X28456764Y-33530408D01*
X28450805Y-33479049D01*
X28450000Y-33475000D01*
X28450000Y-32525000D01*
X28450804Y-32520953D01*
X28456764Y-32469591D01*
X28464511Y-32452043D01*
X28469030Y-32429329D01*
X28485278Y-32405010D01*
X28494465Y-32384206D01*
X28508674Y-32369996D01*
X28523223Y-32348223D01*
X28544996Y-32333674D01*
X28559206Y-32319465D01*
X28580010Y-32310278D01*
X28604329Y-32294030D01*
X28627043Y-32289511D01*
X28644591Y-32281764D01*
X28695952Y-32275805D01*
X28700000Y-32275000D01*
X29200000Y-32275000D01*
X29204047Y-32275805D01*
G37*
G36*
X36354047Y-32300805D02*
G01*
X36405408Y-32306764D01*
X36422954Y-32314511D01*
X36445671Y-32319030D01*
X36469991Y-32335280D01*
X36490793Y-32344465D01*
X36505000Y-32358672D01*
X36526777Y-32373223D01*
X36541327Y-32394999D01*
X36555534Y-32409206D01*
X36564718Y-32430006D01*
X36580970Y-32454329D01*
X36585489Y-32477048D01*
X36593235Y-32494591D01*
X36599192Y-32545940D01*
X36600000Y-32550000D01*
X36600000Y-33450000D01*
X36599192Y-33454059D01*
X36593235Y-33505408D01*
X36585489Y-33522950D01*
X36580970Y-33545671D01*
X36564716Y-33569995D01*
X36555534Y-33590793D01*
X36541329Y-33604997D01*
X36526777Y-33626777D01*
X36504997Y-33641329D01*
X36490793Y-33655534D01*
X36469995Y-33664716D01*
X36445671Y-33680970D01*
X36422950Y-33685489D01*
X36405408Y-33693235D01*
X36354061Y-33699192D01*
X36350000Y-33700000D01*
X35825000Y-33700000D01*
X35820941Y-33699192D01*
X35769591Y-33693235D01*
X35752048Y-33685489D01*
X35729329Y-33680970D01*
X35705006Y-33664718D01*
X35684206Y-33655534D01*
X35669999Y-33641327D01*
X35648223Y-33626777D01*
X35633672Y-33605000D01*
X35619465Y-33590793D01*
X35610280Y-33569991D01*
X35594030Y-33545671D01*
X35589511Y-33522954D01*
X35581764Y-33505408D01*
X35575805Y-33454049D01*
X35575000Y-33450000D01*
X35575000Y-32550000D01*
X35575804Y-32545953D01*
X35581764Y-32494591D01*
X35589511Y-32477043D01*
X35594030Y-32454329D01*
X35610278Y-32430010D01*
X35619465Y-32409206D01*
X35633674Y-32394996D01*
X35648223Y-32373223D01*
X35669996Y-32358674D01*
X35684206Y-32344465D01*
X35705010Y-32335278D01*
X35729329Y-32319030D01*
X35752043Y-32314511D01*
X35769591Y-32306764D01*
X35820952Y-32300805D01*
X35825000Y-32300000D01*
X36350000Y-32300000D01*
X36354047Y-32300805D01*
G37*
G36*
X38179047Y-32300805D02*
G01*
X38230408Y-32306764D01*
X38247954Y-32314511D01*
X38270671Y-32319030D01*
X38294991Y-32335280D01*
X38315793Y-32344465D01*
X38330000Y-32358672D01*
X38351777Y-32373223D01*
X38366327Y-32394999D01*
X38380534Y-32409206D01*
X38389718Y-32430006D01*
X38405970Y-32454329D01*
X38410489Y-32477048D01*
X38418235Y-32494591D01*
X38424192Y-32545940D01*
X38425000Y-32550000D01*
X38425000Y-33450000D01*
X38424192Y-33454059D01*
X38418235Y-33505408D01*
X38410489Y-33522950D01*
X38405970Y-33545671D01*
X38389716Y-33569995D01*
X38380534Y-33590793D01*
X38366329Y-33604997D01*
X38351777Y-33626777D01*
X38329997Y-33641329D01*
X38315793Y-33655534D01*
X38294995Y-33664716D01*
X38270671Y-33680970D01*
X38247950Y-33685489D01*
X38230408Y-33693235D01*
X38179061Y-33699192D01*
X38175000Y-33700000D01*
X37650000Y-33700000D01*
X37645941Y-33699192D01*
X37594591Y-33693235D01*
X37577048Y-33685489D01*
X37554329Y-33680970D01*
X37530006Y-33664718D01*
X37509206Y-33655534D01*
X37494999Y-33641327D01*
X37473223Y-33626777D01*
X37458672Y-33605000D01*
X37444465Y-33590793D01*
X37435280Y-33569991D01*
X37419030Y-33545671D01*
X37414511Y-33522954D01*
X37406764Y-33505408D01*
X37400805Y-33454049D01*
X37400000Y-33450000D01*
X37400000Y-32550000D01*
X37400804Y-32545953D01*
X37406764Y-32494591D01*
X37414511Y-32477043D01*
X37419030Y-32454329D01*
X37435278Y-32430010D01*
X37444465Y-32409206D01*
X37458674Y-32394996D01*
X37473223Y-32373223D01*
X37494996Y-32358674D01*
X37509206Y-32344465D01*
X37530010Y-32335278D01*
X37554329Y-32319030D01*
X37577043Y-32314511D01*
X37594591Y-32306764D01*
X37645952Y-32300805D01*
X37650000Y-32300000D01*
X38175000Y-32300000D01*
X38179047Y-32300805D01*
G37*
G36*
X13090285Y-23143060D02*
G01*
X13271397Y-23218079D01*
X13434393Y-23326990D01*
X13573010Y-23465607D01*
X13681921Y-23628603D01*
X13756940Y-23809715D01*
X13795185Y-24001983D01*
X13800000Y-24100000D01*
X13800000Y-27100000D01*
X13795185Y-27198017D01*
X13756940Y-27390285D01*
X13681921Y-27571397D01*
X13573010Y-27734393D01*
X13434393Y-27873010D01*
X13271397Y-27981921D01*
X13090285Y-28056940D01*
X12898017Y-28095185D01*
X12701983Y-28095185D01*
X12509715Y-28056940D01*
X12328603Y-27981921D01*
X12165607Y-27873010D01*
X12026990Y-27734393D01*
X11918079Y-27571397D01*
X11843060Y-27390285D01*
X11804815Y-27198017D01*
X11800000Y-27100000D01*
X11800000Y-24100000D01*
X11804815Y-24001983D01*
X11843060Y-23809715D01*
X11918079Y-23628603D01*
X12026990Y-23465607D01*
X12165607Y-23326990D01*
X12328603Y-23218079D01*
X12509715Y-23143060D01*
X12701983Y-23104815D01*
X12898017Y-23104815D01*
X13090285Y-23143060D01*
G37*
G36*
X82990285Y-23143060D02*
G01*
X83171397Y-23218079D01*
X83334393Y-23326990D01*
X83473010Y-23465607D01*
X83581921Y-23628603D01*
X83656940Y-23809715D01*
X83695185Y-24001983D01*
X83700000Y-24100000D01*
X83700000Y-27100000D01*
X83695185Y-27198017D01*
X83656940Y-27390285D01*
X83581921Y-27571397D01*
X83473010Y-27734393D01*
X83334393Y-27873010D01*
X83171397Y-27981921D01*
X82990285Y-28056940D01*
X82798017Y-28095185D01*
X82601983Y-28095185D01*
X82409715Y-28056940D01*
X82228603Y-27981921D01*
X82065607Y-27873010D01*
X81926990Y-27734393D01*
X81818079Y-27571397D01*
X81743060Y-27390285D01*
X81704815Y-27198017D01*
X81700000Y-27100000D01*
X81700000Y-24100000D01*
X81704815Y-24001983D01*
X81743060Y-23809715D01*
X81818079Y-23628603D01*
X81926990Y-23465607D01*
X82065607Y-23326990D01*
X82228603Y-23218079D01*
X82409715Y-23143060D01*
X82601983Y-23104815D01*
X82798017Y-23104815D01*
X82990285Y-23143060D01*
G37*
G36*
X31232228Y-26234448D02*
G01*
X31377117Y-26294463D01*
X31507515Y-26381592D01*
X31618408Y-26492485D01*
X31705537Y-26622883D01*
X31765552Y-26767772D01*
X31796148Y-26921586D01*
X31796148Y-27078414D01*
X31765552Y-27232228D01*
X31705537Y-27377117D01*
X31618408Y-27507515D01*
X31507515Y-27618408D01*
X31377117Y-27705537D01*
X31232228Y-27765552D01*
X31078414Y-27796148D01*
X30921586Y-27796148D01*
X30767772Y-27765552D01*
X30622883Y-27705537D01*
X30492485Y-27618408D01*
X30381592Y-27507515D01*
X30294463Y-27377117D01*
X30234448Y-27232228D01*
X30203852Y-27078414D01*
X30203852Y-26921586D01*
X30234448Y-26767772D01*
X30294463Y-26622883D01*
X30381592Y-26492485D01*
X30492485Y-26381592D01*
X30622883Y-26294463D01*
X30767772Y-26234448D01*
X30921586Y-26203852D01*
X31078414Y-26203852D01*
X31232228Y-26234448D01*
G37*
G36*
X34232228Y-26234448D02*
G01*
X34377117Y-26294463D01*
X34507515Y-26381592D01*
X34618408Y-26492485D01*
X34705537Y-26622883D01*
X34765552Y-26767772D01*
X34796148Y-26921586D01*
X34796148Y-27078414D01*
X34765552Y-27232228D01*
X34705537Y-27377117D01*
X34618408Y-27507515D01*
X34507515Y-27618408D01*
X34377117Y-27705537D01*
X34232228Y-27765552D01*
X34078414Y-27796148D01*
X33921586Y-27796148D01*
X33767772Y-27765552D01*
X33622883Y-27705537D01*
X33492485Y-27618408D01*
X33381592Y-27507515D01*
X33294463Y-27377117D01*
X33234448Y-27232228D01*
X33203852Y-27078414D01*
X33203852Y-26921586D01*
X33234448Y-26767772D01*
X33294463Y-26622883D01*
X33381592Y-26492485D01*
X33492485Y-26381592D01*
X33622883Y-26294463D01*
X33767772Y-26234448D01*
X33921586Y-26203852D01*
X34078414Y-26203852D01*
X34232228Y-26234448D01*
G37*
G36*
X37232228Y-26234448D02*
G01*
X37377117Y-26294463D01*
X37507515Y-26381592D01*
X37618408Y-26492485D01*
X37705537Y-26622883D01*
X37765552Y-26767772D01*
X37796148Y-26921586D01*
X37796148Y-27078414D01*
X37765552Y-27232228D01*
X37705537Y-27377117D01*
X37618408Y-27507515D01*
X37507515Y-27618408D01*
X37377117Y-27705537D01*
X37232228Y-27765552D01*
X37078414Y-27796148D01*
X36921586Y-27796148D01*
X36767772Y-27765552D01*
X36622883Y-27705537D01*
X36492485Y-27618408D01*
X36381592Y-27507515D01*
X36294463Y-27377117D01*
X36234448Y-27232228D01*
X36203852Y-27078414D01*
X36203852Y-26921586D01*
X36234448Y-26767772D01*
X36294463Y-26622883D01*
X36381592Y-26492485D01*
X36492485Y-26381592D01*
X36622883Y-26294463D01*
X36767772Y-26234448D01*
X36921586Y-26203852D01*
X37078414Y-26203852D01*
X37232228Y-26234448D01*
G37*
G36*
X40232228Y-26234448D02*
G01*
X40377117Y-26294463D01*
X40507515Y-26381592D01*
X40618408Y-26492485D01*
X40705537Y-26622883D01*
X40765552Y-26767772D01*
X40796148Y-26921586D01*
X40796148Y-27078414D01*
X40765552Y-27232228D01*
X40705537Y-27377117D01*
X40618408Y-27507515D01*
X40507515Y-27618408D01*
X40377117Y-27705537D01*
X40232228Y-27765552D01*
X40078414Y-27796148D01*
X39921586Y-27796148D01*
X39767772Y-27765552D01*
X39622883Y-27705537D01*
X39492485Y-27618408D01*
X39381592Y-27507515D01*
X39294463Y-27377117D01*
X39234448Y-27232228D01*
X39203852Y-27078414D01*
X39203852Y-26921586D01*
X39234448Y-26767772D01*
X39294463Y-26622883D01*
X39381592Y-26492485D01*
X39492485Y-26381592D01*
X39622883Y-26294463D01*
X39767772Y-26234448D01*
X39921586Y-26203852D01*
X40078414Y-26203852D01*
X40232228Y-26234448D01*
G37*
G36*
X43232228Y-26234448D02*
G01*
X43377117Y-26294463D01*
X43507515Y-26381592D01*
X43618408Y-26492485D01*
X43705537Y-26622883D01*
X43765552Y-26767772D01*
X43796148Y-26921586D01*
X43796148Y-27078414D01*
X43765552Y-27232228D01*
X43705537Y-27377117D01*
X43618408Y-27507515D01*
X43507515Y-27618408D01*
X43377117Y-27705537D01*
X43232228Y-27765552D01*
X43078414Y-27796148D01*
X42921586Y-27796148D01*
X42767772Y-27765552D01*
X42622883Y-27705537D01*
X42492485Y-27618408D01*
X42381592Y-27507515D01*
X42294463Y-27377117D01*
X42234448Y-27232228D01*
X42203852Y-27078414D01*
X42203852Y-26921586D01*
X42234448Y-26767772D01*
X42294463Y-26622883D01*
X42381592Y-26492485D01*
X42492485Y-26381592D01*
X42622883Y-26294463D01*
X42767772Y-26234448D01*
X42921586Y-26203852D01*
X43078414Y-26203852D01*
X43232228Y-26234448D01*
G37*
G36*
X46232228Y-26234448D02*
G01*
X46377117Y-26294463D01*
X46507515Y-26381592D01*
X46618408Y-26492485D01*
X46705537Y-26622883D01*
X46765552Y-26767772D01*
X46796148Y-26921586D01*
X46796148Y-27078414D01*
X46765552Y-27232228D01*
X46705537Y-27377117D01*
X46618408Y-27507515D01*
X46507515Y-27618408D01*
X46377117Y-27705537D01*
X46232228Y-27765552D01*
X46078414Y-27796148D01*
X45921586Y-27796148D01*
X45767772Y-27765552D01*
X45622883Y-27705537D01*
X45492485Y-27618408D01*
X45381592Y-27507515D01*
X45294463Y-27377117D01*
X45234448Y-27232228D01*
X45203852Y-27078414D01*
X45203852Y-26921586D01*
X45234448Y-26767772D01*
X45294463Y-26622883D01*
X45381592Y-26492485D01*
X45492485Y-26381592D01*
X45622883Y-26294463D01*
X45767772Y-26234448D01*
X45921586Y-26203852D01*
X46078414Y-26203852D01*
X46232228Y-26234448D01*
G37*
G36*
X49232228Y-26234448D02*
G01*
X49377117Y-26294463D01*
X49507515Y-26381592D01*
X49618408Y-26492485D01*
X49705537Y-26622883D01*
X49765552Y-26767772D01*
X49796148Y-26921586D01*
X49796148Y-27078414D01*
X49765552Y-27232228D01*
X49705537Y-27377117D01*
X49618408Y-27507515D01*
X49507515Y-27618408D01*
X49377117Y-27705537D01*
X49232228Y-27765552D01*
X49078414Y-27796148D01*
X48921586Y-27796148D01*
X48767772Y-27765552D01*
X48622883Y-27705537D01*
X48492485Y-27618408D01*
X48381592Y-27507515D01*
X48294463Y-27377117D01*
X48234448Y-27232228D01*
X48203852Y-27078414D01*
X48203852Y-26921586D01*
X48234448Y-26767772D01*
X48294463Y-26622883D01*
X48381592Y-26492485D01*
X48492485Y-26381592D01*
X48622883Y-26294463D01*
X48767772Y-26234448D01*
X48921586Y-26203852D01*
X49078414Y-26203852D01*
X49232228Y-26234448D01*
G37*
G36*
X52232228Y-26234448D02*
G01*
X52377117Y-26294463D01*
X52507515Y-26381592D01*
X52618408Y-26492485D01*
X52705537Y-26622883D01*
X52765552Y-26767772D01*
X52796148Y-26921586D01*
X52796148Y-27078414D01*
X52765552Y-27232228D01*
X52705537Y-27377117D01*
X52618408Y-27507515D01*
X52507515Y-27618408D01*
X52377117Y-27705537D01*
X52232228Y-27765552D01*
X52078414Y-27796148D01*
X51921586Y-27796148D01*
X51767772Y-27765552D01*
X51622883Y-27705537D01*
X51492485Y-27618408D01*
X51381592Y-27507515D01*
X51294463Y-27377117D01*
X51234448Y-27232228D01*
X51203852Y-27078414D01*
X51203852Y-26921586D01*
X51234448Y-26767772D01*
X51294463Y-26622883D01*
X51381592Y-26492485D01*
X51492485Y-26381592D01*
X51622883Y-26294463D01*
X51767772Y-26234448D01*
X51921586Y-26203852D01*
X52078414Y-26203852D01*
X52232228Y-26234448D01*
G37*
G36*
X55232228Y-26234448D02*
G01*
X55377117Y-26294463D01*
X55507515Y-26381592D01*
X55618408Y-26492485D01*
X55705537Y-26622883D01*
X55765552Y-26767772D01*
X55796148Y-26921586D01*
X55796148Y-27078414D01*
X55765552Y-27232228D01*
X55705537Y-27377117D01*
X55618408Y-27507515D01*
X55507515Y-27618408D01*
X55377117Y-27705537D01*
X55232228Y-27765552D01*
X55078414Y-27796148D01*
X54921586Y-27796148D01*
X54767772Y-27765552D01*
X54622883Y-27705537D01*
X54492485Y-27618408D01*
X54381592Y-27507515D01*
X54294463Y-27377117D01*
X54234448Y-27232228D01*
X54203852Y-27078414D01*
X54203852Y-26921586D01*
X54234448Y-26767772D01*
X54294463Y-26622883D01*
X54381592Y-26492485D01*
X54492485Y-26381592D01*
X54622883Y-26294463D01*
X54767772Y-26234448D01*
X54921586Y-26203852D01*
X55078414Y-26203852D01*
X55232228Y-26234448D01*
G37*
G36*
X58232228Y-26234448D02*
G01*
X58377117Y-26294463D01*
X58507515Y-26381592D01*
X58618408Y-26492485D01*
X58705537Y-26622883D01*
X58765552Y-26767772D01*
X58796148Y-26921586D01*
X58796148Y-27078414D01*
X58765552Y-27232228D01*
X58705537Y-27377117D01*
X58618408Y-27507515D01*
X58507515Y-27618408D01*
X58377117Y-27705537D01*
X58232228Y-27765552D01*
X58078414Y-27796148D01*
X57921586Y-27796148D01*
X57767772Y-27765552D01*
X57622883Y-27705537D01*
X57492485Y-27618408D01*
X57381592Y-27507515D01*
X57294463Y-27377117D01*
X57234448Y-27232228D01*
X57203852Y-27078414D01*
X57203852Y-26921586D01*
X57234448Y-26767772D01*
X57294463Y-26622883D01*
X57381592Y-26492485D01*
X57492485Y-26381592D01*
X57622883Y-26294463D01*
X57767772Y-26234448D01*
X57921586Y-26203852D01*
X58078414Y-26203852D01*
X58232228Y-26234448D01*
G37*
G36*
X61232228Y-26234448D02*
G01*
X61377117Y-26294463D01*
X61507515Y-26381592D01*
X61618408Y-26492485D01*
X61705537Y-26622883D01*
X61765552Y-26767772D01*
X61796148Y-26921586D01*
X61796148Y-27078414D01*
X61765552Y-27232228D01*
X61705537Y-27377117D01*
X61618408Y-27507515D01*
X61507515Y-27618408D01*
X61377117Y-27705537D01*
X61232228Y-27765552D01*
X61078414Y-27796148D01*
X60921586Y-27796148D01*
X60767772Y-27765552D01*
X60622883Y-27705537D01*
X60492485Y-27618408D01*
X60381592Y-27507515D01*
X60294463Y-27377117D01*
X60234448Y-27232228D01*
X60203852Y-27078414D01*
X60203852Y-26921586D01*
X60234448Y-26767772D01*
X60294463Y-26622883D01*
X60381592Y-26492485D01*
X60492485Y-26381592D01*
X60622883Y-26294463D01*
X60767772Y-26234448D01*
X60921586Y-26203852D01*
X61078414Y-26203852D01*
X61232228Y-26234448D01*
G37*
G36*
X64232228Y-26234448D02*
G01*
X64377117Y-26294463D01*
X64507515Y-26381592D01*
X64618408Y-26492485D01*
X64705537Y-26622883D01*
X64765552Y-26767772D01*
X64796148Y-26921586D01*
X64796148Y-27078414D01*
X64765552Y-27232228D01*
X64705537Y-27377117D01*
X64618408Y-27507515D01*
X64507515Y-27618408D01*
X64377117Y-27705537D01*
X64232228Y-27765552D01*
X64078414Y-27796148D01*
X63921586Y-27796148D01*
X63767772Y-27765552D01*
X63622883Y-27705537D01*
X63492485Y-27618408D01*
X63381592Y-27507515D01*
X63294463Y-27377117D01*
X63234448Y-27232228D01*
X63203852Y-27078414D01*
X63203852Y-26921586D01*
X63234448Y-26767772D01*
X63294463Y-26622883D01*
X63381592Y-26492485D01*
X63492485Y-26381592D01*
X63622883Y-26294463D01*
X63767772Y-26234448D01*
X63921586Y-26203852D01*
X64078414Y-26203852D01*
X64232228Y-26234448D01*
G37*
G36*
X67232228Y-26234448D02*
G01*
X67377117Y-26294463D01*
X67507515Y-26381592D01*
X67618408Y-26492485D01*
X67705537Y-26622883D01*
X67765552Y-26767772D01*
X67796148Y-26921586D01*
X67796148Y-27078414D01*
X67765552Y-27232228D01*
X67705537Y-27377117D01*
X67618408Y-27507515D01*
X67507515Y-27618408D01*
X67377117Y-27705537D01*
X67232228Y-27765552D01*
X67078414Y-27796148D01*
X66921586Y-27796148D01*
X66767772Y-27765552D01*
X66622883Y-27705537D01*
X66492485Y-27618408D01*
X66381592Y-27507515D01*
X66294463Y-27377117D01*
X66234448Y-27232228D01*
X66203852Y-27078414D01*
X66203852Y-26921586D01*
X66234448Y-26767772D01*
X66294463Y-26622883D01*
X66381592Y-26492485D01*
X66492485Y-26381592D01*
X66622883Y-26294463D01*
X66767772Y-26234448D01*
X66921586Y-26203852D01*
X67078414Y-26203852D01*
X67232228Y-26234448D01*
G37*
G36*
X70232228Y-26234448D02*
G01*
X70377117Y-26294463D01*
X70507515Y-26381592D01*
X70618408Y-26492485D01*
X70705537Y-26622883D01*
X70765552Y-26767772D01*
X70796148Y-26921586D01*
X70796148Y-27078414D01*
X70765552Y-27232228D01*
X70705537Y-27377117D01*
X70618408Y-27507515D01*
X70507515Y-27618408D01*
X70377117Y-27705537D01*
X70232228Y-27765552D01*
X70078414Y-27796148D01*
X69921586Y-27796148D01*
X69767772Y-27765552D01*
X69622883Y-27705537D01*
X69492485Y-27618408D01*
X69381592Y-27507515D01*
X69294463Y-27377117D01*
X69234448Y-27232228D01*
X69203852Y-27078414D01*
X69203852Y-26921586D01*
X69234448Y-26767772D01*
X69294463Y-26622883D01*
X69381592Y-26492485D01*
X69492485Y-26381592D01*
X69622883Y-26294463D01*
X69767772Y-26234448D01*
X69921586Y-26203852D01*
X70078414Y-26203852D01*
X70232228Y-26234448D01*
G37*
G36*
X73232228Y-26234448D02*
G01*
X73377117Y-26294463D01*
X73507515Y-26381592D01*
X73618408Y-26492485D01*
X73705537Y-26622883D01*
X73765552Y-26767772D01*
X73796148Y-26921586D01*
X73796148Y-27078414D01*
X73765552Y-27232228D01*
X73705537Y-27377117D01*
X73618408Y-27507515D01*
X73507515Y-27618408D01*
X73377117Y-27705537D01*
X73232228Y-27765552D01*
X73078414Y-27796148D01*
X72921586Y-27796148D01*
X72767772Y-27765552D01*
X72622883Y-27705537D01*
X72492485Y-27618408D01*
X72381592Y-27507515D01*
X72294463Y-27377117D01*
X72234448Y-27232228D01*
X72203852Y-27078414D01*
X72203852Y-26921586D01*
X72234448Y-26767772D01*
X72294463Y-26622883D01*
X72381592Y-26492485D01*
X72492485Y-26381592D01*
X72622883Y-26294463D01*
X72767772Y-26234448D01*
X72921586Y-26203852D01*
X73078414Y-26203852D01*
X73232228Y-26234448D01*
G37*
G36*
X28700000Y-27700000D02*
G01*
X27300000Y-27700000D01*
X27300000Y-26300000D01*
X28700000Y-26300000D01*
X28700000Y-27700000D01*
G37*
G36*
X29732228Y-24734448D02*
G01*
X29877117Y-24794463D01*
X30007515Y-24881592D01*
X30118408Y-24992485D01*
X30205537Y-25122883D01*
X30265552Y-25267772D01*
X30296148Y-25421586D01*
X30296148Y-25578414D01*
X30265552Y-25732228D01*
X30205537Y-25877117D01*
X30118408Y-26007515D01*
X30007515Y-26118408D01*
X29877117Y-26205537D01*
X29732228Y-26265552D01*
X29578414Y-26296148D01*
X29421586Y-26296148D01*
X29267772Y-26265552D01*
X29122883Y-26205537D01*
X28992485Y-26118408D01*
X28881592Y-26007515D01*
X28794463Y-25877117D01*
X28734448Y-25732228D01*
X28703852Y-25578414D01*
X28703852Y-25421586D01*
X28734448Y-25267772D01*
X28794463Y-25122883D01*
X28881592Y-24992485D01*
X28992485Y-24881592D01*
X29122883Y-24794463D01*
X29267772Y-24734448D01*
X29421586Y-24703852D01*
X29578414Y-24703852D01*
X29732228Y-24734448D01*
G37*
G36*
X32732228Y-24734448D02*
G01*
X32877117Y-24794463D01*
X33007515Y-24881592D01*
X33118408Y-24992485D01*
X33205537Y-25122883D01*
X33265552Y-25267772D01*
X33296148Y-25421586D01*
X33296148Y-25578414D01*
X33265552Y-25732228D01*
X33205537Y-25877117D01*
X33118408Y-26007515D01*
X33007515Y-26118408D01*
X32877117Y-26205537D01*
X32732228Y-26265552D01*
X32578414Y-26296148D01*
X32421586Y-26296148D01*
X32267772Y-26265552D01*
X32122883Y-26205537D01*
X31992485Y-26118408D01*
X31881592Y-26007515D01*
X31794463Y-25877117D01*
X31734448Y-25732228D01*
X31703852Y-25578414D01*
X31703852Y-25421586D01*
X31734448Y-25267772D01*
X31794463Y-25122883D01*
X31881592Y-24992485D01*
X31992485Y-24881592D01*
X32122883Y-24794463D01*
X32267772Y-24734448D01*
X32421586Y-24703852D01*
X32578414Y-24703852D01*
X32732228Y-24734448D01*
G37*
G36*
X35732228Y-24734448D02*
G01*
X35877117Y-24794463D01*
X36007515Y-24881592D01*
X36118408Y-24992485D01*
X36205537Y-25122883D01*
X36265552Y-25267772D01*
X36296148Y-25421586D01*
X36296148Y-25578414D01*
X36265552Y-25732228D01*
X36205537Y-25877117D01*
X36118408Y-26007515D01*
X36007515Y-26118408D01*
X35877117Y-26205537D01*
X35732228Y-26265552D01*
X35578414Y-26296148D01*
X35421586Y-26296148D01*
X35267772Y-26265552D01*
X35122883Y-26205537D01*
X34992485Y-26118408D01*
X34881592Y-26007515D01*
X34794463Y-25877117D01*
X34734448Y-25732228D01*
X34703852Y-25578414D01*
X34703852Y-25421586D01*
X34734448Y-25267772D01*
X34794463Y-25122883D01*
X34881592Y-24992485D01*
X34992485Y-24881592D01*
X35122883Y-24794463D01*
X35267772Y-24734448D01*
X35421586Y-24703852D01*
X35578414Y-24703852D01*
X35732228Y-24734448D01*
G37*
G36*
X38732228Y-24734448D02*
G01*
X38877117Y-24794463D01*
X39007515Y-24881592D01*
X39118408Y-24992485D01*
X39205537Y-25122883D01*
X39265552Y-25267772D01*
X39296148Y-25421586D01*
X39296148Y-25578414D01*
X39265552Y-25732228D01*
X39205537Y-25877117D01*
X39118408Y-26007515D01*
X39007515Y-26118408D01*
X38877117Y-26205537D01*
X38732228Y-26265552D01*
X38578414Y-26296148D01*
X38421586Y-26296148D01*
X38267772Y-26265552D01*
X38122883Y-26205537D01*
X37992485Y-26118408D01*
X37881592Y-26007515D01*
X37794463Y-25877117D01*
X37734448Y-25732228D01*
X37703852Y-25578414D01*
X37703852Y-25421586D01*
X37734448Y-25267772D01*
X37794463Y-25122883D01*
X37881592Y-24992485D01*
X37992485Y-24881592D01*
X38122883Y-24794463D01*
X38267772Y-24734448D01*
X38421586Y-24703852D01*
X38578414Y-24703852D01*
X38732228Y-24734448D01*
G37*
G36*
X41732228Y-24734448D02*
G01*
X41877117Y-24794463D01*
X42007515Y-24881592D01*
X42118408Y-24992485D01*
X42205537Y-25122883D01*
X42265552Y-25267772D01*
X42296148Y-25421586D01*
X42296148Y-25578414D01*
X42265552Y-25732228D01*
X42205537Y-25877117D01*
X42118408Y-26007515D01*
X42007515Y-26118408D01*
X41877117Y-26205537D01*
X41732228Y-26265552D01*
X41578414Y-26296148D01*
X41421586Y-26296148D01*
X41267772Y-26265552D01*
X41122883Y-26205537D01*
X40992485Y-26118408D01*
X40881592Y-26007515D01*
X40794463Y-25877117D01*
X40734448Y-25732228D01*
X40703852Y-25578414D01*
X40703852Y-25421586D01*
X40734448Y-25267772D01*
X40794463Y-25122883D01*
X40881592Y-24992485D01*
X40992485Y-24881592D01*
X41122883Y-24794463D01*
X41267772Y-24734448D01*
X41421586Y-24703852D01*
X41578414Y-24703852D01*
X41732228Y-24734448D01*
G37*
G36*
X44732228Y-24734448D02*
G01*
X44877117Y-24794463D01*
X45007515Y-24881592D01*
X45118408Y-24992485D01*
X45205537Y-25122883D01*
X45265552Y-25267772D01*
X45296148Y-25421586D01*
X45296148Y-25578414D01*
X45265552Y-25732228D01*
X45205537Y-25877117D01*
X45118408Y-26007515D01*
X45007515Y-26118408D01*
X44877117Y-26205537D01*
X44732228Y-26265552D01*
X44578414Y-26296148D01*
X44421586Y-26296148D01*
X44267772Y-26265552D01*
X44122883Y-26205537D01*
X43992485Y-26118408D01*
X43881592Y-26007515D01*
X43794463Y-25877117D01*
X43734448Y-25732228D01*
X43703852Y-25578414D01*
X43703852Y-25421586D01*
X43734448Y-25267772D01*
X43794463Y-25122883D01*
X43881592Y-24992485D01*
X43992485Y-24881592D01*
X44122883Y-24794463D01*
X44267772Y-24734448D01*
X44421586Y-24703852D01*
X44578414Y-24703852D01*
X44732228Y-24734448D01*
G37*
G36*
X47732228Y-24734448D02*
G01*
X47877117Y-24794463D01*
X48007515Y-24881592D01*
X48118408Y-24992485D01*
X48205537Y-25122883D01*
X48265552Y-25267772D01*
X48296148Y-25421586D01*
X48296148Y-25578414D01*
X48265552Y-25732228D01*
X48205537Y-25877117D01*
X48118408Y-26007515D01*
X48007515Y-26118408D01*
X47877117Y-26205537D01*
X47732228Y-26265552D01*
X47578414Y-26296148D01*
X47421586Y-26296148D01*
X47267772Y-26265552D01*
X47122883Y-26205537D01*
X46992485Y-26118408D01*
X46881592Y-26007515D01*
X46794463Y-25877117D01*
X46734448Y-25732228D01*
X46703852Y-25578414D01*
X46703852Y-25421586D01*
X46734448Y-25267772D01*
X46794463Y-25122883D01*
X46881592Y-24992485D01*
X46992485Y-24881592D01*
X47122883Y-24794463D01*
X47267772Y-24734448D01*
X47421586Y-24703852D01*
X47578414Y-24703852D01*
X47732228Y-24734448D01*
G37*
G36*
X50732228Y-24734448D02*
G01*
X50877117Y-24794463D01*
X51007515Y-24881592D01*
X51118408Y-24992485D01*
X51205537Y-25122883D01*
X51265552Y-25267772D01*
X51296148Y-25421586D01*
X51296148Y-25578414D01*
X51265552Y-25732228D01*
X51205537Y-25877117D01*
X51118408Y-26007515D01*
X51007515Y-26118408D01*
X50877117Y-26205537D01*
X50732228Y-26265552D01*
X50578414Y-26296148D01*
X50421586Y-26296148D01*
X50267772Y-26265552D01*
X50122883Y-26205537D01*
X49992485Y-26118408D01*
X49881592Y-26007515D01*
X49794463Y-25877117D01*
X49734448Y-25732228D01*
X49703852Y-25578414D01*
X49703852Y-25421586D01*
X49734448Y-25267772D01*
X49794463Y-25122883D01*
X49881592Y-24992485D01*
X49992485Y-24881592D01*
X50122883Y-24794463D01*
X50267772Y-24734448D01*
X50421586Y-24703852D01*
X50578414Y-24703852D01*
X50732228Y-24734448D01*
G37*
G36*
X53732228Y-24734448D02*
G01*
X53877117Y-24794463D01*
X54007515Y-24881592D01*
X54118408Y-24992485D01*
X54205537Y-25122883D01*
X54265552Y-25267772D01*
X54296148Y-25421586D01*
X54296148Y-25578414D01*
X54265552Y-25732228D01*
X54205537Y-25877117D01*
X54118408Y-26007515D01*
X54007515Y-26118408D01*
X53877117Y-26205537D01*
X53732228Y-26265552D01*
X53578414Y-26296148D01*
X53421586Y-26296148D01*
X53267772Y-26265552D01*
X53122883Y-26205537D01*
X52992485Y-26118408D01*
X52881592Y-26007515D01*
X52794463Y-25877117D01*
X52734448Y-25732228D01*
X52703852Y-25578414D01*
X52703852Y-25421586D01*
X52734448Y-25267772D01*
X52794463Y-25122883D01*
X52881592Y-24992485D01*
X52992485Y-24881592D01*
X53122883Y-24794463D01*
X53267772Y-24734448D01*
X53421586Y-24703852D01*
X53578414Y-24703852D01*
X53732228Y-24734448D01*
G37*
G36*
X56732228Y-24734448D02*
G01*
X56877117Y-24794463D01*
X57007515Y-24881592D01*
X57118408Y-24992485D01*
X57205537Y-25122883D01*
X57265552Y-25267772D01*
X57296148Y-25421586D01*
X57296148Y-25578414D01*
X57265552Y-25732228D01*
X57205537Y-25877117D01*
X57118408Y-26007515D01*
X57007515Y-26118408D01*
X56877117Y-26205537D01*
X56732228Y-26265552D01*
X56578414Y-26296148D01*
X56421586Y-26296148D01*
X56267772Y-26265552D01*
X56122883Y-26205537D01*
X55992485Y-26118408D01*
X55881592Y-26007515D01*
X55794463Y-25877117D01*
X55734448Y-25732228D01*
X55703852Y-25578414D01*
X55703852Y-25421586D01*
X55734448Y-25267772D01*
X55794463Y-25122883D01*
X55881592Y-24992485D01*
X55992485Y-24881592D01*
X56122883Y-24794463D01*
X56267772Y-24734448D01*
X56421586Y-24703852D01*
X56578414Y-24703852D01*
X56732228Y-24734448D01*
G37*
G36*
X59732228Y-24734448D02*
G01*
X59877117Y-24794463D01*
X60007515Y-24881592D01*
X60118408Y-24992485D01*
X60205537Y-25122883D01*
X60265552Y-25267772D01*
X60296148Y-25421586D01*
X60296148Y-25578414D01*
X60265552Y-25732228D01*
X60205537Y-25877117D01*
X60118408Y-26007515D01*
X60007515Y-26118408D01*
X59877117Y-26205537D01*
X59732228Y-26265552D01*
X59578414Y-26296148D01*
X59421586Y-26296148D01*
X59267772Y-26265552D01*
X59122883Y-26205537D01*
X58992485Y-26118408D01*
X58881592Y-26007515D01*
X58794463Y-25877117D01*
X58734448Y-25732228D01*
X58703852Y-25578414D01*
X58703852Y-25421586D01*
X58734448Y-25267772D01*
X58794463Y-25122883D01*
X58881592Y-24992485D01*
X58992485Y-24881592D01*
X59122883Y-24794463D01*
X59267772Y-24734448D01*
X59421586Y-24703852D01*
X59578414Y-24703852D01*
X59732228Y-24734448D01*
G37*
G36*
X62732228Y-24734448D02*
G01*
X62877117Y-24794463D01*
X63007515Y-24881592D01*
X63118408Y-24992485D01*
X63205537Y-25122883D01*
X63265552Y-25267772D01*
X63296148Y-25421586D01*
X63296148Y-25578414D01*
X63265552Y-25732228D01*
X63205537Y-25877117D01*
X63118408Y-26007515D01*
X63007515Y-26118408D01*
X62877117Y-26205537D01*
X62732228Y-26265552D01*
X62578414Y-26296148D01*
X62421586Y-26296148D01*
X62267772Y-26265552D01*
X62122883Y-26205537D01*
X61992485Y-26118408D01*
X61881592Y-26007515D01*
X61794463Y-25877117D01*
X61734448Y-25732228D01*
X61703852Y-25578414D01*
X61703852Y-25421586D01*
X61734448Y-25267772D01*
X61794463Y-25122883D01*
X61881592Y-24992485D01*
X61992485Y-24881592D01*
X62122883Y-24794463D01*
X62267772Y-24734448D01*
X62421586Y-24703852D01*
X62578414Y-24703852D01*
X62732228Y-24734448D01*
G37*
G36*
X65732228Y-24734448D02*
G01*
X65877117Y-24794463D01*
X66007515Y-24881592D01*
X66118408Y-24992485D01*
X66205537Y-25122883D01*
X66265552Y-25267772D01*
X66296148Y-25421586D01*
X66296148Y-25578414D01*
X66265552Y-25732228D01*
X66205537Y-25877117D01*
X66118408Y-26007515D01*
X66007515Y-26118408D01*
X65877117Y-26205537D01*
X65732228Y-26265552D01*
X65578414Y-26296148D01*
X65421586Y-26296148D01*
X65267772Y-26265552D01*
X65122883Y-26205537D01*
X64992485Y-26118408D01*
X64881592Y-26007515D01*
X64794463Y-25877117D01*
X64734448Y-25732228D01*
X64703852Y-25578414D01*
X64703852Y-25421586D01*
X64734448Y-25267772D01*
X64794463Y-25122883D01*
X64881592Y-24992485D01*
X64992485Y-24881592D01*
X65122883Y-24794463D01*
X65267772Y-24734448D01*
X65421586Y-24703852D01*
X65578414Y-24703852D01*
X65732228Y-24734448D01*
G37*
G36*
X68732228Y-24734448D02*
G01*
X68877117Y-24794463D01*
X69007515Y-24881592D01*
X69118408Y-24992485D01*
X69205537Y-25122883D01*
X69265552Y-25267772D01*
X69296148Y-25421586D01*
X69296148Y-25578414D01*
X69265552Y-25732228D01*
X69205537Y-25877117D01*
X69118408Y-26007515D01*
X69007515Y-26118408D01*
X68877117Y-26205537D01*
X68732228Y-26265552D01*
X68578414Y-26296148D01*
X68421586Y-26296148D01*
X68267772Y-26265552D01*
X68122883Y-26205537D01*
X67992485Y-26118408D01*
X67881592Y-26007515D01*
X67794463Y-25877117D01*
X67734448Y-25732228D01*
X67703852Y-25578414D01*
X67703852Y-25421586D01*
X67734448Y-25267772D01*
X67794463Y-25122883D01*
X67881592Y-24992485D01*
X67992485Y-24881592D01*
X68122883Y-24794463D01*
X68267772Y-24734448D01*
X68421586Y-24703852D01*
X68578414Y-24703852D01*
X68732228Y-24734448D01*
G37*
G36*
X71732228Y-24734448D02*
G01*
X71877117Y-24794463D01*
X72007515Y-24881592D01*
X72118408Y-24992485D01*
X72205537Y-25122883D01*
X72265552Y-25267772D01*
X72296148Y-25421586D01*
X72296148Y-25578414D01*
X72265552Y-25732228D01*
X72205537Y-25877117D01*
X72118408Y-26007515D01*
X72007515Y-26118408D01*
X71877117Y-26205537D01*
X71732228Y-26265552D01*
X71578414Y-26296148D01*
X71421586Y-26296148D01*
X71267772Y-26265552D01*
X71122883Y-26205537D01*
X70992485Y-26118408D01*
X70881592Y-26007515D01*
X70794463Y-25877117D01*
X70734448Y-25732228D01*
X70703852Y-25578414D01*
X70703852Y-25421586D01*
X70734448Y-25267772D01*
X70794463Y-25122883D01*
X70881592Y-24992485D01*
X70992485Y-24881592D01*
X71122883Y-24794463D01*
X71267772Y-24734448D01*
X71421586Y-24703852D01*
X71578414Y-24703852D01*
X71732228Y-24734448D01*
G37*
G36*
X74732228Y-23234448D02*
G01*
X74877117Y-23294463D01*
X75007515Y-23381592D01*
X75118408Y-23492485D01*
X75205537Y-23622883D01*
X75265552Y-23767772D01*
X75296148Y-23921586D01*
X75296148Y-24078414D01*
X75265552Y-24232228D01*
X75205537Y-24377117D01*
X75118408Y-24507515D01*
X75007515Y-24618408D01*
X74877117Y-24705537D01*
X74732228Y-24765552D01*
X74578414Y-24796148D01*
X74421586Y-24796148D01*
X74267772Y-24765552D01*
X74122883Y-24705537D01*
X73992485Y-24618408D01*
X73881592Y-24507515D01*
X73794463Y-24377117D01*
X73734448Y-24232228D01*
X73703852Y-24078414D01*
X73703852Y-23921586D01*
X73734448Y-23767772D01*
X73794463Y-23622883D01*
X73881592Y-23492485D01*
X73992485Y-23381592D01*
X74122883Y-23294463D01*
X74267772Y-23234448D01*
X74421586Y-23203852D01*
X74578414Y-23203852D01*
X74732228Y-23234448D01*
G37*
G36*
X5373513Y-3444208D02*
G01*
X5612293Y-3521793D01*
X5835998Y-3635776D01*
X6039117Y-3783350D01*
X6216650Y-3960883D01*
X6364224Y-4164002D01*
X6478207Y-4387707D01*
X6555792Y-4626487D01*
X6595068Y-4874465D01*
X6595068Y-5125535D01*
X6555792Y-5373513D01*
X6478207Y-5612293D01*
X6364224Y-5835998D01*
X6216650Y-6039117D01*
X6039117Y-6216650D01*
X5835998Y-6364224D01*
X5612293Y-6478207D01*
X5373513Y-6555792D01*
X5125535Y-6595068D01*
X4874465Y-6595068D01*
X4626487Y-6555792D01*
X4387707Y-6478207D01*
X4164002Y-6364224D01*
X3960883Y-6216650D01*
X3783350Y-6039117D01*
X3635776Y-5835998D01*
X3521793Y-5612293D01*
X3444208Y-5373513D01*
X3404932Y-5125535D01*
X3404932Y-4874465D01*
X3444208Y-4626487D01*
X3521793Y-4387707D01*
X3635776Y-4164002D01*
X3783350Y-3960883D01*
X3960883Y-3783350D01*
X4164002Y-3635776D01*
X4387707Y-3521793D01*
X4626487Y-3444208D01*
X4874465Y-3404932D01*
X5125535Y-3404932D01*
X5373513Y-3444208D01*
G37*
G36*
X95373513Y-3444208D02*
G01*
X95612293Y-3521793D01*
X95835998Y-3635776D01*
X96039117Y-3783350D01*
X96216650Y-3960883D01*
X96364224Y-4164002D01*
X96478207Y-4387707D01*
X96555792Y-4626487D01*
X96595068Y-4874465D01*
X96595068Y-5125535D01*
X96555792Y-5373513D01*
X96478207Y-5612293D01*
X96364224Y-5835998D01*
X96216650Y-6039117D01*
X96039117Y-6216650D01*
X95835998Y-6364224D01*
X95612293Y-6478207D01*
X95373513Y-6555792D01*
X95125535Y-6595068D01*
X94874465Y-6595068D01*
X94626487Y-6555792D01*
X94387707Y-6478207D01*
X94164002Y-6364224D01*
X93960883Y-6216650D01*
X93783350Y-6039117D01*
X93635776Y-5835998D01*
X93521793Y-5612293D01*
X93444208Y-5373513D01*
X93404932Y-5125535D01*
X93404932Y-4874465D01*
X93444208Y-4626487D01*
X93521793Y-4387707D01*
X93635776Y-4164002D01*
X93783350Y-3960883D01*
X93960883Y-3783350D01*
X94164002Y-3635776D01*
X94387707Y-3521793D01*
X94626487Y-3444208D01*
X94874465Y-3404932D01*
X95125535Y-3404932D01*
X95373513Y-3444208D01*
G37*
M02*
