%TF.GenerationSoftware,KiCad,Pcbnew,10.0.5*%
%TF.CreationDate,2026-09-27T21:39:05+09:00*%
%TF.ProjectId,gba_dumper,6762615f-6475-46d7-9065-722e6b696361,rev?*%
%TF.SameCoordinates,Original*%
%TF.FileFunction,Copper,L4,Bot*%
%TF.FilePolarity,Positive*%
%FSLAX46Y46*%
G04 Gerber Fmt 4.6, Leading zero omitted, Abs format (unit mm)*
G04 Created by KiCad (PCBNEW 10.0.5) date 2026-09-27 21:39:05*
%MOMM*%
%LPD*%
G01*
G04 APERTURE LIST*
%TA.AperFunction,WasherPad*%
%ADD10O,2.000000X5.000000*%
%TD*%
%TA.AperFunction,ComponentPad*%
%ADD11R,1.400000X1.400000*%
%TD*%
%TA.AperFunction,ComponentPad*%
%ADD12C,1.600000*%
%TD*%
%TA.AperFunction,ComponentPad*%
%ADD13R,1.700000X1.700000*%
%TD*%
%TA.AperFunction,ComponentPad*%
%ADD14C,1.700000*%
%TD*%
%TA.AperFunction,ViaPad*%
%ADD15C,0.600000*%
%TD*%
%TA.AperFunction,Conductor*%
%ADD16C,0.250000*%
%TD*%
%TA.AperFunction,Conductor*%
%ADD17C,0.800000*%
%TD*%
G04 APERTURE END LIST*
D10*
%TO.P,J3,*%
%TO.N,*%
X12800000Y-25600000D03*
X82700000Y-25600000D03*
D11*
%TO.P,J3,1*%
%TO.N,/CART_3V3*%
X28000000Y-27000000D03*
D12*
%TO.P,J3,2*%
%TO.N,/CART_PHI*%
X29500000Y-25500000D03*
%TO.P,J3,3*%
%TO.N,/CART_nWR*%
X31000000Y-27000000D03*
%TO.P,J3,4*%
%TO.N,/CART_nRD*%
X32500000Y-25500000D03*
%TO.P,J3,5*%
%TO.N,/CART_nCS*%
X34000000Y-27000000D03*
%TO.P,J3,6*%
%TO.N,/CART_AD0*%
X35500000Y-25500000D03*
%TO.P,J3,7*%
%TO.N,/CART_AD1*%
X37000000Y-27000000D03*
%TO.P,J3,8*%
%TO.N,/CART_AD2*%
X38500000Y-25500000D03*
%TO.P,J3,9*%
%TO.N,/CART_AD3*%
X40000000Y-27000000D03*
%TO.P,J3,10*%
%TO.N,/CART_AD4*%
X41500000Y-25500000D03*
%TO.P,J3,11*%
%TO.N,/CART_AD5*%
X43000000Y-27000000D03*
%TO.P,J3,12*%
%TO.N,/CART_AD6*%
X44500000Y-25500000D03*
%TO.P,J3,13*%
%TO.N,/CART_AD7*%
X46000000Y-27000000D03*
%TO.P,J3,14*%
%TO.N,/CART_AD8*%
X47500000Y-25500000D03*
%TO.P,J3,15*%
%TO.N,/CART_AD9*%
X49000000Y-27000000D03*
%TO.P,J3,16*%
%TO.N,/CART_AD10*%
X50500000Y-25500000D03*
%TO.P,J3,17*%
%TO.N,/CART_AD11*%
X52000000Y-27000000D03*
%TO.P,J3,18*%
%TO.N,/CART_AD12*%
X53500000Y-25500000D03*
%TO.P,J3,19*%
%TO.N,/CART_AD13*%
X55000000Y-27000000D03*
%TO.P,J3,20*%
%TO.N,/CART_AD14*%
X56500000Y-25500000D03*
%TO.P,J3,21*%
%TO.N,/CART_AD15*%
X58000000Y-27000000D03*
%TO.P,J3,22*%
%TO.N,/CART_A16_D0*%
X59500000Y-25500000D03*
%TO.P,J3,23*%
%TO.N,/CART_A17_D1*%
X61000000Y-27000000D03*
%TO.P,J3,24*%
%TO.N,/CART_A18_D2*%
X62500000Y-25500000D03*
%TO.P,J3,25*%
%TO.N,/CART_A19_D3*%
X64000000Y-27000000D03*
%TO.P,J3,26*%
%TO.N,/CART_A20_D4*%
X65500000Y-25500000D03*
%TO.P,J3,27*%
%TO.N,/CART_A21_D5*%
X67000000Y-27000000D03*
%TO.P,J3,28*%
%TO.N,/CART_A22_D6*%
X68500000Y-25500000D03*
%TO.P,J3,29*%
%TO.N,/CART_A23_D7*%
X70000000Y-27000000D03*
%TO.P,J3,30*%
%TO.N,/CART_nCS2*%
X71500000Y-25500000D03*
%TO.P,J3,31*%
%TO.N,/CART_nREQ*%
X73000000Y-27000000D03*
%TO.P,J3,32*%
%TO.N,/GND*%
X74500000Y-24000000D03*
%TD*%
D13*
%TO.P,JP1,1*%
%TO.N,/WR_LINK*%
X32000000Y-72000000D03*
D14*
%TO.P,JP1,2*%
%TO.N,/CART_nWR*%
X32000000Y-74540000D03*
%TD*%
D13*
%TO.P,J2,1*%
%TO.N,unconnected-(J2-GPIO43-Pad1)*%
X83400000Y-46000000D03*
D14*
%TO.P,J2,2*%
%TO.N,unconnected-(J2-GPIO44-Pad2)*%
X83400000Y-48540000D03*
%TO.P,J2,3*%
%TO.N,/MCU_A16_D0*%
X83400000Y-51080000D03*
%TO.P,J2,4*%
%TO.N,/MCU_nRD*%
X83400000Y-53620000D03*
%TO.P,J2,5*%
%TO.N,/MCU_A23_D7*%
X83400000Y-56160000D03*
%TO.P,J2,6*%
%TO.N,/MCU_A22_D6*%
X83400000Y-58700000D03*
%TO.P,J2,7*%
%TO.N,/MCU_A21_D5*%
X83400000Y-61240000D03*
%TO.P,J2,8*%
%TO.N,/MCU_A20_D4*%
X83400000Y-63780000D03*
%TO.P,J2,9*%
%TO.N,/MCU_A19_D3*%
X83400000Y-66320000D03*
%TO.P,J2,10*%
%TO.N,unconnected-(J2-GPIO37-Pad10)*%
X83400000Y-68860000D03*
%TO.P,J2,11*%
%TO.N,unconnected-(J2-GPIO36-Pad11)*%
X83400000Y-71400000D03*
%TO.P,J2,12*%
%TO.N,unconnected-(J2-GPIO35-Pad12)*%
X83400000Y-73940000D03*
%TO.P,J2,13*%
%TO.N,unconnected-(J2-GPIO0-Pad13)*%
X83400000Y-76480000D03*
%TO.P,J2,14*%
%TO.N,unconnected-(J2-GPIO45-Pad14)*%
X83400000Y-79020000D03*
%TO.P,J2,15*%
%TO.N,/MCU_nWR*%
X83400000Y-81560000D03*
%TO.P,J2,16*%
%TO.N,/MCU_nCS*%
X83400000Y-84100000D03*
%TO.P,J2,17*%
%TO.N,/MCU_AD15*%
X83400000Y-86640000D03*
%TO.P,J2,18*%
%TO.N,/MCU_A18_D2*%
X83400000Y-89180000D03*
%TO.P,J2,19*%
%TO.N,/MCU_A17_D1*%
X83400000Y-91720000D03*
%TO.P,J2,20*%
%TO.N,/GND*%
X83400000Y-94260000D03*
%TD*%
D13*
%TO.P,JP2,1*%
%TO.N,/BOARD_3V3*%
X13000000Y-38000000D03*
D14*
%TO.P,JP2,2*%
%TO.N,/CART_3V3*%
X13000000Y-40540000D03*
%TD*%
D13*
%TO.P,J1,1*%
%TO.N,/BOARD_3V3*%
X58000000Y-46000000D03*
D14*
%TO.P,J1,2*%
%TO.N,unconnected-(J1-EN-Pad2)*%
X58000000Y-48540000D03*
%TO.P,J1,3*%
%TO.N,/MCU_AD0*%
X58000000Y-51080000D03*
%TO.P,J1,4*%
%TO.N,/MCU_AD1*%
X58000000Y-53620000D03*
%TO.P,J1,5*%
%TO.N,/MCU_AD2*%
X58000000Y-56160000D03*
%TO.P,J1,6*%
%TO.N,/MCU_AD3*%
X58000000Y-58700000D03*
%TO.P,J1,7*%
%TO.N,/MCU_AD11*%
X58000000Y-61240000D03*
%TO.P,J1,8*%
%TO.N,/MCU_AD12*%
X58000000Y-63780000D03*
%TO.P,J1,9*%
%TO.N,/MCU_AD13*%
X58000000Y-66320000D03*
%TO.P,J1,10*%
%TO.N,/MCU_AD14*%
X58000000Y-68860000D03*
%TO.P,J1,11*%
%TO.N,/MCU_AD4*%
X58000000Y-71400000D03*
%TO.P,J1,12*%
%TO.N,/MCU_nCS2*%
X58000000Y-73940000D03*
%TO.P,J1,13*%
%TO.N,unconnected-(J1-GPIO46-Pad13)*%
X58000000Y-76480000D03*
%TO.P,J1,14*%
%TO.N,/MCU_AD5*%
X58000000Y-79020000D03*
%TO.P,J1,15*%
%TO.N,/MCU_AD6*%
X58000000Y-81560000D03*
%TO.P,J1,16*%
%TO.N,/MCU_AD7*%
X58000000Y-84100000D03*
%TO.P,J1,17*%
%TO.N,/MCU_AD8*%
X58000000Y-86640000D03*
%TO.P,J1,18*%
%TO.N,/MCU_AD9*%
X58000000Y-89180000D03*
%TO.P,J1,19*%
%TO.N,/MCU_AD10*%
X58000000Y-91720000D03*
%TO.P,J1,20*%
%TO.N,unconnected-(J1-5V-Pad20)*%
X58000000Y-94260000D03*
%TD*%
D15*
%TO.N,/CART_3V3*%
X19087500Y-86358900D03*
%TO.N,/CART_PHI*%
X34588300Y-33000000D03*
%TO.N,/CART_nWR*%
X29291500Y-72036500D03*
%TO.N,/CART_nRD*%
X26962000Y-63261200D03*
X21276200Y-82762400D03*
%TO.N,/CART_nCS*%
X24678600Y-77725000D03*
X25276100Y-62000000D03*
%TO.N,/CART_AD0*%
X36934000Y-45934000D03*
%TO.N,/CART_AD1*%
X45832200Y-48921100D03*
%TO.N,/CART_AD2*%
X46005800Y-52093300D03*
%TO.N,/CART_AD3*%
X46023700Y-55111200D03*
%TO.N,/CART_AD4*%
X45977900Y-57957300D03*
%TO.N,/CART_AD5*%
X39784100Y-30731600D03*
X42440800Y-60314100D03*
%TO.N,/CART_AD6*%
X47762700Y-55042800D03*
X46016000Y-64103500D03*
%TO.N,/CART_AD7*%
X47808400Y-67104100D03*
X46943300Y-57736200D03*
%TO.N,/CART_AD8*%
X47164200Y-72221000D03*
%TO.N,/CART_AD9*%
X48254100Y-73834800D03*
%TO.N,/CART_AD10*%
X48604800Y-31703400D03*
X45442900Y-34689100D03*
X47824600Y-76085900D03*
%TO.N,/CART_AD11*%
X53810300Y-79298800D03*
%TO.N,/CART_AD12*%
X47280800Y-27948500D03*
X47812100Y-82100400D03*
%TO.N,/CART_AD13*%
X48974600Y-86000000D03*
%TO.N,/CART_AD14*%
X59825100Y-85370000D03*
%TO.N,/CART_AD15*%
X42633000Y-90931500D03*
X35268900Y-28701200D03*
%TO.N,/CART_A16_D0*%
X96600000Y-49000000D03*
X96600000Y-38000000D03*
%TO.N,/CART_A17_D1*%
X91851500Y-50790800D03*
%TO.N,/CART_A18_D2*%
X95973200Y-57000000D03*
%TO.N,/CART_A19_D3*%
X94912500Y-59789800D03*
%TO.N,/CART_A20_D4*%
X93998200Y-64085700D03*
%TO.N,/CART_A21_D5*%
X94061400Y-68069100D03*
%TO.N,/CART_A22_D6*%
X94184700Y-71932300D03*
%TO.N,/CART_A23_D7*%
X94000000Y-79048400D03*
%TO.N,/CART_nCS2*%
X32826200Y-31808600D03*
X28866700Y-74000000D03*
%TO.N,/GND*%
X22950000Y-35000000D03*
X28950000Y-35000000D03*
X37912500Y-35000000D03*
X7000000Y-50000000D03*
%TO.N,/MCU_A23_D7*%
X92181800Y-76094300D03*
%TO.N,/MCU_AD13*%
X46174800Y-84912700D03*
%TO.N,/MCU_AD7*%
X45979700Y-68889300D03*
%TO.N,/MCU_AD10*%
X45978100Y-77887400D03*
%TO.N,/MCU_AD6*%
X45981200Y-65890600D03*
%TO.N,/MCU_A21_D5*%
X90449300Y-67339300D03*
%TO.N,/MCU_A22_D6*%
X90901000Y-72170600D03*
%TO.N,/MCU_nCS*%
X50161500Y-73352500D03*
X20517300Y-63750300D03*
%TO.N,/MCU_A18_D2*%
X91352800Y-57910000D03*
%TO.N,/MCU_A17_D1*%
X91804500Y-53906600D03*
%TO.N,/MCU_AD4*%
X46746200Y-60612000D03*
%TO.N,/MCU_AD5*%
X45995300Y-62906200D03*
%TO.N,/MCU_AD12*%
X46000000Y-82087500D03*
%TO.N,/MCU_AD11*%
X60293400Y-80288400D03*
%TO.N,/MCU_AD14*%
X45978100Y-88109400D03*
%TO.N,/MCU_AD8*%
X45978100Y-71890600D03*
%TO.N,/MCU_AD9*%
X45707000Y-75161700D03*
%TD*%
%TO.N,/CART_AD5*%
D16*
X43000000Y-27515700D02*
X43000000Y-27000000D01*
X39784100Y-30731600D02*
X43000000Y-27515700D01*
%TO.N,/CART_AD6*%
X46622100Y-61729600D02*
X46622100Y-63497400D01*
X47762700Y-55042800D02*
X45351100Y-57454400D01*
X45351100Y-60458600D02*
X46622100Y-61729600D01*
X45351100Y-57454400D02*
X45351100Y-60458600D01*
X46622100Y-63497400D02*
X46016000Y-64103500D01*
%TO.N,/CART_AD7*%
X47808400Y-58601300D02*
X46943300Y-57736200D01*
X47808400Y-67104100D02*
X47808400Y-58601300D01*
%TO.N,/CART_A16_D0*%
X96600000Y-25100000D02*
X96600000Y-49000000D01*
X92500000Y-21000000D02*
X96600000Y-25100000D01*
X59500000Y-25500000D02*
X59500000Y-21000000D01*
X59500000Y-21000000D02*
X92500000Y-21000000D01*
%TO.N,/GND*%
D17*
X44062300Y-28850200D02*
X73160000Y-28850200D01*
X37912500Y-35000000D02*
X28950000Y-35000000D01*
X74500000Y-27510200D02*
X74500000Y-24000000D01*
X73160000Y-28850200D02*
X74500000Y-27510200D01*
X37912500Y-35000000D02*
X44062300Y-28850200D01*
%TO.N,/MCU_AD13*%
D16*
X53136500Y-77951000D02*
X53136500Y-71183500D01*
X53136500Y-71183500D02*
X58000000Y-66320000D01*
X46174800Y-84912700D02*
X53136500Y-77951000D01*
%TO.N,/MCU_A21_D5*%
X83400000Y-61240000D02*
X84350000Y-61240000D01*
X84350000Y-61240000D02*
X90449300Y-67339300D01*
%TO.N,/MCU_nCS*%
X29508800Y-73208100D02*
X20517300Y-64216600D01*
X20517300Y-64216600D02*
X20517300Y-63750300D01*
X50161500Y-73352500D02*
X50017100Y-73208100D01*
X50017100Y-73208100D02*
X29508800Y-73208100D01*
%TO.N,/BOARD_3V3*%
D17*
X58000000Y-46000000D02*
X56548300Y-46000000D01*
X13000000Y-38000000D02*
X14451700Y-38000000D01*
X55519500Y-44971200D02*
X21422900Y-44971200D01*
X56548300Y-46000000D02*
X55519500Y-44971200D01*
X21422900Y-44971200D02*
X14451700Y-38000000D01*
%TO.N,/MCU_AD12*%
D16*
X58000000Y-63780000D02*
X50788200Y-70991800D01*
X50788200Y-77299300D02*
X46000000Y-82087500D01*
X50788200Y-70991800D02*
X50788200Y-77299300D01*
%TO.N,/MCU_AD14*%
X58000000Y-68860000D02*
X54695500Y-72164500D01*
X54695500Y-72164500D02*
X54695500Y-79392000D01*
X54695500Y-79392000D02*
X45978100Y-88109400D01*
%TD*%
M02*
