M48
; DRILL file KiCad 10.0.5 date 2026-09-27T21:39:05
; FORMAT={-:-/ absolute / metric / decimal}
; #@! TF.CreationDate,2026-09-27T21:39:05+09:00
; #@! TF.GenerationSoftware,Kicad,Pcbnew,10.0.5
; #@! TF.FileFunction,Plated,1,4,PTH
FMAT,2
METRIC
; #@! TA.AperFunction,Plated,PTH,ViaDrill
T1C0.300
; #@! TA.AperFunction,Plated,PTH,ComponentDrill
T2C1.000
; #@! TA.AperFunction,Plated,PTH,ComponentDrill
T3C1.020
%
G90
G05
T1
X7.0Y-50.0
X19.087Y-86.359
X20.517Y-63.75
X21.276Y-82.762
X22.95Y-35.0
X24.679Y-77.725
X25.276Y-62.0
X26.962Y-63.261
X28.867Y-74.0
X28.95Y-35.0
X29.291Y-72.037
X32.826Y-31.809
X34.588Y-33.0
X35.269Y-28.701
X36.934Y-45.934
X37.913Y-35.0
X39.784Y-30.732
X42.441Y-60.314
X42.633Y-90.931
X45.443Y-34.689
X45.707Y-75.162
X45.832Y-48.921
X45.978Y-57.957
X45.978Y-71.891
X45.978Y-77.887
X45.978Y-88.109
X45.98Y-68.889
X45.981Y-65.891
X45.995Y-62.906
X46.0Y-82.087
X46.006Y-52.093
X46.016Y-64.103
X46.024Y-55.111
X46.175Y-84.913
X46.746Y-60.612
X46.943Y-57.736
X47.164Y-72.221
X47.281Y-27.948
X47.763Y-55.043
X47.808Y-67.104
X47.812Y-82.1
X47.825Y-76.086
X48.254Y-73.835
X48.605Y-31.703
X48.975Y-86.0
X50.161Y-73.352
X53.81Y-79.299
X59.825Y-85.37
X60.293Y-80.288
X90.449Y-67.339
X90.901Y-72.171
X91.353Y-57.91
X91.804Y-53.907
X91.852Y-50.791
X92.182Y-76.094
X93.998Y-64.086
X94.0Y-79.048
X94.061Y-68.069
X94.185Y-71.932
X94.912Y-59.79
X95.973Y-57.0
X96.6Y-38.0
X96.6Y-49.0
T2
X28.0Y-27.0
X29.5Y-25.5
X31.0Y-27.0
X32.5Y-25.5
X34.0Y-27.0
X35.5Y-25.5
X37.0Y-27.0
X38.5Y-25.5
X40.0Y-27.0
X41.5Y-25.5
X43.0Y-27.0
X44.5Y-25.5
X46.0Y-27.0
X47.5Y-25.5
X49.0Y-27.0
X50.5Y-25.5
X52.0Y-27.0
X53.5Y-25.5
X55.0Y-27.0
X56.5Y-25.5
X58.0Y-27.0
X59.5Y-25.5
X61.0Y-27.0
X62.5Y-25.5
X64.0Y-27.0
X65.5Y-25.5
X67.0Y-27.0
X68.5Y-25.5
X70.0Y-27.0
X71.5Y-25.5
X73.0Y-27.0
X74.5Y-24.0
T3
X13.0Y-38.0
X13.0Y-40.54
X32.0Y-72.0
X32.0Y-74.54
X58.0Y-46.0
X58.0Y-48.54
X58.0Y-51.08
X58.0Y-53.62
X58.0Y-56.16
X58.0Y-58.7
X58.0Y-61.24
X58.0Y-63.78
X58.0Y-66.32
X58.0Y-68.86
X58.0Y-71.4
X58.0Y-73.94
X58.0Y-76.48
X58.0Y-79.02
X58.0Y-81.56
X58.0Y-84.1
X58.0Y-86.64
X58.0Y-89.18
X58.0Y-91.72
X58.0Y-94.26
X83.4Y-46.0
X83.4Y-48.54
X83.4Y-51.08
X83.4Y-53.62
X83.4Y-56.16
X83.4Y-58.7
X83.4Y-61.24
X83.4Y-63.78
X83.4Y-66.32
X83.4Y-68.86
X83.4Y-71.4
X83.4Y-73.94
X83.4Y-76.48
X83.4Y-79.02
X83.4Y-81.56
X83.4Y-84.1
X83.4Y-86.64
X83.4Y-89.18
X83.4Y-91.72
X83.4Y-94.26
M30
